<svg width="125" height="119" viewBox="0 0 125 119" fill="none" xmlns="http://www.w3.org/2000/svg">
<path d="M65.8553 11.8806L64.9459 12.2966L64.9581 12.3231L64.9717 12.3489L65.8553 11.8806ZM62.6658 1L63.6558 0.858705L61.6711 0.89679L62.6658 1ZM66.9393 15.7785L67.9378 15.7223V15.7223L66.9393 15.7785ZM66.2993 19.7771L65.3685 19.4115L64.8322 20.7771H66.2993V19.7771ZM66.3979 19.7771V20.7771H66.7701L67.0518 20.5336L66.3979 19.7771ZM68.042 16.9437L69.0045 16.6727L67.0613 16.7479L68.042 16.9437ZM68.042 26.1981L67.0794 25.9271L66.3031 28.6838L68.6266 27.0094L68.042 26.1981ZM70.0971 23.4654L71.039 23.1295L70.103 20.5048L69.1565 23.1258L70.0971 23.4654ZM69.9327 34.0275L68.9759 33.7368L68.0772 36.6944L70.5379 34.8236L69.9327 34.0275ZM72.0371 31.4457L73.0253 31.2925L72.5326 28.1141L71.1363 31.0115L72.0371 31.4457ZM70.7219 40.9348L69.813 40.5178L68.5412 43.2897L71.2074 41.809L70.7219 40.9348ZM72.9249 39.0571L73.924 39.0145L73.8093 36.3199L72.1396 38.438L72.9249 39.0571ZM71.5275 49.6192L70.5739 49.3179L69.8819 51.5086L71.9568 50.5223L71.5275 49.6192ZM73.6155 47.4565L74.6139 47.3999L72.6997 47.0548L73.6155 47.4565ZM70.9191 58.2365L70.0184 57.8021L68.6098 60.7227L71.4187 59.1028L70.9191 58.2365ZM73.8785 55.8894L74.8703 56.0171L75.2654 52.9503L73.1493 55.205L73.8785 55.8894ZM70.1793 65.8311L69.346 65.2784L68.2252 66.9682L70.2481 66.8288L70.1793 65.8311ZM73.5661 64.6576L74.5638 64.7262L74.7049 62.6751L73.0042 63.8304L73.5661 64.6576ZM68.7654 75.7897L67.9907 75.1574L66.0593 77.5236L69.0161 76.7577L68.7654 75.7897ZM71.5932 74.2305L72.4568 74.7347L70.9099 73.5004L71.5932 74.2305ZM70.714 75.798L69.8369 75.3178L69.6606 75.6398L69.7345 75.9994L70.714 75.798ZM71.9404 78.7407L71.109 79.2964L72.6934 81.667L72.9367 78.8261L71.9404 78.7407ZM75.9006 68.1082L76.8829 67.9212L76.4871 65.8423L75.1323 67.4681L75.9006 68.1082ZM77.3435 71.1843L76.5743 71.8233L77.9407 73.468L78.3271 71.365L77.3435 71.1843ZM81.2717 62.0731L82.2715 62.0913L82.3286 58.9557L80.4669 61.4795L81.2717 62.0731ZM81.7046 65.6507L80.738 65.9073L81.6091 69.189L82.6559 65.959L81.7046 65.6507ZM86.7871 56.6733L87.7319 57.0009L86.1061 55.9409L86.7871 56.6733ZM86.7871 59.5153L85.8423 59.8429L86.6182 62.0808L87.6808 59.9639L86.7871 59.5153ZM92.6873 51.6078L93.6823 51.7081L93.9491 49.0604L92.0046 50.8771L92.6873 51.6078ZM92.9278 54.3495L91.9656 54.622L92.8295 57.6725L93.8722 54.6784L92.9278 54.3495ZM98.1065 47.1609L99.0637 47.4501L99.9565 44.4958L97.5008 46.3652L98.1065 47.1609ZM97.882 50.1701L96.8924 50.3135L97.3473 53.4514L98.7749 50.6203L97.882 50.1701ZM104.504 43.065L105.418 43.4694L106.514 40.9918L104.071 42.1634L104.504 43.065ZM104.103 46.2581L103.116 46.4221L103.597 49.3119L104.984 46.7315L104.103 46.2581ZM110.003 40.1561L110.85 40.6876L109.506 39.2885L110.003 40.1561ZM109.266 43.1486H110.266V43.112L110.263 43.0755L109.266 43.1486ZM109.266 43.2489H108.266L110.183 43.6478L109.266 43.2489ZM111.427 40.1639L110.741 39.4361H110.741L111.427 40.1639ZM114.589 38.2336L114.281 37.2822L114.269 37.286L114.258 37.29L114.589 38.2336ZM123.583 33.2182L124.398 33.7984L122.938 32.4544L123.583 33.2182ZM118.773 42.5802L117.828 42.2545L117.818 42.2818L117.811 42.3095L118.773 42.5802ZM117.011 45.9044L116.249 45.2571V45.2571L117.011 45.9044ZM114.06 48.1305L113.65 47.2181L114.06 49.1305V48.1305ZM114.156 48.1305L114.225 47.1329L114.19 47.1305H114.156V48.1305ZM117.01 47.3447L117.895 47.8093L116.444 46.5204L117.01 47.3447ZM111.158 53.5136L110.652 52.6505L108.293 54.0316L110.987 54.4989L111.158 53.5136ZM114.22 53.0789L115.137 53.4783L116.217 50.9989L113.783 52.1792L114.22 53.0789ZM107.406 59.9834L106.928 59.1046L104.361 60.4991L107.244 60.9703L107.406 59.9834ZM110.292 59.7661L111.108 60.3438L112.842 57.8939L109.985 58.8142L110.292 59.7661ZM103.301 65.1325L102.961 64.1922L100.203 65.1909L102.996 66.0849L103.301 65.1325ZM105.915 65.3832L106.668 66.0406L108.377 64.0813L105.796 64.3903L105.915 65.3832ZM98.2989 71.4518L97.8287 70.5692L95.9063 71.5934L97.9361 72.3837L98.2989 71.4518ZM101.025 71.4518L101.785 72.1017L100.662 70.5199L101.025 71.4518ZM92.4308 76.7513L92.0976 75.8084L89.2088 76.8291L92.1435 77.7092L92.4308 76.7513ZM95.8458 77.2027L96.4721 77.9823L98.795 76.1165L95.8168 76.2031L95.8458 77.2027ZM87.1238 81.3153L86.9241 80.3354L84.9749 80.7326L86.4565 82.0601L87.1238 81.3153ZM90.0579 82.8032L90.7293 83.5443L92.1888 82.222L90.26 81.8238L90.0579 82.8032ZM79.8608 86.9492L79.7654 85.9537L76.8236 86.2354L79.332 87.798L79.8608 86.9492ZM82.6986 87.8352L82.953 88.8023L82.7438 86.8362L82.6986 87.8352ZM62.6698 96.6414L62.0287 95.874L61.7183 96.1333L61.6754 96.5355L62.6698 96.6414ZM62.6658 96.6792L61.6751 96.8151L63.6602 96.785L62.6658 96.6792ZM62.6616 96.6483L63.6523 96.5124L63.4061 94.718L62.0187 95.8823L62.6616 96.6483ZM62.6251 96.6789L61.6636 96.4042L61.5466 96.8136L61.7607 97.1817L62.6251 96.6789ZM62.6593 96.6321L63.4655 97.2237L63.7057 96.8964L63.6498 96.4944L62.6593 96.6321ZM55.1982 77.9122L56.0751 77.4316L54.2292 78.1593L55.1982 77.9122ZM42.5307 87.8373L42.4846 86.8383L42.2767 88.8045L42.5307 87.8373ZM45.3577 86.9514L45.8876 87.7995L48.3891 86.2366L45.4528 85.956L45.3577 86.9514ZM35.1418 82.8065L34.9434 81.8264L33.0013 82.2196L34.4712 83.5483L35.1418 82.8065ZM38.0973 81.319L38.7631 82.0652L40.2544 80.7345L38.2953 80.3388L38.0973 81.319ZM29.3592 77.2076L29.3868 76.2079L26.4168 76.1258L28.7327 77.987L29.3592 77.2076ZM32.7805 76.7563L33.0659 77.7147L36.0196 76.8351L33.1122 75.8129L32.7805 76.7563ZM24.1549 71.4581L24.5155 70.5255L23.3956 72.1089L24.1549 71.4581ZM26.8855 71.4581L27.2462 72.3908L29.2818 71.6037L27.3564 70.576L26.8855 71.4581ZM19.2557 65.3912L19.3762 64.3985L16.7784 64.0832L18.5039 66.0506L19.2557 65.3912ZM21.89 65.1405L22.195 66.0929L24.9416 65.2134L22.2401 64.2038L21.89 65.1405ZM14.983 59.7588L15.2854 58.8056L12.4671 57.9115L14.1641 60.3327L14.983 59.7588ZM17.8904 59.9761L18.0483 60.9635L20.9533 60.4988L18.3669 59.0969L17.8904 59.9761ZM11.0637 53.0734L11.5003 52.1738L9.06368 50.9912L10.1472 53.4735L11.0637 53.0734ZM14.1156 53.508L14.2858 54.4934L16.9873 54.027L14.6199 52.6445L14.1156 53.508ZM8.25271 47.3408L8.81438 46.5134L7.36757 47.8061L8.25271 47.3408ZM11.128 48.1263V47.1263H11.0944L11.0609 47.1285L11.128 48.1263ZM11.2243 48.1263V49.1263L11.6333 47.2137L11.2243 48.1263ZM8.26214 45.9001L9.02259 45.2507L9.02259 45.2507L8.26214 45.9001ZM6.48582 42.5774L7.44738 42.3029L7.43993 42.2768L7.43108 42.2511L6.48582 42.5774ZM1.66699 33.218L2.30861 32.4509L0.853052 33.7989L1.66699 33.218ZM10.7746 38.232L11.1042 37.2878L11.0907 37.2832L11.0772 37.2789L10.7746 38.232ZM13.9372 40.1601L14.6233 39.4326L13.9372 40.1601ZM16.0913 43.246L15.1731 43.6421L17.0913 43.246H16.0913ZM16.0913 43.1457L15.0933 43.0837L15.0913 43.1147V43.1457H16.0913ZM15.3364 40.154L15.831 39.2849L14.4892 40.6853L15.3364 40.154ZM21.2636 46.2544L20.3834 46.7291L21.7699 49.2995L22.25 46.4188L21.2636 46.2544ZM20.862 43.0621L21.2937 42.1601L18.8504 40.9907L19.9477 43.4672L20.862 43.0621ZM27.4798 50.1653L26.5862 50.6141L28.0064 53.4419L28.4691 50.3115L27.4798 50.1653ZM27.271 47.1569L27.8755 46.3603L25.4547 44.5234L26.3116 47.4389L27.271 47.1569ZM32.4432 54.3437L31.498 54.67L32.5167 57.6212L33.4022 54.6273L32.4432 54.3437ZM32.6842 51.6027L33.3787 50.8833L31.381 48.9545L31.6904 51.7141L32.6842 51.6027ZM38.3865 59.458L37.4883 59.8975L38.5284 62.0229L39.3277 59.7957L38.3865 59.458ZM38.3865 56.6167L39.0648 55.8819L37.4452 56.9544L38.3865 56.6167ZM43.4783 65.5918L42.5265 65.8984L43.5533 69.0859L44.4425 65.8573L43.4783 65.5918ZM43.9281 62.0151L44.7335 61.4224L42.8713 58.8919L42.9283 62.0333L43.9281 62.0151ZM47.8796 71.1907L46.896 71.3716L47.2821 73.4713L48.6481 71.8306L47.8796 71.1907ZM49.3252 68.1155L50.0943 67.4763L48.74 65.8469L48.3429 67.928L49.3252 68.1155ZM53.2927 78.7452L52.2966 78.8331L52.5458 81.6572L54.1235 79.3017L53.2927 78.7452ZM54.3687 76.4234L55.33 76.6991L55.4457 76.2957L55.2388 75.9306L54.3687 76.4234ZM53.1301 74.2976L53.7231 73.4924L52.2763 74.8182L53.1301 74.2976ZM56.5827 75.7897L56.404 76.7736L59.072 77.2581L57.3574 75.1574L56.5827 75.7897ZM51.7819 64.6576L52.3487 63.8337L50.642 62.6595L50.7843 64.7262L51.7819 64.6576ZM55.0701 65.8311L54.9888 66.8278L57.0422 66.9953L55.9035 65.2784L55.0701 65.8311ZM51.3709 55.8894L52.0963 55.201L49.9877 52.9789L50.3791 56.0171L51.3709 55.8894ZM54.3467 58.2365L53.847 59.1027L56.6672 60.7297L55.2465 57.8001L54.3467 58.2365ZM51.634 47.4565L52.5469 47.0484L50.6356 47.3999L51.634 47.4565ZM53.7219 49.6192L53.2862 50.5192L55.3752 51.5306L54.6754 49.3176L53.7219 49.6192ZM52.3409 39.0571L53.1262 38.438L51.4652 36.3308L51.342 39.0112L52.3409 39.0571ZM54.544 40.9348L54.0585 41.809L56.6695 43.2591L55.458 40.5292L54.544 40.9348ZM53.3438 31.4457L54.2359 30.9939L52.8588 28.2743L52.3574 31.2812L53.3438 31.4457ZM55.3989 33.8934L54.8012 34.6951L57.2507 36.5213L56.355 33.6002L55.3989 33.8934ZM55.2509 23.3313L56.1919 22.9927L55.2561 20.3918L54.3112 22.9895L55.2509 23.3313ZM57.2896 26.064L56.6996 26.8714L59.0368 28.5793L58.2522 25.793L57.2896 26.064ZM57.2896 16.8096L58.2687 16.6062L56.327 16.5385L57.2896 16.8096ZM58.9337 19.6429L58.2738 20.3943L58.5569 20.6429H58.9337V19.6429ZM59.0324 19.6429V20.6429H60.4543L59.9734 19.3048L59.0324 19.6429ZM58.4562 15.6458L59.4546 15.704V15.704L58.4562 15.6458ZM59.4927 11.7465L58.6018 11.2922L58.5976 11.3006L59.4927 11.7465ZM62.7517 97.147L62.5915 96.1599L62.5915 96.1599L62.7517 97.147ZM62.8786 97.1256L63.0509 98.1106L64.4332 97.8689L63.7535 96.6412L62.8786 97.1256ZM63.2408 97.0562L62.732 97.9171L63.0652 98.114L63.4442 98.0353L63.2408 97.0562ZM75.9985 90.9298L76.8316 91.4829L75.4433 90.0981L75.9985 90.9298ZM75.1145 93.1868L74.128 93.0227L73.6709 95.7706L75.7713 93.9408L75.1145 93.1868ZM81.769 90.0511L82.6133 90.5871L83.7994 88.719L81.6135 89.0633L81.769 90.0511ZM81.0618 92.2564L80.0636 92.1961L79.9364 94.3037L81.6476 93.0669L81.0618 92.2564ZM87.0091 89.8443L87.7267 90.5409L89.7574 88.4488L86.8702 88.854L87.0091 89.8443ZM85.6107 91.7912L84.7228 91.3311L83.267 94.1406L86.0729 92.678L85.6107 91.7912ZM92.0402 90.0683L92.4807 90.9661L92.0002 89.0691L92.0402 90.0683ZM90.7543 91.4294L89.8394 91.0257L88.915 93.1206L91.08 92.3749L90.7543 91.4294ZM97.0714 90.5163L97.7209 91.2766L99.6444 89.6333L97.1172 89.5173L97.0714 90.5163ZM95.9462 91.9635L95.0516 91.5166L93.7086 94.2051L96.3947 92.8573L95.9462 91.9635ZM101.604 91.1021L102.098 91.9715L104.543 90.5822L101.77 90.1159L101.604 91.1021ZM100.158 92.4459L99.3307 91.8835L97.688 94.2981L100.466 93.3972L100.158 92.4459ZM106.458 92.3426L106.836 93.2687L109.505 92.1817L106.736 91.3818L106.458 92.3426ZM104.851 93.6864L104.013 93.1411L102.501 95.465L105.148 94.6413L104.851 93.6864ZM110.381 93.6864L110.599 94.6624L114.257 93.8451L110.678 92.7316L110.381 93.6864ZM108.677 94.7546L107.901 94.1231L105.509 97.0593L109.039 95.6866L108.677 94.7546ZM111.068 94.38L111.006 95.3781L111.068 94.38ZM113.402 95.0475L113.901 94.1807L113.888 94.1732L113.875 94.1661L113.402 95.0475ZM119.832 97.2012L119.985 98.1893L119.953 96.2085L119.832 97.2012ZM113.402 99.2859L112.949 98.3948L112.926 98.4065L112.903 98.4195L113.402 99.2859ZM111.07 99.9928L111.008 98.9947H111.008L111.07 99.9928ZM108.677 99.5788L109.068 98.6586L107.901 100.21L108.677 99.5788ZM110.381 100.647L110.678 101.602L114.257 100.488L110.599 99.6711L110.381 100.647ZM104.851 100.647L105.148 99.6922L102.501 98.8685L104.013 101.192L104.851 100.647ZM106.458 101.991L106.736 102.952L109.505 102.152L106.836 101.065L106.458 101.991ZM100.158 101.888L100.466 100.936L97.688 100.035L99.3307 102.45L100.158 101.888ZM101.604 103.231L101.77 104.218L104.543 103.751L102.098 102.362L101.604 103.231ZM95.9462 102.37L96.3947 101.476L93.7086 100.128L95.0516 102.817L95.9462 102.37ZM97.0714 103.817L97.1172 104.816L99.6444 104.7L97.7209 103.057L97.0714 103.817ZM90.7543 102.904L91.08 101.959L88.915 101.213L89.8394 103.308L90.7543 102.904ZM92.0402 104.265L92.0002 105.264L92.4807 103.367L92.0402 104.265ZM85.6107 102.542L86.0729 101.655L83.2669 100.193L84.7228 103.002L85.6107 102.542ZM87.0091 104.489L86.8702 105.479L89.7574 105.885L87.7267 103.793L87.0091 104.489ZM81.0618 102.077L81.6476 101.267L79.9364 100.03L80.0636 102.137L81.0618 102.077ZM81.769 104.282L81.6135 105.27L83.7994 105.614L82.6133 103.746L81.769 104.282ZM75.1145 101.147L75.7713 100.393L73.4332 98.3557L74.1409 101.375L75.1145 101.147ZM76.0468 103.007L75.5134 103.853L76.8083 102.359L76.0468 103.007ZM63.81 97.3815L64.0322 96.4065L63.3266 98.2569L63.81 97.3815ZM69.2637 99.5027L69.4355 100.488L69.4972 98.5303L69.2637 99.5027ZM68.2339 99.9648L67.6173 99.1775L65.6759 100.698L68.1279 100.959L68.2339 99.9648ZM71.5453 101.351L71.7484 102.33L73.82 101.901L72.1729 100.573L71.5453 101.351ZM70.5946 101.865L69.8942 101.151L68.5552 102.465L70.3927 102.844L70.5946 101.865ZM73.4307 103.234L73.4101 104.234L76.2872 104.293L74.0669 102.462L73.4307 103.234ZM72.3216 103.388L72.0303 102.431L69.1075 103.321L71.991 104.332L72.3216 103.388ZM75.126 105.099L74.7734 106.035L75.8101 104.37L75.126 105.099ZM74.2388 105.099L73.8861 104.163L71.8743 104.922L73.7504 105.972L74.2388 105.099ZM76.7105 107.153L76.4886 108.128L79.393 108.789L77.4758 106.509L76.7105 107.153ZM75.8549 107.153L75.633 106.178L72.4544 106.901L75.4918 108.085L75.8549 107.153ZM78.0889 108.967L77.8448 109.937L80.3725 110.573L78.919 108.41L78.0889 108.967ZM77.1541 108.967L76.91 107.997L74.5343 108.595L76.6498 109.831L77.1541 108.967ZM79.3722 111.295L78.9102 112.182L81.7839 113.679L80.2537 110.823L79.3722 111.295ZM78.3741 111.158L78.1635 110.18L75.6686 110.718L77.8644 112.018L78.3741 111.158ZM80.2754 113.229L79.7161 114.058L82.8607 116.179L81.1706 112.783L80.2754 113.229ZM79.3406 112.972L79.2754 111.974L78.918 113.878L79.3406 112.972ZM80.3172 113.722L79.555 114.369L79.5551 114.369L80.3172 113.722ZM80.925 114.838L81.8995 114.613L81.8914 114.578L81.8806 114.543L80.925 114.838ZM82.3192 118.158L81.6922 118.937L83.1597 117.616L82.3192 118.158ZM79.4039 116.446L79.7759 115.518L79.7463 115.506L79.7159 115.496L79.4039 116.446ZM78.3603 115.803L79.0642 115.092L79.0642 115.092L78.3603 115.803ZM77.6769 114.735L78.6145 114.387L76.6778 114.692L77.6769 114.735ZM77.9304 115.745L77.4253 116.608L78.7877 115.23L77.9304 115.745ZM75.9975 113.691L76.8841 113.228L75.4535 110.486L75.0079 113.547L75.9975 113.691ZM76.1242 114.769L75.5942 115.617L78.1921 117.241L77.0524 114.397L76.1242 114.769ZM73.9853 112.373L74.8827 111.932L73.639 109.402L73.0105 112.15L73.9853 112.373ZM73.9853 113.383L73.3684 114.17L75.5893 115.911L74.9601 113.16L73.9853 113.383ZM72.3058 110.97L73.2543 110.653L72.0512 107.05L71.3243 110.778L72.3058 110.97ZM72.3058 111.894L71.6037 112.606L73.9062 114.876L73.2873 111.702L72.3058 111.894ZM70.4204 109.207L71.3268 108.785L70.2832 106.544L69.4753 108.88L70.4204 109.207ZM70.4204 110.165L69.6444 110.796L71.3654 109.838L70.4204 110.165ZM68.836 107.153L69.7939 106.866L68.7205 103.282L67.8626 106.924L68.836 107.153ZM68.7092 108.351L67.8973 108.935L69.7732 111.543L69.709 108.331L68.7092 108.351ZM67.4258 105.287L68.4104 105.113L68.0246 102.939L66.6451 104.663L67.4258 105.287ZM66.9505 106.314L66.1239 106.877L67.4611 108.842L67.9308 106.512L66.9505 106.314ZM65.6671 102.737L66.6624 102.64L66.3529 99.4805L64.7957 102.247L65.6671 102.737ZM65.3819 103.73L64.4063 103.949L66.3806 103.781L65.3819 103.73ZM62.925 97.2097L63.8018 96.7288L63.5656 96.2981L63.0804 96.2218L62.925 97.2097ZM62.3493 97.2118L62.1749 96.2272L61.6809 96.3147L61.4557 96.763L62.3493 97.2118ZM60.0355 103.902L59.0457 104.044L61.015 104.103L60.0355 103.902ZM59.6274 102.781L60.4743 102.249L58.9146 99.7659L58.6321 102.685L59.6274 102.781ZM58.3407 106.384L57.3552 106.554L57.775 108.993L59.1674 106.947L58.3407 106.384ZM57.8856 105.35L58.671 104.731L57.2984 102.989L56.9017 105.171L57.8856 105.35ZM56.6145 108.435L55.6147 108.416L55.5518 111.713L57.4352 109.007L56.6145 108.435ZM56.4732 107.229L57.4414 106.978L56.5304 103.454L55.5131 106.949L56.4732 107.229ZM54.904 110.263L53.9573 109.941L55.6831 110.89L54.904 110.263ZM54.904 109.297L55.8507 108.975L55.049 106.618L53.9975 108.875L54.904 109.297ZM53.0366 112.004L52.0395 111.927L51.8285 114.658L53.7495 112.705L53.0366 112.004ZM52.9581 111.073L53.9279 110.829L53.091 107.499L52.009 110.758L52.9581 111.073ZM51.279 113.503L50.3001 113.299L49.7384 115.99L51.8979 114.289L51.279 113.503ZM51.279 112.486L52.2579 112.282L51.6644 109.438L50.3818 112.045L51.279 112.486ZM49.1448 114.9L48.2292 114.498L46.908 117.507L49.6813 115.744L49.1448 114.9ZM49.2704 113.814L50.2543 113.635L49.7264 110.727L48.3801 113.358L49.2704 113.814ZM47.3716 115.882L46.5177 115.362L47.8895 116.738L47.3716 115.882ZM47.6069 114.865L48.6034 114.781L46.6796 114.491L47.6069 114.865ZM45.8964 116.589L46.1801 117.548L46.2153 117.538L46.2497 117.525L45.8964 116.589ZM42.9306 118.158L42.11 117.586L43.5592 118.935L42.9306 118.158ZM44.4998 114.986L45.451 115.295L45.4572 115.276L45.4626 115.256L44.4998 114.986ZM45.092 113.846L44.3216 113.208H44.3216L45.092 113.846ZM46.0691 113.09L46.4848 113.999L46.1353 112.092L46.0691 113.09ZM45.1432 113.348L44.2494 112.9L45.7089 114.173L45.1432 113.348ZM47.0263 111.262L47.5516 112.113L49.6795 110.8L47.2326 110.284L47.0263 111.262ZM46.0534 111.4L45.1651 110.941L43.7061 113.764L46.5186 112.286L46.0534 111.4ZM48.2346 109.056L48.7444 109.916L50.8326 108.679L48.4789 108.086L48.2346 109.056ZM47.3088 109.056L46.4744 108.505L45.0539 110.655L47.553 110.026L47.3088 109.056ZM49.5214 107.229L49.8898 108.158L52.846 106.987L49.7514 106.255L49.5214 107.229ZM48.6897 107.229L47.9162 106.595L46.0423 108.882L48.9197 108.202L48.6897 107.229ZM51.1378 105.16L51.6282 106.032L53.472 104.994L51.4998 104.228L51.1378 105.16ZM50.259 105.16L49.5659 104.439L50.621 106.092L50.259 105.16ZM53.0366 103.436L53.368 104.38L56.241 103.37L53.329 102.48L53.0366 103.436ZM51.9224 103.281L51.2836 102.512L49.0793 104.342L51.9436 104.281L51.9224 103.281ZM54.7471 101.902L54.953 102.881L56.7969 102.493L55.442 101.183L54.7471 101.902ZM53.7898 101.385L53.1558 100.612L51.5502 101.928L53.5804 102.363L53.7898 101.385ZM57.0695 99.9886L57.1772 100.983L59.8875 100.689L57.6303 99.1606L57.0695 99.9886ZM56.1594 99.6783L55.9016 98.7121L56.1052 100.677L56.1594 99.6783ZM61.5297 97.3866L62.0468 98.2425L61.2904 96.4156L61.5297 97.3866ZM49.2667 103.404L48.4395 102.842L49.8223 104.235L49.2667 103.404ZM50.1658 101.147L51.152 101.312L51.6127 98.565L49.51 100.392L50.1658 101.147ZM43.5187 104.282L42.6684 103.756L41.5177 105.615L43.6765 105.27L43.5187 104.282ZM44.2252 102.077L45.2227 102.148L45.3738 100.013L43.6392 101.267L44.2252 102.077ZM38.2684 104.489L37.5566 103.787L35.486 105.885L38.406 105.48L38.2684 104.489ZM39.6813 102.542L40.5684 103.004L42.035 100.186L39.2187 101.656L39.6813 102.542ZM33.259 104.265L32.8262 103.364L33.2991 105.264L33.259 104.265ZM34.5595 102.904L35.4731 103.311L36.408 101.211L34.2344 101.958L34.5595 102.904ZM28.2496 103.817L27.5908 103.065L25.7187 104.704L28.2045 104.816L28.2496 103.817ZM29.3735 102.37L30.2633 102.826L31.6553 100.112L28.9265 101.475L29.3735 102.37ZM23.7058 103.231L23.2184 102.358L20.7283 103.748L23.5411 104.218L23.7058 103.231ZM25.1669 101.888L25.9923 102.452L27.6462 100.034L24.859 100.936L25.1669 101.888ZM18.8569 101.991L18.4727 101.068L15.842 102.163L18.58 102.952L18.8569 101.991ZM20.4625 100.647L21.2973 101.198L22.8375 98.8628L20.1661 99.692L20.4625 100.647ZM14.9393 100.647L14.7046 99.6749L11.1778 100.527L14.6429 101.602L14.9393 100.647ZM16.6252 99.5788L17.5089 100.047L18.77 97.6651L16.2606 98.6476L16.6252 99.5788ZM14.2448 99.9543L14.3069 98.9562L14.2448 99.9543ZM11.9208 99.2859L11.4278 100.156L11.4369 100.161L11.4461 100.166L11.9208 99.2859ZM5.41823 97.1323L5.2684 96.1436L5.29748 98.125L5.41823 97.1323ZM11.9208 95.0475L12.3721 95.9399L12.3973 95.9272L12.4217 95.9131L11.9208 95.0475ZM14.2427 94.3411L14.3049 95.3392L14.2427 94.3411ZM16.6252 94.7547L16.2325 95.6743L18.8312 96.7839L17.5089 94.2867L16.6252 94.7547ZM14.9393 93.6864L14.6429 92.7314L11.1778 93.8069L14.7046 94.6585L14.9393 93.6864ZM20.4625 93.6864L20.1661 94.6415L22.8375 95.4707L21.2973 93.1358L20.4625 93.6864ZM18.8569 92.3426L18.58 91.3817L15.8421 92.1707L18.4726 93.2658L18.8569 92.3426ZM25.1669 92.4459L24.859 93.3974L27.6462 94.2994L25.9923 91.8814L25.1669 92.4459ZM23.7058 91.1021L23.5411 90.1157L20.7283 90.5854L23.2184 91.9753L23.7058 91.1021ZM29.3735 91.9635L28.9266 92.8581L31.6553 94.2215L30.2633 91.5072L29.3735 91.9635ZM28.2496 90.5163L28.2045 89.5173L25.7187 89.6294L27.5908 91.2687L28.2496 90.5163ZM34.5595 91.4294L34.2344 92.3751L36.408 93.1225L35.4731 91.0227L34.5595 91.4294ZM33.259 90.0683L33.2991 89.0691L32.8262 90.9698L33.259 90.0683ZM39.6813 91.7912L39.2187 92.6778L42.035 94.1474L40.5684 91.3296L39.6813 91.7912ZM38.2684 89.8443L38.406 88.8539L35.486 88.4482L37.5566 90.5467L38.2684 89.8443ZM44.2252 92.2564L43.6392 93.0668L45.3738 94.3209L45.2227 92.1858L44.2252 92.2564ZM43.5187 90.0511L43.6765 89.0636L41.5177 88.7187L42.6684 90.5775L43.5187 90.0511ZM50.1658 93.1868L49.51 93.9417L51.8881 96.0077L51.137 92.9484L50.1658 93.1868ZM49.2346 91.326L49.7691 90.4809L48.4654 91.965L49.2346 91.326ZM62.0318 97.0737L61.8517 98.0574L62.2402 98.1285L62.5724 97.915L62.0318 97.0737ZM62.6247 96.6788L63.5078 97.148L62.0567 95.8558L62.6247 96.6788ZM62.3888 97.1336L61.4967 96.6817L60.8721 97.9149L62.2388 98.1222L62.3888 97.1336ZM70.4285 76.323L71.4015 76.5539L69.5487 75.8476L70.4285 76.323ZM62.6728 96.6135L61.6788 96.505L61.2705 100.246L63.4819 97.2012L62.6728 96.6135ZM66.7647 11.4647C65.2273 8.10318 64.1798 4.53006 63.6558 0.858705L61.6758 1.1413C62.2268 5.00194 63.3284 8.7601 64.9459 12.2966L66.7647 11.4647ZM67.9378 15.7223C67.853 14.2143 67.444 12.743 66.739 11.4124L64.9717 12.3489C65.5411 13.4233 65.8723 14.6134 65.9409 15.8346L67.9378 15.7223ZM67.2301 20.1426C67.7811 18.7393 68.0225 17.2303 67.9378 15.7223L65.9409 15.8346C66.0096 17.0558 65.8139 18.2771 65.3685 19.4115L67.2301 20.1426ZM66.3979 18.7771H66.2993V20.7771H66.3979V18.7771ZM67.0613 16.7479C66.8836 17.6381 66.4181 18.4379 65.744 19.0205L67.0518 20.5336C68.0662 19.657 68.7588 18.4609 69.0226 17.1396L67.0613 16.7479ZM69.0045 26.4692C69.9059 23.2682 69.9059 19.8736 69.0045 16.6727L67.0794 17.2148C67.881 20.0612 67.881 23.0806 67.0794 25.9271L69.0045 26.4692ZM69.1565 23.1258C68.8262 24.0405 68.2326 24.8282 67.4573 25.3869L68.6266 27.0094C69.7324 26.2125 70.5721 25.0944 71.0377 23.8051L69.1565 23.1258ZM69.9327 34.0275C70.8895 34.3182 70.8896 34.318 70.8896 34.3177C70.8897 34.3176 70.8898 34.3173 70.8898 34.3171C70.89 34.3166 70.8901 34.3161 70.8903 34.3154C70.8907 34.3141 70.8912 34.3124 70.8919 34.3104C70.8931 34.3063 70.8947 34.3008 70.8968 34.2939C70.9009 34.28 70.9066 34.2605 70.9137 34.2356C70.928 34.1858 70.9482 34.1142 70.9728 34.0227C71.022 33.8398 71.0894 33.5768 71.1645 33.2481C71.3144 32.5917 71.496 31.6683 71.6244 30.594C71.8782 28.4696 71.9373 25.6485 71.039 23.1295L69.1552 23.8013C69.901 25.8928 69.8779 28.3527 69.6385 30.3567C69.5202 31.3467 69.3525 32.1994 69.2147 32.8029C69.1459 33.1042 69.0848 33.3422 69.0416 33.5028C69.02 33.583 69.0028 33.6439 68.9915 33.6835C68.9858 33.7033 68.9815 33.7178 68.9789 33.7267C68.9775 33.7312 68.9766 33.7343 68.9761 33.736C68.9759 33.7368 68.9757 33.7373 68.9757 33.7374C68.9757 33.7375 68.9757 33.7375 68.9757 33.7374C68.9757 33.7373 68.9758 33.7372 68.9758 33.7371C68.9758 33.737 68.9759 33.7368 69.9327 34.0275ZM71.1363 31.0115C70.7134 31.8891 70.0928 32.6496 69.3275 33.2314L70.5379 34.8236C71.557 34.0488 72.3791 33.0393 72.938 31.8798L71.1363 31.0115ZM71.6308 41.3518C73.0701 38.2147 73.5554 34.7116 73.0253 31.2925L71.0489 31.5989C71.5191 34.6317 71.0883 37.7382 69.813 40.5178L71.6308 41.3518ZM72.1396 38.438C71.6155 39.1029 70.9684 39.654 70.2364 40.0606L71.2074 41.809C72.1729 41.2728 73.0233 40.5476 73.7103 39.6761L72.1396 38.438ZM72.481 49.9204C73.5928 46.4008 74.0814 42.708 73.924 39.0145L71.9258 39.0996C72.0733 42.5608 71.6154 46.0209 70.5739 49.3179L72.481 49.9204ZM72.6997 47.0548C72.3767 47.7912 71.8064 48.3793 71.0981 48.716L71.9568 50.5223C73.1054 49.9763 74.0178 49.0288 74.5312 47.8581L72.6997 47.0548ZM70.9191 58.2365C71.8199 58.6709 71.8199 58.6707 71.82 58.6705C71.8201 58.6704 71.8202 58.6702 71.8203 58.67C71.8205 58.6697 71.8207 58.6692 71.821 58.6686C71.8215 58.6675 71.8222 58.666 71.8231 58.6641C71.8249 58.6603 71.8274 58.6551 71.8306 58.6484C71.837 58.635 71.8461 58.6158 71.8577 58.5911C71.8809 58.5416 71.9142 58.4698 71.9561 58.3777C72.0399 58.1933 72.1582 57.9271 72.2988 57.5939C72.5796 56.9283 72.951 55.9918 73.3143 54.9051C74.0315 52.76 74.7565 49.9173 74.6139 47.3999L72.6171 47.513C72.7375 49.6396 72.1143 52.1869 71.4175 54.2709C71.0739 55.2986 70.7219 56.1864 70.4561 56.8164C70.3233 57.1311 70.2125 57.3805 70.1355 57.5499C70.097 57.6346 70.067 57.6991 70.047 57.7418C70.0369 57.7631 70.0294 57.779 70.0246 57.7891C70.0222 57.7942 70.0205 57.7978 70.0194 57.8C70.0189 57.8011 70.0186 57.8018 70.0184 57.8021C70.0183 57.8023 70.0183 57.8024 70.0183 57.8024C70.0183 57.8024 70.0183 57.8023 70.0183 57.8023C70.0184 57.8022 70.0184 57.8021 70.9191 58.2365ZM73.1493 55.205C72.3475 56.0595 71.4277 56.7888 70.4195 57.3702L71.4187 59.1028C72.5979 58.4227 73.6722 57.5705 74.6077 56.5737L73.1493 55.205ZM71.0127 66.3839C73.0717 63.2797 74.3921 59.7301 74.8703 56.0171L72.8867 55.7616C72.4473 59.1726 71.2346 62.431 69.346 65.2784L71.0127 66.3839ZM73.0042 63.8304C72.1404 64.4172 71.1428 64.7624 70.1106 64.8335L70.2481 66.8288C71.6357 66.7332 72.9733 66.2692 74.1281 65.4848L73.0042 63.8304ZM68.7654 75.7897C69.5401 76.422 69.5403 76.4218 69.5404 76.4216C69.5405 76.4215 69.5407 76.4212 69.5409 76.421C69.5412 76.4206 69.5416 76.4201 69.5421 76.4196C69.543 76.4184 69.5442 76.417 69.5457 76.4152C69.5486 76.4116 69.5526 76.4066 69.5575 76.4004C69.5675 76.388 69.5816 76.3705 69.5994 76.3479C69.6351 76.3027 69.6861 76.2375 69.7503 76.1534C69.8787 75.9853 70.0601 75.7415 70.2778 75.4321C70.7128 74.8141 71.2956 73.9302 71.8914 72.8604C73.0732 70.7385 74.3519 67.805 74.5638 64.7262L72.5685 64.5889C72.3858 67.2439 71.2641 69.8764 70.1442 71.8872C69.5891 72.8837 69.0457 73.7077 68.6423 74.2811C68.4408 74.5674 68.2748 74.7902 68.1607 74.9397C68.1036 75.0144 68.0596 75.0707 68.0305 75.1075C68.016 75.1258 68.0053 75.1392 67.9986 75.1476C67.9952 75.1518 67.9928 75.1547 67.9915 75.1564C67.9908 75.1572 67.9904 75.1577 67.9903 75.1578C67.9902 75.1579 67.9902 75.1579 67.9903 75.1578C67.9903 75.1578 67.9904 75.1577 67.9904 75.1577C67.9905 75.1575 67.9907 75.1574 68.7654 75.7897ZM70.9099 73.5004C70.2293 74.1374 69.4061 74.5907 68.5146 74.8216L69.0161 76.7577C70.2339 76.4423 71.3539 75.8242 72.2766 74.9606L70.9099 73.5004ZM71.5912 76.2783C71.86 75.7873 72.0774 75.3998 72.2271 75.1358C72.3019 75.0038 72.3598 74.9027 72.3988 74.835C72.4183 74.8011 72.4331 74.7757 72.4428 74.7588C72.4477 74.7504 72.4513 74.7442 72.4537 74.7402C72.4548 74.7381 72.4557 74.7367 72.4562 74.7358C72.4565 74.7353 72.4567 74.735 72.4568 74.7348C72.4568 74.7347 72.4568 74.7347 72.4569 74.7347C72.4569 74.7346 72.4569 74.7346 72.4569 74.7347C72.4569 74.7347 72.4568 74.7347 72.4568 74.7347C72.4568 74.7347 72.4568 74.7347 71.5932 74.2305C70.7296 73.7263 70.7296 73.7263 70.7296 73.7264C70.7296 73.7264 70.7296 73.7264 70.7296 73.7264C70.7296 73.7265 70.7295 73.7265 70.7295 73.7266C70.7294 73.7267 70.7293 73.7269 70.7292 73.7271C70.729 73.7274 70.7287 73.728 70.7283 73.7286C70.7275 73.73 70.7264 73.7319 70.725 73.7343C70.7221 73.7392 70.718 73.7463 70.7126 73.7556C70.7019 73.7741 70.6861 73.8014 70.6656 73.8371C70.6245 73.9084 70.5644 74.0133 70.4873 74.1493C70.3331 74.4212 70.1109 74.8174 69.8369 75.3178L71.5912 76.2783ZM72.7717 78.185C72.2514 77.4066 71.8847 76.5266 71.6936 75.5967L69.7345 75.9994C69.977 77.1791 70.4432 78.3003 71.109 79.2964L72.7717 78.185ZM75.1323 67.4681C73.2963 69.6714 72.2593 72.4931 71.6787 74.6997C71.3857 75.8136 71.2029 76.7946 71.0931 77.499C71.0381 77.8516 71.0012 78.1361 70.9779 78.3345C70.9663 78.4338 70.958 78.5116 70.9525 78.5658C70.9498 78.5929 70.9478 78.6141 70.9464 78.6292C70.9457 78.6367 70.9451 78.6426 70.9447 78.647C70.9445 78.6492 70.9444 78.651 70.9443 78.6524C70.9442 78.6531 70.9441 78.6537 70.9441 78.6542C70.9441 78.6545 70.9441 78.6548 70.944 78.6549C70.944 78.6552 70.944 78.6554 71.9404 78.7407C72.9367 78.8261 72.9367 78.8263 72.9367 78.8264C72.9367 78.8265 72.9367 78.8266 72.9367 78.8267C72.9366 78.8268 72.9366 78.8268 72.9367 78.8267C72.9367 78.8265 72.9367 78.8259 72.9368 78.8249C72.937 78.823 72.9373 78.8195 72.9378 78.8145C72.9387 78.8045 72.9402 78.7884 72.9424 78.7665C72.9469 78.7227 72.954 78.6557 72.9643 78.5678C72.9849 78.392 73.0185 78.1326 73.0692 77.8071C73.1708 77.1552 73.3408 76.243 73.6129 75.2086C74.1627 73.1188 75.1057 70.6242 76.6688 68.7484L75.1323 67.4681ZM78.1127 70.5453C77.4938 69.8003 77.0686 68.8963 76.8829 67.9212L74.9182 68.2953C75.1661 69.5973 75.7355 70.8136 76.5743 71.8233L78.1127 70.5453ZM80.4669 61.4795C78.4018 64.2791 76.9962 67.5411 76.36 71.0036L78.3271 71.365C78.9092 68.1971 80.1942 65.2183 82.0764 62.6667L80.4669 61.4795ZM82.6711 65.3942C82.3859 64.3195 82.2512 63.207 82.2715 62.0913L80.2718 62.0549C80.2481 63.3554 80.4051 64.6529 80.738 65.9073L82.6711 65.3942ZM86.1061 55.9409C84.4046 57.5231 83.068 59.9131 82.1738 61.8224C81.7198 62.7917 81.3665 63.6668 81.1263 64.3001C81.006 64.6172 80.9138 64.8747 80.8511 65.0543C80.8198 65.1441 80.7959 65.2146 80.7795 65.2633C80.7713 65.2877 80.765 65.3067 80.7606 65.32C80.7584 65.3266 80.7567 65.3318 80.7555 65.3356C80.7549 65.3375 80.7544 65.339 80.754 65.3401C80.7538 65.3407 80.7537 65.3412 80.7536 65.3416C80.7535 65.3417 80.7534 65.342 80.7534 65.3421C80.7533 65.3423 80.7533 65.3424 81.7046 65.6507C82.6559 65.959 82.6558 65.9591 82.6558 65.9592C82.6558 65.9592 82.6558 65.9593 82.6557 65.9593C82.6557 65.9594 82.6558 65.9593 82.6558 65.9591C82.6559 65.9588 82.6562 65.9581 82.6565 65.957C82.6572 65.9549 82.6584 65.9513 82.66 65.9464C82.6633 65.9364 82.6684 65.9209 82.6754 65.9C82.6895 65.8582 82.7109 65.7951 82.7396 65.7129C82.797 65.5484 82.8831 65.3079 82.9963 65.0093C83.2231 64.4113 83.5571 63.5843 83.985 62.6707C84.8544 60.8143 86.0591 58.7156 87.468 57.4056L86.1061 55.9409ZM87.7319 59.1877C87.4871 58.4816 87.4871 57.7069 87.7319 57.0009L85.8423 56.3457C85.4503 57.4761 85.4503 58.7124 85.8423 59.8429L87.7319 59.1877ZM92.0046 50.8771C89.5123 53.2056 87.4429 55.9798 85.8934 59.0667L87.6808 59.9639C89.1257 57.0855 91.0531 54.5031 93.37 52.3385L92.0046 50.8771ZM93.89 54.077C93.6727 53.3098 93.602 52.5047 93.6823 51.7081L91.6923 51.5075C91.5869 52.5539 91.6796 53.6119 91.9656 54.622L93.89 54.077ZM97.5008 46.3652C94.9678 48.2933 93.0492 50.96 91.9834 54.0206L93.8722 54.6784C94.8119 51.9799 96.4992 49.6411 98.7122 47.9566L97.5008 46.3652ZM98.8717 50.0266C98.7465 49.1633 98.8124 48.2817 99.0637 47.4501L97.1493 46.8716C96.813 47.9842 96.7253 49.1613 96.8924 50.3135L98.8717 50.0266ZM104.071 42.1634C101.853 43.2275 100.08 45.1544 98.8904 46.7377C98.2873 47.5401 97.8157 48.2788 97.4941 48.8181C97.3331 49.0882 97.209 49.3094 97.1241 49.465C97.0817 49.5429 97.049 49.6044 97.0265 49.6475C97.0152 49.6691 97.0064 49.6861 97.0002 49.6982C96.997 49.7043 96.9946 49.7091 96.9927 49.7127C96.9918 49.7145 96.9911 49.716 96.9905 49.7172C96.9902 49.7178 96.9899 49.7183 96.9897 49.7187C96.9896 49.719 96.9894 49.7192 96.9894 49.7193C96.9893 49.7196 96.9892 49.7198 97.882 50.1701C98.7749 50.6203 98.7748 50.6205 98.7748 50.6207C98.7747 50.6207 98.7747 50.6208 98.7746 50.6209C98.7746 50.621 98.7746 50.6211 98.7746 50.621C98.7746 50.6209 98.7748 50.6205 98.7752 50.6199C98.7759 50.6185 98.7772 50.6159 98.7792 50.6121C98.7831 50.6045 98.7895 50.5921 98.7983 50.5752C98.8159 50.5415 98.8433 50.4898 98.8802 50.4222C98.9539 50.2869 99.0653 50.0882 99.2119 49.8424C99.5056 49.3499 99.9379 48.6728 100.489 47.9393C101.608 46.4507 103.147 44.8251 104.936 43.9667L104.071 42.1634ZM105.089 46.0941C104.941 45.2032 105.057 44.2872 105.418 43.4694L103.589 42.6606C103.069 43.8375 102.905 45.1488 103.116 46.4221L105.089 46.0941ZM109.506 39.2885C106.865 40.8023 104.689 43.0547 103.222 45.7847L104.984 46.7315C106.278 44.323 108.191 42.3473 110.5 41.0237L109.506 39.2885ZM110.263 43.0755C110.201 42.2301 110.409 41.3903 110.85 40.6876L109.156 39.6246C108.486 40.6927 108.176 41.9571 108.268 43.2217L110.263 43.0755ZM110.266 43.2489V43.1486H108.266V43.2489H110.266ZM110.741 39.4361C109.725 40.3933 108.912 41.5558 108.349 42.8501L110.183 43.6478C110.639 42.5979 111.297 41.6602 112.113 40.8917L110.741 39.4361ZM114.258 37.29C112.954 37.7474 111.757 38.4788 110.741 39.4361L112.113 40.8917C112.928 40.1234 113.884 39.5406 114.92 39.1772L114.258 37.29ZM122.938 32.4544C120.37 34.6238 117.432 36.2617 114.281 37.2822L114.897 39.1849C118.298 38.0833 121.465 36.3169 124.229 33.9821L122.938 32.4544ZM119.719 42.9059C120.842 39.6457 122.419 36.5771 124.398 33.7984L122.769 32.6381C120.677 35.5746 119.013 38.8149 117.828 42.2545L119.719 42.9059ZM117.773 46.5517C118.683 45.481 119.352 44.217 119.736 42.8508L117.811 42.3095C117.503 43.4029 116.969 44.409 116.249 45.2571L117.773 46.5517ZM114.469 49.0428C115.736 48.4742 116.864 47.6226 117.773 46.5517L116.249 45.2571C115.529 46.105 114.641 46.7736 113.65 47.2181L114.469 49.0428ZM114.156 47.1305H114.06V49.1305H114.156V47.1305ZM116.444 46.5204C115.783 46.9737 115.004 47.1866 114.225 47.1329L114.087 49.1281C115.323 49.2133 116.549 48.8743 117.576 48.1691L116.444 46.5204ZM111.663 54.3767C114.295 52.8363 116.453 50.5589 117.895 47.8093L116.124 46.8802C114.852 49.3059 112.954 51.3037 110.652 52.6505L111.663 54.3767ZM113.783 52.1792C113.015 52.5519 112.16 52.6726 111.328 52.5283L110.987 54.4989C112.234 54.7153 113.514 54.5329 114.656 53.9787L113.783 52.1792ZM107.406 59.9834C107.883 60.8621 107.883 60.862 107.884 60.8619C107.884 60.8618 107.884 60.8617 107.884 60.8616C107.885 60.8613 107.885 60.861 107.886 60.8607C107.887 60.8601 107.888 60.8593 107.89 60.8583C107.894 60.8563 107.898 60.8537 107.904 60.8504C107.916 60.8439 107.933 60.8347 107.954 60.8229C107.996 60.7992 108.055 60.7651 108.13 60.7209C108.281 60.6324 108.494 60.5032 108.755 60.3354C109.275 60.0004 109.987 59.5091 110.759 58.88C112.286 57.6365 114.13 55.7891 115.137 53.4783L113.303 52.6796C112.482 54.565 110.919 56.1698 109.496 57.3294C108.793 57.902 108.144 58.35 107.672 58.6539C107.436 58.8056 107.246 58.9207 107.117 58.9968C107.052 59.0348 107.003 59.063 106.971 59.0811C106.955 59.0901 106.943 59.0966 106.936 59.1006C106.932 59.1025 106.93 59.1039 106.929 59.1045C106.928 59.1049 106.928 59.1051 106.928 59.1051C106.928 59.1051 106.928 59.1051 106.928 59.105C106.928 59.1049 106.928 59.1049 106.928 59.1048C106.928 59.1048 106.928 59.1046 107.406 59.9834ZM109.985 58.8142C109.202 59.0665 108.375 59.1286 107.567 58.9965L107.244 60.9703C108.367 61.1537 109.514 61.0671 110.598 60.7179L109.985 58.8142ZM103.642 66.0727C106.634 64.989 109.235 62.9894 111.108 60.3438L109.476 59.1883C107.833 61.509 105.56 63.2508 102.961 64.1922L103.642 66.0727ZM105.796 64.3903C105.06 64.4783 104.315 64.407 103.606 64.1801L102.996 66.0849C103.978 66.399 105.012 66.4984 106.034 66.3761L105.796 64.3903ZM98.7691 72.3344C101.746 70.7482 104.422 68.6155 106.668 66.0406L105.161 64.7259C103.073 67.1201 100.588 69.0991 97.8287 70.5692L98.7691 72.3344ZM100.662 70.5199C100.016 70.7713 99.3073 70.7713 98.6617 70.5199L97.9361 72.3837C99.0484 72.8167 100.275 72.8167 101.387 72.3837L100.662 70.5199ZM92.4308 76.7513C92.7639 77.6942 92.7641 77.6941 92.7643 77.6941C92.7644 77.694 92.7646 77.6939 92.7648 77.6939C92.7652 77.6937 92.7657 77.6936 92.7662 77.6934C92.7674 77.693 92.7689 77.6924 92.7707 77.6918C92.7744 77.6905 92.7794 77.6887 92.7859 77.6863C92.7987 77.6817 92.8171 77.6751 92.8406 77.6665C92.8876 77.6493 92.9553 77.6242 93.0416 77.5914C93.2142 77.5257 93.4613 77.4292 93.7655 77.3035C94.3731 77.0524 95.2123 76.683 96.1421 76.2085C97.9748 75.2732 100.267 73.8763 101.785 72.1017L100.265 70.8018C99.0085 72.2705 97.0037 73.5234 95.2329 74.4271C94.361 74.8721 93.5718 75.2194 93.0015 75.4552C92.7167 75.5729 92.4874 75.6624 92.3309 75.7219C92.2527 75.7516 92.1927 75.7739 92.153 75.7884C92.1332 75.7956 92.1185 75.8009 92.1092 75.8043C92.1046 75.806 92.1012 75.8072 92.0993 75.8078C92.0983 75.8082 92.0977 75.8084 92.0974 75.8085C92.0973 75.8086 92.0972 75.8086 92.0973 75.8086C92.0973 75.8086 92.0974 75.8085 92.0974 75.8085C92.0975 75.8085 92.0976 75.8084 92.4308 76.7513ZM95.8168 76.2031C94.7703 76.2335 93.7252 76.0955 92.718 75.7935L92.1435 77.7092C93.355 78.0725 94.6137 78.2389 95.8749 78.2023L95.8168 76.2031ZM87.3235 82.2951C90.6559 81.6161 93.7877 80.1384 96.4721 77.9823L95.2196 76.423C92.78 78.3826 89.9397 79.7209 86.9241 80.3354L87.3235 82.2951ZM90.26 81.8238C89.3514 81.6362 88.5005 81.206 87.7911 80.5705L86.4565 82.0601C87.4244 82.9273 88.5949 83.5222 89.8557 83.7825L90.26 81.8238ZM79.8608 86.9492C79.9561 87.9446 79.9563 87.9446 79.9566 87.9445C79.9568 87.9445 79.9571 87.9445 79.9573 87.9445C79.9579 87.9444 79.9585 87.9444 79.9592 87.9443C79.9606 87.9442 79.9624 87.944 79.9646 87.9438C79.9689 87.9433 79.9748 87.9427 79.9822 87.942C79.9969 87.9405 80.0175 87.9382 80.0438 87.9353C80.0964 87.9294 80.1717 87.9205 80.2676 87.908C80.4593 87.883 80.7336 87.8437 81.0733 87.7853C81.752 87.6686 82.6967 87.4751 83.7691 87.1661C85.8948 86.5538 88.6109 85.4634 90.7293 83.5443L89.3865 82.0621C87.5927 83.6871 85.2102 84.6697 83.2155 85.2443C82.2276 85.5289 81.3565 85.7073 80.7345 85.8142C80.4239 85.8676 80.1766 85.903 80.0093 85.9248C79.9257 85.9356 79.8621 85.9431 79.8208 85.9478C79.8001 85.9501 79.785 85.9517 79.7757 85.9527C79.771 85.9531 79.7678 85.9535 79.7661 85.9536C79.7652 85.9537 79.7647 85.9538 79.7646 85.9538C79.7646 85.9538 79.7646 85.9538 79.7647 85.9538C79.7648 85.9538 79.765 85.9538 79.765 85.9538C79.7652 85.9537 79.7654 85.9537 79.8608 86.9492ZM82.7438 86.8362C81.9154 86.7987 81.1064 86.547 80.3895 86.1004L79.332 87.798C80.3368 88.4238 81.4782 88.781 82.6534 88.8342L82.7438 86.8362ZM63.311 97.4088C66.2567 94.9477 71.119 92.7944 75.3463 91.2409C77.4412 90.4711 79.3464 89.8604 80.7278 89.4423C81.4181 89.2333 81.9767 89.0727 82.3617 88.9646C82.5542 88.9106 82.7032 88.8697 82.8036 88.8424C82.8537 88.8288 82.8917 88.8186 82.9168 88.8119C82.9294 88.8086 82.9387 88.8061 82.9448 88.8045C82.9478 88.8037 82.95 88.8031 82.9514 88.8027C82.9521 88.8025 82.9526 88.8024 82.9529 88.8023C82.953 88.8023 82.953 88.8023 82.9531 88.8023C82.9531 88.8023 82.953 88.8023 82.6986 87.8352C82.4442 86.8681 82.444 86.8681 82.4438 86.8682C82.4437 86.8682 82.4434 86.8683 82.4431 86.8684C82.4425 86.8685 82.4417 86.8687 82.4408 86.869C82.4388 86.8695 82.436 86.8703 82.4323 86.8712C82.425 86.8732 82.4144 86.876 82.4006 86.8797C82.3729 86.8871 82.3324 86.898 82.2796 86.9123C82.174 86.941 82.0194 86.9834 81.8211 87.0391C81.4246 87.1504 80.8529 87.3148 80.1483 87.5281C78.7398 87.9544 76.7964 88.5773 74.6565 89.3637C70.4142 90.9226 65.2621 93.1724 62.0287 95.874L63.311 97.4088ZM63.6602 96.785L63.6642 96.7472L61.6754 96.5355L61.6714 96.5733L63.6602 96.785ZM61.6708 96.7842L61.6751 96.8151L63.6565 96.5433L63.6523 96.5124L61.6708 96.7842ZM63.2679 97.4449L63.3044 97.4143L62.0187 95.8823L61.9823 95.9129L63.2679 97.4449ZM61.6636 96.4039L61.6636 96.4042L63.5866 96.9536L63.5867 96.9533L61.6636 96.4039ZM61.8531 96.0405L61.8189 96.087L63.4314 97.2702L63.4655 97.2237L61.8531 96.0405ZM54.3212 78.3928C55.5866 80.7016 57.2309 83.8779 58.6583 87.2003C60.0921 90.5379 61.2779 93.9573 61.6688 96.7697L63.6498 96.4944C63.2215 93.4133 61.9508 89.7975 60.4959 86.4109C59.0345 83.0091 57.3578 79.7721 56.0751 77.4316L54.3212 78.3928ZM63.4307 96.0861C61.7269 93.7696 60.1955 90.3136 58.9376 86.8137C57.687 83.334 56.7355 79.8945 56.1672 77.6652L54.2292 78.1593C54.8061 80.4221 55.7754 83.9284 57.0555 87.4901C58.3284 91.0317 59.9379 94.7128 61.8196 97.2711L63.4307 96.0861ZM42.5307 87.8373C42.2767 88.8045 42.2767 88.8045 42.2767 88.8045C42.2767 88.8045 42.2768 88.8045 42.2769 88.8045C42.2772 88.8046 42.2777 88.8047 42.2784 88.8049C42.2798 88.8053 42.282 88.8059 42.285 88.8067C42.2911 88.8083 42.3006 88.8108 42.3132 88.8142C42.3385 88.8209 42.3768 88.8312 42.4272 88.8448C42.5282 88.8722 42.6782 88.9133 42.8719 88.9676C43.2594 89.0761 43.8215 89.2375 44.516 89.4474C45.9056 89.8674 47.8215 90.4807 49.9261 91.2537C54.174 92.8139 59.0504 94.9754 61.981 97.4435L63.2693 95.9137C60.0479 93.2007 54.877 90.9415 50.6157 89.3763C48.4657 88.5866 46.5114 87.9611 45.0946 87.5329C44.3858 87.3187 43.8106 87.1536 43.4116 87.0417C43.2121 86.9858 43.0565 86.9432 42.9502 86.9144C42.8971 86.9 42.8563 86.8891 42.8285 86.8817C42.8145 86.878 42.8039 86.8751 42.7965 86.8732C42.7929 86.8722 42.79 86.8715 42.788 86.8709C42.787 86.8707 42.7862 86.8705 42.7857 86.8703C42.7854 86.8702 42.7851 86.8702 42.785 86.8701C42.7847 86.8701 42.7846 86.87 42.5307 87.8373ZM44.8278 86.1034C44.115 86.5488 43.3096 86.8003 42.4846 86.8383L42.5767 88.8362C43.7486 88.7822 44.8867 88.4249 45.8876 87.7995L44.8278 86.1034ZM34.4712 83.5483C36.5931 85.4667 39.3138 86.5567 41.4432 87.1688C42.5174 87.4776 43.4637 87.6711 44.1435 87.7877C44.4839 87.8461 44.7586 87.8854 44.9506 87.9103C45.0466 87.9228 45.122 87.9317 45.1747 87.9376C45.2011 87.9406 45.2217 87.9428 45.2365 87.9443C45.2438 87.9451 45.2497 87.9456 45.2541 87.9461C45.2562 87.9463 45.2581 87.9465 45.2595 87.9466C45.2602 87.9467 45.2608 87.9467 45.2613 87.9468C45.2616 87.9468 45.2619 87.9468 45.262 87.9469C45.2623 87.9469 45.2626 87.9469 45.3577 86.9514C45.4528 85.956 45.453 85.956 45.4532 85.956C45.4533 85.956 45.4534 85.956 45.4535 85.956C45.4536 85.9561 45.4537 85.9561 45.4536 85.9561C45.4535 85.956 45.453 85.956 45.4522 85.9559C45.4504 85.9557 45.4472 85.9554 45.4426 85.9549C45.4332 85.954 45.418 85.9524 45.3973 85.95C45.3559 85.9454 45.2922 85.9379 45.2084 85.927C45.0407 85.9052 44.7929 85.8699 44.4817 85.8165C43.8584 85.7095 42.9856 85.5312 41.9957 85.2466C39.997 84.6721 37.6097 83.6896 35.8124 82.0647L34.4712 83.5483ZM37.4315 80.5729C36.7169 81.2106 35.8591 81.641 34.9434 81.8264L35.3402 83.7866C36.6092 83.5297 37.7883 82.935 38.7631 82.0652L37.4315 80.5729ZM28.7327 77.987C31.4202 80.1468 34.5592 81.6247 37.8994 82.2992L38.2953 80.3388C35.2733 79.7285 32.4273 78.3903 29.9856 76.4281L28.7327 77.987ZM32.4951 75.7979C31.4847 76.0988 30.4365 76.2369 29.3868 76.2079L29.3315 78.2072C30.5936 78.2421 31.8531 78.0759 33.0659 77.7147L32.4951 75.7979ZM23.3956 72.1089C24.9163 73.8833 27.217 75.2798 29.0568 76.2146C29.9902 76.6889 30.8329 77.0582 31.4431 77.3092C31.7485 77.4349 31.9967 77.5313 32.17 77.5969C32.2567 77.6297 32.3247 77.6548 32.3719 77.672C32.3955 77.6806 32.4139 77.6872 32.4268 77.6918C32.4333 77.6942 32.4383 77.696 32.442 77.6973C32.4439 77.6979 32.4454 77.6985 32.4465 77.6989C32.4471 77.6991 32.4476 77.6992 32.4479 77.6994C32.4481 77.6994 32.4484 77.6995 32.4485 77.6995C32.4487 77.6996 32.4489 77.6997 32.7805 76.7563C33.1122 75.8129 33.1124 75.813 33.1125 75.813C33.1125 75.813 33.1126 75.813 33.1126 75.813C33.1126 75.813 33.1126 75.813 33.1125 75.813C33.1122 75.8129 33.1115 75.8127 33.1106 75.8123C33.1086 75.8116 33.1053 75.8104 33.1006 75.8088C33.0912 75.8054 33.0764 75.8001 33.0565 75.7928C33.0167 75.7783 32.9564 75.7561 32.8778 75.7263C32.7205 75.6668 32.4902 75.5773 32.204 75.4596C31.6311 75.2239 30.8384 74.8765 29.9628 74.4316C28.1844 73.528 26.1722 72.2754 24.9141 70.8074L23.3956 72.1089ZM26.5248 70.5255C25.8761 70.7763 25.1642 70.7763 24.5155 70.5255L23.7942 72.3908C24.907 72.8212 26.1333 72.8212 27.2462 72.3908L26.5248 70.5255ZM18.5039 66.0506C20.7572 68.6198 23.436 70.7505 26.4146 72.3403L27.3564 70.576C24.5933 69.1011 22.1041 67.1224 20.0075 64.7318L18.5039 66.0506ZM21.585 64.1881C20.87 64.4171 20.118 64.4885 19.3762 64.3985L19.1352 66.3839C20.164 66.5088 21.2063 66.4095 22.195 66.0929L21.585 64.1881ZM14.1641 60.3327C16.0104 62.967 18.5783 64.9704 21.5399 66.0772L22.2401 64.2038C19.6658 63.2417 17.4215 61.4957 15.8019 59.1848L14.1641 60.3327ZM17.7324 58.9886C16.9143 59.1195 16.0783 59.0572 15.2854 58.8056L14.6806 60.712C15.77 61.0576 16.9214 61.1438 18.0483 60.9635L17.7324 58.9886ZM10.1472 53.4735C11.1557 55.7839 13.0037 57.6307 14.5329 58.8739C15.3065 59.5027 16.0195 59.9938 16.5405 60.3287C16.8015 60.4964 17.0154 60.6257 17.1661 60.7141C17.2415 60.7583 17.3012 60.7924 17.3431 60.816C17.3641 60.8278 17.3807 60.837 17.3925 60.8436C17.3985 60.8468 17.4032 60.8494 17.4068 60.8514C17.4086 60.8524 17.4101 60.8532 17.4112 60.8538C17.4118 60.8541 17.4123 60.8544 17.4128 60.8547C17.413 60.8548 17.4133 60.8549 17.4134 60.855C17.4136 60.8551 17.4139 60.8552 17.8904 59.9761C18.3669 59.0969 18.3671 59.097 18.3672 59.0971C18.3673 59.0971 18.3674 59.0972 18.3675 59.0972C18.3676 59.0973 18.3677 59.0973 18.3677 59.0973C18.3676 59.0973 18.3673 59.0971 18.3667 59.0968C18.3654 59.0961 18.363 59.0948 18.3594 59.0928C18.3523 59.0889 18.3405 59.0823 18.3245 59.0733C18.2923 59.0552 18.2429 59.027 18.1781 58.989C18.0485 58.913 17.8579 58.7979 17.6219 58.6462C17.1491 58.3424 16.4987 57.8944 15.7945 57.3219C14.3682 56.1625 12.8028 54.558 11.9802 52.6734L10.1472 53.4735ZM13.9455 52.5226C13.117 52.6656 12.2651 52.545 11.5003 52.1738L10.6271 53.9731C11.766 54.5258 13.042 54.7082 14.2858 54.4934L13.9455 52.5226ZM7.36757 47.8061C8.81278 50.5551 10.9747 52.8318 13.6113 54.3715L14.6199 52.6445C12.3139 51.2978 10.4127 49.3003 9.13785 46.8754L7.36757 47.8061ZM11.0609 47.1285C10.2717 47.1816 9.48378 46.9678 8.81438 46.5134L7.69104 48.1681C8.72499 48.87 9.95462 49.2075 11.1951 49.124L11.0609 47.1285ZM11.2243 47.1263H11.128V49.1263H11.2243V47.1263ZM7.50169 46.5495C8.41509 47.6191 9.54572 48.4698 10.8153 49.0388L11.6333 47.2137C10.6386 46.7679 9.7468 46.0987 9.02259 45.2507L7.50169 46.5495ZM5.52426 42.852C5.91419 44.2175 6.5884 45.48 7.5017 46.5495L9.02259 45.2507C8.29828 44.4025 7.75969 43.3965 7.44738 42.3029L5.52426 42.852ZM0.853052 33.7989C2.83581 36.5769 4.4155 39.6446 5.54056 42.9038L7.43108 42.2511C6.24398 38.8123 4.57629 35.5727 2.48093 32.637L0.853052 33.7989ZM11.0772 37.2789C7.88775 36.2662 4.91133 34.6281 2.30861 32.4509L1.02537 33.985C3.82516 36.327 7.03128 38.0927 10.472 39.1851L11.0772 37.2789ZM14.6233 39.4326C13.6075 38.4746 12.4096 37.7436 11.1042 37.2878L10.445 39.1761C11.4811 39.5378 12.4369 40.1197 13.2511 40.8876L14.6233 39.4326ZM17.0096 42.8499C16.4508 41.5544 15.639 40.3904 14.6233 39.4326L13.2511 40.8876C14.0655 41.6556 14.7206 42.593 15.1731 43.6421L17.0096 42.8499ZM15.0913 43.1457V43.246H17.0913V43.1457H15.0913ZM14.4892 40.6853C14.9324 41.3922 15.1461 42.2339 15.0933 43.0837L17.0894 43.2077C17.1678 41.9457 16.8517 40.6882 16.1836 39.6228L14.4892 40.6853ZM22.1437 45.7797C20.6697 43.047 18.4838 40.7948 15.831 39.2849L14.8417 41.0231C17.1615 42.3434 19.0834 44.319 20.3834 46.7291L22.1437 45.7797ZM19.9477 43.4672C20.3099 44.2846 20.4255 45.1998 20.2772 46.09L22.25 46.4188C22.4622 45.1453 22.2977 43.8339 21.7763 42.6571L19.9477 43.4672ZM27.4798 50.1653C28.3735 49.7165 28.3733 49.7163 28.3732 49.716C28.3732 49.7159 28.373 49.7157 28.3729 49.7155C28.3727 49.715 28.3724 49.7145 28.3722 49.7139C28.3716 49.7127 28.3708 49.7112 28.3699 49.7094C28.3681 49.7058 28.3656 49.701 28.3625 49.6949C28.3563 49.6828 28.3475 49.6658 28.3363 49.6442C28.3137 49.601 28.2812 49.5395 28.2389 49.4616C28.1543 49.3059 28.0306 49.0847 27.87 48.8146C27.5493 48.2753 27.0788 47.5366 26.4766 46.7342C25.2882 45.1509 23.5166 43.2241 21.2937 42.1601L20.4303 43.9641C22.2231 44.8222 23.7604 46.4471 24.877 47.9348C25.4272 48.6679 25.8583 49.3446 26.151 49.8368C26.2971 50.0825 26.408 50.2811 26.4815 50.4163C26.5182 50.4838 26.5454 50.5355 26.563 50.5691C26.5718 50.586 26.5781 50.5983 26.582 50.6059C26.584 50.6097 26.5853 50.6123 26.586 50.6137C26.5863 50.6144 26.5865 50.6148 26.5866 50.6148C26.5866 50.6149 26.5866 50.6148 26.5865 50.6147C26.5865 50.6147 26.5864 50.6145 26.5864 50.6145C26.5863 50.6143 26.5862 50.6141 27.4798 50.1653ZM26.3116 47.4389C26.5569 48.2733 26.6182 49.1556 26.4906 50.0191L28.4691 50.3115C28.6389 49.1623 28.5576 47.9879 28.2305 46.8749L26.3116 47.4389ZM33.3885 54.0174C32.3313 50.9545 30.413 48.2857 27.8755 46.3603L26.6666 47.9535C28.8817 49.6344 30.5669 51.9727 31.498 54.67L33.3885 54.0174ZM31.6904 51.7141C31.7788 52.503 31.7085 53.3021 31.4843 54.06L33.4022 54.6273C33.7023 53.6125 33.7961 52.5447 33.6779 51.4913L31.6904 51.7141ZM39.2847 59.0184C37.792 55.9685 35.7932 53.2144 33.3787 50.8833L31.9896 52.3221C34.2346 54.4896 36.0965 57.0537 37.4883 59.8975L39.2847 59.0184ZM37.4452 56.9544C37.6956 57.6523 37.6956 58.4223 37.4452 59.1202L39.3277 59.7957C39.7348 58.6612 39.7348 57.4135 39.3277 56.2789L37.4452 56.9544ZM43.4783 65.5918C44.4302 65.2852 44.4301 65.285 44.4301 65.2848C44.43 65.2847 44.43 65.2845 44.4299 65.2843C44.4298 65.2839 44.4296 65.2834 44.4294 65.2828C44.4291 65.2817 44.4286 65.2802 44.428 65.2783C44.4267 65.2745 44.425 65.2693 44.4229 65.2626C44.4185 65.2494 44.4122 65.2304 44.4041 65.206C44.3878 65.1572 44.3639 65.0867 44.3327 64.9968C44.2704 64.8171 44.1785 64.5596 44.0586 64.2424C43.8192 63.609 43.4666 62.7338 43.0126 61.7644C42.1184 59.8549 40.7789 57.4642 39.0648 55.8819L37.7082 57.3515C39.1263 58.6605 40.3327 60.7575 41.2014 62.6126C41.6289 63.5255 41.9619 64.352 42.1878 64.9496C42.3006 65.248 42.3863 65.4883 42.4433 65.6526C42.4718 65.7347 42.4931 65.7978 42.5071 65.8395C42.514 65.8604 42.5192 65.8759 42.5224 65.8858C42.524 65.8908 42.5252 65.8943 42.5259 65.8964C42.5262 65.8975 42.5264 65.8982 42.5266 65.8985C42.5266 65.8987 42.5266 65.8987 42.5266 65.8987C42.5266 65.8987 42.5266 65.8986 42.5266 65.8986C42.5266 65.8985 42.5265 65.8984 43.4783 65.5918ZM42.9283 62.0333C42.9485 63.1466 42.8088 64.2566 42.5142 65.3262L44.4425 65.8573C44.7881 64.6024 44.9516 63.3013 44.9279 61.997L42.9283 62.0333ZM48.8631 71.0099C48.2225 67.5263 46.8095 64.2433 44.7335 61.4224L43.1227 62.6078C45.0166 65.1814 46.3096 68.1819 46.896 71.3716L48.8631 71.0099ZM48.3429 67.928C48.157 68.9025 47.7311 69.8061 47.111 70.5509L48.6481 71.8306C49.4885 70.8211 50.059 69.605 50.3075 68.3029L48.3429 67.928ZM53.2927 78.7452C54.2888 78.6573 54.2888 78.657 54.2888 78.6567C54.2888 78.6566 54.2887 78.6563 54.2887 78.6561C54.2887 78.6556 54.2886 78.655 54.2886 78.6543C54.2884 78.6529 54.2883 78.6511 54.2881 78.6489C54.2877 78.6445 54.2871 78.6385 54.2864 78.6311C54.285 78.6161 54.2829 78.5949 54.2801 78.5678C54.2745 78.5136 54.266 78.4359 54.2541 78.3367C54.2303 78.1383 54.1928 77.8541 54.1371 77.5016C54.0258 76.7976 53.8412 75.8171 53.5466 74.7038C52.9631 72.4983 51.9244 69.6783 50.0943 67.4763L48.5561 68.7546C50.1153 70.6307 51.0603 73.1256 51.6132 75.2154C51.8869 76.2498 52.0586 77.1621 52.1617 77.8139C52.2131 78.1394 52.2472 78.3988 52.2683 78.5747C52.2789 78.6626 52.2861 78.7296 52.2907 78.7734C52.2929 78.7953 52.2945 78.8114 52.2955 78.8215C52.296 78.8265 52.2963 78.83 52.2965 78.8319C52.2966 78.8329 52.2966 78.8335 52.2966 78.8337C52.2966 78.8338 52.2966 78.8338 52.2966 78.8337C52.2966 78.8336 52.2966 78.8335 52.2966 78.8335C52.2966 78.8333 52.2966 78.8331 53.2927 78.7452ZM53.4075 76.1478C53.1987 76.8756 52.8797 77.5648 52.4619 78.1887L54.1235 79.3017C54.6584 78.5031 55.0647 77.6241 55.33 76.6991L53.4075 76.1478ZM53.1301 74.2976C52.2763 74.8182 52.2763 74.8182 52.2762 74.8182C52.2762 74.8182 52.2762 74.8181 52.2762 74.8181C52.2762 74.8181 52.2762 74.8181 52.2762 74.8182C52.2763 74.8182 52.2763 74.8183 52.2764 74.8184C52.2766 74.8187 52.2769 74.8191 52.2772 74.8198C52.278 74.8211 52.2793 74.8232 52.281 74.826C52.2845 74.8317 52.2898 74.8404 52.2968 74.8521C52.311 74.8755 52.3323 74.9108 52.3603 74.9574C52.4163 75.0508 52.4992 75.1897 52.6057 75.37C52.8185 75.7307 53.1252 76.257 53.4986 76.9163L55.2388 75.9306C54.859 75.26 54.5463 74.7234 54.3282 74.3536C54.2191 74.1687 54.1335 74.0255 54.075 73.928C54.0458 73.8793 54.0233 73.842 54.0079 73.8167C54.0003 73.804 53.9944 73.7943 53.9904 73.7877C53.9883 73.7843 53.9868 73.7818 53.9857 73.78C53.9852 73.7791 53.9847 73.7784 53.9844 73.7779C53.9843 73.7776 53.9841 73.7774 53.9841 73.7773C53.984 73.7772 53.984 73.7771 53.9839 73.7771C53.9839 73.7771 53.9839 73.777 53.9839 73.777C53.9839 73.777 53.9839 73.777 53.1301 74.2976ZM56.7613 74.8058C55.666 74.6069 54.6274 74.1584 53.7231 73.4924L52.5371 75.1028C53.6852 75.9483 55.0069 76.5199 56.404 76.7736L56.7613 74.8058ZM50.7843 64.7262C50.9962 67.805 52.2748 70.7385 53.4566 72.8604C54.0525 73.9302 54.6353 74.8141 55.0703 75.4321C55.288 75.7415 55.4694 75.9853 55.5977 76.1534C55.6619 76.2375 55.7129 76.3027 55.7486 76.3479C55.7665 76.3705 55.7805 76.388 55.7905 76.4004C55.7955 76.4066 55.7995 76.4116 55.8024 76.4152C55.8038 76.417 55.805 76.4184 55.806 76.4196C55.8064 76.4201 55.8068 76.4206 55.8072 76.421C55.8073 76.4212 55.8075 76.4215 55.8076 76.4216C55.8078 76.4218 55.808 76.422 56.5827 75.7897C57.3574 75.1574 57.3575 75.1575 57.3576 75.1577C57.3576 75.1577 57.3577 75.1578 57.3578 75.1578C57.3578 75.1579 57.3578 75.1579 57.3577 75.1578C57.3576 75.1577 57.3572 75.1572 57.3566 75.1564C57.3552 75.1547 57.3529 75.1518 57.3495 75.1476C57.3428 75.1392 57.332 75.1258 57.3175 75.1075C57.2885 75.0707 57.2444 75.0144 57.1874 74.9397C57.0732 74.7902 56.9073 74.5674 56.7058 74.2811C56.3023 73.7077 55.7589 72.8837 55.2039 71.8872C54.084 69.8764 52.9623 67.2439 52.7796 64.5889L50.7843 64.7262ZM55.1514 64.8345C54.1498 64.7528 53.1844 64.4087 52.3487 63.8337L51.2151 65.4814C52.3368 66.2532 53.6367 66.7176 54.9888 66.8278L55.1514 64.8345ZM50.3791 56.0171C50.8574 59.7301 52.1777 63.2797 54.2368 66.3839L55.9035 65.2784C54.0148 62.431 52.8021 59.1726 52.3627 55.7616L50.3791 56.0171ZM54.8464 57.3703C53.8332 56.7858 52.9069 56.0553 52.0963 55.201L50.6455 56.5777C51.5879 57.5709 52.666 58.4214 53.847 59.1027L54.8464 57.3703ZM50.6356 47.3999C50.4929 49.9183 51.2225 52.7617 51.9438 54.9067C52.3093 55.9936 52.6828 56.9301 52.9653 57.5958C53.1066 57.929 53.2256 58.1952 53.3099 58.3796C53.352 58.4718 53.3855 58.5435 53.4089 58.593C53.4206 58.6178 53.4297 58.637 53.4361 58.6503C53.4393 58.657 53.4418 58.6623 53.4436 58.666C53.4445 58.6679 53.4453 58.6694 53.4458 58.6706C53.4461 58.6711 53.4463 58.6716 53.4465 58.672C53.4466 58.6722 53.4467 58.6724 53.4468 58.6725C53.4468 58.6727 53.4469 58.6729 54.3467 58.2365C55.2465 57.8001 55.2465 57.8003 55.2466 57.8004C55.2466 57.8004 55.2466 57.8004 55.2466 57.8004C55.2466 57.8005 55.2466 57.8004 55.2465 57.8002C55.2463 57.7998 55.246 57.7991 55.2455 57.798C55.2444 57.7959 55.2427 57.7922 55.2402 57.7872C55.2354 57.7771 55.2279 57.7612 55.2178 57.7399C55.1977 57.6972 55.1675 57.6326 55.1288 57.548C55.0514 57.3786 54.9399 57.1292 54.8064 56.8146C54.5391 56.1846 54.1851 55.2969 53.8395 54.2692C53.1387 52.1852 52.512 49.6386 52.6324 47.513L50.6356 47.3999ZM54.1577 48.7191C53.4485 48.3757 52.8764 47.7856 52.5469 47.0484L50.721 47.8645C51.2401 49.0259 52.147 49.9677 53.2862 50.5192L54.1577 48.7191ZM51.342 39.0112C51.1721 42.7052 51.6553 46.4005 52.7685 49.9207L54.6754 49.3176C53.6333 46.0223 53.1808 42.5623 53.3398 39.103L51.342 39.0112ZM55.0295 40.0606C54.2975 39.654 53.6503 39.1029 53.1262 38.438L51.5556 39.6761C52.2425 40.5476 53.0929 41.2728 54.0585 41.809L55.0295 40.0606ZM52.3574 31.2812C51.7893 34.688 52.2321 38.1906 53.6299 41.3404L55.458 40.5292C54.2194 37.7381 53.8263 34.632 54.3302 31.6101L52.3574 31.2812ZM55.9966 33.0917C55.2598 32.5423 54.6566 31.8246 54.2359 30.9939L52.4517 31.8974C53.0106 33.0013 53.8145 33.9594 54.8012 34.6951L55.9966 33.0917ZM54.3112 22.9895C53.3941 25.5107 53.4492 28.3343 53.7031 30.4599C53.8315 31.5348 54.0144 32.4587 54.1654 33.1155C54.241 33.4444 54.309 33.7076 54.3587 33.8906C54.3836 33.9822 54.4039 34.0538 54.4183 34.1037C54.4256 34.1287 54.4313 34.1482 54.4355 34.1621C54.4375 34.169 54.4392 34.1745 54.4404 34.1786C54.4411 34.1807 54.4416 34.1823 54.442 34.1837C54.4422 34.1843 54.4423 34.1849 54.4425 34.1854C54.4426 34.1856 54.4427 34.1859 54.4427 34.186C54.4428 34.1863 54.4429 34.1865 55.3989 33.8934C56.355 33.6002 56.355 33.6004 56.3551 33.6006C56.3551 33.6006 56.3552 33.6008 56.3552 33.6008C56.3552 33.601 56.3552 33.601 56.3552 33.6009C56.3552 33.6008 56.355 33.6003 56.3548 33.5995C56.3543 33.5978 56.3533 33.5947 56.352 33.5903C56.3493 33.5813 56.3451 33.5669 56.3393 33.5471C56.3279 33.5076 56.3106 33.4468 56.2888 33.3666C56.2453 33.2062 56.1838 32.9684 56.1145 32.6673C55.9758 32.0641 55.8072 31.212 55.689 30.2226C55.4497 28.2197 55.4308 25.7623 56.1907 23.6731L54.3112 22.9895ZM57.8796 25.2566C57.1096 24.6939 56.5205 23.9059 56.1919 22.9927L54.31 23.6698C54.7722 24.9543 55.6037 26.0706 56.6996 26.8714L57.8796 25.2566ZM56.327 16.5385C55.4257 19.7395 55.4257 23.1341 56.327 26.3351L58.2522 25.793C57.4506 22.9465 57.4506 19.9271 58.2522 17.0807L56.327 16.5385ZM59.5936 18.8915C58.921 18.3009 58.4541 17.4986 58.2687 16.6062L56.3105 17.013C56.5832 18.3256 57.2715 19.5141 58.2738 20.3943L59.5936 18.8915ZM59.0324 18.6429H58.9337V20.6429H59.0324V18.6429ZM57.4579 15.5876C57.3709 17.0805 57.5864 18.576 58.0913 19.9811L59.9734 19.3048C59.56 18.1541 59.3832 16.9283 59.4546 15.704L57.4579 15.5876ZM58.5976 11.3006C57.9327 12.6354 57.545 14.0947 57.4579 15.5876L59.4546 15.704C59.5259 14.4798 59.8438 13.2844 60.3878 12.1924L58.5976 11.3006ZM61.6711 0.89679C61.2944 4.52785 60.2531 8.05399 58.6018 11.2922L60.3836 12.2008C62.1471 8.74237 63.2584 4.97811 63.6605 1.10321L61.6711 0.89679ZM62.5915 96.1599C62.5532 96.1661 62.5152 96.172 62.4774 96.1777L62.7727 98.1558C62.819 98.1489 62.8654 98.1416 62.9119 98.1341L62.5915 96.1599ZM62.7064 96.1405C62.6678 96.1473 62.6295 96.1537 62.5915 96.1599L62.9119 98.1341C62.9582 98.1266 63.0045 98.1188 63.0509 98.1106L62.7064 96.1405ZM61.7607 97.1817C61.8433 97.3237 61.9243 97.4664 62.0038 97.6099L63.7535 96.6412C63.667 96.4851 63.579 96.3301 63.4895 96.1761L61.7607 97.1817ZM63.7496 96.1953C63.5518 96.0784 63.3556 95.9582 63.1613 95.8348L62.0889 97.523C62.3016 97.6581 62.516 97.7894 62.732 97.9171L63.7496 96.1953ZM75.9985 90.9298C75.4433 90.0981 75.4434 90.098 75.4434 90.098C75.4434 90.098 75.4434 90.098 75.4433 90.0981C75.4432 90.0981 75.443 90.0983 75.4427 90.0985C75.442 90.099 75.4408 90.0997 75.4393 90.1008C75.4361 90.1029 75.4311 90.1062 75.4244 90.1106C75.4109 90.1196 75.3904 90.1331 75.3631 90.1511C75.3086 90.1869 75.227 90.2402 75.1209 90.3088C74.9086 90.4459 74.5982 90.644 74.2089 90.8854C73.4298 91.3687 72.3378 92.024 71.0868 92.7119C68.5561 94.1036 65.4788 95.5701 63.0375 96.0771L63.4442 98.0353C66.2002 97.4629 69.5016 95.8661 72.0505 94.4644C73.3393 93.7557 74.4622 93.0818 75.2631 92.585C75.6639 92.3365 75.9847 92.1318 76.2062 91.9887C76.3169 91.9172 76.4029 91.861 76.4616 91.8224C76.491 91.8031 76.5135 91.7882 76.529 91.7779C76.5367 91.7728 76.5427 91.7689 76.5468 91.7661C76.5489 91.7647 76.5505 91.7636 76.5517 91.7629C76.5522 91.7625 76.5527 91.7622 76.553 91.7619C76.5532 91.7618 76.5534 91.7617 76.5535 91.7617C76.5536 91.7616 76.5537 91.7615 75.9985 90.9298ZM76.1009 93.3509C76.2135 92.6738 76.4644 92.036 76.8316 91.4829L75.1655 90.3766C74.639 91.1694 74.2859 92.0734 74.128 93.0227L76.1009 93.3509ZM81.6135 89.0633C78.9814 89.4778 76.5098 90.6449 74.4576 92.4328L75.7713 93.9408C77.5483 92.3928 79.6747 91.3932 81.9246 91.0389L81.6135 89.0633ZM82.06 92.3167C82.0977 91.6924 82.2906 91.0952 82.6133 90.5871L80.9248 89.5151C80.4167 90.3153 80.1213 91.2411 80.0636 92.1961L82.06 92.3167ZM86.8702 88.854C84.5751 89.1762 82.3863 90.0653 80.476 91.4459L81.6476 93.0669C83.2997 91.8728 85.183 91.1104 87.1481 90.8346L86.8702 88.854ZM86.4986 92.2513C86.8276 91.6163 87.242 91.0401 87.7267 90.5409L86.2916 89.1478C85.6683 89.79 85.14 90.5261 84.7228 91.3311L86.4986 92.2513ZM92.0002 89.0691C89.6192 89.1644 87.2856 89.7905 85.1485 90.9045L86.0729 92.678C87.9523 91.6983 89.9981 91.1509 92.0802 91.0675L92.0002 89.0691ZM91.6692 91.8331C91.8445 91.4359 92.1375 91.1345 92.4807 90.9661L91.5998 89.1705C90.8133 89.5564 90.1954 90.219 89.8394 91.0257L91.6692 91.8331ZM97.1172 89.5173C94.8508 89.4133 92.586 89.7409 90.4287 90.4839L91.08 92.3749C93.0002 91.7135 95.013 91.4228 97.0255 91.5152L97.1172 89.5173ZM96.8408 92.4104C97.062 91.9676 97.3626 91.5827 97.7209 91.2766L96.4218 89.756C95.8543 90.2408 95.3892 90.8408 95.0516 91.5166L96.8408 92.4104ZM101.77 90.1159C99.6341 89.7567 97.449 90.0907 95.4977 91.0697L96.3947 92.8573C97.971 92.0664 99.7264 91.8003 101.438 92.0882L101.77 90.1159ZM100.984 93.0084C101.282 92.571 101.664 92.2181 102.098 91.9715L101.11 90.2326C100.402 90.635 99.7948 91.2012 99.3307 91.8835L100.984 93.0084ZM106.736 91.3818C104.476 90.729 102.089 90.7683 99.849 91.4947L100.466 93.3972C102.326 92.7938 104.305 92.7615 106.181 93.3033L106.736 91.3818ZM105.689 94.2318C105.98 93.7847 106.383 93.4532 106.836 93.2687L106.081 91.4164C105.235 91.761 104.517 92.3662 104.013 93.1411L105.689 94.2318ZM110.678 92.7316C108.678 92.1095 106.553 92.1095 104.554 92.7316L105.148 94.6413C106.761 94.1396 108.471 94.1396 110.083 94.6413L110.678 92.7316ZM109.452 95.3862C109.76 95.0077 110.165 94.7592 110.599 94.6624L110.162 92.7105C109.273 92.9092 108.482 93.4107 107.901 94.1231L109.452 95.3862ZM111.13 93.3819C110.171 93.3226 109.213 93.4731 108.314 93.8226L109.039 95.6866C109.67 95.4412 110.339 95.3368 111.006 95.3781L111.13 93.3819ZM113.875 94.1661C113.022 93.7091 112.088 93.4413 111.13 93.3819L111.006 95.3781C111.673 95.4194 112.327 95.6059 112.93 95.929L113.875 94.1661ZM119.953 96.2085C117.837 95.9504 115.783 95.2631 113.901 94.1807L112.904 95.9144C115.015 97.1283 117.325 97.9027 119.711 98.1938L119.953 96.2085ZM113.856 100.177C115.797 99.1887 117.863 98.5191 119.985 98.1893L119.678 96.213C117.344 96.5757 115.076 97.3116 112.949 98.3948L113.856 100.177ZM111.132 100.991C112.105 100.931 113.05 100.643 113.902 100.152L112.903 98.4195C112.314 98.7588 111.668 98.9538 111.008 98.9947L111.132 100.991ZM108.285 100.499C109.187 100.882 110.159 101.051 111.132 100.991L111.008 98.9947C110.348 99.0356 109.687 98.9217 109.068 98.6586L108.285 100.499ZM110.599 99.6711C110.165 99.5743 109.76 99.3257 109.452 98.9472L107.901 100.21C108.482 100.923 109.273 101.424 110.162 101.623L110.599 99.6711ZM104.554 101.602C106.553 102.224 108.678 102.224 110.678 101.602L110.083 99.6922C108.471 100.194 106.761 100.194 105.148 99.6922L104.554 101.602ZM106.836 101.065C106.383 100.88 105.98 100.549 105.689 100.102L104.013 101.192C104.517 101.967 105.235 102.572 106.081 102.917L106.836 101.065ZM99.849 102.839C102.089 103.565 104.476 103.604 106.736 102.952L106.181 101.03C104.305 101.572 102.326 101.54 100.466 100.936L99.849 102.839ZM102.098 102.362C101.664 102.115 101.282 101.762 100.984 101.325L99.3307 102.45C99.7948 103.132 100.402 103.698 101.11 104.101L102.098 102.362ZM95.4977 103.264C97.449 104.243 99.6341 104.577 101.77 104.218L101.438 102.245C99.7264 102.533 97.971 102.267 96.3947 101.476L95.4977 103.264ZM97.7209 103.057C97.3626 102.751 97.062 102.366 96.8408 101.923L95.0516 102.817C95.3892 103.493 95.8543 104.093 96.4218 104.577L97.7209 103.057ZM90.4287 103.85C92.586 104.593 94.8508 104.92 97.1172 104.816L97.0255 102.818C95.013 102.911 93.0002 102.62 91.08 101.959L90.4287 103.85ZM92.4807 103.367C92.1375 103.199 91.8445 102.898 91.6692 102.5L89.8394 103.308C90.1954 104.114 90.8133 104.777 91.5998 105.163L92.4807 103.367ZM85.1485 103.429C87.2856 104.543 89.6192 105.169 92.0002 105.264L92.0802 103.266C89.9981 103.183 87.9523 102.635 86.0729 101.655L85.1485 103.429ZM87.7267 103.793C87.242 103.293 86.8276 102.717 86.4986 102.082L84.7228 103.002C85.14 103.807 85.6683 104.543 86.2916 105.186L87.7267 103.793ZM80.476 102.888C82.3863 104.268 84.5751 105.157 86.8702 105.479L87.1481 103.499C85.183 103.223 83.2997 102.461 81.6476 101.267L80.476 102.888ZM82.6133 103.746C82.2906 103.238 82.0977 102.641 82.06 102.017L80.0636 102.137C80.1213 103.092 80.4167 104.018 80.9248 104.818L82.6133 103.746ZM74.4576 101.901C76.5098 103.689 78.9814 104.856 81.6135 105.27L81.9246 103.295C79.6747 102.94 77.5483 101.941 75.7713 100.393L74.4576 101.901ZM76.8083 102.359C76.4647 101.956 76.2153 101.461 76.0881 100.918L74.1409 101.375C74.3387 102.219 74.7298 103.003 75.2852 103.656L76.8083 102.359ZM63.5878 98.3565C66.0511 98.9179 69.0157 100.273 71.4118 101.524C72.5993 102.145 73.6277 102.729 74.3587 103.157C74.724 103.372 75.0145 103.547 75.2128 103.668C75.312 103.728 75.3881 103.775 75.4389 103.807C75.4643 103.823 75.4834 103.834 75.4959 103.842C75.5022 103.846 75.5068 103.849 75.5097 103.851C75.5112 103.852 75.5122 103.853 75.5128 103.853C75.5131 103.853 75.5133 103.853 75.5134 103.853C75.5135 103.853 75.5135 103.853 75.5135 103.853C75.5135 103.853 75.5134 103.853 76.0468 103.007C76.5801 102.162 76.58 102.161 76.5799 102.161C76.5798 102.161 76.5796 102.161 76.5794 102.161C76.5791 102.161 76.5787 102.161 76.5781 102.16C76.577 102.16 76.5755 102.159 76.5736 102.157C76.5697 102.155 76.5641 102.151 76.5569 102.147C76.5424 102.138 76.5213 102.125 76.4938 102.108C76.4389 102.074 76.3585 102.024 76.2548 101.961C76.0475 101.834 75.7469 101.653 75.3705 101.432C74.6182 100.991 73.5605 100.39 72.3375 99.7516C69.9128 98.4855 66.759 97.028 64.0322 96.4065L63.5878 98.3565ZM69.4972 98.5303C67.6901 98.0965 65.9417 97.4162 64.2933 96.5061L63.3266 98.2569C65.1298 99.2525 67.0462 99.9988 69.0303 100.475L69.4972 98.5303ZM68.8505 100.752C69.0294 100.612 69.2301 100.524 69.4355 100.488L69.0919 98.5176C68.5532 98.6115 68.0485 98.8398 67.6173 99.1775L68.8505 100.752ZM72.1729 100.573C71.0615 99.6765 69.7366 99.1192 68.3398 98.9704L68.1279 100.959C69.1313 101.066 70.0963 101.467 70.9176 102.13L72.1729 100.573ZM71.2951 102.578C71.4303 102.446 71.5883 102.363 71.7484 102.33L71.3422 100.372C70.7932 100.486 70.2933 100.759 69.8942 101.151L71.2951 102.578ZM74.0669 102.462C73.1105 101.674 71.9914 101.132 70.7966 100.885L70.3927 102.844C71.2596 103.023 72.0824 103.418 72.7946 104.005L74.0669 102.462ZM72.613 104.344C72.8733 104.265 73.1417 104.228 73.4101 104.234L73.4513 102.234C72.9704 102.224 72.4914 102.291 72.0303 102.431L72.613 104.344ZM75.8101 104.37C74.8923 103.509 73.819 102.853 72.6523 102.444L71.991 104.332C72.8876 104.646 73.7218 105.153 74.442 105.829L75.8101 104.37ZM74.5914 106.035C74.6514 106.012 74.7134 106.012 74.7734 106.035L75.4787 104.163C74.9641 103.97 74.4007 103.97 73.8861 104.163L74.5914 106.035ZM77.4758 106.509C76.6957 105.582 75.7656 104.808 74.7272 104.227L73.7504 105.972C74.5724 106.432 75.3162 107.049 75.9452 107.797L77.4758 106.509ZM76.0767 108.128C76.2128 108.097 76.3525 108.097 76.4886 108.128L76.9323 106.178C76.5042 106.081 76.0611 106.081 75.633 106.178L76.0767 108.128ZM78.919 108.41C78.2508 107.415 77.3129 106.648 76.2179 106.221L75.4918 108.085C76.1892 108.357 76.8079 108.854 77.2588 109.525L78.919 108.41ZM77.3982 109.937C77.5454 109.9 77.6975 109.9 77.8448 109.937L78.333 107.997C77.8653 107.88 77.3777 107.88 76.91 107.997L77.3982 109.937ZM80.2537 110.823C79.6441 109.685 78.7488 108.74 77.6584 108.104L76.6498 109.831C77.4078 110.273 78.048 110.94 78.4908 111.767L80.2537 110.823ZM78.5846 112.135C78.6913 112.112 78.804 112.126 78.9102 112.182L79.8343 110.408C79.3202 110.14 78.7322 110.058 78.1635 110.18L78.5846 112.135ZM81.1706 112.783C80.6535 111.744 79.8626 110.877 78.8837 110.297L77.8644 112.018C78.497 112.393 79.027 112.965 79.3801 113.674L81.1706 112.783ZM79.4057 113.97C79.5079 113.963 79.6159 113.99 79.7161 114.058L80.8346 112.4C80.3762 112.09 79.8306 111.938 79.2754 111.974L79.4057 113.97ZM81.0794 113.075C80.7161 112.647 80.2686 112.301 79.7631 112.066L78.918 113.878C79.1542 113.988 79.3723 114.154 79.555 114.369L81.0794 113.075ZM81.8806 114.543C81.7142 114.003 81.4426 113.502 81.0794 113.075L79.5551 114.369C79.738 114.585 79.8805 114.844 79.9693 115.132L81.8806 114.543ZM83.1597 117.616C82.5754 116.71 82.1475 115.692 81.8995 114.613L79.9504 115.062C80.2492 116.362 80.7664 117.595 81.4788 118.7L83.1597 117.616ZM79.0319 117.375C79.9805 117.755 80.8765 118.28 81.6922 118.937L82.9463 117.379C81.9792 116.6 80.9119 115.973 79.7759 115.518L79.0319 117.375ZM77.6563 116.513C78.0621 116.915 78.5519 117.219 79.092 117.396L79.7159 115.496C79.4798 115.419 79.2562 115.283 79.0642 115.092L77.6563 116.513ZM76.7394 115.083C76.9393 115.621 77.2509 116.111 77.6564 116.513L79.0642 115.092C78.8718 114.902 78.7164 114.662 78.6145 114.387L76.7394 115.083ZM78.7877 115.23C78.7108 115.102 78.669 114.943 78.676 114.777L76.6778 114.692C76.6546 115.24 76.79 115.788 77.0731 116.259L78.7877 115.23ZM75.1108 114.153C75.6465 115.18 76.4455 116.034 77.4253 116.608L78.4356 114.882C77.7944 114.506 77.2534 113.936 76.8841 113.228L75.1108 114.153ZM77.0524 114.397C76.9827 114.223 76.959 114.027 76.987 113.835L75.0079 113.547C74.9296 114.085 74.9938 114.637 75.196 115.141L77.0524 114.397ZM73.0878 112.814C73.6577 113.973 74.5229 114.948 75.5942 115.617L76.6542 113.921C75.9123 113.457 75.2953 112.771 74.8827 111.932L73.0878 112.814ZM74.9601 113.16C74.9178 112.975 74.9178 112.781 74.9601 112.596L73.0105 112.15C72.901 112.628 72.901 113.127 73.0105 113.606L74.9601 113.16ZM71.3573 111.286C71.7399 112.432 72.4364 113.439 73.3684 114.17L74.6022 112.596C73.992 112.117 73.5183 111.443 73.2543 110.653L71.3573 111.286ZM73.2873 111.702C73.2525 111.524 73.2525 111.339 73.2873 111.161L71.3243 110.778C71.2402 111.209 71.2402 111.654 71.3243 112.085L73.2873 111.702ZM69.5139 109.629C70.0344 110.747 70.7417 111.756 71.6037 112.606L73.0079 111.182C72.3201 110.504 71.7494 109.692 71.3268 108.785L69.5139 109.629ZM71.3654 109.838C71.3318 109.741 71.3318 109.631 71.3654 109.534L69.4753 108.88C69.2952 109.401 69.2952 109.971 69.4753 110.492L71.3654 109.838ZM67.878 107.44C68.247 108.672 68.8469 109.815 69.6444 110.796L71.1964 109.534C70.5683 108.762 70.0898 107.854 69.7939 106.866L67.878 107.44ZM69.709 108.331C69.7026 108.011 69.7364 107.692 69.8093 107.382L67.8626 106.924C67.7511 107.397 67.6997 107.884 67.7094 108.371L69.709 108.331ZM66.4412 105.462C66.6648 106.722 67.1621 107.912 67.8973 108.935L69.521 107.767C68.9654 106.994 68.5831 106.085 68.4104 105.113L66.4412 105.462ZM67.9308 106.512C67.9768 106.284 68.0738 106.078 68.2066 105.912L66.6451 104.663C66.3072 105.085 66.0774 105.585 65.9702 106.117L67.9308 106.512ZM64.6719 102.835C64.8146 104.291 65.3134 105.687 66.1239 106.877L67.7771 105.752C67.1602 104.845 66.7732 103.772 66.6624 102.64L64.6719 102.835ZM66.3806 103.781C66.3909 103.581 66.4467 103.391 66.5386 103.228L64.7957 102.247C64.5493 102.685 64.4091 103.176 64.3833 103.679L66.3806 103.781ZM62.0482 97.6906C63.1153 99.6362 63.9107 101.745 64.4063 103.949L66.3576 103.511C65.8215 101.127 64.9603 98.8411 63.8018 96.7288L62.0482 97.6906ZM62.4975 98.1586C62.5867 98.17 62.6775 98.183 62.7696 98.1975L63.0804 96.2218C62.9705 96.2045 62.8613 96.1889 62.7527 96.1749L62.4975 98.1586ZM62.5237 98.1965C62.6081 98.1815 62.6912 98.168 62.7729 98.1557L62.4772 96.1777C62.3769 96.1927 62.2761 96.2092 62.1749 96.2272L62.5237 98.1965ZM61.015 104.103C61.4784 101.848 62.229 99.6792 63.2429 97.6607L61.4557 96.763C60.3618 98.9408 59.554 101.276 59.0559 103.7L61.015 104.103ZM58.7806 103.313C58.9149 103.527 59.0071 103.777 59.0457 104.044L61.0252 103.759C60.9478 103.222 60.7611 102.706 60.4743 102.249L58.7806 103.313ZM59.1674 106.947C59.9807 105.751 60.4807 104.345 60.6228 102.878L58.6321 102.685C58.5213 103.829 58.1323 104.913 57.5139 105.821L59.1674 106.947ZM57.1002 105.969C57.2255 106.128 57.3165 106.329 57.3552 106.554L59.3262 106.214C59.2331 105.673 59.01 105.161 58.671 104.731L57.1002 105.969ZM57.4352 109.007C58.1519 107.977 58.6406 106.787 58.8694 105.529L56.9017 105.171C56.7226 106.156 56.3418 107.077 55.7937 107.864L57.4352 109.007ZM55.5051 107.479C55.5836 107.783 55.6207 108.099 55.6147 108.416L57.6143 108.454C57.6238 107.957 57.5657 107.459 57.4414 106.978L55.5051 107.479ZM55.6831 110.89C56.4772 109.903 57.0717 108.751 57.4334 107.508L55.5131 106.949C55.2228 107.947 54.7485 108.861 54.1249 109.636L55.6831 110.89ZM53.9573 109.619C53.9921 109.722 53.9921 109.838 53.9573 109.941L55.8507 110.585C56.0276 110.065 56.0276 109.495 55.8507 108.975L53.9573 109.619ZM53.7495 112.705C54.5941 111.846 55.2907 110.835 55.8104 109.72L53.9975 108.875C53.5711 109.79 53.0035 110.611 52.3237 111.302L53.7495 112.705ZM51.9883 111.317C52.0379 111.514 52.0554 111.721 52.0395 111.927L54.0336 112.081C54.066 111.661 54.0305 111.237 53.9279 110.829L51.9883 111.317ZM51.8979 114.289C52.8292 113.555 53.5244 112.541 53.9072 111.388L52.009 110.758C51.7429 111.559 51.2678 112.239 50.6601 112.718L51.8979 114.289ZM50.3001 112.691C50.3418 112.891 50.3418 113.099 50.3001 113.299L52.2579 113.708C52.3559 113.238 52.3559 112.751 52.2579 112.282L50.3001 112.691ZM49.6813 115.744C50.7447 115.068 51.6046 114.09 52.1762 112.928L50.3818 112.045C49.9637 112.894 49.3462 113.587 48.6084 114.056L49.6813 115.744ZM48.2864 113.992C48.318 114.166 48.2961 114.345 48.2292 114.498L50.0604 115.302C50.2898 114.779 50.3561 114.196 50.2543 113.635L48.2864 113.992ZM47.8895 116.738C48.8524 116.155 49.6353 115.296 50.1606 114.269L48.3801 113.358C48.0149 114.072 47.4825 114.646 46.8536 115.027L47.8895 116.738ZM46.6104 114.949C46.6233 115.102 46.5865 115.249 46.5177 115.362L48.2254 116.403C48.5214 115.917 48.6508 115.345 48.6034 114.781L46.6104 114.949ZM47.6252 116.628C48.0166 116.233 48.3245 115.76 48.5343 115.239L46.6796 114.491C46.5657 114.773 46.4027 115.02 46.2055 115.219L47.6252 116.628ZM46.2497 117.525C46.7662 117.33 47.2336 117.022 47.6252 116.628L46.2055 115.219C46.0085 115.417 45.7821 115.563 45.5432 115.654L46.2497 117.525ZM43.5592 118.935C44.3516 118.295 45.2408 117.826 46.1801 117.548L45.6128 115.63C44.4147 115.985 43.2923 116.579 42.3019 117.38L43.5592 118.935ZM43.5487 114.677C43.2082 115.726 42.7222 116.707 42.11 117.586L43.7511 118.729C44.4783 117.685 45.0511 116.526 45.451 115.295L43.5487 114.677ZM44.3216 113.208C43.9584 113.647 43.6923 114.162 43.537 114.716L45.4626 115.256C45.5449 114.963 45.6833 114.7 45.8624 114.483L44.3216 113.208ZM45.6533 112.18C45.1384 112.416 44.6852 112.769 44.3216 113.208L45.8624 114.483C46.0414 114.267 46.2552 114.104 46.4848 113.999L45.6533 112.18ZM45.7089 114.173C45.806 114.106 45.9081 114.081 46.0029 114.088L46.1353 112.092C45.5788 112.055 45.0337 112.211 44.5775 112.524L45.7089 114.173ZM46.501 110.412C45.5428 111.003 44.7668 111.869 44.2494 112.9L46.037 113.797C46.397 113.079 46.9253 112.5 47.5516 112.113L46.501 110.412ZM46.5186 112.286C46.6185 112.233 46.7223 112.22 46.8201 112.241L47.2326 110.284C46.6715 110.166 46.0934 110.25 45.5882 110.515L46.5186 112.286ZM47.7249 108.196C46.6421 108.837 45.7588 109.793 45.1651 110.941L46.9417 111.86C47.3725 111.026 48.001 110.357 48.7444 109.916L47.7249 108.196ZM47.553 110.026C47.6974 109.989 47.8461 109.989 47.9904 110.026L48.4789 108.086C48.0139 107.969 47.5295 107.969 47.0646 108.086L47.553 110.026ZM49.153 106.299C48.0646 106.73 47.1351 107.505 46.4744 108.505L48.1432 109.607C48.5908 108.929 49.2031 108.43 49.8898 108.158L49.153 106.299ZM48.9197 108.202C49.0426 108.173 49.1686 108.173 49.2914 108.202L49.7514 106.255C49.3261 106.155 48.8851 106.155 48.4597 106.255L48.9197 108.202ZM50.6473 104.289C49.6115 104.872 48.6868 105.654 47.9162 106.595L49.4632 107.862C50.0816 107.108 50.8162 106.489 51.6282 106.032L50.6473 104.289ZM50.621 106.092C50.6724 106.072 50.7243 106.072 50.7757 106.092L51.4998 104.228C50.9826 104.027 50.4141 104.027 49.897 104.228L50.621 106.092ZM52.7051 102.493C51.5418 102.901 50.4741 103.566 49.5659 104.439L50.9521 105.881C51.6611 105.199 52.4842 104.69 53.368 104.38L52.7051 102.493ZM51.9436 104.281C52.2129 104.275 52.4824 104.312 52.7442 104.393L53.329 102.48C52.8656 102.338 52.3844 102.271 51.9012 102.281L51.9436 104.281ZM54.5411 100.923C53.3513 101.174 52.2374 101.72 51.2836 102.512L52.5611 104.05C53.2732 103.459 54.0922 103.062 54.953 102.881L54.5411 100.923ZM53.5804 102.363C53.7451 102.398 53.9092 102.483 54.0521 102.621L55.442 101.183C55.0416 100.796 54.5448 100.524 53.9992 100.407L53.5804 102.363ZM56.9618 98.9944C55.573 99.1448 54.2576 99.7082 53.1558 100.612L54.4238 102.158C55.2363 101.492 56.1889 101.09 57.1772 100.983L56.9618 98.9944ZM56.1052 100.677C56.2411 100.684 56.3799 100.729 56.5088 100.817L57.6303 99.1606C57.2097 98.8758 56.7224 98.7074 56.2136 98.6797L56.1052 100.677ZM61.0126 96.5306C59.4034 97.5028 57.6849 98.2363 55.9016 98.7121L56.4172 100.644C58.3863 100.119 60.279 99.3104 62.0468 98.2425L61.0126 96.5306ZM49.2667 103.404C49.8223 104.235 49.8223 104.235 49.8222 104.235C49.8223 104.235 49.8223 104.235 49.8223 104.235C49.8224 104.235 49.8226 104.235 49.8229 104.235C49.8236 104.234 49.8246 104.234 49.8261 104.233C49.8291 104.231 49.8337 104.228 49.84 104.223C49.8526 104.215 49.8719 104.202 49.8975 104.185C49.9488 104.152 50.0254 104.101 50.1253 104.037C50.3251 103.907 50.6176 103.72 50.9852 103.491C51.7209 103.033 52.7551 102.409 53.9476 101.746C56.3551 100.408 59.3237 98.9602 61.769 98.3575L61.2904 96.4156C58.5719 97.0856 55.409 98.6461 52.976 99.9983C51.7481 100.681 50.6848 101.322 49.928 101.794C49.5494 102.029 49.2469 102.223 49.0383 102.358C48.934 102.425 48.8531 102.478 48.7978 102.515C48.7702 102.533 48.7489 102.547 48.7344 102.557C48.7271 102.562 48.7215 102.565 48.7176 102.568C48.7156 102.569 48.7141 102.57 48.713 102.571C48.7125 102.571 48.712 102.572 48.7117 102.572C48.7115 102.572 48.7114 102.572 48.7113 102.572C48.7112 102.572 48.711 102.572 49.2667 103.404ZM49.1796 100.981C49.0661 101.658 48.8117 102.294 48.4395 102.842L50.0939 103.966C50.6315 103.174 50.9919 102.267 51.152 101.312L49.1796 100.981ZM43.6765 105.27C46.3032 104.85 48.7698 103.684 50.8216 101.902L49.51 100.392C47.7319 101.936 45.608 102.936 43.3609 103.295L43.6765 105.27ZM43.2276 102.006C43.1831 102.636 42.9888 103.238 42.6684 103.756L44.3689 104.809C44.8635 104.01 45.1557 103.094 45.2227 102.148L43.2276 102.006ZM38.406 105.48C40.7049 105.16 42.8977 104.271 44.8111 102.887L43.6392 101.267C41.9847 102.463 40.0985 103.225 38.1308 103.499L38.406 105.48ZM38.7943 102.081C38.4635 102.716 38.0456 103.291 37.5566 103.787L38.9802 105.191C39.6123 104.551 40.1473 103.813 40.5684 103.004L38.7943 102.081ZM33.2991 105.264C35.6777 105.169 38.0091 104.543 40.144 103.429L39.2187 101.656C37.3416 102.635 35.2984 103.183 33.219 103.266L33.2991 105.264ZM33.646 102.497C33.4683 102.896 33.172 103.198 32.8262 103.364L33.6918 105.167C34.4866 104.785 35.1122 104.121 35.4731 103.311L33.646 102.497ZM28.2045 104.816C30.4681 104.918 32.7297 104.591 34.8847 103.85L34.2344 101.958C32.3156 102.618 30.3051 102.909 28.2947 102.818L28.2045 104.816ZM28.4837 101.914C28.2551 102.359 27.9509 102.75 27.5908 103.065L28.9083 104.57C29.4634 104.084 29.9225 103.491 30.2633 102.826L28.4837 101.914ZM23.5411 104.218C25.6792 104.575 27.8658 104.241 29.8205 103.264L28.9265 101.475C27.3453 102.265 25.5865 102.532 23.8705 102.245L23.5411 104.218ZM24.3415 101.323C24.0414 101.762 23.6557 102.114 23.2184 102.358L24.1932 104.105C24.9091 103.705 25.5232 103.138 25.9923 102.452L24.3415 101.323ZM18.58 102.952C20.843 103.604 23.2321 103.565 25.4748 102.839L24.859 100.936C22.9951 101.539 21.0133 101.572 19.1339 101.03L18.58 102.952ZM19.6278 100.096C19.3323 100.544 18.9278 100.878 18.4727 101.068L19.2412 102.914C20.0791 102.565 20.7914 101.964 21.2973 101.198L19.6278 100.096ZM14.6429 101.602C16.6401 102.222 18.7618 102.222 20.759 101.602L20.1661 99.692C18.5551 100.192 16.8468 100.192 15.2358 99.692L14.6429 101.602ZM15.7414 99.1109C15.701 99.1871 15.5383 99.3382 15.2108 99.4901C15.0711 99.5549 14.9377 99.6032 14.8389 99.6351C14.7903 99.6508 14.752 99.6619 14.728 99.6686C14.716 99.6719 14.7077 99.6741 14.7036 99.6752C14.7016 99.6757 14.7006 99.6759 14.7007 99.6759C14.7008 99.6759 14.7012 99.6758 14.7018 99.6756C14.7021 99.6756 14.7025 99.6755 14.703 99.6753C14.7032 99.6753 14.7035 99.6752 14.7037 99.6752C14.7039 99.6751 14.7041 99.6751 14.7042 99.6751C14.7044 99.675 14.7046 99.6749 14.9393 100.647C15.174 101.619 15.1743 101.619 15.1745 101.619C15.1746 101.619 15.1748 101.619 15.175 101.619C15.1754 101.619 15.1757 101.619 15.1761 101.619C15.1769 101.618 15.1778 101.618 15.1787 101.618C15.1806 101.617 15.1828 101.617 15.1853 101.616C15.1903 101.615 15.1966 101.613 15.2041 101.612C15.219 101.608 15.2387 101.602 15.2626 101.596C15.3104 101.583 15.3756 101.564 15.4536 101.538C15.6082 101.488 15.821 101.412 16.0527 101.304C16.4678 101.112 17.1479 100.729 17.5089 100.047L15.7414 99.1109ZM14.1827 100.952C15.1384 101.012 16.094 100.861 16.9898 100.51L16.2606 98.6476C15.6338 98.8931 14.9693 98.9975 14.3069 98.9562L14.1827 100.952ZM11.4461 100.166C12.2956 100.624 13.227 100.893 14.1827 100.952L14.3069 98.9562C13.6446 98.915 12.9942 98.7287 12.3956 98.4058L11.4461 100.166ZM5.29748 98.125C7.43816 98.3853 9.51731 99.0733 11.4278 100.156L12.4138 98.4159C10.2774 97.2052 7.94571 96.4323 5.53898 96.1396L5.29748 98.125ZM11.4696 94.1551C9.50518 95.1484 7.4148 95.8183 5.2684 96.1436L5.56807 98.121C7.92693 97.7635 10.2206 97.0278 12.3721 95.9399L11.4696 94.1551ZM14.1806 93.343C13.2106 93.4034 12.2682 93.6911 11.4199 94.182L12.4217 95.9131C13.0066 95.5746 13.6493 95.38 14.3049 95.3392L14.1806 93.343ZM17.0179 93.835C16.1195 93.4514 15.1506 93.2827 14.1806 93.343L14.3049 95.3392C14.9604 95.2984 15.618 95.4119 16.2325 95.6743L17.0179 93.835ZM14.9393 93.6864C14.7046 94.6585 14.7044 94.6585 14.7042 94.6584C14.7041 94.6584 14.7039 94.6583 14.7037 94.6583C14.7035 94.6582 14.7032 94.6582 14.703 94.6581C14.7025 94.658 14.7021 94.6579 14.7018 94.6578C14.7012 94.6577 14.7008 94.6576 14.7007 94.6576C14.7006 94.6575 14.7016 94.6578 14.7036 94.6583C14.7077 94.6594 14.716 94.6615 14.728 94.6649C14.752 94.6715 14.7903 94.6826 14.8389 94.6983C14.9377 94.7302 15.0711 94.7785 15.2108 94.8434C15.5383 94.9953 15.701 95.1463 15.7414 95.2226L17.5089 94.2867C17.1479 93.6049 16.4678 93.2218 16.0527 93.0292C15.821 92.9217 15.6082 92.8451 15.4536 92.7952C15.3756 92.7699 15.3104 92.7509 15.2626 92.7376C15.2387 92.731 15.219 92.7258 15.2041 92.7219C15.1966 92.72 15.1903 92.7184 15.1853 92.7171C15.1828 92.7165 15.1806 92.716 15.1787 92.7155C15.1778 92.7153 15.1769 92.7151 15.1761 92.7149C15.1757 92.7148 15.1754 92.7147 15.175 92.7146C15.1748 92.7146 15.1746 92.7145 15.1745 92.7145C15.1743 92.7144 15.174 92.7144 14.9393 93.6864ZM20.759 92.7314C18.7618 92.1115 16.6401 92.1115 14.6429 92.7314L15.2358 94.6415C16.8468 94.1414 18.5551 94.1414 20.1661 94.6415L20.759 92.7314ZM18.4726 93.2658C18.9278 93.4552 19.3323 93.7891 19.6278 94.2371L21.2973 93.1358C20.7914 92.369 20.0791 91.7681 19.2412 91.4194L18.4726 93.2658ZM25.4748 91.4945C23.2321 90.7687 20.843 90.7295 18.58 91.3817L19.1339 93.3035C21.0133 92.7618 22.9951 92.7942 24.859 93.3974L25.4748 91.4945ZM23.2184 91.9753C23.6557 92.2193 24.0414 92.5717 24.3415 93.0105L25.9923 91.8814C25.5232 91.1957 24.9091 90.6285 24.1932 90.2289L23.2184 91.9753ZM29.8205 91.069C27.8658 90.0923 25.6792 89.7587 23.5411 90.1157L23.8705 92.0884C25.5865 91.8019 27.3453 92.068 28.9266 92.8581L29.8205 91.069ZM27.5908 91.2687C27.9509 91.584 28.2551 91.974 28.4837 92.4198L30.2633 91.5072C29.9225 90.8425 29.4634 90.25 28.9083 89.7639L27.5908 91.2687ZM34.8847 90.4838C32.7297 89.7427 30.4681 89.4152 28.2045 89.5173L28.2947 91.5153C30.3051 91.4246 32.3156 91.7153 34.2344 92.3751L34.8847 90.4838ZM32.8262 90.9698C33.172 91.1358 33.4683 91.437 33.646 91.8362L35.4731 91.0227C35.1122 90.2121 34.4866 89.5484 33.6918 89.1668L32.8262 90.9698ZM40.144 90.9047C38.0091 89.7906 35.6777 89.1645 33.2991 89.0691L33.219 91.0675C35.2984 91.1509 37.3416 91.6983 39.2187 92.6778L40.144 90.9047ZM37.5566 90.5467C38.0456 91.0423 38.4635 91.6173 38.7943 92.2529L40.5684 91.3296C40.1473 90.5206 39.6123 89.7825 38.9802 89.142L37.5566 90.5467ZM44.8111 91.4461C42.8977 90.0626 40.7049 89.1732 38.406 88.8539L38.1308 90.8348C40.0985 91.1082 41.9847 91.8705 43.6392 93.0668L44.8111 91.4461ZM42.6684 90.5775C42.9888 91.095 43.1831 91.6973 43.2276 92.327L45.2227 92.1858C45.1557 91.2398 44.8635 90.3235 44.3689 89.5247L42.6684 90.5775ZM50.8216 92.4319C48.7698 90.6494 46.3032 89.4833 43.6765 89.0636L43.3609 91.0386C45.608 91.3976 47.7319 92.3971 49.51 93.9417L50.8216 92.4319ZM48.4654 91.965C48.8087 92.3783 49.0603 92.8781 49.1946 93.4252L51.137 92.9484C50.9323 92.1149 50.5458 91.3395 50.0038 90.687L48.4654 91.965ZM62.2119 96.0901C59.7581 95.6408 56.6712 94.2653 54.1349 92.9532C52.8807 92.3045 51.7863 91.6846 51.0056 91.227C50.6156 90.9983 50.3046 90.8106 50.0919 90.6806C49.9856 90.6156 49.9039 90.5651 49.8493 90.5311C49.822 90.5141 49.8015 90.5012 49.788 90.4928C49.7812 90.4886 49.7763 90.4854 49.7731 90.4834C49.7715 90.4824 49.7704 90.4817 49.7697 90.4813C49.7694 90.4811 49.7692 90.4809 49.7691 90.4809C49.769 90.4808 49.769 90.4808 49.769 90.4808C49.769 90.4809 49.7691 90.4809 49.2346 91.326C48.7 92.1712 48.7002 92.1713 48.7003 92.1714C48.7004 92.1714 48.7006 92.1715 48.7007 92.1716C48.7011 92.1719 48.7016 92.1722 48.7022 92.1725C48.7033 92.1733 48.7049 92.1743 48.707 92.1756C48.7112 92.1782 48.7172 92.182 48.7249 92.1869C48.7404 92.1966 48.7631 92.2108 48.7925 92.2291C48.8514 92.2658 48.9376 92.3191 49.0487 92.387C49.2708 92.5228 49.5924 92.7169 49.9943 92.9524C50.7973 93.4231 51.9233 94.061 53.2159 94.7296C55.773 96.0524 59.0847 97.5508 61.8517 98.0574L62.2119 96.0901ZM62.0567 95.8558C61.8699 95.9847 61.6814 96.1102 61.4913 96.2324L62.5724 97.915C62.7811 97.781 62.9879 97.6432 63.1927 97.5018L62.0567 95.8558ZM63.2809 97.5854C63.3552 97.4388 63.4308 97.293 63.5078 97.148L61.7416 96.2096C61.6585 96.3661 61.5768 96.5235 61.4967 96.6817L63.2809 97.5854ZM62.7528 96.1749C62.6824 96.1658 62.611 96.1558 62.5388 96.1449L62.2388 98.1222C62.3254 98.1354 62.4116 98.1475 62.4973 98.1585L62.7528 96.1749ZM69.5487 75.8476C68.4161 77.9436 66.6422 81.386 65.0579 85.1485C63.4816 88.8919 62.0577 93.0333 61.6788 96.505L63.6669 96.722C64.0133 93.5483 65.343 89.625 66.9011 85.9247C68.4512 82.2436 70.1924 78.8633 71.3083 76.7984L69.5487 75.8476ZM63.4819 97.2012C65.6068 94.2759 67.3878 89.9088 68.7257 85.935C70.0723 81.9354 71.0043 78.2275 71.4015 76.5539L69.4555 76.0921C69.0657 77.7348 68.1498 81.3776 66.8302 85.2968C65.5021 89.2418 63.7988 93.3618 61.8638 96.0258L63.4819 97.2012Z" fill="#D4AF37"/>
</svg>
