<svg width="192" height="158" viewBox="0 0 192 158" fill="none" xmlns="http://www.w3.org/2000/svg">
<path d="M0.829106 68.1432C1.6184 68.1689 1.94845 67.8229 3.79522 65.0346C4.93824 63.3087 5.99633 61.8741 6.14674 61.8463C6.42834 61.7943 6.24525 64.5216 5.91365 65.3136C5.81121 65.5584 5.26056 66.4998 4.6899 67.4054L3.65214 69.052L4.58595 69.1888C5.09934 69.2639 6.11314 69.2159 6.839 69.0818C7.81995 68.9006 8.38973 68.9917 9.06123 69.4368C9.91081 70.0002 12.4049 70.508 13.4107 70.3222C13.7602 70.2577 13.7601 69.6652 13.4092 67.7659C13.1579 66.4059 13.0314 65.1909 13.1283 65.066C13.2247 64.9408 14.2964 65.87 15.5092 67.1312C19.0101 70.7709 20.2627 71.7802 21.7389 72.1506L23.1195 72.4972L23.5653 70.3537C23.8104 69.175 24.11 67.2788 24.2313 66.1403C24.4397 64.1805 24.4134 64.0344 23.7374 63.3966C23.3072 62.9907 22.4807 62.6933 21.6592 62.649C20.9086 62.6085 20.1813 62.4047 20.0425 62.1966C19.9036 61.9882 19.347 61.8127 18.8049 61.8064C18.2631 61.8 17.4337 61.6222 16.962 61.4108C15.8736 60.9234 7.18148 59.9256 5.0406 60.0426C4.15195 60.0911 3.33135 60.0368 3.21635 59.9224C2.67619 59.3834 5.54524 58.4291 10.405 57.5313C13.8835 56.8887 15.4386 56.4955 15.3964 56.2689C15.3187 55.8482 20.3304 54.6106 22.2708 54.5712C23.3531 54.549 23.7196 54.4355 23.7957 54.0981C23.9519 53.4065 21.6409 43.1611 20.7477 40.5869C20.3077 39.3182 19.8758 37.3271 19.788 36.1621L19.6283 34.0439L20.4251 36.0444C20.8634 37.1446 21.6304 38.5164 22.1294 39.0925C22.6289 39.6687 23.1184 40.5794 23.2175 41.1158C23.3167 41.6525 23.5336 42.0665 23.6999 42.0358C23.8662 42.0051 24.2014 42.4954 24.4453 43.1253C24.6891 43.7553 25.0087 44.2485 25.1558 44.2213C25.4112 44.1741 25.7908 45.0563 26.7449 47.9162C26.9836 48.6315 27.3367 49.3186 27.53 49.4433C27.7232 49.5678 27.9857 50.2354 28.1133 50.9264C28.4993 53.0153 28.9825 53.4596 31.064 53.6368C35.1877 53.9881 37.1967 54.029 37.514 53.7679C37.6979 53.617 38.0113 52.955 38.2108 52.2969L38.5738 51.1001L38.9348 52.4438C39.2737 53.7057 39.373 53.7942 40.5636 53.8964C41.408 53.9686 41.9454 53.8822 42.1734 53.6367C42.4918 53.2944 45.617 53.5672 46.6724 54.0297C46.8778 54.1197 47.7193 54.2965 48.5422 54.4224C49.3655 54.5486 50.7327 54.9391 51.5805 55.2906C52.4285 55.6417 53.3714 55.8832 53.6759 55.827C54.6025 55.6558 60.6645 56.8913 62.3118 57.5871C63.1631 57.9468 64.0325 58.209 64.2435 58.17C64.4548 58.131 65.3972 58.4401 66.3379 58.8569C67.2786 59.2738 68.2018 59.5864 68.389 59.5519C68.5761 59.5173 69.9714 60.1339 71.4891 60.9222C74.63 62.5537 78.8302 64.3727 79.2692 64.2917C80.0493 64.1475 79.1313 63.2878 75.9093 61.1444C73.9758 59.8584 72.3626 58.6365 72.3242 58.4288C72.2859 58.2214 71.2136 57.4242 69.9413 56.6572C68.669 55.8902 67.608 55.1538 67.5834 55.0209C67.5588 54.8877 66.3649 54.059 64.9307 53.1792C61.4281 51.0307 58.5351 48.6952 58.3876 47.8969C58.3093 47.4735 57.3782 46.7447 55.7399 45.8254C54.1063 44.9088 53.1309 44.1462 52.9811 43.6692C52.8537 43.2632 51.9705 42.1862 51.0181 41.2757C49.7977 40.1089 49.306 39.4128 49.351 38.9163C49.3932 38.4514 48.8233 37.5009 47.6728 36.1193C46.5509 34.7716 46.0257 33.9034 46.1979 33.6805C46.3702 33.4575 46.0914 32.9203 45.4148 32.1712C44.1671 30.79 43.5212 29.5544 42.4276 26.457C41.9803 25.1897 41.3176 23.6554 40.9555 23.0473C40.2415 21.8492 39.3061 19.3024 39.0559 17.8756C38.6474 15.5454 36.731 8.84592 35.902 6.84925C35.3921 5.6208 34.9018 4.19268 34.8124 3.67564L34.6504 2.73545L35.4087 3.29825C36.5879 4.17326 38.1084 6.70091 39.43 9.9829C41.0746 14.0668 42.9193 17.0147 43.5906 16.6317C43.7323 16.5509 44.1987 17.1305 44.6272 17.9196C45.0556 18.709 45.6838 19.4349 46.0232 19.5329C46.3627 19.631 47.0384 20.4643 47.5254 21.3847C48.1649 22.595 48.5493 23.0106 48.9133 22.8851C49.2756 22.7602 49.6874 23.198 50.3847 24.4501C50.9659 25.4933 51.5369 26.1548 51.8122 26.104C52.0647 26.0573 52.7164 26.6291 53.2605 27.3748C53.933 28.2961 54.4176 28.6736 54.7725 28.5528C55.1255 28.4329 55.6751 28.8527 56.4658 29.8464C57.2703 30.8575 57.8307 31.2817 58.258 31.2027C58.7122 31.1188 59.0961 31.4609 59.6843 32.4733C60.2455 33.4395 60.6416 33.805 60.9932 33.6812C61.3418 33.5582 61.8035 33.9727 62.4915 35.0265C63.0382 35.8643 63.5106 36.684 63.541 36.848C63.5713 37.0124 63.8413 37.0607 64.1412 36.9559C64.5586 36.8097 65.0372 37.3067 66.1801 39.0724C67.1826 40.6209 67.8974 41.4062 68.3535 41.4603C68.8943 41.5246 69.1849 41.9771 69.776 43.6766C70.4158 45.5152 70.6104 45.7953 71.1759 45.6908C71.7295 45.5885 71.9764 45.9089 72.7457 47.7292C73.2478 48.917 73.9369 50.0565 74.2766 50.2613C74.6166 50.4661 75.1341 51.3719 75.4261 52.2739C75.7181 53.176 76.2144 54.071 76.5287 54.2627C76.8434 54.4546 77.156 54.9114 77.2237 55.2781C77.4793 56.6618 82.7319 65.2823 83.1233 64.9606C83.2529 64.8538 83.0163 63.0686 82.5977 60.9937C82.1788 58.9188 81.9363 57.0371 82.059 56.8126C82.1869 56.5779 81.9339 55.3845 81.4637 54.0079C81.0136 52.6898 80.1089 49.9159 79.453 47.8434C78.7971 45.7709 78.1079 43.7929 77.9217 43.4474C77.7013 43.0387 77.7249 42.7935 77.9899 42.7445C78.2818 42.6906 78.2707 42.3674 77.9513 41.6011C77.7065 41.0137 77.2313 39.341 76.8957 37.8843C76.5601 36.4276 76.1021 34.7569 75.8779 34.1719C75.6536 33.5865 75.5518 32.9257 75.6518 32.7029C75.7514 32.4802 75.7001 31.3456 75.5378 30.1814C75.2347 28.0085 74.9418 25.3495 74.9309 24.671C74.9274 24.4609 75.1291 24.2509 75.3785 24.2048C75.6767 24.1497 75.9004 23.187 76.0307 21.3997C76.2783 17.9947 76.9226 14.9598 77.3659 15.108C77.5514 15.17 78.0618 17.1617 78.5 19.5337C79.0621 22.5762 79.4718 24.0539 79.8912 24.5511C80.6453 25.4451 81.9479 27.7102 82.5093 29.1037C82.7476 29.6945 83.0786 30.2233 83.2451 30.2788C83.4112 30.3346 83.7635 30.993 84.0275 31.7416C84.2912 32.4906 84.7456 33.3384 85.0371 33.6254C85.3283 33.9128 85.7751 34.7277 86.0301 35.4362C88.8051 43.1507 89.1957 48.3271 87.5203 55.1766C86.9908 57.3401 86.5373 59.5826 86.5118 60.1604C86.4863 60.7383 86.1856 62.1054 85.8435 63.1986C84.7969 66.5423 84.9619 66.5768 89.0902 63.877C91.8223 62.0904 98.2155 58.9506 99.6683 58.6822C100.031 58.6152 100.398 58.4688 100.485 58.3565C100.572 58.2444 99.4778 56.8244 98.0544 55.2005C96.6311 53.5769 95.3282 52.0059 95.1586 51.7095C94.9895 51.4131 93.7877 49.8667 92.4884 48.2729C91.1892 46.6794 90.1127 45.3034 90.0964 45.2153C89.9982 44.6834 92.8353 46.2247 97.1942 49.0717C103.047 52.8942 107.466 55.4008 108.135 55.2773C109.026 55.1126 113.243 52.7495 113.808 52.0981C114.119 51.7397 115.151 50.7954 116.103 49.9995C117.711 48.6554 117.825 48.6042 117.723 49.2753C117.398 51.4137 116.227 53.8351 114.594 55.747C113.18 57.4016 112.934 57.8543 113.365 58.0037C113.663 58.1062 114.015 58.1721 114.149 58.1501C114.283 58.1279 115.774 58.4187 117.465 58.7958C119.155 59.173 120.61 59.3883 120.698 59.2741C120.786 59.16 120.536 58.3594 120.142 57.4949C119.574 56.2483 119.494 55.8162 119.753 55.4065C120.013 54.9961 119.93 54.5745 119.351 53.3585C118.759 52.1149 118.686 51.7265 118.961 51.2922C119.183 50.9422 119.146 50.2408 118.856 49.267C118.496 48.059 118.51 47.7343 118.926 47.5518C119.36 47.3622 119.352 47.0034 118.879 45.2623C118.456 43.7067 118.419 43.1406 118.729 42.9659C119.037 42.7918 119.01 42.3445 118.622 41.1791C118.274 40.1339 118.209 39.46 118.422 39.1233C118.597 38.8477 118.627 38.2562 118.489 37.8092C118.351 37.3619 118.308 36.84 118.394 36.649C118.479 36.4583 118.578 35.0867 118.613 33.6014C118.648 32.1165 118.785 30.3705 118.918 29.7219C119.144 28.6167 119.199 28.7582 119.787 31.967C120.133 33.8502 120.683 35.9231 121.011 36.5731C122.29 39.1073 122.654 39.917 123.14 41.3066C123.417 42.0991 123.827 42.8894 124.05 43.0626C124.273 43.2359 124.593 43.8669 124.762 44.465C124.931 45.0631 125.437 46.727 125.888 48.1624C126.737 50.8678 127.06 54.33 126.583 55.6129C126.445 55.9828 126.478 56.6272 126.656 57.0448C126.845 57.4885 126.811 58.3857 126.575 59.2034C126.353 59.9731 126.18 60.6511 126.191 60.7099C126.202 60.7686 127.494 61.296 129.063 61.8818C130.631 62.468 132.554 63.2382 133.335 63.5937C134.116 63.949 134.82 64.1554 134.899 64.0524C135.203 63.6601 133.19 61.7085 132.143 61.3802C131.541 61.1912 131.012 60.8425 130.968 60.6048C130.924 60.3672 130.341 59.3772 129.671 58.4046C128.619 56.8759 128.435 56.3669 128.311 54.6435C128.156 52.4992 128.44 50.0892 129.035 48.5014C129.399 47.5303 129.42 47.5736 130.223 50.8899C130.675 52.7574 131.316 54.6276 131.658 55.0735C132.251 55.8479 132.268 55.7577 132.082 52.8088C131.976 51.1198 132.052 49.4802 132.252 49.165C132.76 48.3641 132.928 48.5879 132.703 49.7659C132.563 50.5008 132.743 51.4424 133.376 53.2905C134.076 55.3321 134.533 56.1086 135.778 57.3701C137.072 58.6822 137.408 59.2719 137.9 61.1016C138.533 63.4533 139.264 64.0587 139.258 62.2254C139.256 61.511 138.869 60.3626 138.209 59.1095C136.952 56.7236 135.733 52.7422 136.319 52.9382C136.534 53.0104 136.91 53.5836 137.153 54.2118C137.729 55.7002 138.184 55.8186 138.378 54.5304C138.463 53.9617 138.697 52.7069 138.898 51.7418C139.131 50.6171 139.126 49.1859 138.883 47.756C138.451 45.2165 138.914 45.5381 139.842 48.4225C140.163 49.4181 140.522 50.2144 140.641 50.1922C140.881 50.1474 141.288 45.9295 141.13 45.1164C141.075 44.8315 141.179 44.5706 141.361 44.5369C141.543 44.5032 141.604 43.996 141.495 43.4094C141.345 42.5989 141.448 42.2778 141.921 42.0706C142.461 41.8344 142.485 41.6277 142.106 40.5353C141.817 39.7051 141.783 39.0904 142.005 38.7394C142.26 38.3368 142.138 37.4127 141.509 34.9807C140.194 29.9004 140.443 27.0352 141.817 31.4301C142.119 32.3963 142.864 34.2348 143.473 35.5159C144.081 36.7971 144.686 38.4265 144.817 39.1367C144.948 39.847 145.234 40.4475 145.451 40.4709C146.406 40.5738 147.239 48.938 146.607 52.0884C146.457 52.8371 146.438 53.5124 146.563 53.5894C146.689 53.6662 146.489 54.5478 146.119 55.5487C145.47 57.2979 145.375 58.5274 145.896 58.4211C146.179 58.3633 148.587 53.3576 149.579 50.7658C150.149 49.2772 150.667 48.5498 150.768 49.0969C150.818 49.3677 147.418 58.8977 147.144 59.2538C147.001 59.4405 146.919 59.7878 146.963 60.0252C147.091 60.7179 148.076 59.3823 149.39 56.7338C150.028 55.4503 150.719 54.0677 150.926 53.6618C151.134 53.2559 151.503 52.9457 151.746 52.9728C151.999 53.001 152.319 52.5207 152.492 51.852C152.659 51.2082 152.998 50.5675 153.245 50.428C153.492 50.2887 153.924 49.6626 154.204 49.0371C154.485 48.4112 154.925 47.8604 155.184 47.8126C155.443 47.7648 155.63 47.5946 155.6 47.4344C155.531 47.0594 157.822 43.951 158.224 43.8742C158.392 43.842 158.709 43.3692 158.929 42.8235C159.149 42.2776 159.542 41.7917 159.803 41.7436C160.063 41.6956 160.596 41.0996 160.988 40.4197C161.493 39.5435 161.796 39.278 162.028 39.5088C162.263 39.7439 162.785 39.3582 163.9 38.1254C165.197 36.6897 167.15 35.1704 167.868 35.0378C167.97 35.019 167.396 36.0167 166.592 37.2546C164.982 39.7349 164.376 41.1597 164.544 42.0691C164.605 42.3978 164.309 43.1841 163.888 43.8162C163.466 44.4485 162.696 46.0297 162.178 47.33C160.843 50.6778 159.358 53.2341 157.907 54.6825C157.219 55.3692 156.533 56.1021 156.384 56.3114C155.849 57.0584 154.057 58.6815 152.778 59.5765C149.858 61.6203 153.079 60.7705 158.237 58.1369C159.516 57.4837 160.63 56.9907 160.713 57.0411C160.795 57.0918 160.398 57.5943 159.831 58.1582C158.56 59.4195 158.577 59.8824 159.875 59.3691C160.428 59.1499 161.056 59.0882 161.336 59.2258C162.191 59.6458 168.001 58.1202 171.091 56.6646C176.169 54.2719 175.318 55.3771 169.091 59.2621C167.148 60.4743 165.17 61.6589 164.695 61.8942C163.396 62.539 163.815 62.8771 166.166 63.0801C168.785 63.306 170.926 63.5953 171.646 63.8205C171.946 63.9145 173.237 64.2285 174.516 64.5188C178.825 65.4968 182.254 67.1064 184.321 69.1222C184.684 69.4769 186.314 70.1424 187.941 70.6011C189.863 71.1426 190.701 71.5115 190.332 71.6526C189.266 72.0613 184.987 72.025 180.787 71.5715C175.611 71.0127 174.88 70.9901 169.588 71.2243C165.343 71.4121 159.506 71.173 158.702 70.7781C157.636 70.2549 153.056 69.3378 152.651 69.5664C151.902 69.9892 152.209 70.2549 154.148 70.8613C155.165 71.1795 156.355 71.7192 156.791 72.0601C157.228 72.401 158.656 72.9656 159.964 73.3148C162.751 74.0578 163.472 74.7068 161.545 74.7382C160.019 74.763 160.036 75.0252 161.657 76.4433C162.339 77.0403 163.353 77.9546 163.909 78.4753C165.687 80.1396 167.394 80.9537 171.154 81.9297C173.173 82.4535 174.846 82.995 174.871 83.1327C174.939 83.5017 171.983 83.2704 169.166 82.6864C167.812 82.4055 166.459 82.1765 166.16 82.1771C164.964 82.1802 163.019 81.6433 162.747 81.2351C162.589 80.9972 162.277 80.8734 162.055 80.9605C161.595 81.1402 157.588 78.6133 156.676 77.5678C154.37 74.9263 154.099 74.7055 153.334 74.8467C152.906 74.9259 151.904 74.91 151.108 74.8113L149.662 74.6321L149.824 75.5141C149.951 76.1977 150.556 76.7569 152.51 77.9947C153.897 78.8737 155.063 79.7603 155.101 79.9651C155.138 80.1698 155.322 80.3088 155.509 80.2742C155.697 80.2397 156.402 80.5119 157.077 80.8793C157.753 81.2466 158.983 81.9164 159.812 82.3677C160.641 82.819 161.561 83.2125 161.858 83.2422C162.154 83.2715 162.725 83.6152 163.126 84.0053C163.527 84.3957 164.412 85.2337 165.092 85.8674C166.531 87.2086 166.612 87.3091 167.072 88.3329C167.263 88.7579 168.49 89.8084 169.798 90.6673C171.106 91.5261 172.02 92.2577 171.829 92.293C171.638 92.3284 170.087 91.7487 168.382 91.0048C166.678 90.2612 164.236 89.3854 162.956 89.0589C160.38 88.402 159.744 88.1477 155.803 86.2029C151.183 83.9223 151.588 83.9668 152.155 85.8029C152.427 86.6808 152.795 87.614 152.973 87.8761C153.152 88.1394 153.148 88.3808 152.963 88.4149C152.515 88.4976 151.698 87.1302 150.857 84.8894C150.157 83.0236 148.802 81.5134 147.968 81.6675C147.72 81.7133 146.774 80.8182 145.866 79.678C144.399 77.8355 144.15 77.3108 143.628 74.9524C142.939 71.8395 142.572 70.9098 142.165 71.2446C141.972 71.4033 142.518 74.6022 143.727 80.403C145.53 89.0527 145.631 89.4055 147.127 92.2685C147.975 93.8914 148.712 95.4546 148.765 95.7424C148.961 96.803 148.148 95.9754 146.631 93.5702C145.774 92.2113 144.944 91.1236 144.787 91.1526C144.629 91.1817 144.647 91.9979 144.826 92.9665C145.202 95.0021 146.8 97.6109 150.493 102.217C154.989 107.827 156.974 110.474 156.828 110.664C156.747 110.769 156.367 110.576 155.984 110.235C155.277 109.606 154.756 109.281 152.284 107.93C151.521 107.514 150.283 106.472 149.532 105.615C148.781 104.757 147.597 103.637 146.901 103.125C144.476 101.342 143.157 99.8717 141.566 97.1785C140.109 94.7119 139.903 94.1332 139.279 90.7564C138.836 88.3574 138.488 87.1315 138.296 87.2894C138.132 87.424 138.082 88.0282 138.184 88.6321C138.286 89.2361 138.2 90.728 137.994 91.9474L137.618 94.1645L137.163 90.8737C136.892 88.9244 136.503 87.2816 136.207 86.8439L135.706 86.1046L133.081 89.4924C131.636 91.3556 130.25 92.9178 129.999 92.9641C129.749 93.0104 129.255 93.4466 128.903 93.9337C128.55 94.4207 128.093 94.8503 127.886 94.8885C127.679 94.9267 127.274 95.1831 126.987 95.4581C126.489 95.9329 126.523 96.0276 127.652 97.3384C128.306 98.0975 129.15 98.8019 129.527 98.9042C130.031 99.0404 130.157 99.2341 130 99.6315C129.882 99.9297 129.945 100.36 130.14 100.588C131.263 101.907 134.245 106.376 134.84 107.632C136.006 110.094 135.496 110.044 133.51 107.503C131.196 104.54 129.153 102.633 128.434 102.765C127.836 102.875 125.978 101.542 123.569 99.2754C122.106 97.8988 121.918 97.8156 121.052 98.1582C120.538 98.3618 119.551 98.9637 118.86 99.4955C116.901 101.003 116.832 100.76 118.571 98.4843C119.82 96.8502 120.064 96.3425 119.662 96.2117C119.378 96.1188 118.87 95.6454 118.533 95.1591C118.195 94.6729 117.791 94.2991 117.633 94.3282C117.476 94.3572 116.769 93.6941 116.063 92.8541C114.658 91.1835 113.036 89.9712 112.94 90.5201C112.906 90.7113 113.246 91.5345 113.696 92.3492C115.023 94.754 115.79 97.868 115.304 98.8764C115.067 99.3694 115.009 100.326 115.166 101.175C115.344 102.138 115.272 102.906 114.952 103.45C114.686 103.901 114.499 105.024 114.536 105.945C114.573 106.867 114.414 108.001 114.183 108.465C113.777 109.281 113.365 111.53 113.072 114.532C112.995 115.322 112.777 116.214 112.587 116.511C112.397 116.809 112.244 117.567 112.246 118.194C112.248 118.908 112.047 119.425 111.707 119.574C111.398 119.709 111.087 120.377 110.985 121.123C110.887 121.845 110.59 122.751 110.326 123.138C110.061 123.524 109.759 124.373 109.653 125.024C109.548 125.675 109.284 126.345 109.067 126.513C108.389 127.037 106.716 131.069 106.205 133.41C105.937 134.641 105.624 135.803 105.51 135.993C105.397 136.182 105.319 136.991 105.337 137.789C105.355 138.587 105.229 139.266 105.058 139.298C104.284 139.441 104.187 134.958 104.845 129.366C105.341 125.147 106.269 121.184 108.45 113.973C110.615 106.813 111.586 102.696 112.005 98.8962C112.32 96.0439 111.895 91.0929 111.345 91.1946C111.153 91.23 110.994 91.8462 110.992 92.5637C110.98 95.8938 109.864 101.216 108.898 102.55C108.607 102.953 108.271 103.967 108.152 104.805C108.033 105.642 107.638 106.744 107.274 107.252C106.911 107.76 106.466 108.866 106.285 109.71C106.104 110.554 105.733 111.451 105.46 111.703C105.188 111.956 104.782 112.679 104.559 113.311C104.336 113.943 103.789 115.072 103.344 115.819C102.077 117.947 98.5984 122.325 97.9001 122.671C97.5529 122.843 97.2986 123.141 97.3349 123.334C97.4302 123.84 98.9543 125.325 100.729 126.641C102.12 127.671 102.693 128.383 102.206 128.473C101.649 128.576 99.6124 127.813 97.7885 126.82C95.1974 125.409 94.2485 125.5 92.9097 127.29C92.2391 128.187 91.7578 128.545 91.2509 128.526C90.7137 128.505 90.2907 128.884 89.5434 130.054C88.9974 130.909 88.2844 131.658 87.9598 131.718C87.6348 131.778 86.9802 132.463 86.5051 133.241C85.9047 134.223 85.4468 134.645 85.0037 134.624C84.5693 134.603 84.1516 134.966 83.6921 135.763C83.3212 136.407 82.5615 137.208 82.0042 137.542C80.9434 138.179 79.2872 141.167 78.1608 144.475C77.519 146.361 77.1056 146.871 76.706 146.272C76.3194 145.691 76.7147 141.939 77.4177 139.52C77.7503 138.376 77.8988 137.225 77.748 136.963C77.5862 136.683 77.7562 136.047 78.161 135.417C78.5394 134.829 78.7708 134.178 78.6753 133.971C78.5802 133.764 78.8851 132.957 79.3537 132.178C79.822 131.399 80.1565 130.496 80.0966 130.172C80.0341 129.834 80.5365 129 81.2765 128.214C82.1385 127.298 82.5225 126.614 82.4364 126.147C82.3515 125.688 82.7035 125.043 83.4716 124.253C84.2002 123.503 84.5619 122.862 84.4392 122.536C84.3312 122.25 84.5875 121.55 85.0089 120.978C85.6941 120.049 85.7177 119.866 85.2331 119.232C84.935 118.843 84.2975 118.382 83.8165 118.207C83.3358 118.033 82.5096 117.355 81.9812 116.701C81.4526 116.047 80.819 115.549 80.5732 115.595C80.3274 115.64 79.7752 115.212 79.3461 114.644C78.9173 114.075 78.253 113.419 77.8696 113.185C77.1982 112.775 77.131 112.792 76.0147 113.638C75.2887 114.189 74.7572 114.418 74.5908 114.252C74.4447 114.107 74.1452 114.021 73.9252 114.062C73.2116 114.193 70.6102 117.413 69.2419 119.857C68.5083 121.167 67.8484 122.204 67.7754 122.159C67.3345 121.89 68.5651 117.737 69.7272 115.572C70.4835 114.164 71.0644 112.808 71.0184 112.558C70.9723 112.309 71.5901 111.147 72.3913 109.976L73.8477 107.847L72.9513 106.602C72.4585 105.916 71.8309 105.256 71.5572 105.135C71.2833 105.013 70.2273 103.885 69.2101 102.627C68.0949 101.249 66.6947 99.944 65.6831 99.3399L64.0049 98.3377L65.2028 103.805C66.2312 108.498 66.3504 109.433 66.0456 110.403C65.85 111.025 65.7464 111.848 65.8152 112.231C66.1143 113.899 65.9257 115.318 65.3736 115.56C65.0554 115.7 64.7946 116.202 64.7803 116.703C64.7663 117.194 64.7426 118.007 64.7279 118.508C64.7133 119.009 64.4919 119.774 64.2361 120.209C63.9804 120.644 63.6402 121.766 63.4796 122.703C63.295 123.781 62.9749 124.499 62.6075 124.66C62.249 124.817 61.9216 125.517 61.7527 126.487C61.5618 127.583 61.2534 128.185 60.7344 128.476C60.3245 128.705 60.0223 129.071 60.0624 129.287C60.1024 129.504 59.8727 130.46 59.552 131.412C59.147 132.613 58.8651 133.038 58.6286 132.802C58.2049 132.379 58.182 132.413 57.4657 134.515C57.1434 135.461 56.606 136.457 56.2719 136.729C55.9378 137.002 55.3467 138.077 54.9588 139.119C54.4917 140.373 54.0469 141.051 53.6427 141.126C53.2422 141.2 52.8367 141.804 52.4664 142.877C52.1553 143.779 51.6836 144.556 51.4179 144.605C51.1519 144.654 50.4611 145.826 49.8827 147.209C48.9869 149.35 48.5544 151.24 47.8729 155.998C47.7742 156.686 47.6954 156.612 47.2502 155.415C46.6907 153.911 46.1914 148.022 46.4903 146.456C46.5939 145.914 46.5208 145.149 46.3283 144.756C46.1063 144.303 46.1324 143.599 46.3999 142.831C47.2556 140.371 48.0021 137.684 48.1872 136.397C48.2919 135.669 48.6263 134.657 48.9302 134.148C49.2345 133.638 49.4368 132.969 49.38 132.662C49.3232 132.354 49.5556 131.496 49.8967 130.756C50.2377 130.014 50.412 129.304 50.284 129.177C50.0575 128.95 51.2896 125.349 52.2098 123.549C52.4624 123.054 52.6184 122.374 52.5563 122.038C52.4942 121.702 52.8193 120.869 53.2784 120.187C53.7522 119.483 53.9975 118.773 53.8457 118.545C53.6741 118.287 54.0912 117.582 55.0077 116.581C56.1107 115.376 56.3711 114.883 56.1463 114.424C55.9297 113.983 56.1756 113.422 57.1024 112.245C57.789 111.374 58.2703 110.454 58.1722 110.201C58.0741 109.948 58.6414 108.82 59.4326 107.695C60.2241 106.57 61.1045 104.97 61.3893 104.139C61.9676 102.453 62.2667 99.1433 61.8633 98.8972C61.7196 98.8096 61.2475 99.1008 60.8146 99.5447C58.5864 101.828 54.3309 105.716 53.9916 105.779C53.7783 105.818 52.9693 106.485 52.1935 107.261C48.5438 110.913 47.907 111.505 47.5565 111.57C47.3497 111.608 46.9039 111.983 46.5654 112.404C46.2272 112.825 45.3292 113.563 44.5701 114.044C43.811 114.525 42.8267 115.311 42.3826 115.791C41.9388 116.27 41.3838 116.698 41.1495 116.742C40.9153 116.785 40.2248 117.335 39.6155 117.964C39.0057 118.593 38.2423 119.095 37.9188 119.08C37.5648 119.063 36.9715 119.532 36.4283 120.259C35.864 121.013 35.3095 121.444 34.9476 121.41C34.6296 121.38 34.2126 121.602 34.0214 121.904C33.8302 122.206 33.0552 122.928 32.2993 123.508C31.5434 124.087 30.6364 124.895 30.2835 125.303C29.9308 125.71 29.4283 126.113 29.1664 126.198C28.9049 126.283 28.1742 126.884 27.5426 127.533C26.911 128.183 26.2329 128.661 26.0364 128.595C25.8396 128.529 25.3799 129.088 25.0148 129.836C24.6498 130.585 24.1964 131.226 24.0069 131.261C23.5339 131.348 20.8019 134.611 16.4619 140.273C13.0415 144.736 11.1978 146.665 11.0612 145.926C10.9353 145.245 12.3086 141.279 13.6941 138.323C14.5001 136.603 15.1698 134.713 15.1831 134.123C15.196 133.533 15.4839 132.482 15.8226 131.787C16.1612 131.093 16.4026 130.332 16.3591 130.096C16.3155 129.86 16.6844 128.966 17.179 128.108C17.6814 127.237 17.9197 126.497 17.7192 126.429C17.5216 126.363 17.7827 125.664 18.3004 124.875C18.8176 124.085 19.2076 123.261 19.1671 123.042C19.1266 122.823 19.5828 121.954 20.1808 121.111C20.7789 120.268 21.2308 119.377 21.185 119.129C21.1393 118.882 21.8285 118.022 22.7165 117.219C23.6044 116.415 24.298 115.58 24.2578 115.362C24.2176 115.145 24.8613 114.462 25.6884 113.845C26.5156 113.228 27.2346 112.475 27.2862 112.17C27.3379 111.866 27.7643 111.457 28.2338 111.261C28.703 111.066 29.5948 110.556 30.2146 110.128C30.8348 109.699 31.7023 109.283 32.1429 109.201C32.5835 109.12 33.0983 108.744 33.2872 108.366C33.5164 107.908 34.1842 107.495 35.2947 107.125C36.2104 106.821 37.1513 106.323 37.3857 106.019C37.6205 105.716 38.6212 105.222 39.6098 104.923C40.7126 104.589 41.4856 104.179 41.6105 103.863C41.7271 103.567 42.5429 103.104 43.5266 102.774C44.4689 102.458 45.3239 102.012 45.4267 101.783C45.5378 101.535 46.58 101.136 47.9945 100.8C49.4337 100.458 50.5278 100.037 50.7618 99.7341C51.028 99.3894 51.6367 99.1904 52.7178 99.0947C58.3711 98.5946 60.1497 98.2338 60.0345 97.6102C59.9872 97.3545 56.5371 97.1831 54.081 97.3147C53.2007 97.3619 52.2817 97.2519 52.0383 97.0708C51.7951 96.8893 50.4405 96.7247 49.0278 96.705C47.537 96.684 46.0319 96.4555 45.4405 96.1601C44.8797 95.8802 43.8607 95.5309 43.1756 95.3835C41.9841 95.1277 41.1327 94.8251 37.8898 93.5057C37.0904 93.1803 35.3635 92.5449 34.0525 92.0931C32.7418 91.6415 31.5467 91.0787 31.3975 90.8424C31.248 90.6062 30.3209 90.057 29.3375 89.6223C28.0131 89.0368 27.5737 88.6817 27.6421 88.2524C27.7114 87.8156 27.1933 87.4311 25.5362 86.6895L23.338 85.7061M131.178 83.2488C130.281 85.0973 128.801 87.5005 126.85 90.2775C126.611 90.617 124.005 88.9986 123.538 88.2206C123.082 87.4612 123.576 87.0385 124.763 87.173C125.5 87.2563 126.24 87.0886 127.373 86.5822C129.119 85.8022 128.908 85.7256 125.622 85.9463C124.653 86.0113 123.596 85.8424 122.975 85.5239L121.941 84.9929L122.902 84.631C125.439 83.6758 129.4 81.4046 128.683 81.3165C128.425 81.285 127.353 81.5803 126.301 81.9728C124.66 82.5851 124.166 82.6535 122.823 82.4546C121.962 82.3274 121.24 82.1288 121.219 82.0137C121.064 81.1729 127.52 78.9922 133.306 77.9306L135.289 77.5668L133.786 79.2677C132.96 80.2033 131.786 81.9948 131.178 83.2488ZM131.482 67.5017C131.662 67.7937 131.518 67.8724 130.892 67.8249C130.436 67.7906 128.831 67.9092 127.325 68.089C124.906 68.3772 124.551 68.3461 124.283 67.8229C123.375 66.0534 124.204 65.5889 127.727 65.8916C129.222 66.02 130.91 66.134 131.477 66.145C132.47 66.1641 132.485 66.1828 131.876 66.6404C131.528 66.9017 131.351 67.2894 131.482 67.5017ZM131.167 73.9115C130.167 74.5119 129.969 74.5446 129.143 74.2451C128.015 73.836 128.13 73.6705 130.022 72.9831C132.344 72.1398 133.098 72.7518 131.167 73.9115ZM127.843 71.9987C127.078 72.73 126.524 73.026 126.01 72.9773C125.343 72.9143 125.262 72.7491 125.16 71.242C125.097 70.3261 125.115 69.4877 125.198 69.3793C125.394 69.1262 128.14 69.6814 128.858 70.1194C129.159 70.3028 129.301 70.5651 129.172 70.7017C129.044 70.8383 128.446 71.4218 127.843 71.9987ZM125.079 77.5523C123.5 77.9404 123.285 77.8755 123.759 77.1528C123.911 76.921 124.177 76.4547 124.35 76.1165C124.65 75.5287 124.709 75.5226 125.699 75.9774C127.099 76.6214 126.91 77.1022 125.079 77.5523ZM117.451 69.036C115.799 69.7854 114.178 70.6067 113.848 70.8609C113.519 71.1151 112.643 71.766 111.901 72.307C111.161 72.8482 109.969 73.9087 109.253 74.6641C108.538 75.419 107.718 76.2726 107.431 76.5603C106.867 77.1255 103.56 77.7585 102.609 77.4829C102.205 77.3659 102.469 77.0498 103.674 76.2102C105.492 74.9432 105.528 74.6467 103.766 75.444C103.108 75.7421 102.475 75.9286 102.36 75.8585C102.087 75.6922 102.662 74.5193 104.017 72.4769C104.616 71.5727 105.084 70.7079 105.056 70.5552C105.027 70.4024 105.448 69.6393 105.989 68.859C106.531 68.0791 106.862 67.3724 106.725 67.2886C106.282 67.0187 103.831 68.9366 102.888 70.2898C102.386 71.0116 101.639 71.8907 101.23 72.2431L100.486 72.8841L99.367 71.2066C98.7515 70.2842 98.0695 69.465 97.851 69.3857C97.6326 69.3067 97.1782 68.6313 96.8412 67.8848L96.2284 66.5277L95.8208 67.6352C95.4294 68.6972 95.4577 68.8522 96.516 71.4265C97.5304 73.8943 97.5834 74.1569 97.1739 74.6869C96.5559 75.4868 95.8019 75.2849 95.2565 74.1738C94.7972 73.2379 94.7964 73.2393 94.9374 74.6666C95.0153 75.4536 94.9658 76.1187 94.8277 76.1442C94.6895 76.1697 93.978 75.3001 93.247 74.2119C91.558 71.6973 90.3912 70.4702 88.1404 68.8405C87.1505 68.1238 86.3275 67.4671 86.3116 67.3811C86.2958 67.2953 88.5922 66.8726 91.4149 66.4423C94.2378 66.0116 96.625 65.5589 96.7198 65.4361C96.8146 65.3131 97.8921 65.0128 99.114 64.769C100.717 64.4486 101.893 63.9913 103.34 63.1248L105.346 61.9248L106.135 62.4862C108.725 64.3308 114.588 66.3725 118.063 66.64C119.482 66.7494 120.787 66.8857 120.963 66.9427C121.463 67.1049 120.688 67.5668 117.451 69.036ZM120.135 75.1181C119.713 76.3512 119.114 77.4888 118.803 77.6465C118.492 77.8039 117.944 78.2163 117.584 78.5627C116.975 79.1485 116.923 79.1582 116.839 78.7016C116.655 77.7053 117.887 74.9759 119.106 73.6813C121.092 71.5704 121.265 71.8126 120.135 75.1181ZM124.448 93.1975C124.262 94.0213 123.652 93.9161 121.631 92.713C120.581 92.0872 119.383 91.5433 118.97 91.504C118.556 91.4651 117.076 90.9543 115.681 90.3689C114.286 89.7839 112.731 89.1326 112.226 88.9218C111.453 88.5998 111.341 88.421 111.521 87.7964C111.726 87.0823 111.76 87.0701 112.427 87.4765C112.808 87.709 114.069 88.1092 115.23 88.3663C116.39 88.6235 117.37 88.9983 117.408 89.1998C117.445 89.4009 117.644 89.2666 117.85 88.9009C118.215 88.252 118.24 88.2514 118.922 88.8743C119.307 89.2251 120.715 90.1332 122.053 90.8921C124.588 92.3308 124.634 92.3743 124.448 93.1975ZM116.747 88.049C116.508 88.093 115.995 87.9957 115.606 87.8325C115.027 87.5897 114.959 87.4415 115.231 87.0131C115.717 86.2452 116.892 86.4056 117.05 87.2618C117.121 87.6505 116.985 88.0049 116.747 88.049ZM109.65 85.6219C109.327 85.6259 108.634 85.2343 108.109 84.752L107.154 83.8751L107.95 83.0303C108.388 82.5657 108.849 82.1618 108.974 82.1324C109.1 82.1031 109.376 82.7032 109.587 83.4655C109.799 84.2278 110.031 85.0234 110.104 85.2333C110.179 85.4513 109.984 85.618 109.65 85.6219ZM108.704 92.7992C108.089 93.9017 106.839 95.687 105.925 96.7669C105.012 97.8465 103.697 99.4067 103.001 100.234C102.306 101.061 101.11 102.303 100.343 102.995C99.5751 103.687 98.9799 104.428 99.0194 104.642C99.059 104.856 98.4794 105.474 97.7314 106.015C96.9834 106.556 96.3937 107.119 96.4209 107.267C96.4802 107.588 94.2106 110.433 92.7182 111.909C92.1305 112.49 91.6854 113.16 91.7291 113.396C91.8446 114.021 91.3827 114.006 90.3817 113.352C89.5872 112.833 89.5503 112.741 90.001 112.4C90.448 112.062 90.3934 111.945 89.4784 111.272C88.3664 110.455 88.103 109.915 88.7479 109.777C88.9742 109.728 88.3966 109.273 87.4639 108.766C86.4475 108.214 85.8951 107.737 86.085 107.576C86.2592 107.429 86.3228 106.977 86.2262 106.573C86.0811 105.967 86.2195 105.789 87.0155 105.557C87.546 105.402 88.3337 104.946 88.7653 104.543C89.197 104.141 89.7617 103.772 90.0198 103.725C90.2782 103.677 91.0017 103.133 91.628 102.516C92.254 101.899 93.0543 101.337 93.4063 101.267C93.758 101.197 94.6684 100.46 95.4293 99.6292C96.1901 98.798 97.034 98.1512 97.3046 98.1914C97.5752 98.2319 98.9106 97.3565 100.272 96.2462C104.172 93.0674 105.708 91.9634 107.642 90.953C108.632 90.4353 109.494 90.0024 109.557 89.9909C110.013 89.9065 109.649 91.1056 108.704 92.7992ZM103.95 79.451C102.217 79.7015 100.938 79.4291 101.358 78.899C101.535 78.6752 104.927 77.8341 106.162 77.7078C106.323 77.6915 106.283 78.0204 106.074 78.4386C105.749 79.0855 105.431 79.2373 103.95 79.451ZM102.198 83.3695C100.52 83.6752 97.2298 83.5483 96.6261 83.1545C96.2996 82.9415 96.7992 82.812 98.7182 82.6125C102.458 82.2232 103.446 82.2413 103.531 82.7009C103.584 82.9883 103.181 83.1904 102.198 83.3695ZM96.3862 90.3254C94.7109 90.7463 93.2714 91.2328 93.1876 91.4063C93.1039 91.5801 92.2388 91.9559 91.2652 92.2419C90.1899 92.5581 89.4169 92.9598 89.296 93.2663C89.1866 93.5436 88.9032 93.8064 88.666 93.8502C88.4288 93.894 87.6361 94.3639 86.9043 94.8942C86.1725 95.4243 85.0359 96.1316 84.3787 96.4653C83.7217 96.7993 83.14 97.267 83.0863 97.5049C83.0323 97.7428 82.4707 98.1911 81.8382 98.5009C81.2055 98.8108 80.4262 99.4699 80.1063 99.9653L79.5249 100.866L78.0417 100.564C77.2258 100.398 76.3804 99.9924 76.1628 99.6638C75.8723 99.2245 75.2826 99.0573 73.9394 99.0336C72.8264 99.014 71.1022 98.6177 69.5318 98.0211C68.1132 97.4818 66.0899 96.798 65.0357 96.5012C62.9495 95.9144 62.9544 95.9242 63.4964 93.3892C64.1984 90.1068 63.772 87.7894 61.6071 83.1251C61.388 82.6535 61.3844 82.3225 61.5975 82.2832C62.2508 82.1625 63.197 83.3177 64.2015 85.4633C65.051 87.2779 65.1876 87.4407 65.1088 86.5434C64.9305 84.5189 65.0956 84.4464 66.9492 85.7343C68.9837 87.1484 71.1054 89.9914 72.5627 93.2563L73.5918 95.5612L73.5713 94.1448C73.5498 92.6187 72.1304 87.9545 71.4538 87.1851C70.8995 86.5549 70.7847 85.8017 71.2303 85.7194C71.429 85.6826 72.2956 86.0113 73.156 86.4497C74.1458 86.9544 75.5512 87.3053 76.9844 87.4063C79.5205 87.5848 83.4756 87.2653 83.4059 86.8879C83.2977 86.3022 79.8517 85.1459 73.2704 83.4863C70.8492 82.8757 68.8451 82.2497 68.8166 82.0952C68.7879 81.9403 69.0366 81.8545 69.3696 81.9043C71.635 82.2427 76.8881 82.6323 80.2047 82.7078C84.3748 82.8026 84.701 82.9102 86.9712 84.94C87.5884 85.4918 88.0223 86.1007 87.9362 86.293C87.8498 86.4857 87.1456 87.1355 86.3715 87.7375C84.8613 88.9112 80.6328 94.131 80.7367 94.6932C80.7712 94.8801 80.9383 94.9186 81.1082 94.7792C81.278 94.6395 82.1062 93.926 82.9487 93.1938C83.7912 92.4614 84.633 91.8331 84.819 91.7978C85.0053 91.7622 85.5299 91.4677 85.9849 91.1431C86.4598 90.8043 86.9145 90.6547 87.052 90.7922C87.1855 90.9249 87.8193 90.6618 88.477 90.2013C89.1285 89.7446 89.8728 89.3319 90.1312 89.2842C90.3896 89.2365 90.7617 88.8692 90.9582 88.4678L91.3153 87.7382L92.8972 88.0743C93.7673 88.259 95.6213 88.5087 97.0173 88.629C98.4739 88.7545 99.5295 88.9995 99.4943 89.2039C99.4582 89.4124 98.1692 89.8776 96.3862 90.3254ZM91.5262 78.4535L89.5833 78.6001L90.9092 79.2867L92.2352 79.9732L90.5801 80.2869C88.5782 80.6663 84.851 80.6065 83.77 80.1779C83.3379 80.0065 82.6472 79.9285 82.2354 80.0046C81.8236 80.0806 79.1968 80.071 76.398 79.9831C72.7873 79.8699 71.1084 79.6799 70.6181 79.3293C69.6523 78.6389 69.6872 78.4333 70.9084 77.6254C72.1033 76.8349 72.6191 76.1017 71.6843 76.5233C69.7513 77.3946 69.335 77.4834 69.2534 77.042C69.1808 76.6489 69.0141 76.6849 67.8955 77.3355C66.696 78.0329 66.595 78.0498 66.2 77.6177C65.87 77.2574 65.5374 77.2468 64.655 77.5681C63.8017 77.8786 63.5475 77.8767 63.6018 77.5608C63.6493 77.2854 64.8367 76.8068 67.1058 76.1489C68.9935 75.6017 71.2973 74.7849 72.225 74.3337C73.1527 73.8825 74.9156 73.0828 76.1425 72.5564C77.3697 72.0299 79.5356 70.8821 80.9565 70.0057C82.377 69.129 83.6684 68.3879 83.8264 68.3587C84.4436 68.2447 88.026 70.5525 89.7195 72.155C91.9904 74.3035 92.8323 75.5614 93.2735 77.4637L93.469 78.3066L91.5262 78.4535ZM78.6476 68.0854C77.7817 68.2439 75.0968 68.5223 72.6808 68.7045C70.2649 68.8864 66.663 69.3806 64.6764 69.8025L61.0646 70.5695L60.5561 69.627C59.9635 68.5277 57.8708 67.2032 55.9696 66.7239C55.2362 66.5391 54.5533 66.4032 54.4519 66.4219C54.3505 66.4407 54.733 67.0257 55.302 67.7222C56.7996 69.5555 57.7469 71.3057 57.4432 71.6778C57.3018 71.8509 55.9926 72.6251 54.5338 73.3984C53.075 74.1717 51.6381 74.9486 51.3411 75.1252C50.9129 75.3792 50.7729 75.2949 50.6665 74.7185C50.5925 74.3183 50.1892 73.8043 49.7703 73.5764C49.3513 73.3485 48.9533 72.8631 48.8858 72.4978C48.8183 72.1326 48.5338 71.7995 48.253 71.7575C47.9725 71.7158 47.4806 71.1706 47.1596 70.5461C46.8387 69.9218 46.4244 69.439 46.2389 69.4733C46.0534 69.5075 45.4942 68.9896 44.9957 68.3223C44.4973 67.655 43.9716 67.1308 43.8271 67.1575C43.6827 67.1842 43.3188 66.8854 43.0188 66.4932C42.3271 65.5898 42.7626 64.789 43.5722 65.4755C43.9634 65.8073 44.7635 65.8395 46.7665 65.6048C48.2363 65.4324 49.5496 65.3962 49.685 65.5243C49.8206 65.6524 51.1415 65.7087 52.6203 65.65C54.0994 65.5912 55.6331 65.626 56.0288 65.7278C56.4244 65.8296 57.5016 65.8628 58.4221 65.8017C59.3428 65.7408 60.2226 65.8173 60.3776 65.9718C60.5326 66.1264 61.5573 66.2025 62.6545 66.1406C64.9287 66.0128 68.1761 66.1069 71.2254 66.3894C78.1335 67.0293 80.1266 67.2823 80.1714 67.525C80.1991 67.6749 79.5135 67.927 78.6476 68.0854ZM61.9797 92.3192C61.8663 92.9218 61.6413 93.4822 61.4798 93.5648C61.3182 93.6474 60.3167 91.7124 59.254 89.2647C57.7543 85.8109 57.1566 84.749 56.5854 84.5226C55.1628 83.9582 55.4854 81.8783 57.0401 81.5911C57.7272 81.4641 59.4681 83.4175 59.6773 84.5499C59.7909 85.1647 60.0329 85.6403 60.2151 85.6067C60.3973 85.573 60.5168 85.3852 60.4806 85.1894C60.4393 84.9654 60.5488 84.917 60.776 85.0581C61.5553 85.5431 62.3514 90.3458 61.9797 92.3192ZM55.1333 81.8881C54.568 82.0714 54.4038 81.967 54.2904 81.3535C54.1404 80.5415 54.6997 80.2421 55.4789 80.7173C56.1229 81.1101 55.9733 81.6154 55.1333 81.8881ZM57.7586 93.7307C57.5767 93.7643 53.7765 91.7885 47.8804 88.595C46.1814 87.6749 44.6698 86.9445 44.5214 86.9719C44.3733 86.9992 42.2201 85.7403 39.7371 84.174C37.2541 82.6078 35.0595 81.3565 34.8601 81.3933C34.661 81.4301 33.8294 80.8955 33.0123 80.2055C32.1954 79.5152 31.0206 78.7452 30.4014 78.4945C29.3994 78.0884 28.0839 76.7298 27.9404 75.9531C27.8726 75.5858 28.7613 75.6769 34.0729 76.5816C39.5059 77.5071 42.8458 78.3247 43.3806 78.8604C43.6118 79.092 43.9809 79.7289 44.2009 80.2761C44.5328 81.1027 44.4713 81.4767 43.8379 82.484C42.842 84.0677 42.9278 84.2985 44.1982 83.4548C45.4594 82.6171 46.3144 82.6868 46.4907 83.6415C46.5629 84.0323 47.1595 84.771 47.8168 85.2837C48.474 85.7962 48.9541 86.3441 48.8835 86.5017C48.7096 86.8897 51.6679 89.1741 53.7982 90.2962C56.1665 91.544 58.5249 93.5891 57.7586 93.7307ZM40.9022 74.8582C40.8072 75.2786 40.5658 75.3109 38.9797 75.1152C37.982 74.9924 36.4472 74.7571 35.5689 74.5929C34.6906 74.4284 32.8217 74.1168 31.4154 73.9004C29.9567 73.676 28.8264 73.331 28.7832 73.0972C28.7416 72.872 28.9128 72.0982 29.1638 71.3778C29.4148 70.6574 29.5218 69.97 29.4017 69.8504C29.2816 69.7306 29.3052 68.9665 29.4542 68.1521C29.6032 67.3379 29.6072 66.4379 29.4629 66.1519C28.8824 64.9994 29.449 64.7379 31.9747 64.9939C33.2832 65.1264 34.6355 65.1806 34.9793 65.1147C35.3235 65.0489 36.3023 65.1639 37.1548 65.3706L38.7046 65.7464L39.3351 69.1594C39.6979 71.1232 40.1359 72.676 40.3668 72.8168C40.8058 73.0846 41.0729 74.1023 40.9022 74.8582Z" stroke="#D4AF37" stroke-width="2"/>
</svg>
