<svg width="103" height="164" viewBox="0 0 103 164" fill="none" xmlns="http://www.w3.org/2000/svg">
<path d="M73.0647 97.7717L72.61 97.9797L72.6161 97.9929L72.6229 98.0058L73.0647 97.7717ZM71.4754 92.35L71.9704 92.2793L70.9781 92.2984L71.4754 92.35ZM73.2859 101.706L72.8205 101.524L72.5524 102.206H73.2859V101.706ZM73.3351 101.706V102.206H73.5212L73.662 102.085L73.3351 101.706ZM74.1543 100.295L74.6356 100.159L73.664 100.197L74.1543 100.295ZM74.1543 104.906L73.673 104.77L73.2849 106.149L74.4466 105.312L74.1543 104.906ZM75.1784 103.544L75.6493 103.376L75.1813 102.064L74.7081 103.374L75.1784 103.544ZM75.0964 108.807L74.618 108.662L74.1687 110.141L75.399 109.205L75.0964 108.807ZM76.1451 107.521L76.6391 107.444L76.3928 105.855L75.6946 107.304L76.1451 107.521ZM75.4897 112.249L75.0352 112.041L74.3993 113.427L75.7324 112.686L75.4897 112.249ZM76.5874 111.313L77.087 111.292L77.0296 109.945L76.1948 111.004L76.5874 111.313ZM75.8911 116.576L75.4143 116.426L75.0683 117.521L76.1057 117.028L75.8911 116.576ZM76.9315 115.499L77.4307 115.47L76.4736 115.298L76.9315 115.499ZM75.588 120.87L75.1376 120.653L74.4333 122.113L75.8378 121.303L75.588 120.87ZM77.0626 119.701L77.5585 119.765L77.756 118.231L76.698 119.359L77.0626 119.701ZM75.2193 124.655L74.8027 124.378L74.2423 125.223L75.2537 125.154L75.2193 124.655ZM76.9069 124.07L77.4058 124.104L77.4763 123.079L76.626 123.656L76.9069 124.07ZM74.5148 129.617L74.1274 129.301L73.1618 130.484L74.6402 130.101L74.5148 129.617ZM75.9239 128.84L76.3557 129.092L75.5822 128.475L75.9239 128.84ZM75.4856 129.621L75.0471 129.381L74.9589 129.542L74.9959 129.722L75.4856 129.621ZM76.0966 131.087L75.6809 131.365L76.4732 132.551L76.5948 131.13L76.0966 131.087ZM78.07 125.789L78.5611 125.696L78.3632 124.656L77.6858 125.469L78.07 125.789ZM78.789 127.322L78.4044 127.642L79.0875 128.464L79.2807 127.413L78.789 127.322ZM80.7463 122.782L81.2462 122.791L81.2748 121.223L80.344 122.485L80.7463 122.782ZM80.962 124.565L80.4788 124.693L80.9143 126.334L81.4377 124.719L80.962 124.565ZM83.4946 120.091L83.967 120.255L83.1541 119.725L83.4946 120.091ZM83.4946 121.508L83.0222 121.671L83.4102 122.79L83.9415 121.732L83.4946 121.508ZM86.4346 117.567L86.9321 117.618L87.0655 116.294L86.0933 117.202L86.4346 117.567ZM86.5545 118.934L86.0734 119.07L86.5053 120.595L87.0267 119.098L86.5545 118.934ZM89.135 115.352L89.6136 115.496L90.06 114.019L88.8321 114.954L89.135 115.352ZM89.0231 116.851L88.5283 116.923L88.7557 118.492L89.4696 117.076L89.0231 116.851ZM92.3227 113.311L92.7799 113.513L93.3277 112.274L92.1064 112.86L92.3227 113.311ZM92.1229 114.902L91.6297 114.984L91.8699 116.429L92.5633 115.138L92.1229 114.902ZM95.0629 111.861L95.4865 112.127L94.8143 111.427L95.0629 111.861ZM94.6954 113.352H95.1954V113.334L95.1941 113.316L94.6954 113.352ZM94.6954 113.402H94.1954L95.1539 113.602L94.6954 113.402ZM97.3478 110.903L97.1937 110.427L97.1823 110.431L97.3478 110.903ZM101.83 108.404L102.237 108.694L101.507 108.022L101.83 108.404ZM99.433 113.069L98.9603 112.906L98.9556 112.92L98.9517 112.934L99.433 113.069ZM98.5549 114.725L98.1738 114.402V114.402L98.5549 114.725ZM97.0842 115.835L96.8795 115.379L97.0842 116.335V115.835ZM97.1321 115.835L97.1665 115.336L97.1494 115.335H97.1321V115.835ZM98.5542 115.443L98.997 115.675L98.2712 115.031L98.5542 115.443ZM95.6382 118.517L95.3856 118.086L94.2057 118.776L95.5527 119.01L95.6382 118.517ZM97.1641 118.3L97.6225 118.5L98.1625 117.26L96.9459 117.851L97.1641 118.3ZM93.7687 121.741L93.5301 121.302L92.2463 121.999L93.6881 122.234L93.7687 121.741ZM95.2067 121.633L95.6149 121.921L96.4819 120.697L95.0534 121.157L95.2067 121.633ZM91.7235 124.307L91.5532 123.836L90.1744 124.336L91.571 124.783L91.7235 124.307ZM93.0257 124.432L93.4025 124.76L94.2571 123.781L92.9663 123.935L93.0257 124.432ZM89.2308 127.455L88.9958 127.014L88.0345 127.526L89.0494 127.921L89.2308 127.455ZM90.589 127.455L90.969 127.78L90.4076 126.99L90.589 127.455ZM86.3068 130.096L86.1402 129.625L84.6958 130.135L86.1632 130.575L86.3068 130.096ZM88.0085 130.321L88.3216 130.711L89.4831 129.778L87.994 129.821L88.0085 130.321ZM83.6624 132.37L83.5625 131.88L82.5879 132.079L83.3287 132.743L83.6624 132.37ZM85.1244 133.112L85.4601 133.482L86.1899 132.821L85.2255 132.622L85.1244 133.112ZM80.0433 135.178L79.9956 134.68L78.5247 134.821L79.7789 135.602L80.0433 135.178ZM81.4574 135.619L81.5846 136.103L81.48 135.12L81.4574 135.619ZM71.4774 140.007L71.1569 139.623L71.0017 139.753L70.9802 139.954L71.4774 140.007ZM71.4754 140.026L70.9801 140.094L71.9726 140.079L71.4754 140.026ZM71.4733 140.01L71.9686 139.943L71.8456 139.045L71.1519 139.627L71.4733 140.01ZM71.4551 140.026L71.1337 139.643L70.6106 140.082L71.187 140.448L71.4551 140.026ZM71.762 140.214L71.5076 140.644L71.6742 140.743L71.8637 140.703L71.762 140.214ZM78.1188 137.161L78.5353 137.438L77.8412 136.745L78.1188 137.161ZM77.6783 138.286L77.185 138.204L76.9565 139.578L78.0067 138.663L77.6783 138.286ZM80.9942 136.723L81.4163 136.991L82.0093 136.057L80.9164 136.229L80.9942 136.723ZM80.6418 137.822L80.1427 137.792L80.079 138.846L80.9346 138.227L80.6418 137.822ZM83.6053 136.62L83.964 136.969L84.9794 135.923L83.5358 136.125L83.6053 136.62ZM82.9084 137.59L82.4645 137.36L81.7366 138.765L83.1395 138.034L82.9084 137.59ZM86.1122 136.732L86.3324 137.181L86.0922 136.232L86.1122 136.732ZM85.4714 137.41L85.014 137.208L84.5518 138.256L85.6343 137.883L85.4714 137.41ZM88.6192 136.955L88.9439 137.335L89.9057 136.514L88.6421 136.456L88.6192 136.955ZM88.0585 137.676L87.6112 137.453L86.9397 138.797L88.2827 138.123L88.0585 137.676ZM90.8778 137.247L91.1248 137.682L92.3473 136.987L90.9607 136.754L90.8778 137.247ZM90.157 137.917L89.7436 137.635L88.9222 138.843L90.3112 138.392L90.157 137.917ZM93.2967 137.865L93.4852 138.328L94.8201 137.785L93.4354 137.385L93.2967 137.865ZM92.4957 138.535L92.0766 138.262L91.3206 139.424L92.6443 139.012L92.4957 138.535ZM95.251 138.535L95.36 139.023L97.189 138.614L95.3995 138.057L95.251 138.535ZM94.402 139.067L94.0143 138.751L92.8184 140.219L94.5832 139.533L94.402 139.067ZM95.5934 138.88L95.6243 138.381L95.5934 138.88ZM96.7568 139.213L97.006 138.78L96.9995 138.776L96.9929 138.772L96.7568 139.213ZM99.9605 140.286L100.037 140.78L100.021 139.79L99.9605 140.286ZM96.7568 141.325L96.5299 140.879L96.5183 140.885L96.5071 140.892L96.7568 141.325ZM94.402 141.471L94.5977 141.011L94.0143 141.787L94.402 141.471ZM95.251 142.003L95.3995 142.481L97.189 141.924L95.36 141.515L95.251 142.003ZM92.4957 142.003L92.6443 141.526L91.3206 141.114L92.0766 142.276L92.4957 142.003ZM93.2967 142.673L93.4354 143.153L94.8201 142.753L93.4852 142.21L93.2967 142.673ZM90.157 142.621L90.3112 142.146L88.9222 141.695L89.7436 142.903L90.157 142.621ZM90.8778 143.291L90.9607 143.784L92.3473 143.551L91.1248 142.856L90.8778 143.291ZM88.0585 142.862L88.2827 142.415L86.9397 141.741L87.6112 143.085L88.0585 142.862ZM88.6192 143.583L88.6421 144.082L89.9057 144.024L88.9439 143.203L88.6192 143.583ZM85.4714 143.128L85.6343 142.655L84.5518 142.282L85.014 143.33L85.4714 143.128ZM86.1122 143.806L86.0922 144.306L86.3324 143.357L86.1122 143.806ZM82.9084 142.948L83.1395 142.504L81.7366 141.773L82.4645 143.178L82.9084 142.948ZM83.6053 143.918L83.5358 144.413L84.9794 144.615L83.964 143.569L83.6053 143.918ZM80.6418 142.716L80.9346 142.311L80.079 141.692L80.1427 142.746L80.6418 142.716ZM80.9942 143.815L80.9164 144.309L82.0094 144.481L81.4163 143.547L80.9942 143.815ZM77.6783 142.252L78.0067 141.875L76.8376 140.857L77.1915 142.366L77.6783 142.252ZM78.1428 143.179L77.8761 143.602L78.5236 142.855L78.1428 143.179ZM72.0461 140.376L72.1572 139.889L71.8044 140.814L72.0461 140.376ZM74.7629 141.433L74.8488 141.925L74.8796 140.947L74.7629 141.433ZM74.2497 141.663L73.9414 141.269L72.9708 142.03L74.1968 142.16L74.2497 141.663ZM75.8998 142.354L76.0013 142.843L77.0371 142.629L76.2136 141.965L75.8998 142.354ZM75.4261 142.61L75.0758 142.253L74.4064 142.91L75.3251 143.099L75.4261 142.61ZM76.8393 143.292L76.829 143.792L78.2675 143.821L77.1573 142.906L76.8393 143.292ZM76.2866 143.369L76.1409 142.89L74.6795 143.335L76.1213 143.841L76.2866 143.369ZM77.684 144.221L77.5077 144.689L78.026 143.857L77.684 144.221ZM77.2419 144.221L77.0656 143.754L76.0596 144.133L76.9977 144.658L77.2419 144.221ZM78.4735 145.245L78.3626 145.732L79.8148 146.063L78.8562 144.923L78.4735 145.245ZM78.0472 145.245L77.9363 144.757L76.347 145.119L77.8656 145.711L78.0472 145.245ZM79.1604 146.149L79.0383 146.634L80.3022 146.952L79.5754 145.87L79.1604 146.149ZM78.6946 146.149L78.5725 145.664L77.3847 145.963L78.4424 146.581L78.6946 146.149ZM79.7999 147.309L79.5688 147.752L81.0057 148.501L80.2406 147.073L79.7999 147.309ZM79.3025 147.24L79.1972 146.752L77.9498 147.02L79.0477 147.671L79.3025 147.24ZM80.2499 148.272L79.9703 148.687L81.5425 149.747L80.6975 148.05L80.2499 148.272ZM79.7841 148.144L79.7515 147.645L79.5728 148.598L79.7841 148.144ZM80.2708 148.518L80.6519 148.194L80.6518 148.194L80.2708 148.518ZM80.5736 149.074L81.0609 148.962L81.0568 148.944L81.0514 148.927L80.5736 149.074ZM81.2683 150.728L80.9548 151.118L81.6886 150.457L81.2683 150.728ZM79.8157 149.876L80.0017 149.411L79.9868 149.406L79.9716 149.401L79.8157 149.876ZM79.2956 149.555L79.6476 149.2L79.6476 149.2L79.2956 149.555ZM78.9551 149.023L79.4239 148.849L78.4556 149.002L78.9551 149.023ZM79.0814 149.526L78.8289 149.957L79.5101 149.269L79.0814 149.526ZM78.1182 148.503L78.5616 148.271L77.8462 146.9L77.6235 148.431L78.1182 148.503ZM78.1814 149.04L77.9164 149.464L79.2153 150.276L78.6455 148.854L78.1814 149.04ZM77.1156 147.846L77.5643 147.625L76.9424 146.36L76.6282 147.734L77.1156 147.846ZM77.1156 148.349L76.8071 148.743L77.9176 149.613L77.603 148.238L77.1156 148.349ZM76.2787 147.147L76.753 146.988L76.1514 145.187L75.788 147.051L76.2787 147.147ZM76.2787 147.607L75.9277 147.963L77.0789 149.098L76.7695 147.511L76.2787 147.607ZM75.3392 146.268L75.7925 146.057L75.2707 144.937L74.8667 146.105L75.3392 146.268ZM75.3392 146.746L74.9512 147.061L75.8118 146.582L75.3392 146.746ZM74.5497 145.245L75.0287 145.101L74.492 143.309L74.0631 145.13L74.5497 145.245ZM74.4866 145.842L74.0806 146.134L75.0186 147.438L74.9865 145.832L74.4866 145.842ZM73.8471 144.315L74.3394 144.228L74.1465 143.141L73.4567 144.003L73.8471 144.315ZM73.6102 144.827L73.1969 145.108L73.8655 146.09L74.1004 144.926L73.6102 144.827ZM72.9707 143.045L73.4684 142.996L73.3136 141.416L72.535 142.799L72.9707 143.045ZM72.8286 143.539L72.3408 143.649L73.328 143.565L72.8286 143.539ZM71.6045 140.29L72.0429 140.05L71.9248 139.835L71.6822 139.796L71.6045 140.29ZM71.5814 140.248L71.6675 140.741L72.3587 140.62L72.0188 140.006L71.5814 140.248ZM71.455 140.026L71.8872 139.774L71.8197 139.658L71.7031 139.592L71.455 140.026ZM71.455 140.026L71.597 139.546L71.2046 139.43L71.0131 139.792L71.455 140.026ZM71.4551 140.026L71.313 140.505L71.6508 140.605L71.8587 140.321L71.4551 140.026ZM71.4722 140.002L71.8758 140.297L71.9953 140.134L71.9674 139.933L71.4722 140.002ZM67.7539 130.674L68.1923 130.433L67.2694 130.797L67.7539 130.674ZM71.4548 140.026L71.052 140.322L71.3349 140.707L71.7321 140.442L71.4548 140.026ZM71.4549 140.026H71.9549V139.091L71.1776 139.61L71.4549 140.026ZM71.3373 140.252L70.8912 140.027L70.579 140.643L71.2623 140.747L71.3373 140.252ZM71.3176 140.291L71.2304 139.799L70.9834 139.843L70.8708 140.067L71.3176 140.291ZM70.1648 143.625L69.6699 143.696L70.6545 143.725L70.1648 143.625ZM69.9615 143.066L70.3849 142.8L69.6051 141.559L69.4638 143.018L69.9615 143.066ZM69.3203 144.862L68.8275 144.946L69.0375 146.166L69.7337 145.143L69.3203 144.862ZM69.0935 144.346L69.4862 144.037L68.7999 143.166L68.6016 144.257L69.0935 144.346ZM68.4601 145.884L67.9602 145.874L67.9288 147.523L68.8705 146.169L68.4601 145.884ZM68.3898 145.283L68.8738 145.157L68.4183 143.395L67.9097 145.143L68.3898 145.283ZM67.6078 146.794L67.1344 146.633L67.9974 147.108L67.6078 146.794ZM67.6078 146.313L68.0812 146.152L67.6803 144.974L67.1546 146.102L67.6078 146.313ZM66.6773 147.662L66.1788 147.623L66.0733 148.989L67.0337 148.013L66.6773 147.662ZM66.6382 147.198L67.1231 147.076L66.7047 145.411L66.1637 147.04L66.6382 147.198ZM65.8015 148.409L65.3121 148.307L65.0312 149.653L66.111 148.802L65.8015 148.409ZM65.8015 147.902L66.291 147.8L65.9942 146.378L65.3529 147.682L65.8015 147.902ZM64.7381 149.105L64.2803 148.904L63.6197 150.408L65.0063 149.527L64.7381 149.105ZM64.8006 148.564L65.2926 148.474L65.0286 147.02L64.3555 148.336L64.8006 148.564ZM63.8545 149.595L63.4275 149.334L64.1134 150.022L63.8545 149.595ZM63.9718 149.088L64.47 149.046L63.5081 148.901L63.9718 149.088ZM63.1194 149.947L63.2613 150.426L63.2789 150.421L63.2961 150.415L63.1194 149.947ZM61.6416 150.728L61.2313 150.443L61.9559 151.117L61.6416 150.728ZM62.4235 149.148L62.8991 149.302L62.9022 149.293L62.9049 149.283L62.4235 149.148ZM62.7186 148.58L62.3334 148.261H62.3334L62.7186 148.58ZM63.2055 148.203L63.4133 148.658L63.2386 147.704L63.2055 148.203ZM62.7441 148.332L62.2972 148.108L63.027 148.744L62.7441 148.332ZM63.6824 147.293L63.9451 147.718L65.009 147.061L63.7856 146.803L63.6824 147.293ZM63.1976 147.361L62.7535 147.132L62.024 148.543L63.4302 147.804L63.1976 147.361ZM64.2845 146.193L64.5394 146.623L65.5835 146.005L64.4067 145.708L64.2845 146.193ZM63.8232 146.193L63.406 145.917L62.6957 146.993L63.9453 146.678L63.8232 146.193ZM64.9257 145.283L65.1099 145.747L66.588 145.162L65.0407 144.796L64.9257 145.283ZM64.5113 145.283L64.1246 144.966L63.1876 146.109L64.6263 145.769L64.5113 145.283ZM65.7311 144.252L65.9764 144.687L66.8983 144.169L65.9122 143.786L65.7311 144.252ZM65.2932 144.252L64.9467 143.891L65.4743 144.718L65.2932 144.252ZM66.6773 143.393L66.843 143.865L68.2796 143.36L66.8235 142.915L66.6773 143.393ZM66.1221 143.315L65.8027 142.931L64.7006 143.846L66.1327 143.815L66.1221 143.315ZM67.5296 142.628L67.6326 143.118L68.5545 142.924L67.8771 142.269L67.5296 142.628ZM67.0526 142.371L66.7356 141.984L65.9328 142.642L66.9479 142.86L67.0526 142.371ZM68.6869 141.675L68.7407 142.172L70.0959 142.025L68.9672 141.261L68.6869 141.675ZM68.2334 141.52L68.1045 141.037L68.2063 142.02L68.2334 141.52ZM70.9088 140.379L71.1673 140.807L70.7891 139.893L70.9088 140.379ZM64.7985 143.377L64.385 143.096L65.0764 143.793L64.7985 143.377ZM65.2466 142.252L65.7397 142.335L65.97 140.961L64.9187 141.875L65.2466 142.252ZM61.9344 143.815L61.5093 143.551L60.9339 144.481L62.0133 144.308L61.9344 143.815ZM62.2864 142.716L62.7852 142.751L62.8607 141.684L61.9934 142.311L62.2864 142.716ZM59.3182 143.918L58.9623 143.566L57.927 144.616L59.387 144.413L59.3182 143.918ZM60.0223 142.948L60.4658 143.178L61.1991 141.769L59.791 142.504L60.0223 142.948ZM56.8221 143.806L56.6057 143.355L56.8421 144.306L56.8221 143.806ZM57.4701 143.128L57.9269 143.331L58.3944 142.281L57.3075 142.655L57.4701 143.128ZM54.3259 143.583L53.9966 143.207L53.0605 144.026L54.3034 144.082L54.3259 143.583ZM54.886 142.862L55.3309 143.09L56.0269 141.733L54.6625 142.414L54.886 142.862ZM52.0618 143.291L51.8181 142.854L50.5731 143.549L51.9795 143.784L52.0618 143.291ZM52.7899 142.621L53.2025 142.904L54.0295 141.695L52.6359 142.146L52.7899 142.621ZM49.6457 142.673L49.4535 142.211L48.1382 142.759L49.5072 143.153L49.6457 142.673ZM50.4457 142.003L50.8631 142.279L51.6332 141.111L50.2975 141.526L50.4457 142.003ZM47.6936 142.003L47.5762 141.517L45.8128 141.943L47.5453 142.481L47.6936 142.003ZM48.5336 141.471L48.9755 141.705L49.606 140.514L48.3513 141.005L48.5336 141.471ZM47.3475 141.658L47.3164 142.157H47.3164L47.3475 141.658ZM46.1895 141.325L45.9429 141.76L45.9521 141.765L46.1895 141.325ZM42.9493 140.252L42.8744 139.757L42.8889 140.748L42.9493 140.252ZM46.1895 139.213L46.4151 139.659L46.4277 139.653L46.4399 139.646L46.1895 139.213ZM47.3465 138.861L47.3154 138.362L47.3465 138.861ZM48.5336 139.067L48.3373 139.527L49.6366 140.082L48.9755 138.833L48.5336 139.067ZM47.6936 138.535L47.5453 138.057L45.8128 138.595L47.5762 139.021L47.6936 138.535ZM50.4457 138.535L50.2975 139.012L51.6332 139.427L50.8631 138.259L50.4457 138.535ZM49.6457 137.865L49.5072 137.385L48.1382 137.779L49.4535 138.327L49.6457 137.865ZM52.7899 137.917L52.6359 138.392L54.0295 138.843L53.2025 137.634L52.7899 137.917ZM52.0618 137.247L51.9795 136.754L50.5731 136.989L51.8181 137.684L52.0618 137.247ZM54.886 137.676L54.6625 138.124L56.0269 138.805L55.3309 137.448L54.886 137.676ZM54.3259 136.955L54.3034 136.456L53.0605 136.512L53.9966 137.331L54.3259 136.955ZM57.4701 137.41L57.3075 137.883L58.3944 138.257L57.9269 137.207L57.4701 137.41ZM56.8221 136.732L56.8421 136.232L56.6057 137.183L56.8221 136.732ZM60.0223 137.59L59.791 138.034L61.1991 138.769L60.4658 137.36L60.0223 137.59ZM59.3182 136.62L59.387 136.125L57.927 135.922L58.9623 136.972L59.3182 136.62ZM62.2864 137.822L61.9934 138.227L62.8607 138.854L62.7852 137.787L62.2864 137.822ZM61.9344 136.723L62.0133 136.23L60.9339 136.057L61.5093 136.987L61.9344 136.723ZM65.2466 138.286L64.9187 138.663L66.1077 139.696L65.7322 138.167L65.2466 138.286ZM64.7825 137.359L65.0498 136.936L64.3979 137.678L64.7825 137.359ZM71.1592 140.223L71.0691 140.714L71.2633 140.75L71.4294 140.643L71.1592 140.223ZM71.4547 140.026L71.7388 140.437L72.2778 140.065L71.7768 139.643L71.4547 140.026ZM61.442 135.62L61.419 135.121L61.3151 136.104L61.442 135.62ZM62.8507 135.179L63.1157 135.603L64.3664 134.822L62.8983 134.681L62.8507 135.179ZM57.7602 133.114L57.661 132.624L56.69 132.82L57.4249 133.484L57.7602 133.114ZM59.233 132.372L59.5658 132.745L60.3115 132.08L59.3319 131.882L59.233 132.372ZM54.8788 130.324L54.8926 129.824L53.4076 129.783L54.5656 130.713L54.8788 130.324ZM56.5837 130.099L56.7264 130.578L58.2032 130.138L56.7495 129.627L56.5837 130.099ZM52.2856 127.459L52.4659 126.992L51.9059 127.784L52.2856 127.459ZM53.6462 127.459L53.8266 127.925L54.8444 127.532L53.8817 127.018L53.6462 127.459ZM49.8444 124.436L49.9046 123.939L48.6057 123.782L49.4685 124.765L49.8444 124.436ZM51.157 124.311L51.3095 124.787L52.6828 124.347L51.332 123.842L51.157 124.311ZM47.7153 121.629L47.8665 121.153L46.4574 120.705L47.3059 121.916L47.7153 121.629ZM49.164 121.737L49.243 122.231L50.6955 121.999L49.4023 121.298L49.164 121.737ZM45.7624 118.298L45.9807 117.848L44.7624 117.257L45.3041 118.498L45.7624 118.298ZM47.2831 118.514L47.3682 119.007L48.7189 118.774L47.5353 118.083L47.2831 118.514ZM44.3617 115.441L44.6425 115.028L43.9191 115.674L44.3617 115.441ZM45.7944 115.833V115.333H45.7776L45.7608 115.334L45.7944 115.833ZM45.8424 115.833V116.333L46.0469 115.376L45.8424 115.833ZM44.3664 114.723L44.7466 114.399H44.7466L44.3664 114.723ZM43.4813 113.068L43.962 112.931L43.9583 112.917L43.9539 112.905L43.4813 113.068ZM41.0801 108.404L41.4009 108.021L40.6731 108.695L41.0801 108.404ZM45.6183 110.903L45.7831 110.43L45.7764 110.428L45.7696 110.426L45.6183 110.903ZM47.1942 111.863L47.5373 111.5H47.5373L47.1942 111.863ZM48.2676 113.401L47.8085 113.599L48.7676 113.401H48.2676ZM48.2676 113.351L47.7686 113.32L47.7676 113.335V113.351H48.2676ZM47.8914 111.86L48.1387 111.426L47.4678 112.126L47.8914 111.86ZM50.8449 114.9L50.4048 115.137L51.098 116.423L51.3381 114.982L50.8449 114.9ZM50.6448 113.309L50.8606 112.858L49.639 112.274L50.1876 113.512L50.6448 113.309ZM53.9424 116.849L53.4956 117.073L54.2057 118.487L54.437 116.922L53.9424 116.849ZM53.8383 115.35L54.1406 114.951L52.9302 114.033L53.3586 115.491L53.8383 115.35ZM56.4156 118.931L55.943 119.094L56.4523 120.57L56.8951 119.073L56.4156 118.931ZM56.5356 117.565L56.8829 117.205L55.8841 116.241L56.0388 117.621L56.5356 117.565ZM59.377 121.479L58.9279 121.699L59.448 122.762L59.8476 121.648L59.377 121.479ZM59.377 120.063L59.7162 119.696L58.9064 120.232L59.377 120.063ZM61.9143 124.536L61.4384 124.689L61.9517 126.283L62.3963 124.668L61.9143 124.536ZM62.1384 122.753L62.5411 122.457L61.61 121.192L61.6385 122.762L62.1384 122.753ZM64.1073 127.326L63.6156 127.416L63.8086 128.466L64.4916 127.645L64.1073 127.326ZM64.8277 125.793L65.2122 125.474L64.5351 124.659L64.3366 125.699L64.8277 125.793ZM66.8047 131.09L66.3066 131.134L66.4312 132.546L67.2201 131.368L66.8047 131.09ZM67.3409 129.933L67.8216 130.07L67.8794 129.869L67.776 129.686L67.3409 129.933ZM66.7238 128.873L67.0203 128.471L66.2969 129.134L66.7238 128.873ZM68.4442 129.617L68.3549 130.109L69.6889 130.351L68.8316 129.301L68.4442 129.617ZM66.0521 124.07L66.3355 123.658L65.4821 123.071L65.5533 124.104L66.0521 124.07ZM67.6905 124.655L67.6499 125.153L68.6766 125.237L68.1072 124.378L67.6905 124.655ZM65.8473 119.701L66.21 119.357L65.1557 118.246L65.3514 119.765L65.8473 119.701ZM67.3301 120.87L67.0802 121.303L68.4903 122.117L67.78 120.652L67.3301 120.87ZM65.9784 115.499L66.4348 115.295L65.4792 115.47L65.9784 115.499ZM67.0188 116.576L66.8009 117.026L67.8454 117.532L67.4955 116.426L67.0188 116.576ZM66.3306 111.313L66.7233 111.004L65.8927 109.95L65.8311 111.29L66.3306 111.313ZM67.4284 112.249L67.1856 112.686L68.4911 113.411L67.8854 112.046L67.4284 112.249ZM66.8304 107.521L67.2764 107.295L66.5879 105.935L66.3372 107.439L66.8304 107.521ZM67.8544 108.74L67.5555 109.141L68.7803 110.054L68.3324 108.594L67.8544 108.74ZM67.7807 103.477L68.2511 103.308L67.7832 102.008L67.3108 103.307L67.7807 103.477ZM68.7965 104.839L68.5015 105.243L69.6701 106.097L69.2778 104.704L68.7965 104.839ZM68.7965 100.228L69.2861 100.126L68.3152 100.092L68.7965 100.228ZM69.6157 101.64L69.2858 102.015L69.4274 102.14H69.6157V101.64ZM69.6649 101.64V102.14H70.3759L70.1355 101.47L69.6649 101.64ZM69.3778 99.6479L68.8787 99.6188V99.6188L69.3778 99.6479ZM69.8943 97.7049L69.4488 97.4777L69.4467 97.4819L69.8943 97.7049ZM75.3432 129.883L75.8296 129.999L74.9033 129.646L75.3432 129.883ZM71.479 139.993L70.9819 139.939L70.7777 141.809L71.8835 140.287L71.479 139.993ZM73.5194 97.5637C72.7534 95.8889 72.2315 94.1086 71.9704 92.2793L70.9804 92.4206C71.255 94.3445 71.804 96.2173 72.61 97.9797L73.5194 97.5637ZM74.1041 99.6859C74.0618 98.9342 73.858 98.2008 73.5065 97.5376L72.6229 98.0058C72.9065 98.541 73.0715 99.1337 73.1057 99.742L74.1041 99.6859ZM73.7513 101.889C74.026 101.19 74.1463 100.438 74.1041 99.6859L73.1057 99.742C73.1399 100.35 73.0424 100.959 72.8205 101.524L73.7513 101.889ZM73.3351 101.206H73.2859V102.206H73.3351V101.206ZM73.664 100.197C73.5755 100.64 73.3437 101.038 73.0081 101.328L73.662 102.085C74.1678 101.648 74.5131 101.051 74.6446 100.392L73.664 100.197ZM74.6356 105.041C75.0848 103.446 75.0848 101.754 74.6356 100.159L73.673 100.43C74.0724 101.848 74.0724 103.352 73.673 104.77L74.6356 105.041ZM74.7081 103.374C74.5436 103.83 74.248 104.222 73.862 104.5L74.4466 105.312C74.9979 104.914 75.4165 104.357 75.6486 103.714L74.7081 103.374ZM75.0964 108.807C75.5748 108.953 75.5749 108.953 75.5749 108.952C75.5749 108.952 75.575 108.952 75.575 108.952C75.5751 108.952 75.5752 108.952 75.5753 108.951C75.5755 108.951 75.5757 108.95 75.576 108.949C75.5766 108.947 75.5774 108.944 75.5785 108.94C75.5805 108.934 75.5834 108.924 75.5869 108.911C75.5941 108.887 75.6041 108.851 75.6164 108.805C75.6409 108.714 75.6745 108.583 75.7119 108.419C75.7866 108.092 75.8771 107.632 75.9411 107.097C76.0676 106.038 76.097 104.632 75.6493 103.376L74.7074 103.712C75.0789 104.754 75.0674 105.979 74.9481 106.978C74.8892 107.471 74.8056 107.896 74.737 108.197C74.7027 108.347 74.6723 108.465 74.6507 108.545C74.64 108.585 74.6315 108.616 74.6258 108.635C74.623 108.645 74.6208 108.652 74.6195 108.657C74.6189 108.659 74.6184 108.661 74.6181 108.662C74.618 108.662 74.6179 108.662 74.6179 108.662C74.6179 108.662 74.6179 108.662 74.6179 108.662C74.6179 108.662 74.618 108.662 74.618 108.662C74.618 108.662 74.618 108.662 75.0964 108.807ZM75.6946 107.304C75.484 107.741 75.175 108.119 74.7938 108.409L75.399 109.205C75.9071 108.819 76.3169 108.316 76.5955 107.738L75.6946 107.304ZM75.9441 112.458C76.6615 110.894 76.9033 109.148 76.6391 107.444L75.651 107.597C75.8852 109.108 75.6705 110.656 75.0352 112.041L75.9441 112.458ZM76.1948 111.004C75.9338 111.335 75.6115 111.61 75.2469 111.812L75.7324 112.686C76.2137 112.419 76.6377 112.057 76.9801 111.623L76.1948 111.004ZM76.3679 116.727C76.9219 114.973 77.1654 113.133 77.087 111.292L76.0879 111.335C76.1614 113.059 75.9332 114.783 75.4143 116.426L76.3679 116.727ZM76.4736 115.298C76.3128 115.665 76.029 115.957 75.6764 116.125L76.1057 117.028C76.6785 116.756 77.1334 116.283 77.3894 115.7L76.4736 115.298ZM75.588 120.87C76.0383 121.088 76.0384 121.087 76.0384 121.087C76.0384 121.087 76.0385 121.087 76.0385 121.087C76.0386 121.087 76.0387 121.087 76.0389 121.086C76.0392 121.086 76.0395 121.085 76.04 121.084C76.0409 121.082 76.0421 121.08 76.0437 121.076C76.0469 121.07 76.0514 121.06 76.0572 121.048C76.0688 121.023 76.0854 120.987 76.1062 120.941C76.148 120.85 76.207 120.717 76.277 120.551C76.417 120.219 76.602 119.752 76.7831 119.211C77.1405 118.142 77.5018 116.725 77.4307 115.47L76.4323 115.527C76.4923 116.586 76.1819 117.855 75.8347 118.894C75.6635 119.406 75.4881 119.848 75.3557 120.162C75.2895 120.319 75.2343 120.443 75.1959 120.528C75.1767 120.57 75.1618 120.602 75.1518 120.623C75.1468 120.634 75.1431 120.642 75.1407 120.647C75.1395 120.649 75.1386 120.651 75.1381 120.652C75.1379 120.653 75.1377 120.653 75.1376 120.653C75.1376 120.653 75.1375 120.653 75.1375 120.653C75.1375 120.653 75.1376 120.653 75.1376 120.653C75.1376 120.653 75.1376 120.653 75.588 120.87ZM76.698 119.359C76.2986 119.784 75.8404 120.148 75.3382 120.437L75.8378 121.303C76.4255 120.965 76.9609 120.54 77.4272 120.043L76.698 119.359ZM75.636 124.931C76.6621 123.384 77.3202 121.615 77.5585 119.765L76.5667 119.637C76.3478 121.336 75.7436 122.96 74.8027 124.378L75.636 124.931ZM76.626 123.656C76.1958 123.949 75.699 124.12 75.185 124.156L75.2537 125.154C75.9455 125.106 76.6122 124.875 77.1879 124.484L76.626 123.656ZM74.5148 129.617C74.9021 129.933 74.9022 129.933 74.9023 129.933C74.9023 129.933 74.9024 129.933 74.9025 129.933C74.9027 129.932 74.9029 129.932 74.9031 129.932C74.9036 129.931 74.9042 129.931 74.9049 129.93C74.9064 129.928 74.9083 129.925 74.9108 129.922C74.9158 129.916 74.9228 129.907 74.9317 129.896C74.9495 129.874 74.9749 129.841 75.0069 129.799C75.0709 129.715 75.1613 129.594 75.2698 129.44C75.4866 129.132 75.777 128.691 76.0739 128.158C76.6629 127.101 77.3002 125.639 77.4058 124.104L76.4081 124.036C76.3171 125.358 75.7583 126.67 75.2003 127.672C74.9238 128.168 74.6531 128.579 74.452 128.864C74.3516 129.007 74.269 129.118 74.2121 129.192C74.1837 129.23 74.1617 129.258 74.1473 129.276C74.14 129.285 74.1347 129.292 74.1313 129.296C74.1297 129.298 74.1285 129.299 74.1278 129.3C74.1275 129.301 74.1273 129.301 74.1272 129.301C74.1272 129.301 74.1272 129.301 74.1272 129.301C74.1272 129.301 74.1273 129.301 74.1273 129.301C74.1274 129.301 74.1274 129.301 74.5148 129.617ZM75.5822 128.475C75.2433 128.792 74.8333 129.018 74.3894 129.133L74.6402 130.101C75.2472 129.944 75.8056 129.636 76.2655 129.205L75.5822 128.475ZM75.9242 129.862C76.0582 129.617 76.1665 129.424 76.2411 129.292C76.2785 129.226 76.3073 129.176 76.3268 129.142C76.3365 129.125 76.3438 129.113 76.3487 129.104C76.3511 129.1 76.3529 129.097 76.3541 129.095C76.3547 129.094 76.3551 129.093 76.3554 129.093C76.3555 129.092 76.3556 129.092 76.3556 129.092C76.3557 129.092 76.3557 129.092 76.3557 129.092C76.3557 129.092 76.3557 129.092 76.3557 129.092C76.3557 129.092 76.3557 129.092 76.3557 129.092C76.3557 129.092 76.3557 129.092 75.9239 128.84C75.4921 128.588 75.4921 128.588 75.4921 128.588C75.4921 128.588 75.4921 128.588 75.492 128.588C75.492 128.588 75.492 128.588 75.492 128.588C75.492 128.588 75.4919 128.588 75.4919 128.588C75.4917 128.588 75.4916 128.589 75.4914 128.589C75.491 128.59 75.4905 128.591 75.4898 128.592C75.4883 128.594 75.4863 128.598 75.4836 128.603C75.4782 128.612 75.4704 128.625 75.4601 128.643C75.4397 128.679 75.4097 128.731 75.3713 128.799C75.2944 128.934 75.1836 129.132 75.0471 129.381L75.9242 129.862ZM76.5123 130.81C76.2532 130.422 76.0706 129.984 75.9754 129.521L74.9959 129.722C75.1168 130.31 75.3491 130.869 75.6809 131.365L76.5123 130.81ZM77.6858 125.469C76.7708 126.568 76.2539 127.974 75.9646 129.073C75.8186 129.629 75.7275 130.117 75.6728 130.468C75.6454 130.644 75.627 130.786 75.6154 130.885C75.6096 130.934 75.6054 130.973 75.6027 131C75.6013 131.014 75.6003 131.024 75.5996 131.032C75.5993 131.035 75.599 131.038 75.5988 131.041C75.5987 131.042 75.5986 131.043 75.5986 131.043C75.5985 131.044 75.5985 131.044 75.5985 131.044C75.5985 131.044 75.5985 131.045 75.5985 131.045C75.5985 131.045 75.5984 131.045 76.0966 131.087C76.5948 131.13 76.5948 131.13 76.5948 131.13C76.5948 131.13 76.5948 131.13 76.5948 131.13C76.5948 131.131 76.5948 131.131 76.5948 131.13C76.5948 131.13 76.5948 131.13 76.5949 131.13C76.5949 131.129 76.5951 131.127 76.5953 131.124C76.5958 131.119 76.5966 131.111 76.5977 131.1C76.5999 131.079 76.6034 131.045 76.6085 131.002C76.6188 130.914 76.6355 130.785 76.6608 130.623C76.7114 130.298 76.7961 129.843 76.9317 129.328C77.2056 128.287 77.6754 127.044 78.4541 126.109L77.6858 125.469ZM79.1736 127.003C78.8654 126.632 78.6536 126.181 78.5611 125.696L77.5788 125.883C77.7024 126.532 77.9862 127.138 78.4044 127.642L79.1736 127.003ZM80.344 122.485C79.3148 123.881 78.6143 125.506 78.2972 127.232L79.2807 127.413C79.5708 125.834 80.211 124.35 81.1487 123.079L80.344 122.485ZM81.4453 124.437C81.3032 123.901 81.2361 123.347 81.2462 122.791L80.2464 122.773C80.2346 123.421 80.3128 124.068 80.4788 124.693L81.4453 124.437ZM83.1541 119.725C82.306 120.514 81.6399 121.705 81.1943 122.657C80.9681 123.14 80.792 123.576 80.6723 123.891C80.6124 124.049 80.5664 124.178 80.5352 124.267C80.5196 124.312 80.5076 124.347 80.4995 124.371C80.4954 124.383 80.4922 124.393 80.4901 124.4C80.489 124.403 80.4881 124.405 80.4875 124.407C80.4872 124.408 80.487 124.409 80.4868 124.41C80.4867 124.41 80.4866 124.41 80.4865 124.41C80.4865 124.41 80.4865 124.41 80.4865 124.411C80.4864 124.411 80.4864 124.411 80.962 124.565C81.4377 124.719 81.4377 124.719 81.4376 124.719C81.4376 124.719 81.4376 124.719 81.4376 124.719C81.4376 124.719 81.4376 124.719 81.4377 124.719C81.4377 124.719 81.4378 124.719 81.438 124.718C81.4384 124.717 81.4389 124.715 81.4397 124.713C81.4414 124.708 81.4439 124.7 81.4474 124.69C81.4544 124.669 81.4651 124.637 81.4794 124.596C81.508 124.514 81.5509 124.395 81.6073 124.246C81.7203 123.948 81.8867 123.536 82.0999 123.081C82.5331 122.156 83.1333 121.11 83.8351 120.458L83.1541 119.725ZM83.967 121.344C83.8451 120.992 83.8451 120.607 83.967 120.255L83.0222 119.928C82.8268 120.491 82.8268 121.108 83.0222 121.671L83.967 121.344ZM86.0933 117.202C84.8512 118.362 83.82 119.745 83.0477 121.283L83.9415 121.732C84.6613 120.298 85.6216 119.011 86.776 117.933L86.0933 117.202ZM87.0355 118.797C86.9273 118.415 86.8921 118.014 86.9321 117.618L85.9371 117.517C85.8846 118.039 85.9308 118.566 86.0734 119.07L87.0355 118.797ZM88.8321 114.954C87.5697 115.915 86.6135 117.244 86.0823 118.769L87.0267 119.098C87.4948 117.754 88.3354 116.589 89.4378 115.749L88.8321 114.954ZM89.5179 116.779C89.4556 116.349 89.4884 115.91 89.6136 115.496L88.6563 115.207C88.4887 115.762 88.445 116.348 88.5283 116.923L89.5179 116.779ZM92.1064 112.86C91.0005 113.39 90.1172 114.351 89.5242 115.14C89.2236 115.54 88.9886 115.908 88.8284 116.176C88.7481 116.311 88.6862 116.421 88.644 116.499C88.6228 116.538 88.6065 116.568 88.5953 116.59C88.5896 116.601 88.5853 116.609 88.5822 116.615C88.5806 116.618 88.5794 116.621 88.5785 116.622C88.578 116.623 88.5776 116.624 88.5773 116.625C88.5772 116.625 88.577 116.625 88.5769 116.625C88.5769 116.625 88.5768 116.626 88.5768 116.626C88.5767 116.626 88.5767 116.626 89.0231 116.851C89.4696 117.076 89.4695 117.076 89.4695 117.076C89.4695 117.076 89.4694 117.076 89.4694 117.076C89.4694 117.076 89.4694 117.076 89.4694 117.076C89.4694 117.076 89.4695 117.076 89.4697 117.076C89.47 117.075 89.4707 117.074 89.4717 117.072C89.4736 117.068 89.4768 117.062 89.4812 117.054C89.49 117.037 89.5036 117.011 89.522 116.977C89.5587 116.91 89.6142 116.811 89.6872 116.689C89.8336 116.443 90.0489 116.106 90.3236 115.74C90.881 114.999 91.6475 114.189 92.5389 113.761L92.1064 112.86ZM92.6161 114.82C92.5424 114.376 92.5999 113.92 92.7799 113.513L91.8654 113.108C91.6059 113.695 91.5241 114.349 91.6297 114.984L92.6161 114.82ZM94.8143 111.427C93.4979 112.182 92.4138 113.304 91.6825 114.665L92.5633 115.138C93.2082 113.939 94.1612 112.954 95.3116 112.295L94.8143 111.427ZM95.1941 113.316C95.1633 112.895 95.267 112.477 95.4865 112.127L94.6394 111.595C94.3052 112.128 94.1506 112.758 94.1968 113.389L95.1941 113.316ZM95.1954 113.402V113.352H94.1954V113.402H95.1954ZM95.4295 111.501C94.9231 111.978 94.5175 112.558 94.2369 113.203L95.1539 113.602C95.3814 113.079 95.709 112.612 96.1152 112.229L95.4295 111.501ZM97.1823 110.431C96.5324 110.659 95.9359 111.024 95.4295 111.501L96.1152 112.229C96.5214 111.846 96.9975 111.556 97.5134 111.375L97.1823 110.431ZM101.507 108.022C100.228 109.103 98.7638 109.919 97.1938 110.427L97.5019 111.379C99.1971 110.83 100.775 109.95 102.152 108.786L101.507 108.022ZM99.9058 113.232C100.465 111.608 101.251 110.079 102.237 108.694L101.423 108.114C100.38 109.577 99.5507 111.192 98.9603 112.906L99.9058 113.232ZM98.936 115.049C99.3893 114.515 99.7229 113.885 99.9144 113.204L98.9517 112.934C98.7986 113.478 98.5325 113.979 98.1738 114.402L98.936 115.049ZM97.2889 116.291C97.9206 116.007 98.4827 115.583 98.936 115.049L98.1738 114.402C97.8151 114.824 97.3729 115.157 96.8795 115.379L97.2889 116.291ZM97.1321 115.335H97.0842V116.335H97.1321V115.335ZM98.2712 115.031C97.9425 115.257 97.5547 115.363 97.1665 115.336L97.0978 116.334C97.7142 116.376 98.3251 116.207 98.8372 115.855L98.2712 115.031ZM95.8907 118.949C97.2026 118.181 98.2781 117.046 98.997 115.675L98.1114 115.211C97.4775 116.419 96.5321 117.415 95.3856 118.086L95.8907 118.949ZM96.9459 117.851C96.5634 118.036 96.1376 118.096 95.7236 118.024L95.5527 119.01C96.1746 119.118 96.8127 119.027 97.3823 118.75L96.9459 117.851ZM93.7687 121.741C94.0073 122.18 94.0075 122.18 94.0076 122.18C94.0076 122.18 94.0078 122.18 94.0079 122.18C94.0081 122.18 94.0084 122.18 94.0086 122.18C94.0092 122.179 94.01 122.179 94.0109 122.178C94.0126 122.177 94.015 122.176 94.018 122.174C94.0239 122.171 94.0321 122.167 94.0425 122.161C94.0634 122.149 94.0931 122.132 94.1306 122.11C94.2056 122.066 94.3121 122.001 94.4419 121.918C94.7011 121.751 95.0558 121.506 95.4406 121.192C96.2014 120.573 97.1208 119.652 97.6225 118.5L96.7057 118.101C96.2966 119.04 95.5183 119.839 94.8091 120.417C94.4589 120.702 94.1355 120.926 93.9004 121.077C93.7831 121.153 93.6883 121.21 93.6238 121.248C93.5916 121.267 93.5671 121.281 93.5511 121.29C93.5431 121.294 93.5373 121.298 93.5337 121.299C93.532 121.3 93.5308 121.301 93.5301 121.301C93.5298 121.302 93.5297 121.302 93.5296 121.302C93.5296 121.302 93.5297 121.302 93.5297 121.302C93.5298 121.302 93.5299 121.302 93.5299 121.302C93.53 121.302 93.5301 121.302 93.7687 121.741ZM95.0534 121.157C94.6635 121.282 94.2518 121.313 93.8493 121.247L93.6881 122.234C94.2476 122.326 94.8196 122.283 95.3601 122.109L95.0534 121.157ZM91.8937 124.777C93.3852 124.237 94.6816 123.24 95.6149 121.921L94.7986 121.344C93.9803 122.5 92.8482 123.368 91.5532 123.836L91.8937 124.777ZM92.9663 123.935C92.6001 123.979 92.2289 123.943 91.8759 123.83L91.571 124.783C92.0603 124.939 92.5759 124.989 93.0851 124.928L92.9663 123.935ZM89.4659 127.897C90.9497 127.106 92.2831 126.043 93.4025 124.76L92.6489 124.103C91.6083 125.296 90.3706 126.282 88.9958 127.014L89.4659 127.897ZM90.4076 126.99C90.0863 127.115 89.7335 127.115 89.4122 126.99L89.0494 127.921C89.6041 128.137 90.2158 128.137 90.7704 127.921L90.4076 126.99ZM86.3068 130.096C86.4734 130.568 86.4735 130.568 86.4736 130.568C86.4736 130.568 86.4737 130.567 86.4738 130.567C86.474 130.567 86.4743 130.567 86.4745 130.567C86.4751 130.567 86.4758 130.567 86.4768 130.566C86.4786 130.566 86.4811 130.565 86.4843 130.564C86.4907 130.561 86.4999 130.558 86.5116 130.554C86.535 130.545 86.5688 130.533 86.6118 130.516C86.6978 130.484 86.821 130.436 86.9725 130.373C87.2753 130.248 87.6936 130.064 88.1569 129.827C89.0702 129.361 90.2125 128.665 90.969 127.78L90.209 127.13C89.5833 127.862 88.5846 128.486 87.7023 128.936C87.2679 129.158 86.8747 129.331 86.5905 129.449C86.4486 129.507 86.3344 129.552 86.2564 129.582C86.2175 129.596 86.1876 129.608 86.1678 129.615C86.158 129.618 86.1506 129.621 86.146 129.623C86.1437 129.624 86.142 129.624 86.1411 129.624C86.1406 129.625 86.1403 129.625 86.1401 129.625C86.1401 129.625 86.14 129.625 86.1401 129.625C86.1401 129.625 86.1401 129.625 86.1401 129.625C86.1402 129.625 86.1402 129.625 86.3068 130.096ZM87.994 129.821C87.4727 129.836 86.9521 129.768 86.4504 129.617L86.1632 130.575C86.767 130.756 87.3944 130.839 88.023 130.821L87.994 129.821ZM83.7622 132.86C85.423 132.522 86.9838 131.785 88.3216 130.711L87.6954 129.931C86.4799 130.908 85.0649 131.574 83.5625 131.88L83.7622 132.86ZM85.2255 132.622C84.773 132.529 84.3493 132.314 83.996 131.998L83.3287 132.743C83.8113 133.175 84.3948 133.472 85.0233 133.601L85.2255 132.622ZM80.0433 135.178C80.0909 135.675 80.0911 135.675 80.0912 135.675C80.0913 135.675 80.0914 135.675 80.0916 135.675C80.0918 135.675 80.0921 135.675 80.0925 135.675C80.0932 135.675 80.0941 135.675 80.0952 135.675C80.0974 135.675 80.1003 135.674 80.104 135.674C80.1113 135.673 80.1216 135.672 80.1347 135.671C80.1609 135.668 80.1985 135.663 80.2462 135.657C80.3418 135.645 80.4785 135.625 80.6478 135.596C80.986 135.538 81.4568 135.441 81.9912 135.287C83.0506 134.982 84.4043 134.439 85.4601 133.482L84.7887 132.741C83.8952 133.551 82.7083 134.04 81.7144 134.327C81.2223 134.468 80.7883 134.557 80.4784 134.61C80.3236 134.637 80.2004 134.655 80.1171 134.666C80.0754 134.671 80.0438 134.675 80.0232 134.677C80.0129 134.678 80.0053 134.679 80.0007 134.679C79.9984 134.68 79.9968 134.68 79.9959 134.68C79.9955 134.68 79.9953 134.68 79.9952 134.68C79.9952 134.68 79.9952 134.68 79.9953 134.68C79.9953 134.68 79.9954 134.68 79.9954 134.68C79.9955 134.68 79.9956 134.68 80.0433 135.178ZM81.48 135.12C81.0675 135.101 80.6646 134.976 80.3076 134.753L79.7789 135.602C80.2798 135.914 80.8489 136.092 81.4348 136.119L81.48 135.12ZM71.798 140.391C73.2656 139.165 75.6882 138.092 77.7945 137.318C78.8383 136.934 79.7876 136.63 80.4759 136.422C80.8198 136.317 81.0982 136.237 81.29 136.184C81.3859 136.157 81.4601 136.136 81.5101 136.123C81.5351 136.116 81.554 136.111 81.5665 136.108C81.5728 136.106 81.5774 136.105 81.5805 136.104C81.582 136.103 81.5831 136.103 81.5838 136.103C81.5841 136.103 81.5843 136.103 81.5845 136.103C81.5845 136.103 81.5846 136.103 81.5846 136.103C81.5846 136.103 81.5846 136.103 81.4574 135.619C81.3302 135.136 81.3301 135.136 81.33 135.136C81.3299 135.136 81.3298 135.136 81.3296 135.136C81.3293 135.136 81.3289 135.136 81.3284 135.136C81.3274 135.136 81.326 135.137 81.3242 135.137C81.3206 135.138 81.3153 135.14 81.3084 135.141C81.2946 135.145 81.2744 135.151 81.2481 135.158C81.1955 135.172 81.1185 135.193 81.0197 135.221C80.8221 135.276 80.5372 135.358 80.1861 135.464C79.4843 135.677 78.5159 135.987 77.4496 136.379C75.3358 137.156 72.7684 138.277 71.1569 139.623L71.798 140.391ZM71.9726 140.079L71.9746 140.06L70.9802 139.954L70.9782 139.973L71.9726 140.079ZM70.9779 140.078L70.9801 140.094L71.9708 139.958L71.9686 139.943L70.9779 140.078ZM71.7765 140.409L71.7947 140.394L71.1519 139.627L71.1337 139.643L71.7765 140.409ZM72.0164 139.783C71.9179 139.725 71.8201 139.665 71.7232 139.604L71.187 140.448C71.293 140.515 71.3999 140.581 71.5076 140.644L72.0164 139.783ZM78.1188 137.161C77.8412 136.745 77.8412 136.745 77.8412 136.745C77.8412 136.745 77.8412 136.745 77.8412 136.745C77.8411 136.745 77.841 136.745 77.8409 136.746C77.8405 136.746 77.8399 136.746 77.8392 136.747C77.8376 136.748 77.8351 136.749 77.8317 136.752C77.825 136.756 77.8148 136.763 77.8012 136.772C77.774 136.79 77.7334 136.816 77.6805 136.85C77.5748 136.919 77.4201 137.017 77.2262 137.138C76.838 137.378 76.2939 137.705 75.6706 138.048C74.4097 138.741 72.8765 139.472 71.6603 139.724L71.8637 140.703C73.2373 140.418 74.8825 139.622 76.1525 138.924C76.7947 138.571 77.3542 138.235 77.7533 137.987C77.953 137.864 78.1128 137.762 78.2232 137.69C78.2784 137.655 78.3212 137.627 78.3505 137.607C78.3651 137.598 78.3763 137.59 78.384 137.585C78.3879 137.583 78.3909 137.581 78.3929 137.579C78.394 137.579 78.3948 137.578 78.3953 137.578C78.3956 137.578 78.3959 137.577 78.396 137.577C78.3961 137.577 78.3962 137.577 78.3963 137.577C78.3963 137.577 78.3964 137.577 78.1188 137.161ZM78.1715 138.368C78.2276 138.031 78.3525 137.713 78.5353 137.438L77.7022 136.885C77.4398 137.28 77.2638 137.731 77.185 138.204L78.1715 138.368ZM80.9164 136.229C79.6045 136.436 78.3727 137.018 77.3498 137.909L78.0067 138.663C78.8919 137.892 79.9512 137.394 81.072 137.217L80.9164 136.229ZM81.1408 137.852C81.1596 137.542 81.2557 137.244 81.4163 136.991L80.5721 136.455C80.3187 136.854 80.1714 137.316 80.1427 137.792L81.1408 137.852ZM83.5358 136.125C82.3919 136.286 81.3009 136.729 80.3489 137.417L80.9346 138.227C81.7576 137.633 82.6958 137.253 83.6748 137.115L83.5358 136.125ZM83.3524 137.82C83.5163 137.504 83.7227 137.217 83.964 136.969L83.2465 136.272C82.9358 136.592 82.6724 136.959 82.4645 137.36L83.3524 137.82ZM86.0922 136.232C84.9055 136.28 83.7424 136.592 82.6773 137.147L83.1395 138.034C84.0758 137.546 85.095 137.273 86.1322 137.232L86.0922 136.232ZM85.9289 137.612C86.0161 137.414 86.1618 137.265 86.3324 137.181L85.892 136.283C85.4997 136.475 85.1915 136.806 85.014 137.208L85.9289 137.612ZM88.6421 136.456C87.5125 136.404 86.3838 136.567 85.3086 136.937L85.6343 137.883C86.5909 137.553 87.5936 137.409 88.5962 137.455L88.6421 136.456ZM88.5058 137.9C88.6159 137.679 88.7656 137.488 88.9439 137.335L88.2944 136.575C88.0114 136.817 87.7796 137.116 87.6112 137.453L88.5058 137.9ZM90.9607 136.754C89.8961 136.575 88.8069 136.741 87.8343 137.229L88.2827 138.123C89.0679 137.729 89.9422 137.597 90.7949 137.74L90.9607 136.754ZM90.5704 138.198C90.7185 137.98 90.9088 137.805 91.1248 137.682L90.6308 136.812C90.2777 137.013 89.975 137.295 89.7436 137.635L90.5704 138.198ZM93.4354 137.385C92.3089 137.059 91.1191 137.079 90.0027 137.441L90.3112 138.392C91.2379 138.092 92.2235 138.076 93.1579 138.346L93.4354 137.385ZM92.9148 138.807C93.0596 138.585 93.2598 138.42 93.4852 138.328L93.1081 137.402C92.6861 137.574 92.328 137.876 92.0766 138.262L92.9148 138.807ZM95.3995 138.057C94.4029 137.747 93.3438 137.747 92.3472 138.057L92.6443 139.012C93.4474 138.762 94.2993 138.762 95.1024 139.012L95.3995 138.057ZM94.7896 139.383C94.943 139.195 95.1445 139.071 95.36 139.023L95.142 138.047C94.6984 138.146 94.3037 138.396 94.0143 138.751L94.7896 139.383ZM95.6243 138.381C95.1466 138.352 94.6689 138.427 94.2208 138.601L94.5832 139.533C94.8975 139.411 95.2305 139.359 95.5625 139.379L95.6243 138.381ZM96.9929 138.772C96.5677 138.544 96.102 138.411 95.6243 138.381L95.5625 139.379C95.8944 139.4 96.2204 139.493 96.5206 139.654L96.9929 138.772ZM100.021 139.79C98.9669 139.661 97.9437 139.319 97.006 138.78L96.5075 139.646C97.5595 140.251 98.7107 140.637 99.9 140.782L100.021 139.79ZM96.9837 141.771C97.9505 141.278 98.9799 140.945 100.037 140.78L99.8838 139.792C98.7205 139.973 97.5899 140.34 96.5299 140.879L96.9837 141.771ZM95.6254 142.176C96.1104 142.146 96.5818 142.003 97.0064 141.758L96.5071 140.892C96.214 141.061 95.892 141.158 95.5635 141.178L95.6254 142.176ZM94.2063 141.931C94.6557 142.122 95.1403 142.206 95.6254 142.176L95.5635 141.178C95.2351 141.199 94.9057 141.142 94.5977 141.011L94.2063 141.931ZM95.36 141.515C95.1445 141.467 94.943 141.343 94.7896 141.155L94.0143 141.787C94.3037 142.142 94.6984 142.392 95.142 142.491L95.36 141.515ZM92.3472 142.481C93.3438 142.791 94.4029 142.791 95.3995 142.481L95.1024 141.526C94.2993 141.776 93.4474 141.776 92.6443 141.526L92.3472 142.481ZM93.4852 142.21C93.2598 142.118 93.0596 141.953 92.9148 141.731L92.0766 142.276C92.328 142.662 92.6861 142.964 93.1081 143.136L93.4852 142.21ZM90.0027 143.097C91.1191 143.459 92.3089 143.479 93.4354 143.153L93.1579 142.192C92.2235 142.462 91.2379 142.446 90.3112 142.146L90.0027 143.097ZM91.1248 142.856C90.9088 142.733 90.7185 142.558 90.5704 142.34L89.7436 142.903C89.975 143.243 90.2777 143.525 90.6308 143.726L91.1248 142.856ZM87.8343 143.309C88.8069 143.797 89.8961 143.963 90.9607 143.784L90.7949 142.798C89.9422 142.941 89.0679 142.809 88.2827 142.415L87.8343 143.309ZM88.9439 143.203C88.7656 143.05 88.6159 142.859 88.5058 142.638L87.6112 143.085C87.7796 143.422 88.0114 143.721 88.2944 143.963L88.9439 143.203ZM85.3086 143.601C86.3838 143.971 87.5125 144.134 88.6421 144.082L88.5962 143.083C87.5936 143.129 86.5909 142.985 85.6343 142.655L85.3086 143.601ZM86.3324 143.357C86.1618 143.273 86.0161 143.124 85.9289 142.926L85.014 143.33C85.1915 143.732 85.4997 144.062 85.892 144.255L86.3324 143.357ZM82.6773 143.391C83.7424 143.946 84.9055 144.258 86.0922 144.306L86.1322 143.306C85.095 143.265 84.0758 142.992 83.1395 142.504L82.6773 143.391ZM83.964 143.569C83.7227 143.321 83.5163 143.034 83.3524 142.718L82.4645 143.178C82.6724 143.579 82.9358 143.946 83.2465 144.266L83.964 143.569ZM80.3489 143.121C81.3009 143.809 82.3919 144.252 83.5358 144.413L83.6748 143.423C82.6958 143.285 81.7576 142.905 80.9346 142.311L80.3489 143.121ZM81.4163 143.547C81.2557 143.294 81.1596 142.996 81.1408 142.686L80.1427 142.746C80.1714 143.222 80.3187 143.684 80.5721 144.083L81.4163 143.547ZM77.3498 142.629C78.3727 143.52 79.6045 144.102 80.9164 144.309L81.072 143.321C79.9512 143.144 78.8919 142.646 78.0067 141.875L77.3498 142.629ZM78.5236 142.855C78.3526 142.654 78.2284 142.408 78.1651 142.138L77.1915 142.366C77.2901 142.787 77.4851 143.178 77.762 143.503L78.5236 142.855ZM71.9349 140.864C73.1621 141.143 74.639 141.819 75.8328 142.442C76.4244 142.751 76.9367 143.042 77.3009 143.256C77.4829 143.362 77.6276 143.45 77.7264 143.51C77.7758 143.54 77.8137 143.563 77.839 143.579C77.8517 143.587 77.8612 143.593 77.8674 143.597C77.8705 143.599 77.8728 143.6 77.8743 143.601C77.875 143.602 77.8755 143.602 77.8758 143.602C77.876 143.602 77.8761 143.602 77.8762 143.602C77.8762 143.602 77.8762 143.602 77.8762 143.602C77.8762 143.602 77.8761 143.602 78.1428 143.179C78.4095 142.756 78.4094 142.756 78.4094 142.756C78.4093 142.756 78.4092 142.756 78.4091 142.756C78.409 142.756 78.4088 142.756 78.4085 142.756C78.4079 142.755 78.4072 142.755 78.4062 142.754C78.4043 142.753 78.4015 142.751 78.3979 142.749C78.3907 142.745 78.3802 142.738 78.3665 142.73C78.3391 142.713 78.2991 142.688 78.2474 142.656C78.1441 142.593 77.9944 142.503 77.8068 142.393C77.432 142.173 76.905 141.874 76.2957 141.556C75.0876 140.925 73.5162 140.199 72.1572 139.889L71.9349 140.864ZM74.8796 140.947C73.9796 140.731 73.1087 140.392 72.2877 139.938L71.8044 140.814C72.7029 141.31 73.6577 141.682 74.6462 141.919L74.8796 140.947ZM74.558 142.057C74.647 141.987 74.7467 141.943 74.8488 141.925L74.677 140.94C74.4083 140.987 74.1565 141.101 73.9414 141.269L74.558 142.057ZM76.2136 141.965C75.6595 141.518 74.999 141.24 74.3027 141.166L74.1968 142.16C74.6964 142.213 75.1769 142.413 75.5859 142.743L76.2136 141.965ZM75.7763 142.966C75.8435 142.901 75.9219 142.86 76.0013 142.843L75.7982 141.864C75.5243 141.921 75.275 142.057 75.0758 142.253L75.7763 142.966ZM77.1573 142.906C76.6806 142.513 76.1227 142.243 75.5271 142.12L75.3251 143.099C75.7568 143.188 76.1665 143.385 76.5212 143.678L77.1573 142.906ZM76.4323 143.847C76.5618 143.808 76.6954 143.789 76.829 143.792L76.8496 142.792C76.6097 142.787 76.3709 142.82 76.1409 142.89L76.4323 143.847ZM78.026 143.857C77.5686 143.428 77.0335 143.101 76.4519 142.897L76.1213 143.841C76.5678 143.997 76.9833 144.25 77.342 144.586L78.026 143.857ZM77.4182 144.689C77.4477 144.678 77.4782 144.678 77.5077 144.689L77.8604 143.754C77.6036 143.657 77.3224 143.657 77.0656 143.754L77.4182 144.689ZM78.8562 144.923C78.4673 144.461 78.0037 144.075 77.4861 143.785L76.9977 144.658C77.4071 144.887 77.7776 145.194 78.0909 145.567L78.8562 144.923ZM78.1581 145.732C78.2257 145.717 78.295 145.717 78.3626 145.732L78.5844 144.757C78.3709 144.709 78.1498 144.709 77.9363 144.757L78.1581 145.732ZM79.5754 145.87C79.2423 145.374 78.7747 144.992 78.2287 144.779L77.8656 145.711C78.2128 145.846 78.5208 146.093 78.7453 146.428L79.5754 145.87ZM78.8166 146.634C78.8897 146.615 78.9652 146.615 79.0383 146.634L79.2824 145.664C79.0491 145.605 78.8059 145.605 78.5725 145.664L78.8166 146.634ZM80.2406 147.073C79.9367 146.505 79.4903 146.034 78.9467 145.717L78.4424 146.581C78.8199 146.801 79.1386 147.133 79.3591 147.545L80.2406 147.073ZM79.4078 147.729C79.4605 147.718 79.5163 147.725 79.5688 147.752L80.0309 146.865C79.7744 146.732 79.481 146.69 79.1972 146.752L79.4078 147.729ZM80.6975 148.05C80.4397 147.531 80.0454 147.099 79.5573 146.81L79.0477 147.671C79.3626 147.857 79.6264 148.142 79.8023 148.495L80.6975 148.05ZM79.8166 148.643C79.8672 148.64 79.9206 148.653 79.9703 148.687L80.5295 147.858C80.3008 147.703 80.0286 147.627 79.7515 147.645L79.8166 148.643ZM80.6518 148.194C80.4707 147.981 80.2475 147.809 79.9954 147.691L79.5728 148.598C79.6903 148.652 79.7987 148.735 79.8897 148.842L80.6518 148.194ZM81.0514 148.927C80.9684 148.657 80.833 148.408 80.6519 148.194L79.8897 148.842C79.9806 148.949 80.0516 149.078 80.0958 149.221L81.0514 148.927ZM81.6886 150.457C81.3975 150.006 81.1844 149.499 81.0609 148.962L80.0863 149.186C80.2352 149.834 80.493 150.449 80.8481 150.999L81.6886 150.457ZM79.6297 150.34C80.1022 150.529 80.5485 150.791 80.9548 151.118L81.5818 150.339C81.0998 149.951 80.5678 149.638 80.0017 149.411L79.6297 150.34ZM78.9437 149.91C79.146 150.111 79.3903 150.262 79.6597 150.351L79.9716 149.401C79.8543 149.362 79.7431 149.294 79.6476 149.2L78.9437 149.91ZM78.4863 149.197C78.586 149.465 78.7414 149.71 78.9437 149.91L79.6476 149.2C79.5519 149.105 79.4746 148.986 79.4239 148.849L78.4863 149.197ZM79.5101 149.269C79.4719 149.205 79.4512 149.126 79.4547 149.044L78.4556 149.002C78.444 149.275 78.5115 149.548 78.6528 149.783L79.5101 149.269ZM77.6749 148.734C77.942 149.246 78.3404 149.672 78.8289 149.957L79.334 149.094C79.0148 148.908 78.7455 148.624 78.5616 148.271L77.6749 148.734ZM78.6455 148.854C78.6109 148.767 78.5991 148.67 78.613 148.575L77.6235 148.431C77.5844 148.699 77.6164 148.974 77.7173 149.226L78.6455 148.854ZM76.6669 148.066C76.951 148.644 77.3823 149.13 77.9164 149.464L78.4464 148.616C78.077 148.385 77.7698 148.043 77.5643 147.625L76.6669 148.066ZM77.603 148.238C77.582 148.146 77.582 148.049 77.603 147.957L76.6282 147.734C76.5736 147.973 76.5736 148.222 76.6282 148.461L77.603 148.238ZM75.8045 147.305C75.9952 147.876 76.3425 148.378 76.8071 148.743L77.4241 147.956C77.1203 147.717 76.8844 147.382 76.753 146.988L75.8045 147.305ZM76.7695 147.511C76.7522 147.423 76.7522 147.331 76.7695 147.242L75.788 147.051C75.746 147.266 75.746 147.488 75.788 147.703L76.7695 147.511ZM74.886 146.479C75.1454 147.036 75.498 147.54 75.9277 147.963L76.6298 147.251C76.2872 146.913 76.003 146.509 75.7925 146.057L74.886 146.479ZM75.8118 146.582C75.7951 146.534 75.7951 146.48 75.8118 146.432L74.8667 146.105C74.7768 146.365 74.7768 146.649 74.8667 146.909L75.8118 146.582ZM74.0708 145.388C74.2547 146.003 74.5537 146.572 74.9512 147.061L75.7272 146.43C75.4144 146.046 75.1761 145.594 75.0287 145.101L74.0708 145.388ZM74.9865 145.832C74.9833 145.672 75.0001 145.513 75.0364 145.359L74.0631 145.13C74.0075 145.366 73.9818 145.609 73.9867 145.852L74.9865 145.832ZM73.3548 144.403C73.4663 145.031 73.7141 145.624 74.0806 146.134L74.8925 145.55C74.6158 145.165 74.4254 144.712 74.3394 144.228L73.3548 144.403ZM74.1004 144.926C74.1232 144.812 74.1715 144.71 74.2375 144.628L73.4567 144.003C73.2882 144.213 73.1735 144.463 73.1201 144.728L74.1004 144.926ZM72.4731 143.093C72.5442 143.819 72.7929 144.515 73.1969 145.108L74.0236 144.546C73.7163 144.094 73.5236 143.559 73.4684 142.996L72.4731 143.093ZM73.328 143.565C73.3331 143.465 73.3608 143.371 73.4065 143.29L72.535 142.799C72.4121 143.018 72.3422 143.263 72.3293 143.513L73.328 143.565ZM71.1661 140.531C71.6977 141.5 72.0939 142.551 72.3408 143.649L73.3164 143.43C73.0493 142.242 72.6202 141.103 72.0429 140.05L71.1661 140.531ZM71.3911 140.765C71.4356 140.771 71.4809 140.777 71.5268 140.784L71.6822 139.796C71.6274 139.788 71.5729 139.78 71.5187 139.773L71.3911 140.765ZM71.4953 139.756C71.4567 139.763 71.4186 139.769 71.3811 139.774L71.5287 140.764C71.5748 140.757 71.621 140.749 71.6675 140.741L71.4953 139.756ZM71.0228 140.277C71.0639 140.348 71.1043 140.419 71.1439 140.491L72.0188 140.006C71.9758 139.929 71.9319 139.851 71.8872 139.774L71.0228 140.277ZM71.2068 140.46L71.207 140.46L71.7031 139.592L71.703 139.592L71.2068 140.46ZM71.0131 139.792L71.013 139.792L71.8968 140.26L71.8968 140.26L71.0131 139.792ZM71.5971 139.546L71.597 139.546L71.3129 140.505L71.313 140.505L71.5971 139.546ZM71.0685 139.707L71.0514 139.731L71.8587 140.321L71.8758 140.297L71.0685 139.707ZM67.3154 130.914C67.9459 132.064 68.7653 133.647 69.4766 135.303C70.1912 136.966 70.7821 138.67 70.9769 140.071L71.9674 139.933C71.7539 138.398 71.1205 136.596 70.3954 134.908C69.667 133.213 68.8315 131.6 68.1923 130.433L67.3154 130.914ZM71.8576 139.729C71.0086 138.575 70.2456 136.853 69.6187 135.109C68.9955 133.375 68.5215 131.661 68.2384 130.55L67.2694 130.797C67.5567 131.924 68.0397 133.672 68.6777 135.447C69.312 137.212 70.1141 139.047 71.052 140.322L71.8576 139.729ZM71.1776 139.61C71.1731 139.613 71.1696 139.615 71.1675 139.616C71.1664 139.617 71.1656 139.618 71.1651 139.618C71.1648 139.618 71.1646 139.619 71.1644 139.619C71.1644 139.619 71.1643 139.619 71.1643 139.619C71.1643 139.619 71.1643 139.619 71.1643 139.619C71.1642 139.619 71.1642 139.619 71.1642 139.619C71.1642 139.619 71.1642 139.619 71.1642 139.619C71.164 139.619 71.1656 139.618 71.1674 139.617C71.1695 139.615 71.173 139.613 71.1774 139.61L71.7321 140.442C71.7366 140.439 71.7401 140.436 71.7422 140.435C71.7433 140.434 71.7441 140.433 71.7447 140.433C71.7449 140.433 71.7451 140.433 71.7453 140.433C71.7453 140.433 71.7454 140.433 71.7454 140.433C71.7454 140.433 71.7455 140.433 71.7455 140.433C71.7455 140.433 71.7455 140.433 71.7455 140.433C71.7455 140.433 71.7455 140.433 71.7455 140.433C71.7458 140.432 71.7442 140.433 71.7423 140.435C71.7402 140.436 71.7367 140.439 71.7323 140.442L71.1776 139.61ZM71.9549 140.026V140.026H70.9549V140.026H71.9549ZM71.7834 140.478C71.8204 140.405 71.8581 140.333 71.8965 140.26L71.0134 139.791C70.9719 139.869 70.9312 139.948 70.8912 140.027L71.7834 140.478ZM71.5188 139.773C71.4838 139.769 71.4483 139.764 71.4123 139.758L71.2623 140.747C71.3054 140.753 71.3483 140.759 71.391 140.765L71.5188 139.773ZM71.4049 140.784C71.4468 140.776 71.4882 140.77 71.5289 140.764L71.381 139.774C71.331 139.782 71.2809 139.79 71.2304 139.799L71.4049 140.784ZM70.6545 143.725C70.8854 142.602 71.2594 141.521 71.7645 140.516L70.8708 140.067C70.3258 141.152 69.9232 142.316 69.675 143.524L70.6545 143.725ZM69.538 143.332C69.6048 143.439 69.6507 143.563 69.6699 143.696L70.6597 143.553C70.621 143.286 70.528 143.028 70.3849 142.8L69.538 143.332ZM69.7337 145.143C70.1391 144.547 70.3883 143.846 70.4591 143.115L69.4638 143.018C69.4086 143.588 69.2149 144.128 68.9069 144.58L69.7337 145.143ZM68.7008 144.656C68.7631 144.735 68.8083 144.835 68.8275 144.946L69.813 144.777C69.7666 144.507 69.6553 144.251 69.4862 144.037L68.7008 144.656ZM68.8705 146.169C69.2278 145.656 69.4714 145.063 69.5854 144.436L68.6016 144.257C68.5124 144.747 68.3227 145.206 68.0497 145.598L68.8705 146.169ZM67.9057 145.408C67.9448 145.559 67.9632 145.716 67.9602 145.874L68.96 145.893C68.9648 145.645 68.9358 145.397 68.8738 145.157L67.9057 145.408ZM67.9974 147.108C68.3932 146.616 68.6896 146.042 68.8698 145.422L67.9097 145.143C67.7651 145.64 67.5288 146.095 67.2183 146.481L67.9974 147.108ZM67.1344 146.474C67.1517 146.525 67.1517 146.583 67.1344 146.633L68.0812 146.955C68.1694 146.696 68.1694 146.412 68.0812 146.152L67.1344 146.474ZM67.0337 148.013C67.4547 147.585 67.802 147.081 68.061 146.524L67.1546 146.102C66.9422 146.558 66.6594 146.967 66.3209 147.311L67.0337 148.013ZM66.1533 147.32C66.1779 147.418 66.1867 147.521 66.1788 147.623L67.1758 147.7C67.192 147.491 67.1743 147.28 67.1231 147.076L66.1533 147.32ZM66.111 148.802C66.5753 148.436 66.9219 147.93 67.1127 147.356L66.1637 147.04C66.0312 147.44 65.7946 147.778 65.4921 148.016L66.111 148.802ZM65.3121 148.005C65.3328 148.104 65.3328 148.208 65.3121 148.307L66.291 148.511C66.3398 148.277 66.3398 148.034 66.291 147.8L65.3121 148.005ZM65.0063 149.527C65.5365 149.19 65.9652 148.702 66.2501 148.123L65.3529 147.682C65.1447 148.105 64.8372 148.449 64.4698 148.683L65.0063 149.527ZM64.3087 148.653C64.3244 148.74 64.3135 148.828 64.2803 148.904L65.1959 149.306C65.3103 149.045 65.3434 148.754 65.2926 148.474L64.3087 148.653ZM64.1134 150.022C64.5936 149.732 64.9838 149.303 65.2458 148.792L64.3555 148.336C64.1737 148.691 63.9086 148.977 63.5955 149.167L64.1134 150.022ZM63.4735 149.13C63.4799 149.206 63.4616 149.278 63.4275 149.334L64.2814 149.855C64.4291 149.612 64.4937 149.327 64.47 149.046L63.4735 149.13ZM63.9821 149.967C64.1773 149.77 64.3308 149.534 64.4354 149.275L63.5081 148.901C63.4514 149.041 63.3703 149.164 63.2722 149.263L63.9821 149.967ZM63.2961 150.415C63.5537 150.317 63.7868 150.164 63.9821 149.967L63.2722 149.263C63.1742 149.361 63.0616 149.434 62.9428 149.479L63.2961 150.415ZM61.9559 151.117C62.3506 150.798 62.7934 150.565 63.2613 150.426L62.9776 149.467C62.3804 149.644 61.8209 149.94 61.3272 150.34L61.9559 151.117ZM61.9479 148.994C61.7783 149.516 61.5362 150.005 61.2313 150.443L62.0519 151.014C62.4143 150.494 62.6998 149.916 62.8991 149.302L61.9479 148.994ZM62.3334 148.261C62.1522 148.48 62.0196 148.737 61.9421 149.013L62.9049 149.283C62.9459 149.137 63.0147 149.006 63.1038 148.899L62.3334 148.261ZM62.9976 147.748C62.7408 147.866 62.5147 148.042 62.3334 148.261L63.1038 148.899C63.1928 148.791 63.2992 148.71 63.4133 148.658L62.9976 147.748ZM63.027 148.744C63.075 148.711 63.1255 148.699 63.1724 148.702L63.2386 147.704C62.9609 147.686 62.6889 147.763 62.4613 147.92L63.027 148.744ZM63.4198 146.867C62.9421 147.162 62.5552 147.594 62.2972 148.108L63.191 148.556C63.3702 148.199 63.6333 147.91 63.9451 147.718L63.4198 146.867ZM63.4302 147.804C63.4797 147.778 63.531 147.772 63.5793 147.782L63.7856 146.803C63.5056 146.744 63.2171 146.786 62.965 146.919L63.4302 147.804ZM64.0297 145.763C63.4898 146.083 63.0495 146.559 62.7535 147.132L63.6418 147.591C63.8563 147.176 64.1693 146.842 64.5394 146.623L64.0297 145.763ZM63.9453 146.678C64.017 146.66 64.0908 146.66 64.1624 146.678L64.4067 145.708C64.1747 145.65 63.9331 145.65 63.7011 145.708L63.9453 146.678ZM64.7415 144.818C64.1988 145.033 63.7354 145.419 63.406 145.917L64.2404 146.469C64.4633 146.131 64.7681 145.883 65.1099 145.747L64.7415 144.818ZM64.6263 145.769C64.6873 145.755 64.7498 145.755 64.8107 145.769L65.0407 144.796C64.8285 144.746 64.6085 144.746 64.3963 144.796L64.6263 145.769ZM65.4859 143.816C64.9696 144.107 64.5086 144.497 64.1246 144.966L64.8981 145.599C65.2061 145.224 65.572 144.915 65.9764 144.687L65.4859 143.816ZM65.4743 144.718C65.4995 144.708 65.5249 144.708 65.5501 144.718L65.9122 143.786C65.654 143.685 65.3703 143.685 65.1122 143.786L65.4743 144.718ZM66.5116 142.921C65.9317 143.125 65.3994 143.456 64.9467 143.891L65.6398 144.612C65.9929 144.273 66.4029 144.019 66.843 143.865L66.5116 142.921ZM66.1327 143.815C66.2667 143.813 66.4008 143.831 66.5311 143.871L66.8235 142.915C66.5924 142.844 66.3525 142.81 66.1115 142.816L66.1327 143.815ZM67.4266 142.139C66.8335 142.264 66.2782 142.536 65.8027 142.931L66.4415 143.7C66.7961 143.406 67.2039 143.208 67.6326 143.118L67.4266 142.139ZM66.9479 142.86C67.0297 142.877 67.1111 142.919 67.1821 142.988L67.8771 142.269C67.6773 142.076 67.4295 141.94 67.1573 141.882L66.9479 142.86ZM68.633 141.178C67.9407 141.253 67.2849 141.534 66.7356 141.984L67.3696 142.757C67.7742 142.426 68.2486 142.225 68.7407 142.172L68.633 141.178ZM68.2063 142.02C68.2737 142.023 68.3425 142.046 68.4065 142.089L68.9672 141.261C68.7574 141.119 68.5143 141.035 68.2605 141.021L68.2063 142.02ZM70.6503 139.951C69.8487 140.435 68.9927 140.8 68.1045 141.037L68.3623 142.003C69.3434 141.742 70.2865 141.339 71.1673 140.807L70.6503 139.951ZM64.7985 143.377C65.0764 143.793 65.0763 143.793 65.0763 143.793C65.0763 143.793 65.0763 143.793 65.0764 143.793C65.0764 143.792 65.0765 143.792 65.0767 143.792C65.077 143.792 65.0775 143.792 65.0782 143.791C65.0797 143.79 65.082 143.789 65.0852 143.787C65.0915 143.782 65.1011 143.776 65.1138 143.768C65.1394 143.751 65.1776 143.726 65.2273 143.694C65.3268 143.629 65.4726 143.536 65.6557 143.422C66.0223 143.194 66.5376 142.883 67.1317 142.553C68.3312 141.886 69.8102 141.164 71.0285 140.864L70.7891 139.893C69.4343 140.227 67.8582 141.005 66.6459 141.679C66.034 142.019 65.5042 142.338 65.1271 142.573C64.9385 142.691 64.7878 142.787 64.6838 142.854C64.6318 142.888 64.5915 142.914 64.564 142.932C64.5502 142.942 64.5396 142.949 64.5324 142.953C64.5287 142.956 64.5259 142.958 64.524 142.959C64.523 142.96 64.5223 142.96 64.5217 142.96C64.5214 142.961 64.5212 142.961 64.5211 142.961C64.521 142.961 64.5209 142.961 64.5209 142.961C64.5208 142.961 64.5207 142.961 64.7985 143.377ZM64.7535 142.169C64.697 142.506 64.5703 142.823 64.385 143.096L65.2121 143.658C65.4802 143.263 65.6599 142.811 65.7397 142.335L64.7535 142.169ZM62.0133 144.308C63.3225 144.099 64.5519 143.518 65.5745 142.63L64.9187 141.875C64.0329 142.644 62.9749 143.142 61.8555 143.321L62.0133 144.308ZM61.7877 142.68C61.7655 142.994 61.6688 143.294 61.5093 143.551L62.3595 144.078C62.6061 143.68 62.7518 143.223 62.7852 142.751L61.7877 142.68ZM59.387 144.413C60.5328 144.254 61.6257 143.81 62.5794 143.121L61.9934 142.311C61.1693 142.907 60.2296 143.286 59.2494 143.422L59.387 144.413ZM59.5788 142.717C59.414 143.033 59.2059 143.32 58.9623 143.566L59.6741 144.269C59.9892 143.95 60.2559 143.582 60.4658 143.178L59.5788 142.717ZM56.8421 144.306C58.0276 144.258 59.1896 143.946 60.2536 143.391L59.791 142.504C58.8558 142.992 57.838 143.265 56.8021 143.306L56.8421 144.306ZM57.0134 142.924C56.9249 143.123 56.7776 143.273 56.6057 143.355L57.0385 144.257C57.4349 144.066 57.7469 143.735 57.9269 143.331L57.0134 142.924ZM54.3034 144.082C55.4315 144.133 56.5587 143.97 57.6327 143.601L57.3075 142.655C56.3516 142.984 55.35 143.129 54.3485 143.083L54.3034 144.082ZM54.4411 142.634C54.3272 142.856 54.1758 143.05 53.9966 143.207L54.6553 143.959C54.9321 143.717 55.1609 143.421 55.3309 143.09L54.4411 142.634ZM51.9795 143.784C53.0452 143.962 54.1351 143.796 55.1095 143.309L54.6625 142.414C53.8749 142.808 52.9989 142.94 52.1442 142.798L51.9795 143.784ZM52.3772 142.339C52.2278 142.557 52.0358 142.733 51.8181 142.854L52.3055 143.728C52.6625 143.528 52.9687 143.245 53.2025 142.904L52.3772 142.339ZM49.5072 143.153C50.6352 143.478 51.826 143.459 52.9438 143.097L52.6359 142.146C51.7075 142.446 50.7203 142.462 49.7841 142.192L49.5072 143.153ZM50.0284 141.728C49.8813 141.951 49.68 142.117 49.4535 142.211L49.8378 143.134C50.2557 142.961 50.6109 142.661 50.8631 142.279L50.0284 141.728ZM47.5453 142.481C48.5408 142.79 49.5984 142.79 50.5939 142.481L50.2975 141.526C49.4951 141.775 48.6442 141.775 47.8418 141.526L47.5453 142.481ZM48.0917 141.237C48.0719 141.274 47.9912 141.349 47.8281 141.425C47.7586 141.457 47.6922 141.481 47.643 141.497C47.6188 141.505 47.5998 141.511 47.5878 141.514C47.5818 141.516 47.5777 141.517 47.5757 141.517C47.5747 141.518 47.5742 141.518 47.5743 141.518C47.5743 141.518 47.5745 141.518 47.5748 141.518C47.575 141.517 47.5752 141.517 47.5754 141.517C47.5755 141.517 47.5756 141.517 47.5758 141.517C47.5758 141.517 47.576 141.517 47.576 141.517C47.5761 141.517 47.5762 141.517 47.6936 142.003C47.8109 142.489 47.811 142.489 47.8111 142.489C47.8112 142.489 47.8113 142.489 47.8114 142.489C47.8116 142.489 47.8118 142.489 47.812 142.489C47.8123 142.489 47.8128 142.489 47.8132 142.489C47.8142 142.488 47.8153 142.488 47.8165 142.488C47.819 142.487 47.8222 142.486 47.8259 142.485C47.8333 142.484 47.8432 142.481 47.8551 142.478C47.8789 142.471 47.9114 142.462 47.9504 142.449C48.0274 142.424 48.1336 142.386 48.249 142.332C48.456 142.236 48.7953 142.045 48.9755 141.705L48.0917 141.237ZM47.3164 142.157C47.7929 142.187 48.2693 142.111 48.7159 141.937L48.3513 141.005C48.0392 141.128 47.7083 141.18 47.3786 141.159L47.3164 142.157ZM45.9521 141.765C46.3756 141.993 46.84 142.127 47.3164 142.157L47.3786 141.159C47.0487 141.138 46.7249 141.046 46.4268 140.885L45.9521 141.765ZM42.8889 140.748C43.9554 140.878 44.9912 141.221 45.943 141.76L46.436 140.89C45.3712 140.287 44.2091 139.901 43.0097 139.755L42.8889 140.748ZM45.9639 138.767C44.9852 139.262 43.9437 139.595 42.8744 139.757L43.0242 140.746C44.1998 140.568 45.3429 140.201 46.4151 139.659L45.9639 138.767ZM47.3154 138.362C46.8318 138.392 46.3619 138.536 45.939 138.78L46.4399 139.646C46.7311 139.477 47.0511 139.38 47.3775 139.36L47.3154 138.362ZM48.7299 138.607C48.2821 138.416 47.799 138.332 47.3154 138.362L47.3775 139.36C47.7039 139.34 48.0313 139.396 48.3373 139.527L48.7299 138.607ZM47.6936 138.535C47.5762 139.021 47.5761 139.021 47.576 139.021C47.576 139.021 47.5758 139.021 47.5758 139.021C47.5756 139.021 47.5755 139.021 47.5754 139.021C47.5752 139.021 47.575 139.021 47.5748 139.021C47.5745 139.02 47.5743 139.02 47.5743 139.02C47.5742 139.02 47.5747 139.02 47.5757 139.021C47.5777 139.021 47.5818 139.022 47.5878 139.024C47.5998 139.027 47.6188 139.033 47.643 139.041C47.6922 139.057 47.7586 139.081 47.8281 139.113C47.9912 139.189 48.0719 139.264 48.0917 139.301L48.9755 138.833C48.7953 138.493 48.456 138.302 48.249 138.206C48.1336 138.152 48.0274 138.114 47.9504 138.089C47.9114 138.076 47.8789 138.067 47.8551 138.06C47.8432 138.057 47.8333 138.054 47.8259 138.053C47.8222 138.052 47.819 138.051 47.8165 138.05C47.8153 138.05 47.8142 138.05 47.8132 138.049C47.8128 138.049 47.8123 138.049 47.812 138.049C47.8118 138.049 47.8116 138.049 47.8114 138.049C47.8113 138.049 47.8112 138.049 47.8112 138.049C47.811 138.049 47.8109 138.049 47.6936 138.535ZM50.5939 138.057C49.5984 137.748 48.5408 137.748 47.5453 138.057L47.8418 139.012C48.6442 138.763 49.4951 138.763 50.2975 139.012L50.5939 138.057ZM49.4535 138.327C49.68 138.421 49.8813 138.587 50.0284 138.81L50.8631 138.259C50.6109 137.877 50.2557 137.577 49.8378 137.404L49.4535 138.327ZM52.9438 137.441C51.826 137.079 50.6352 137.06 49.5072 137.385L49.7841 138.346C50.7203 138.076 51.7075 138.092 52.6359 138.392L52.9438 137.441ZM51.8181 137.684C52.0358 137.805 52.2278 137.981 52.3772 138.199L53.2025 137.634C52.9687 137.293 52.6625 137.01 52.3055 136.81L51.8181 137.684ZM55.1095 137.229C54.1351 136.742 53.0452 136.576 51.9795 136.754L52.1442 137.74C52.9989 137.598 53.8749 137.73 54.6625 138.124L55.1095 137.229ZM53.9966 137.331C54.1758 137.488 54.3272 137.682 54.4411 137.904L55.3309 137.448C55.1609 137.117 54.9321 136.821 54.6553 136.579L53.9966 137.331ZM57.6327 136.937C56.5587 136.568 55.4315 136.405 54.3034 136.456L54.3485 137.455C55.35 137.409 56.3516 137.554 57.3075 137.883L57.6327 136.937ZM56.6057 137.183C56.7776 137.265 56.9249 137.415 57.0134 137.614L57.9269 137.207C57.7469 136.803 57.4349 136.472 57.0385 136.281L56.6057 137.183ZM60.2536 137.147C59.1896 136.592 58.0276 136.28 56.8421 136.232L56.8021 137.232C57.838 137.273 58.8558 137.546 59.791 138.034L60.2536 137.147ZM58.9623 136.972C59.2059 137.218 59.414 137.505 59.5788 137.821L60.4658 137.36C60.2559 136.956 59.9892 136.588 59.6741 136.269L58.9623 136.972ZM62.5794 137.417C61.6257 136.728 60.5328 136.284 59.387 136.125L59.2494 137.116C60.2296 137.252 61.1693 137.632 61.9934 138.227L62.5794 137.417ZM61.5093 136.987C61.6688 137.244 61.7655 137.544 61.7877 137.858L62.7852 137.787C62.7518 137.315 62.6061 136.858 62.3595 136.46L61.5093 136.987ZM65.5745 137.908C64.5519 137.02 63.3225 136.439 62.0133 136.23L61.8555 137.217C62.9749 137.396 64.0329 137.894 64.9187 138.663L65.5745 137.908ZM64.3979 137.678C64.5688 137.884 64.6941 138.133 64.761 138.405L65.7322 138.167C65.6301 137.751 65.4374 137.364 65.1671 137.039L64.3979 137.678ZM71.2492 139.731C70.0268 139.507 68.4888 138.822 67.225 138.168C66.6002 137.845 66.0549 137.536 65.6659 137.308C65.4716 137.194 65.3166 137.1 65.2106 137.036C65.1577 137.003 65.117 136.978 65.0898 136.961C65.0762 136.953 65.0659 136.946 65.0592 136.942C65.0559 136.94 65.0534 136.938 65.0518 136.937C65.051 136.937 65.0505 136.936 65.0501 136.936C65.05 136.936 65.0499 136.936 65.0498 136.936C65.0498 136.936 65.0498 136.936 65.0498 136.936C65.0498 136.936 65.0498 136.936 64.7825 137.359C64.5153 137.781 64.5153 137.781 64.5154 137.781C64.5155 137.781 64.5156 137.781 64.5156 137.781C64.5158 137.782 64.516 137.782 64.5163 137.782C64.5169 137.782 64.5177 137.783 64.5188 137.783C64.5208 137.785 64.5238 137.787 64.5277 137.789C64.5354 137.794 64.5467 137.801 64.5614 137.81C64.5907 137.828 64.6337 137.855 64.689 137.889C64.7997 137.956 64.96 138.053 65.1602 138.171C65.5604 138.405 66.1215 138.723 66.7656 139.056C68.0397 139.715 69.6901 140.462 71.0691 140.714L71.2492 139.731ZM71.1707 139.614C71.0776 139.678 70.9837 139.741 70.8889 139.802L71.4294 140.643C71.5335 140.576 71.6366 140.508 71.7388 140.437L71.1707 139.614ZM61.442 135.62C61.3151 136.104 61.315 136.104 61.315 136.104C61.3151 136.104 61.3151 136.104 61.3152 136.104C61.3153 136.104 61.3155 136.104 61.3159 136.104C61.3166 136.104 61.3177 136.105 61.3192 136.105C61.3222 136.106 61.3269 136.107 61.3332 136.109C61.3459 136.112 61.3649 136.117 61.3901 136.124C61.4404 136.138 61.5151 136.158 61.6116 136.185C61.8047 136.239 62.0847 136.32 62.4308 136.424C63.1232 136.634 64.0778 136.939 65.1264 137.324C67.243 138.102 69.6726 139.179 71.1327 140.408L71.7768 139.643C70.1713 138.291 67.5945 137.166 65.4712 136.386C64.3999 135.992 63.4261 135.68 62.7201 135.467C62.3669 135.36 62.0803 135.278 61.8815 135.222C61.782 135.194 61.7045 135.173 61.6516 135.159C61.6251 135.152 61.6048 135.146 61.5909 135.143C61.584 135.141 61.5786 135.139 61.575 135.138C61.5731 135.138 61.5717 135.137 61.5707 135.137C61.5702 135.137 61.5698 135.137 61.5696 135.137C61.5694 135.137 61.5693 135.137 61.5692 135.137C61.5691 135.137 61.569 135.137 61.442 135.62ZM62.5858 134.755C62.2308 134.977 61.8298 135.102 61.419 135.121L61.465 136.12C62.0493 136.093 62.6167 135.915 63.1157 135.603L62.5858 134.755ZM57.4249 133.484C58.4826 134.441 59.8385 134.984 60.8997 135.289C61.4351 135.443 61.9066 135.539 62.2454 135.597C62.415 135.626 62.552 135.646 62.6477 135.658C62.6955 135.665 62.7331 135.669 62.7594 135.672C62.7725 135.674 62.7828 135.675 62.7901 135.675C62.7938 135.676 62.7967 135.676 62.7989 135.676C62.8 135.676 62.8009 135.676 62.8016 135.677C62.802 135.677 62.8023 135.677 62.8025 135.677C62.8027 135.677 62.8028 135.677 62.8029 135.677C62.803 135.677 62.8032 135.677 62.8507 135.179C62.8983 134.681 62.8984 134.681 62.8985 134.681C62.8985 134.681 62.8986 134.681 62.8986 134.681C62.8987 134.681 62.8987 134.681 62.8987 134.681C62.8986 134.681 62.8984 134.681 62.898 134.681C62.8971 134.681 62.8955 134.681 62.8932 134.681C62.8885 134.68 62.881 134.679 62.8707 134.678C62.85 134.676 62.8183 134.672 62.7765 134.667C62.693 134.656 62.5696 134.638 62.4145 134.612C62.104 134.558 61.6691 134.47 61.176 134.328C60.1801 134.042 58.9909 133.552 58.0955 132.743L57.4249 133.484ZM58.9001 131.999C58.5442 132.317 58.117 132.531 57.661 132.624L57.8594 133.604C58.4921 133.476 59.0799 133.179 59.5658 132.745L58.9001 131.999ZM54.5656 130.713C55.905 131.79 57.4693 132.526 59.134 132.862L59.3319 131.882C57.8264 131.578 56.4085 130.912 55.192 129.934L54.5656 130.713ZM56.441 129.62C55.9376 129.769 55.4155 129.838 54.8926 129.824L54.865 130.823C55.4941 130.841 56.1218 130.758 56.7264 130.578L56.441 129.62ZM51.9059 127.784C52.6639 128.669 53.8106 129.365 54.7274 129.83C55.1925 130.067 55.6125 130.251 55.9166 130.376C56.0688 130.439 56.1925 130.487 56.2788 130.519C56.322 130.536 56.3559 130.548 56.3794 130.557C56.3912 130.561 56.4004 130.564 56.4068 130.567C56.41 130.568 56.4126 130.569 56.4144 130.569C56.4153 130.57 56.4161 130.57 56.4166 130.57C56.4169 130.57 56.4172 130.57 56.4174 130.57C56.4175 130.57 56.4176 130.57 56.4176 130.57C56.4177 130.57 56.4178 130.57 56.5837 130.099C56.7495 129.627 56.7496 129.627 56.7496 129.627C56.7496 129.627 56.7497 129.627 56.7497 129.627C56.7497 129.627 56.7497 129.627 56.7496 129.627C56.7495 129.627 56.7492 129.627 56.7487 129.627C56.7477 129.626 56.746 129.626 56.7437 129.625C56.739 129.623 56.7317 129.621 56.7218 129.617C56.7019 129.61 56.6719 129.599 56.6327 129.584C56.5543 129.554 56.4396 129.51 56.297 129.451C56.0116 129.334 55.6166 129.161 55.1804 128.939C54.2943 128.489 53.2919 127.865 52.6652 127.133L51.9059 127.784ZM53.4659 126.992C53.143 127.117 52.7887 127.117 52.4659 126.992L52.1052 127.925C52.6602 128.14 53.2716 128.14 53.8266 127.925L53.4659 126.992ZM49.4685 124.765C50.5914 126.046 51.9264 127.108 53.4108 127.9L53.8817 127.018C52.505 126.283 51.2648 125.297 50.2203 124.106L49.4685 124.765ZM51.0045 123.835C50.6485 123.949 50.274 123.984 49.9046 123.939L49.7841 124.932C50.297 124.994 50.8166 124.945 51.3095 124.787L51.0045 123.835ZM47.3059 121.916C48.2261 123.229 49.5059 124.227 50.982 124.779L51.332 123.842C50.0496 123.363 48.9316 122.493 48.1248 121.342L47.3059 121.916ZM49.085 121.244C48.6777 121.309 48.2614 121.278 47.8665 121.153L47.5641 122.106C48.1072 122.278 48.6812 122.321 49.243 122.231L49.085 121.244ZM45.3041 118.498C45.8068 119.65 46.7279 120.57 47.49 121.189C47.8755 121.503 48.2308 121.748 48.4905 121.915C48.6205 121.998 48.7272 122.063 48.8023 122.107C48.8399 122.129 48.8696 122.146 48.8905 122.157C48.901 122.163 48.9092 122.168 48.9151 122.171C48.9181 122.173 48.9205 122.174 48.9222 122.175C48.9231 122.176 48.9239 122.176 48.9245 122.176C48.9248 122.176 48.925 122.177 48.9252 122.177C48.9253 122.177 48.9255 122.177 48.9255 122.177C48.9257 122.177 48.9258 122.177 49.164 121.737C49.4023 121.298 49.4024 121.298 49.4025 121.298C49.4025 121.298 49.4026 121.298 49.4026 121.298C49.4027 121.298 49.4027 121.298 49.4027 121.298C49.4027 121.298 49.4025 121.298 49.4022 121.298C49.4016 121.297 49.4004 121.297 49.3986 121.296C49.395 121.294 49.3892 121.291 49.3812 121.286C49.3652 121.277 49.3405 121.263 49.3083 121.244C49.2437 121.206 49.1487 121.149 49.0312 121.073C48.7956 120.922 48.4716 120.699 48.1207 120.414C47.4101 119.836 46.6304 119.037 46.2206 118.098L45.3041 118.498ZM47.198 118.022C46.7856 118.093 46.3615 118.033 45.9807 117.848L45.544 118.748C46.1119 119.023 46.7481 119.114 47.3682 119.007L47.198 118.022ZM43.9191 115.674C44.6394 117.044 45.7169 118.179 47.031 118.946L47.5353 118.083C46.3865 117.412 45.4393 116.417 44.8042 115.209L43.9191 115.674ZM45.7608 115.334C45.368 115.36 44.9758 115.254 44.6425 115.028L44.0808 115.855C44.5964 116.205 45.2094 116.373 45.8279 116.332L45.7608 115.334ZM45.8424 115.333H45.7944V116.333H45.8424V115.333ZM43.9862 115.048C44.4415 115.581 45.005 116.005 45.6379 116.289L46.0469 115.376C45.5515 115.154 45.1073 114.821 44.7466 114.399L43.9862 115.048ZM43.0005 113.205C43.1948 113.886 43.5309 114.515 43.9862 115.048L44.7466 114.399C44.3858 113.976 44.1176 113.475 43.962 112.931L43.0005 113.205ZM40.6731 108.695C41.661 110.079 42.4481 111.607 43.0086 113.231L43.9539 112.905C43.3623 111.191 42.5312 109.577 41.487 108.114L40.6731 108.695ZM45.7696 110.426C44.1806 109.921 42.6976 109.105 41.4009 108.021L40.7593 108.788C42.1545 109.955 43.7523 110.835 45.467 111.379L45.7696 110.426ZM47.5373 111.5C47.0309 111.022 46.4338 110.658 45.7831 110.43L45.4535 111.375C45.9696 111.555 46.4456 111.845 46.8512 112.227L47.5373 111.5ZM48.7267 113.203C48.4482 112.557 48.0436 111.977 47.5373 111.5L46.8512 112.227C47.2568 112.61 47.5831 113.076 47.8085 113.599L48.7267 113.203ZM47.7676 113.351V113.401H48.7676V113.351H47.7676ZM47.4678 112.126C47.6885 112.478 47.7948 112.897 47.7686 113.32L48.7666 113.382C48.8057 112.753 48.6481 112.126 48.315 111.595L47.4678 112.126ZM51.2849 114.663C50.5503 113.301 49.4609 112.178 48.1387 111.426L47.6441 112.295C48.7997 112.953 49.7571 113.937 50.4048 115.137L51.2849 114.663ZM50.1876 113.512C50.3679 113.919 50.4255 114.375 50.3517 114.818L51.3381 114.982C51.4438 114.347 51.3619 113.694 51.1019 113.107L50.1876 113.512ZM53.9424 116.849C54.3892 116.624 54.3891 116.624 54.3891 116.624C54.389 116.624 54.389 116.624 54.3889 116.624C54.3888 116.624 54.3887 116.623 54.3885 116.623C54.3882 116.622 54.3879 116.622 54.3874 116.621C54.3865 116.619 54.3852 116.617 54.3837 116.614C54.3806 116.608 54.3762 116.599 54.3706 116.588C54.3594 116.567 54.3432 116.536 54.3221 116.497C54.28 116.42 54.2183 116.309 54.1383 116.175C53.9784 115.906 53.744 115.538 53.4438 115.138C52.8516 114.349 51.9686 113.389 50.8606 112.858L50.4289 113.76C51.3219 114.188 52.0877 114.997 52.644 115.738C52.9182 116.104 53.1329 116.441 53.2787 116.686C53.3515 116.808 53.4068 116.907 53.4434 116.975C53.4617 117.008 53.4753 117.034 53.484 117.051C53.4884 117.059 53.4915 117.065 53.4935 117.069C53.4944 117.071 53.4951 117.072 53.4954 117.073C53.4956 117.073 53.4957 117.073 53.4957 117.074C53.4957 117.074 53.4957 117.074 53.4957 117.073C53.4957 117.073 53.4956 117.073 53.4956 117.073C53.4956 117.073 53.4956 117.073 53.9424 116.849ZM53.3586 115.491C53.4808 115.906 53.5113 116.346 53.4477 116.776L54.437 116.922C54.5217 116.349 54.4811 115.764 54.318 115.209L53.3586 115.491ZM56.8882 118.768C56.3613 117.241 55.4052 115.911 54.1406 114.951L53.5361 115.748C54.6396 116.585 55.4791 117.75 55.943 119.094L56.8882 118.768ZM56.0388 117.621C56.0828 118.014 56.0478 118.412 55.9361 118.789L56.8951 119.073C57.0447 118.567 57.0914 118.034 57.0325 117.509L56.0388 117.621ZM59.8261 121.259C59.0823 119.74 58.0862 118.367 56.8829 117.205L56.1884 117.925C57.3069 119.005 58.2345 120.282 58.9279 121.699L59.8261 121.259ZM58.9064 120.232C59.0311 120.58 59.0311 120.963 58.9064 121.31L59.8476 121.648C60.0507 121.082 60.0507 120.46 59.8476 119.895L58.9064 120.232ZM61.9143 124.536C62.3902 124.382 62.3902 124.382 62.3901 124.382C62.3901 124.382 62.3901 124.382 62.39 124.382C62.39 124.382 62.3899 124.381 62.3898 124.381C62.3896 124.381 62.3894 124.38 62.3891 124.379C62.3885 124.377 62.3876 124.374 62.3865 124.371C62.3844 124.364 62.3812 124.355 62.3772 124.343C62.369 124.319 62.3572 124.283 62.3416 124.239C62.3105 124.149 62.2647 124.021 62.205 123.863C62.0857 123.547 61.91 123.111 61.6838 122.628C61.2382 121.676 60.5706 120.485 59.7162 119.696L59.0379 120.431C59.7443 121.083 60.3453 122.128 60.7781 123.052C60.9911 123.507 61.1571 123.918 61.2696 124.216C61.3258 124.365 61.3685 124.485 61.3969 124.567C61.4111 124.607 61.4217 124.639 61.4287 124.66C61.4321 124.67 61.4347 124.678 61.4363 124.683C61.4371 124.685 61.4377 124.687 61.438 124.688C61.4382 124.688 61.4383 124.689 61.4384 124.689C61.4384 124.689 61.4384 124.689 61.4384 124.689C61.4384 124.689 61.4384 124.689 61.4384 124.689C61.4384 124.689 61.4384 124.689 61.9143 124.536ZM61.6385 122.762C61.6485 123.317 61.579 123.87 61.4322 124.403L62.3963 124.668C62.5686 124.043 62.6501 123.394 62.6383 122.744L61.6385 122.762ZM64.5991 127.235C64.2799 125.499 63.5757 123.863 62.5411 122.457L61.7357 123.05C62.6792 124.332 63.3234 125.827 63.6156 127.416L64.5991 127.235ZM64.3366 125.699C64.244 126.185 64.0319 126.635 63.7231 127.006L64.4916 127.645C64.9106 127.142 65.195 126.536 65.3188 125.887L64.3366 125.699ZM66.8047 131.09C67.3027 131.046 67.3027 131.046 67.3027 131.046C67.3027 131.046 67.3027 131.045 67.3027 131.045C67.3027 131.045 67.3026 131.045 67.3026 131.044C67.3025 131.044 67.3025 131.043 67.3024 131.042C67.3021 131.04 67.3019 131.037 67.3015 131.033C67.3008 131.025 67.2998 131.015 67.2984 131.001C67.2956 130.974 67.2914 130.936 67.2854 130.886C67.2736 130.787 67.2549 130.646 67.2271 130.47C67.1717 130.119 67.0796 129.63 66.9329 129.076C66.6421 127.977 66.1244 126.571 65.2122 125.474L64.4432 126.113C65.2198 127.047 65.6906 128.29 65.9661 129.331C66.1025 129.847 66.188 130.301 66.2394 130.626C66.265 130.788 66.282 130.917 66.2925 131.005C66.2978 131.049 66.3014 131.082 66.3037 131.104C66.3048 131.115 66.3056 131.123 66.3061 131.128C66.3063 131.131 66.3065 131.132 66.3065 131.133C66.3066 131.134 66.3066 131.134 66.3066 131.134C66.3066 131.134 66.3066 131.134 66.3066 131.134C66.3066 131.134 66.3066 131.134 66.3066 131.134C66.3066 131.134 66.3066 131.134 66.8047 131.09ZM66.8603 129.795C66.7563 130.157 66.5974 130.501 66.3892 130.812L67.2201 131.368C67.4868 130.97 67.6894 130.532 67.8216 130.07L66.8603 129.795ZM66.7238 128.873C66.2969 129.134 66.2969 129.134 66.2969 129.134C66.2969 129.134 66.2969 129.134 66.2969 129.134C66.2969 129.134 66.2969 129.134 66.2969 129.134C66.2969 129.134 66.297 129.134 66.297 129.134C66.2971 129.134 66.2972 129.134 66.2974 129.135C66.2978 129.135 66.2985 129.136 66.2993 129.138C66.301 129.14 66.3037 129.145 66.3072 129.151C66.3142 129.162 66.3249 129.18 66.3388 129.203C66.3667 129.25 66.408 129.319 66.461 129.409C66.5671 129.588 66.7198 129.851 66.9059 130.179L67.776 129.686C67.5867 129.352 67.431 129.085 67.3223 128.9C67.2679 128.808 67.2253 128.737 67.1962 128.688C67.1816 128.664 67.1704 128.646 67.1627 128.633C67.1589 128.627 67.156 128.622 67.154 128.618C67.153 128.617 67.1522 128.616 67.1517 128.615C67.1514 128.614 67.1512 128.614 67.151 128.614C67.151 128.613 67.1509 128.613 67.1508 128.613C67.1508 128.613 67.1508 128.613 67.1508 128.613C67.1508 128.613 67.1508 128.613 67.1508 128.613C67.1508 128.613 67.1507 128.613 66.7238 128.873ZM68.5336 129.125C67.988 129.026 67.4707 128.803 67.0203 128.471L66.4273 129.276C66.9996 129.698 67.6585 129.982 68.3549 130.109L68.5336 129.125ZM65.5533 124.104C65.6589 125.639 66.2961 127.101 66.8851 128.158C67.182 128.691 67.4725 129.132 67.6892 129.44C67.7977 129.594 67.8881 129.715 67.9521 129.799C67.9841 129.841 68.0095 129.874 68.0273 129.896C68.0362 129.907 68.0432 129.916 68.0482 129.922C68.0507 129.925 68.0527 129.928 68.0541 129.93C68.0548 129.931 68.0554 129.931 68.0559 129.932C68.0561 129.932 68.0563 129.932 68.0565 129.933C68.0566 129.933 68.0567 129.933 68.0567 129.933C68.0568 129.933 68.0569 129.933 68.4442 129.617C68.8316 129.301 68.8317 129.301 68.8317 129.301C68.8317 129.301 68.8318 129.301 68.8318 129.301C68.8318 129.301 68.8318 129.301 68.8318 129.301C68.8317 129.301 68.8315 129.301 68.8312 129.3C68.8305 129.299 68.8294 129.298 68.8277 129.296C68.8243 129.292 68.819 129.285 68.8118 129.276C68.7973 129.258 68.7754 129.23 68.7469 129.192C68.6901 129.118 68.6074 129.007 68.507 128.864C68.306 128.579 68.0352 128.168 67.7587 127.672C67.2007 126.67 66.6419 125.358 66.5509 124.036L65.5533 124.104ZM67.7312 124.156C67.2324 124.116 66.7516 123.944 66.3355 123.658L65.7687 124.482C66.3279 124.867 66.9758 125.098 67.6499 125.153L67.7312 124.156ZM65.3514 119.765C65.5897 121.615 66.2477 123.384 67.2739 124.931L68.1072 124.378C67.1663 122.96 66.5621 121.336 66.3432 119.637L65.3514 119.765ZM67.5799 120.437C67.0752 120.146 66.6138 119.782 66.21 119.357L65.4846 120.045C65.9543 120.54 66.4916 120.964 67.0802 121.303L67.5799 120.437ZM65.4792 115.47C65.4081 116.726 65.7717 118.143 66.1311 119.212C66.3133 119.753 66.4994 120.22 66.6402 120.552C66.7106 120.718 66.7699 120.85 66.8119 120.942C66.8329 120.988 66.8496 121.024 66.8612 121.049C66.8671 121.061 66.8716 121.071 66.8748 121.077C66.8764 121.081 66.8776 121.083 66.8786 121.085C66.879 121.086 66.8794 121.087 66.8796 121.087C66.8798 121.088 66.8799 121.088 66.88 121.088C66.88 121.088 66.8801 121.088 66.8801 121.088C66.8802 121.088 66.8802 121.089 67.3301 120.87C67.78 120.652 67.78 120.652 67.78 120.652C67.78 120.652 67.78 120.652 67.78 120.652C67.78 120.652 67.78 120.652 67.78 120.652C67.7799 120.652 67.7797 120.652 67.7795 120.651C67.7789 120.65 67.7781 120.648 67.7769 120.646C67.7745 120.641 67.7707 120.633 67.7657 120.622C67.7557 120.601 67.7406 120.569 67.7214 120.527C67.6828 120.442 67.6272 120.318 67.5607 120.161C67.4275 119.847 67.2512 119.405 67.079 118.893C66.7298 117.855 66.4176 116.586 66.4776 115.527L65.4792 115.47ZM67.2366 116.126C66.8836 115.955 66.5989 115.662 66.4348 115.295L65.5219 115.703C65.7807 116.282 66.2329 116.751 66.8009 117.026L67.2366 116.126ZM65.8311 111.29C65.7465 113.131 65.9873 114.973 66.542 116.727L67.4955 116.426C66.9763 114.784 66.7509 113.06 66.8301 111.336L65.8311 111.29ZM67.6711 111.812C67.3066 111.61 66.9843 111.335 66.7233 111.004L65.938 111.623C66.2804 112.057 66.7043 112.419 67.1856 112.686L67.6711 111.812ZM66.3372 107.439C66.054 109.136 66.2747 110.882 66.9714 112.452L67.8854 112.046C67.2683 110.656 67.0725 109.108 67.3235 107.603L66.3372 107.439ZM68.1533 108.34C67.7863 108.066 67.4859 107.709 67.2764 107.295L66.3843 107.747C66.6629 108.297 67.0636 108.775 67.5555 109.141L68.1533 108.34ZM67.3108 103.307C66.8537 104.563 66.8812 105.971 67.0077 107.03C67.0717 107.565 67.1628 108.026 67.2381 108.353C67.2758 108.517 67.3096 108.648 67.3344 108.74C67.3468 108.785 67.3569 108.821 67.3641 108.846C67.3677 108.858 67.3706 108.868 67.3727 108.875C67.3737 108.878 67.3745 108.881 67.3752 108.883C67.3755 108.884 67.3757 108.885 67.3759 108.886C67.376 108.886 67.3761 108.886 67.3762 108.886C67.3762 108.887 67.3763 108.887 67.3763 108.887C67.3763 108.887 67.3764 108.887 67.8544 108.74C68.3324 108.594 68.3325 108.594 68.3325 108.594C68.3325 108.594 68.3325 108.594 68.3325 108.594C68.3325 108.594 68.3325 108.594 68.3325 108.594C68.3325 108.594 68.3324 108.594 68.3323 108.593C68.3321 108.593 68.3316 108.591 68.3309 108.589C68.3296 108.584 68.3275 108.577 68.3246 108.567C68.3189 108.548 68.3103 108.517 68.2995 108.478C68.2778 108.398 68.2471 108.279 68.2126 108.129C68.1435 107.829 68.0595 107.404 68.0006 106.911C67.8814 105.913 67.872 104.689 68.2505 103.648L67.3108 103.307ZM69.0915 104.435C68.7081 104.155 68.4147 103.763 68.2511 103.308L67.3102 103.647C67.5406 104.287 67.9551 104.844 68.5015 105.243L69.0915 104.435ZM68.3152 100.092C67.866 101.688 67.866 103.379 68.3152 104.975L69.2778 104.704C68.8785 103.286 68.8785 101.781 69.2778 100.363L68.3152 100.092ZM69.9457 101.264C69.6108 100.97 69.3784 100.57 69.2861 100.126L68.307 100.329C68.4429 100.984 68.7861 101.576 69.2858 102.015L69.9457 101.264ZM69.6649 101.14H69.6157V102.14H69.6649V101.14ZM68.8787 99.6188C68.8353 100.363 68.9427 101.108 69.1944 101.809L70.1355 101.47C69.9295 100.897 69.8414 100.287 69.877 99.677L68.8787 99.6188ZM69.4467 97.4819C69.1153 98.1472 68.9221 98.8746 68.8787 99.6188L69.877 99.677C69.9125 99.0672 70.0709 98.4717 70.3418 97.9278L69.4467 97.4819ZM70.9781 92.2984C70.7904 94.1075 70.2716 95.8643 69.4489 97.4777L70.3397 97.932C71.2186 96.2085 71.7724 94.3326 71.9727 92.4016L70.9781 92.2984ZM74.9033 129.646C74.3388 130.69 73.455 132.405 72.6656 134.28C71.8803 136.145 71.1708 138.209 70.9819 139.939L71.976 140.047C72.1486 138.466 72.811 136.512 73.5872 134.668C74.3595 132.834 75.227 131.15 75.783 130.121L74.9033 129.646ZM71.8835 140.287C72.9423 138.829 73.8296 136.653 74.4963 134.673C75.1672 132.681 75.6316 130.833 75.8296 129.999L74.8567 129.768C74.6623 130.587 74.2059 132.402 73.5485 134.354C72.8868 136.32 72.0383 138.372 71.0744 139.699L71.8835 140.287Z" fill="#D4AF37"/>
<path d="M22.4781 27.1579L22.3952 19.6845C22.3083 11.8445 22.5549 8.9036 23.4693 6.88286C24.5138 4.57422 27.0482 2.30555 29.3595 1.61053C29.8326 1.46821 31.0782 1.40939 32.127 1.47958C34.5679 1.64334 36.4491 2.70132 38.1809 4.88388C40.4378 7.72898 40.4819 8.02076 40.617 21.0654L40.7354 32.5193H46.4447H52.1543V45.354V58.1888H49.1436C47.4878 58.1888 46.133 58.2996 46.133 58.4348C46.133 58.5699 49.5537 62.5546 53.7341 67.2891L61.3355 75.8975L61.2607 87.92L61.1861 99.9424L59.1145 100.038L57.043 100.133L56.9641 94.8387L56.8853 89.5446H47.5666H38.248L38.1709 96.7068L38.0941 103.869L35.8054 106.447L33.5171 109.025V112.378V115.73L31.4383 115.635L29.3595 115.539L29.2787 112.109L29.1978 108.68L26.9132 106.106L24.6285 103.532V96.4569V89.3822H17.7471H10.8657V86.9452V84.5082H17.7471H24.6285V71.3485V58.1888H23.9851M36.0976 32.5193H23.4816H10.8657V45.354V58.1888H13.9408H17.0162L9.35319 66.8947L1.69043 75.6002V118.884V162.167H22.3347H42.979M57.0286 84.5082H47.5666H38.1047V71.5652C38.1047 64.4463 38.1907 58.5244 38.2959 58.4055" stroke="#D4AF37" stroke-width="2"/>
</svg>
