<svg width="114" height="98" viewBox="0 0 114 98" fill="none" xmlns="http://www.w3.org/2000/svg">
<mask id="path-1-inside-1_521_10034" fill="white">
<path d="M21.2438 14.5277C23.8455 7.39878 26.278 1.21359 26.6492 0.783105C27.02 0.352621 27.5722 0 27.8761 0C28.8655 0 112.957 31.3971 113.59 32.0026C113.981 32.3762 114.099 33.0135 113.915 33.7491C113.676 34.7077 112.473 35.4872 106.939 38.2706C100.48 41.5184 100.27 41.6674 100.797 42.6318C101.097 43.1809 101.34 45.0397 101.337 46.7626C101.333 49.256 101.096 50.3514 100.174 52.1324C97.8632 56.5988 94.0394 59.0416 89.3332 59.0586C86.6677 59.0685 86.6312 59.0859 86.0817 60.611C85.7764 61.4594 85.1712 62.2667 84.7371 62.405C84.303 62.5432 79.8674 61.1439 74.8795 59.2954C69.8921 57.4468 65.7742 55.9848 65.7292 56.0471C65.6842 56.1093 65.2662 57.2673 64.8 58.621C64.2603 60.1881 63.2643 61.7776 62.0583 62.9957L60.1643 64.9096V77.002C60.1643 90.3806 60.0537 90.9972 57.357 92.648C56.4595 93.1975 55.1261 93.5224 53.761 93.5233C51.8402 93.5251 51.3968 93.3291 49.8873 91.8135C48.5089 90.4294 48.1243 89.6593 47.8769 87.7861L47.5708 85.4703H33.6202C20.2486 85.4703 19.6577 85.5061 19.3974 86.3304C18.999 87.591 15.9475 90.2079 14.0896 90.8827C12.4941 91.4617 12.4785 91.4922 12.4785 94.0303C12.4785 97.7534 12.0979 98 6.35379 98C2.5835 98 1.46533 97.8505 0.815114 97.2594C0.0521424 96.5662 0 95.409 0 79.1679C0 63.9913 0.0877953 61.7293 0.700134 61.114C1.59012 60.2208 11.08 60.0807 11.9437 60.9479C12.2379 61.2433 12.4785 62.6502 12.4785 64.0745C12.4785 66.619 12.5061 66.6754 14.0642 67.3291C16.1793 68.2165 17.7676 69.5138 19.0386 71.3919L20.0868 72.9406H33.8863H47.6857V67.347C47.6857 64.0804 47.5084 61.7534 47.2588 61.7534C47.0239 61.7534 46.322 60.8799 45.699 59.8122C44.2889 57.3967 44.2078 54.4231 45.4606 51.1126C46.1415 49.3146 46.2213 48.7011 45.7948 48.5431C45.4869 48.429 40.9326 46.7496 35.6743 44.8106C28.8285 42.2868 26.0048 41.0401 25.7294 40.4203C25.4633 39.8225 25.6973 38.6133 26.4852 36.5115C27.1127 34.8374 27.5289 33.3106 27.4104 33.1177C27.2918 32.9249 25.0702 32.0075 22.4738 31.0785C19.4438 29.9943 17.5305 29.0492 17.1326 28.4397C16.5715 27.5792 16.9596 26.2653 21.2438 14.5277Z"/>
</mask>
<path d="M98.0811 38.1717L97.8509 37.7278L97.8509 37.7278L98.0811 38.1717ZM89.6693 42.5338L89.4978 43.0035L89.7043 43.0789L89.8994 42.9777L89.6693 42.5338ZM79.9396 38.9821L80.111 38.5124H80.111L79.9396 38.9821ZM69.5321 35.7946L69.2953 35.3542L69.2951 35.3543L69.5321 35.7946ZM65.9026 38.8756L66.2412 39.2435L66.2412 39.2435L65.9026 38.8756ZM39.0742 26.1485L38.6007 25.9879L38.6007 25.9879L39.0742 26.1485ZM38.4008 28.1332L37.9274 27.9725L37.7671 28.4449L38.2391 28.6063L38.4008 28.1332ZM40.3363 28.795L40.4982 28.3219L40.4981 28.3219L40.3363 28.795ZM42.2719 29.4573L42.11 29.9304L42.5602 30.0844L42.7363 29.6424L42.2719 29.4573ZM42.992 27.6499L43.4565 27.835L43.4566 27.8348L42.992 27.6499ZM43.5821 25.7216L43.9236 25.3564L43.9222 25.3551L43.5821 25.7216ZM50.0901 32.1382L49.6661 31.8732L49.666 31.8734L50.0901 32.1382ZM54.6938 31.9037L55.1672 32.0644L55.1673 32.0643L54.6938 31.9037ZM54.0311 33.8556L53.5576 33.6949L53.4015 34.1548L53.8567 34.3242L54.0311 33.8556ZM55.9514 34.5703L55.777 35.0389L55.9514 34.5703ZM57.8718 35.2849L57.6974 35.7535L58.1706 35.9296L58.3421 35.4547L57.8718 35.2849ZM58.3041 34.0874L58.7744 34.2572L58.7744 34.2572L58.3041 34.0874ZM59.0497 32.1136L58.5861 31.9263L58.586 31.9264L59.0497 32.1136ZM56.312 30.2502L56.4611 29.773V29.773L56.312 30.2502ZM86.5862 46.0524L86.2377 46.411L86.238 46.4112L86.5862 46.0524ZM31.6152 34.4692L31.7883 34.0001L31.3208 33.8275L31.1467 34.2945L31.6152 34.4692ZM35.0824 35.749L35.2556 35.2799L35.0824 35.749ZM97.065 46.4359L96.5659 46.4651V46.4651L97.065 46.4359ZM94.6228 52.8985L94.9589 53.2687L94.9589 53.2687L94.6228 52.8985ZM88.4593 54.258L88.9234 54.4439L88.9236 54.4434L88.4593 54.258ZM90.098 49.8601L89.6286 49.6879L89.6286 49.6879L90.098 49.8601ZM93.7319 45.0787L93.9575 45.5249L93.9576 45.5248L93.7319 45.0787ZM61.589 55.2268L62.081 55.3159L62.0811 55.3158L61.589 55.2268ZM60.5934 57.9883L60.1336 57.7919L60.1336 57.7919L60.5934 57.9883ZM51.4043 59.4354L51.1911 59.8877L51.1911 59.8877L51.4043 59.4354ZM49.6355 51.7498L49.1739 51.5577L49.1739 51.5577L49.6355 51.7498ZM50.2804 50.2006L50.4555 49.7323L50.004 49.5634L49.8188 50.0085L50.2804 50.2006ZM56.0022 52.3405L55.8271 52.8088V52.8088L56.0022 52.3405ZM15.3272 73.4123L14.944 73.7335L14.944 73.7335L15.3272 73.4123ZM14.1644 86.1143L13.8768 85.7053L13.8766 85.7054L14.1644 86.1143ZM13.3217 71.5722L13.5583 71.1318L13.5583 71.1317L13.3217 71.5722ZM105.831 33.8829C105.678 33.7432 105.659 33.5565 105.684 33.4347C105.703 33.3407 105.746 33.2828 105.753 33.2736C105.772 33.2476 105.778 33.2478 105.739 33.2809C105.671 33.3385 105.545 33.4298 105.355 33.5559C104.979 33.8042 104.407 34.1503 103.677 34.5709C102.219 35.4104 100.16 36.5305 97.8509 37.7278L98.3113 38.6155C100.629 37.4138 102.702 36.2864 104.176 35.4375C104.912 35.0138 105.505 34.6555 105.906 34.39C106.104 34.2592 106.27 34.1412 106.385 34.0436C106.438 33.9991 106.508 33.9353 106.563 33.8595C106.588 33.8254 106.641 33.7463 106.664 33.6346C106.692 33.4952 106.67 33.2945 106.506 33.1446L105.831 33.8829ZM97.8509 37.7278L89.4391 42.0899L89.8994 42.9777L98.3113 38.6155L97.8509 37.7278ZM89.8407 42.0641L80.111 38.5124L79.7681 39.4518L89.4978 43.0035L89.8407 42.0641ZM80.111 38.5124C76.9338 37.3526 74.4328 36.4928 72.6672 35.9521C71.7859 35.6822 71.0777 35.4886 70.5561 35.3775C70.2966 35.3222 70.07 35.2844 69.8849 35.2698C69.7925 35.2626 69.6989 35.2601 69.6104 35.2675C69.53 35.2742 69.4109 35.2921 69.2953 35.3542L69.7688 36.235C69.7085 36.2674 69.6694 36.2661 69.6937 36.264C69.7098 36.2627 69.7454 36.2619 69.8066 36.2668C69.9287 36.2764 70.1068 36.3042 70.3477 36.3555C70.827 36.4576 71.5027 36.6413 72.3744 36.9082C74.1148 37.4413 76.5965 38.294 79.7681 39.4518L80.111 38.5124ZM69.2951 35.3543C69.1575 35.4283 68.9521 35.5805 68.7271 35.7574C68.4895 35.9442 68.1944 36.1873 67.8629 36.4688C67.1993 37.032 66.38 37.7567 65.564 38.5077L66.2412 39.2435C67.0487 38.5003 67.8579 37.7847 68.51 37.2311C68.8363 36.9542 69.1209 36.7198 69.3451 36.5435C69.5818 36.3575 69.7203 36.2611 69.769 36.2349L69.2951 35.3543ZM65.564 38.5077L62.6119 41.2244L63.2891 41.9602L66.2412 39.2435L65.564 38.5077ZM38.6007 25.9879L37.9274 27.9725L38.8743 28.2938L39.5477 26.3092L38.6007 25.9879ZM38.2391 28.6063L40.1746 29.2681L40.4981 28.3219L38.5626 27.6601L38.2391 28.6063ZM40.1745 29.2681L42.11 29.9304L42.4337 28.9842L40.4982 28.3219L40.1745 29.2681ZM42.7363 29.6424L43.4565 27.835L42.5276 27.4648L41.8074 29.2722L42.7363 29.6424ZM43.4566 27.8348C43.6581 27.3288 43.8284 26.8502 43.9403 26.4844C43.9957 26.3034 44.0402 26.1391 44.0661 26.0085C44.0786 25.9456 44.0904 25.8725 44.0931 25.8018C44.0944 25.7674 44.0945 25.7139 44.0834 25.6535C44.0751 25.6081 44.0462 25.471 43.9236 25.3564L43.2406 26.0869C43.1269 25.9806 43.1043 25.8581 43.0997 25.8332C43.0924 25.7934 43.0937 25.7663 43.0938 25.764C43.0941 25.7573 43.0938 25.7707 43.0852 25.8141C43.0689 25.896 43.0357 26.0232 42.9841 26.1917C42.8821 26.5249 42.7218 26.9771 42.5275 27.4649L43.4566 27.8348ZM43.9222 25.3551C43.8594 25.2968 43.7803 25.2548 43.7577 25.2423C43.7146 25.2187 43.6624 25.1923 43.6058 25.1647C43.4915 25.1089 43.341 25.0395 43.169 24.9623C42.8238 24.8075 42.3786 24.6156 41.934 24.4288C41.4894 24.2421 41.042 24.0591 40.6927 23.9222C40.5185 23.854 40.3651 23.7958 40.2472 23.7541C40.1889 23.7335 40.1341 23.715 40.0875 23.7011C40.0645 23.6943 40.0382 23.6869 40.0114 23.6809C39.995 23.6771 39.9397 23.6644 39.8742 23.6644V24.6644C39.8416 24.6644 39.8175 24.6609 39.8092 24.6596C39.7986 24.658 39.7917 24.6564 39.79 24.656C39.7869 24.6553 39.79 24.6559 39.8019 24.6595C39.8251 24.6664 39.8619 24.6785 39.9137 24.6968C40.0162 24.7331 40.1576 24.7866 40.3279 24.8533C40.6672 24.9863 41.1066 25.166 41.5467 25.3508C41.9868 25.5356 42.4242 25.7242 42.7597 25.8747C42.9279 25.9501 43.0672 26.0145 43.1672 26.0634C43.2177 26.088 43.2538 26.1065 43.2769 26.1192C43.3205 26.1431 43.2857 26.1287 43.242 26.0882L43.9222 25.3551ZM39.8742 23.6644C39.7414 23.6644 39.6452 23.7156 39.6001 23.744C39.5512 23.7749 39.5168 23.808 39.4975 23.828C39.4588 23.8682 39.4312 23.9087 39.4156 23.9327C39.382 23.9846 39.3504 24.0449 39.3229 24.1011C39.2657 24.2178 39.1974 24.3764 39.1233 24.5602C38.9739 24.9307 38.788 25.4359 38.6007 25.9879L39.5477 26.3092C39.7308 25.7697 39.9101 25.2828 40.0507 24.9342C40.1216 24.7584 40.1795 24.6255 40.221 24.5408C40.2311 24.5202 40.2393 24.5044 40.2456 24.4927C40.2523 24.4804 40.2552 24.476 40.2545 24.477C40.254 24.4778 40.2513 24.4819 40.2465 24.4883C40.2421 24.4941 40.2326 24.5063 40.2181 24.5213C40.2054 24.5346 40.177 24.5625 40.1335 24.5899C40.0939 24.6149 40.0027 24.6644 39.8742 24.6644V23.6644ZM46.3857 28.8838C46.2426 29.3634 46.1122 29.8248 46.0171 30.1827C45.9697 30.3613 45.9302 30.5171 45.9023 30.6379C45.8884 30.6979 45.8765 30.7531 45.8678 30.7999C45.8616 30.833 45.8488 30.9025 45.8488 30.9698H46.8488C46.8488 31.0077 46.8432 31.0243 46.8508 30.9834C46.8559 30.9563 46.8643 30.9165 46.8766 30.8632C46.9011 30.7573 46.9375 30.613 46.9836 30.4394C47.0756 30.0931 47.2032 29.6416 47.344 29.1698L46.3857 28.8838ZM45.8488 30.9698C45.8488 31.1254 45.9163 31.2366 45.9536 31.2883C45.9944 31.3448 46.0392 31.3857 46.07 31.4113C46.1324 31.463 46.2032 31.5057 46.2633 31.5387C46.3881 31.6073 46.5511 31.6798 46.7275 31.7511C47.0849 31.8957 47.5542 32.0581 48.0212 32.2039C48.4882 32.3498 48.9659 32.4831 49.3407 32.5673C49.5256 32.6088 49.7003 32.6417 49.8415 32.656C49.9091 32.6628 49.9923 32.6679 50.0739 32.6601C50.1142 32.6563 50.1761 32.6475 50.2438 32.622C50.3066 32.5984 50.4286 32.54 50.5142 32.403L49.666 31.8734C49.7433 31.7494 49.8504 31.7016 49.8918 31.686C49.9382 31.6686 49.9724 31.6653 49.979 31.6647C49.9934 31.6633 49.9855 31.6654 49.942 31.661C49.8606 31.6528 49.7318 31.6302 49.5597 31.5915C49.2208 31.5155 48.7713 31.3905 48.3193 31.2494C47.8674 31.1083 47.4259 30.9549 47.1023 30.824C46.9382 30.7577 46.8181 30.7026 46.745 30.6624C46.7061 30.641 46.6992 30.6339 46.7087 30.6418C46.713 30.6454 46.7375 30.6657 46.7646 30.7033C46.7882 30.736 46.8488 30.8298 46.8488 30.9698H45.8488ZM50.5141 32.4031C50.7487 32.0276 51.0542 31.29 51.2937 30.619C51.4162 30.2757 51.5273 29.9336 51.6084 29.6422C51.6834 29.373 51.751 29.0859 51.751 28.8858H50.751C50.751 28.8853 50.751 28.8888 50.7504 28.8969C50.7498 28.9049 50.7487 28.9157 50.7468 28.9297C50.743 28.9579 50.7369 28.9944 50.7278 29.0394C50.7095 29.1296 50.6817 29.2425 50.6451 29.3739C50.572 29.6364 50.4689 29.9552 50.3519 30.2829C50.1124 30.9538 49.8374 31.599 49.6661 31.8732L50.5141 32.4031ZM51.751 28.8858C51.751 28.6616 51.6485 28.4788 51.5577 28.3567C51.4619 28.2277 51.3379 28.1109 51.2086 28.0077C50.9488 27.8004 50.6067 27.6005 50.2431 27.4274C49.5278 27.087 48.6149 26.7968 47.9126 26.7968V27.7968C48.4007 27.7968 49.1569 28.0179 49.8133 28.3303C50.1355 28.4837 50.4048 28.6457 50.5849 28.7894C50.6757 28.8618 50.7288 28.9177 50.7551 28.9531C50.7864 28.9953 50.751 28.9685 50.751 28.8858H51.751ZM47.9126 26.7968C47.6341 26.7968 47.4268 26.9673 47.3157 27.076C47.185 27.204 47.0648 27.3694 46.9579 27.546C46.7419 27.9026 46.5374 28.3756 46.3857 28.8838L47.344 29.1698C47.4762 28.7266 47.6493 28.3347 47.8132 28.064C47.8962 27.9271 47.9664 27.8384 48.0152 27.7906C48.0837 27.7236 48.0449 27.7968 47.9126 27.7968V26.7968ZM54.2203 31.743L53.5576 33.6949L54.5045 34.0164L55.1672 32.0644L54.2203 31.743ZM53.8567 34.3242L55.777 35.0389L56.1258 34.1017L54.2055 33.387L53.8567 34.3242ZM55.777 35.0389L57.6974 35.7535L58.0462 34.8163L56.1258 34.1017L55.777 35.0389ZM58.3421 35.4547L58.7744 34.2572L57.8338 33.9177L57.4015 35.1151L58.3421 35.4547ZM58.7744 34.2572C59.0108 33.6021 59.344 32.7202 59.5133 32.3007L58.586 31.9264C58.4104 32.3617 58.0725 33.2562 57.8338 33.9177L58.7744 34.2572ZM59.5133 32.3009C59.6014 32.0827 59.6858 31.8034 59.6199 31.5053C59.5497 31.1876 59.3371 30.9628 59.0867 30.7924C58.8419 30.6257 58.5084 30.475 58.0931 30.3184C57.6717 30.1596 57.1337 29.9831 56.4611 29.773L56.1629 30.7275C56.833 30.9368 57.3477 31.1061 57.7404 31.2542C58.1391 31.4045 58.381 31.5217 58.524 31.6191C58.6616 31.7127 58.6494 31.7479 58.6435 31.7212C58.6419 31.7141 58.6546 31.7567 58.5861 31.9263L59.5133 32.3009ZM56.4611 29.773C56.2405 29.7041 55.9968 29.6457 55.7523 29.6651C55.4793 29.6868 55.2453 29.8012 55.0506 30.0001C54.8735 30.1811 54.7374 30.4232 54.6154 30.6948C54.491 30.9717 54.3637 31.3202 54.2203 31.7431L55.1673 32.0643C55.309 31.6464 55.4237 31.3356 55.5275 31.1046C55.6337 30.8683 55.712 30.754 55.7653 30.6996C55.8009 30.6632 55.813 30.6634 55.8315 30.662C55.8785 30.6582 55.9717 30.6677 56.1629 30.7275L56.4611 29.773ZM50.6703 42.0292C54.0527 43.2758 57.1919 44.4095 59.5253 45.2318C60.6916 45.6428 61.6585 45.9767 62.3544 46.2082C62.7018 46.3238 62.9849 46.4149 63.1928 46.4776C63.2963 46.5087 63.3855 46.5342 63.4569 46.5524C63.5028 46.5641 63.6075 46.5913 63.7015 46.5913V45.5913C63.7566 45.5913 63.7797 45.6027 63.7034 45.5833C63.6526 45.5703 63.5791 45.5496 63.4814 45.5201C63.287 45.4615 63.0143 45.3739 62.67 45.2593C61.9823 45.0306 61.0219 44.6989 59.8577 44.2886C57.5299 43.4683 54.3953 42.3363 51.0162 41.0909L50.6703 42.0292ZM63.7015 46.5913C63.8689 46.5913 64.0229 46.5185 64.1007 46.4799C64.204 46.4287 64.3195 46.3596 64.4406 46.2805C64.6845 46.1213 64.9882 45.8976 65.3283 45.6297C66.0104 45.0924 66.8665 44.356 67.7347 43.5488L67.0538 42.8165C66.2012 43.6091 65.366 44.327 64.7095 44.8441C64.3803 45.1034 64.1027 45.3069 63.8941 45.4431C63.7889 45.5117 63.7102 45.5574 63.6565 45.584C63.5774 45.6232 63.6115 45.5913 63.7015 45.5913V46.5913ZM67.7347 43.5488C68.5887 42.7549 69.4141 42.0355 70.0543 41.5169C70.3754 41.2569 70.6437 41.0523 70.8427 40.9151C70.9432 40.8458 71.0172 40.7998 71.0666 40.7731C71.0915 40.7596 71.1015 40.7557 71.0997 40.7564C71.0985 40.7569 71.0892 40.7604 71.0737 40.7641C71.0596 40.7675 71.0282 40.774 70.9854 40.774V39.774C70.8781 39.774 70.7891 39.8047 70.7443 39.8217C70.69 39.8423 70.6376 39.8682 70.5906 39.8936C70.4961 39.9447 70.3887 40.0134 70.275 40.0919C70.0457 40.25 69.7548 40.4727 69.4249 40.7399C68.7633 41.2757 67.9205 42.0107 67.0538 42.8165L67.7347 43.5488ZM70.9854 40.774C70.9478 40.774 70.9361 40.7681 70.9827 40.7782C71.0171 40.7856 71.067 40.798 71.1342 40.8165C71.2679 40.8533 71.4511 40.9089 71.6796 40.982C72.1355 41.1278 72.7544 41.3376 73.4838 41.5922C74.9415 42.1011 76.8285 42.7844 78.7089 43.4809C80.5892 44.1773 82.4601 44.8858 83.8856 45.4449C84.5988 45.7246 85.1975 45.9658 85.6292 46.1487C85.8456 46.2404 86.0155 46.3156 86.1351 46.3725C86.1954 46.4012 86.2375 46.4227 86.2643 46.4376C86.3075 46.4615 86.2785 46.4506 86.2377 46.411L86.9346 45.6938C86.8679 45.629 86.7855 45.5831 86.7494 45.5631C86.6968 45.534 86.6339 45.5024 86.5649 45.4696C86.426 45.4035 86.2408 45.3218 86.0194 45.228C85.5754 45.0398 84.9669 44.7948 84.2507 44.5139C82.8173 43.9518 80.9401 43.2409 79.0562 42.5431C77.1723 41.8454 75.279 41.1597 73.8133 40.6481C73.081 40.3924 72.4524 40.1792 71.9842 40.0295C71.7506 39.9548 71.5526 39.8945 71.3996 39.8524C71.3235 39.8314 71.2536 39.8136 71.1936 39.8006C71.1458 39.7903 71.0649 39.774 70.9854 39.774V40.774ZM86.238 46.4112C86.1504 46.3262 86.1223 46.2344 86.114 46.204C86.1038 46.1662 86.1023 46.1392 86.102 46.1332C86.1013 46.1208 86.1027 46.1269 86.0986 46.1625C86.0908 46.2296 86.0711 46.3385 86.0365 46.4928C85.9681 46.7973 85.8531 47.2279 85.7023 47.7495C85.4016 48.7898 84.9676 50.1621 84.5064 51.5467C84.0453 52.9311 83.559 54.3219 83.1543 55.3992C82.9517 55.9386 82.7714 56.3943 82.6261 56.7296C82.5533 56.8978 82.4919 57.0295 82.4429 57.124C82.3834 57.2386 82.368 57.2466 82.3946 57.2198L83.1034 57.9252C83.1995 57.8287 83.277 57.6877 83.3307 57.5843C83.3948 57.4606 83.4666 57.3051 83.5437 57.1271C83.6985 56.7698 83.8854 56.2965 84.0904 55.7509C84.5009 54.6581 84.9915 53.2547 85.4552 51.8627C85.9187 50.471 86.3573 49.0849 86.663 48.0271C86.8155 47.4996 86.9371 47.0461 87.0122 46.7119C87.0492 46.5468 87.078 46.3977 87.0919 46.2781C87.0986 46.2204 87.1042 46.151 87.1007 46.0822C87.0989 46.0481 87.0943 45.9976 87.0789 45.9413C87.0656 45.8924 87.0307 45.7871 86.9344 45.6936L86.238 46.4112ZM31.7107 35.6444L32.0837 34.6438L31.1467 34.2945L30.7737 35.2951L31.7107 35.6444ZM31.4421 34.9382L34.9093 36.218L35.2556 35.2799L31.7883 34.0001L31.4421 34.9382ZM34.9093 36.218C36.8164 36.922 43.9088 39.5371 50.6703 42.0292L51.0162 41.0909C44.2546 38.5988 37.1624 35.9838 35.2556 35.2799L34.9093 36.218ZM96.5659 46.4651C96.7004 48.7643 95.7754 51.1763 94.2866 52.5284L94.9589 53.2687C96.6994 51.688 97.714 48.968 97.5641 46.4067L96.5659 46.4651ZM94.2867 52.5283C93.7752 52.9927 92.8696 53.5017 91.891 53.8972C90.9086 54.2943 89.9413 54.5411 89.3216 54.5411V55.5411C90.1334 55.5411 91.2425 55.2379 92.2657 54.8244C93.2926 54.4093 94.3219 53.847 94.9589 53.2687L94.2867 52.5283ZM89.3216 54.5411C89.0942 54.5411 88.94 54.5313 88.8371 54.5139C88.7244 54.4949 88.7372 54.4768 88.7789 54.5147C88.8057 54.5391 88.8296 54.5732 88.8436 54.612C88.8563 54.6473 88.8548 54.6697 88.8549 54.6672C88.8557 54.651 88.8659 54.5874 88.9234 54.4439L87.9951 54.072C87.9269 54.2423 87.8644 54.4334 87.8559 54.6228C87.8464 54.8365 87.9067 55.0734 88.1065 55.2549C88.2775 55.4102 88.494 55.4702 88.6707 55.5C88.8572 55.5314 89.0778 55.5411 89.3216 55.5411V54.5411ZM88.9236 54.4434C89.0989 54.0043 89.8394 52.0175 90.5674 50.0322L89.6286 49.6879C88.8984 51.6791 88.1637 53.6499 87.9949 54.0726L88.9236 54.4434ZM90.5674 50.0322C91.2178 48.2591 91.5435 47.4312 91.9576 46.8864C92.3474 46.3734 92.829 46.0954 93.9575 45.5249L93.5063 44.6324C92.4078 45.1878 91.712 45.5569 91.1614 46.2813C90.635 46.9739 90.2573 47.9738 89.6286 49.6879L90.5674 50.0322ZM93.9576 45.5248C94.5795 45.2102 95.1906 44.9392 95.6708 44.7563C95.9119 44.6645 96.1114 44.5982 96.2584 44.5593C96.3324 44.5397 96.3836 44.5296 96.4148 44.5255C96.4612 44.5193 96.4261 44.5312 96.3577 44.5131L96.6136 43.5464C96.4839 43.5121 96.3564 43.5245 96.2832 43.5342C96.1947 43.5459 96.099 43.5671 96.0025 43.5926C95.8085 43.644 95.5729 43.7235 95.3149 43.8218C94.7968 44.0191 94.1536 44.305 93.5062 44.6325L93.9576 45.5248ZM96.3577 44.5131C96.2952 44.4965 96.2517 44.469 96.2275 44.4504C96.2034 44.4319 96.1908 44.4167 96.188 44.4132C96.1837 44.4078 96.1944 44.4205 96.2151 44.4654C96.2559 44.5538 96.3047 44.6993 96.3536 44.9023C96.4501 45.3034 96.5304 45.8584 96.5659 46.4651L97.5641 46.4067C97.5261 45.755 97.4392 45.1394 97.3258 44.6682C97.2697 44.4351 97.2027 44.2191 97.1233 44.0468C97.084 43.9615 97.0335 43.869 96.9678 43.7871C96.9083 43.713 96.7939 43.5941 96.6136 43.5464L96.3577 44.5131ZM61.097 55.1377C61.0684 55.2956 60.9528 55.6706 60.7704 56.1763C60.5933 56.6677 60.3665 57.2464 60.1336 57.7919L61.0533 58.1846C61.2936 57.6217 61.5274 57.0251 61.7112 56.5155C61.8897 56.0203 62.0352 55.5688 62.081 55.3159L61.097 55.1377ZM60.1336 57.7919C59.4302 59.4394 58.5366 60.2423 57.3003 60.437C55.994 60.6428 54.1878 60.1951 51.6176 58.9832L51.1911 59.8877C53.7856 61.111 55.8307 61.6809 57.456 61.4249C59.1514 61.1578 60.2699 60.0194 61.0533 58.1846L60.1336 57.7919ZM51.6176 58.9832C50.2419 58.3344 49.5188 57.5261 49.2776 56.4781C49.0271 55.3895 49.2683 53.9339 50.0971 51.9419L49.1739 51.5577C48.3208 53.6079 47.9813 55.3041 48.3031 56.7024C48.6342 58.1412 49.6365 59.1546 51.1911 59.8877L51.6176 58.9832ZM50.0971 51.942L50.742 50.3928L49.8188 50.0085L49.1739 51.5577L50.0971 51.942ZM50.1052 50.6689L55.8271 52.8088L56.1774 51.8722L50.4555 49.7323L50.1052 50.6689ZM55.8271 52.8088C58.0619 53.6446 59.4573 54.211 60.2788 54.6355C60.6938 54.8499 60.9223 55.0083 61.0373 55.1215C61.1439 55.2263 61.0826 55.2178 61.097 55.1378L62.0811 55.3158C62.1481 54.9449 61.9725 54.6388 61.7386 54.4086C61.5131 54.1868 61.1749 53.9729 60.7378 53.747C59.8551 53.291 58.4045 52.7051 56.1774 51.8722L55.8271 52.8088ZM4.51095 93.5251V78.9817H3.51095V93.5251H4.51095ZM4.51095 78.9817V64.4384H3.51095V78.9817H4.51095ZM55.6533 65.4752V69.2077H56.6533V65.4752H55.6533ZM55.6533 69.2077V72.9406H56.6533V69.2077H55.6533ZM14.944 73.7335C15.4549 74.343 15.6859 74.7003 15.8184 75.3165C15.9624 75.986 15.9895 76.9596 15.9895 78.8144H16.9895C16.9895 76.9948 16.9672 75.902 16.7961 75.1062C16.6134 74.2572 16.2632 73.7507 15.7104 73.0911L14.944 73.7335ZM15.9895 78.8144C15.9895 80.9593 15.8492 82.4084 15.5137 83.4619C15.1876 84.4858 14.6743 85.1444 13.8768 85.7053L14.4521 86.5232C15.423 85.8405 16.0722 85.0034 16.4665 83.7654C16.8514 82.5569 16.9895 80.9779 16.9895 78.8144H15.9895ZM13.8766 85.7054C13.6202 85.8859 13.3519 86.0488 13.1303 86.1643C13.0191 86.2223 12.9266 86.2647 12.8578 86.2912C12.7699 86.3251 12.772 86.3128 12.8248 86.3128V87.3128C12.973 87.3128 13.122 87.2612 13.2178 87.2242C13.3328 87.1798 13.461 87.1196 13.5925 87.051C13.8566 86.9134 14.1627 86.727 14.4523 86.5231L13.8766 85.7054ZM12.8248 86.3128C13.0271 86.3128 13.1472 86.4313 13.1857 86.476C13.2276 86.5245 13.2456 86.567 13.2487 86.5742C13.2568 86.5929 13.2534 86.591 13.2442 86.5479C13.2275 86.4699 13.2079 86.3365 13.1877 86.142C13.1479 85.7583 13.1111 85.1936 13.0798 84.4857C13.0174 83.0729 12.9785 81.1189 12.9785 78.9661H11.9785C11.9785 81.1289 12.0176 83.0982 12.0808 84.5298C12.1123 85.2442 12.1502 85.832 12.1931 86.2453C12.2143 86.4492 12.2381 86.6254 12.2664 86.7573C12.2796 86.8193 12.2991 86.8974 12.3303 86.9699C12.345 87.004 12.3748 87.0669 12.4284 87.1291C12.4787 87.1873 12.6106 87.3128 12.8248 87.3128V86.3128ZM12.9785 78.9661C12.9785 75.1667 12.9871 73.2493 13.0922 72.3276C13.1181 72.1005 13.1472 71.962 13.1733 71.8816C13.2027 71.7913 13.2081 71.8381 13.1344 71.8898C13.0337 71.9604 12.9368 71.9411 12.9314 71.9398C12.9307 71.9396 12.9339 71.9404 12.9415 71.9432C12.9491 71.946 12.9596 71.9502 12.9736 71.9565C13.0025 71.9694 13.0381 71.9875 13.0851 72.0127L13.5583 71.1317C13.4585 71.0782 13.3193 71.0059 13.1731 70.9694C13.0105 70.9289 12.7778 70.9184 12.56 71.0712C12.3692 71.205 12.276 71.4075 12.2224 71.5722C12.1656 71.7466 12.1274 71.9622 12.0987 72.2143C11.9853 73.2088 11.9785 75.2065 11.9785 78.9661H12.9785ZM13.0851 72.0127C13.2587 72.106 13.562 72.339 13.9207 72.6682C14.2699 72.9886 14.6399 73.3706 14.944 73.7335L15.7104 73.0911C15.3754 72.6914 14.9746 72.2781 14.5968 71.9314C14.2286 71.5935 13.8486 71.2877 13.5583 71.1318L13.0851 72.0127ZM56.1533 80.9429H38.5497V81.9429H56.1533V80.9429ZM38.5497 80.9429H20.9461V81.9429H38.5497V80.9429ZM55.6533 86.6186C55.6533 87.3982 55.4712 88.0134 55.2001 88.4174C54.9358 88.8114 54.5972 88.9977 54.2214 88.9977V89.9977C54.9869 89.9977 55.6143 89.595 56.0305 88.9746C56.4401 88.3642 56.6533 87.5398 56.6533 86.6186H55.6533ZM54.2214 88.9977C53.6174 88.9977 53.2624 88.8256 53.0413 88.5544C52.803 88.262 52.6424 87.7611 52.6424 86.947H51.6424C51.6424 87.8607 51.8171 88.6352 52.2662 89.1862C52.7325 89.7584 53.4171 89.9977 54.2214 89.9977V88.9977ZM52.6424 86.947C52.6424 86.5705 52.6459 86.3425 52.6718 86.1851C52.6838 86.1126 52.6971 86.0797 52.7031 86.0678C52.7056 86.0627 52.7065 86.0623 52.7049 86.0641C52.7033 86.0661 52.7019 86.0672 52.7022 86.0669C52.7125 86.0593 52.7824 86.0186 53.0472 85.9949C53.3006 85.9723 53.6474 85.9703 54.1478 85.9703V84.9703C53.6624 84.9703 53.2657 84.9715 52.9583 84.9989C52.6621 85.0253 52.3539 85.0816 52.1093 85.2617C51.8346 85.4639 51.7299 85.7505 51.6851 86.0227C51.643 86.2782 51.6424 86.5977 51.6424 86.947H52.6424ZM54.1478 85.9703C54.6135 85.9703 54.9497 85.976 55.1994 85.9983C55.4583 86.0216 55.5608 86.0587 55.598 86.08C55.5998 86.081 55.6046 86.0715 55.6186 86.1228C55.6417 86.2073 55.6533 86.3488 55.6533 86.6186H56.6533C56.6533 86.3572 56.6462 86.0895 56.5832 85.8592C56.5112 85.5956 56.3625 85.3654 56.0949 85.2122C55.8627 85.0792 55.5798 85.0284 55.2887 85.0023C54.9884 84.9754 54.61 84.9703 54.1478 84.9703V85.9703ZM26.6492 0.783105L27.4065 1.43617L27.4069 1.43573L26.6492 0.783105ZM21.2438 14.5277L22.1832 14.8706L22.1832 14.8706L21.2438 14.5277ZM17.1326 28.4397L16.2949 28.9859L16.2952 28.9864L17.1326 28.4397ZM22.4738 31.0785L22.1369 32.0201L22.1369 32.0201L22.4738 31.0785ZM26.4852 36.5115L27.4216 36.8625L27.4216 36.8625L26.4852 36.5115ZM25.7294 40.4203L26.6432 40.0142L26.643 40.0137L25.7294 40.4203ZM35.6743 44.8106L36.0203 43.8724L36.0202 43.8723L35.6743 44.8106ZM45.7948 48.5431L45.4473 49.4808L45.4475 49.4809L45.7948 48.5431ZM45.4606 51.1126L44.5254 50.7584L44.5253 50.7587L45.4606 51.1126ZM45.699 59.8122L46.5627 59.3082L46.5626 59.3081L45.699 59.8122ZM47.6857 72.9406V73.9406H48.6857V72.9406H47.6857ZM20.0868 72.9406L19.2587 73.5011L19.5561 73.9406H20.0868V72.9406ZM19.0386 71.3919L18.2105 71.9524L18.2105 71.9524L19.0386 71.3919ZM14.0642 67.3291L13.6772 68.2512L13.6773 68.2513L14.0642 67.3291ZM11.9437 60.9479L11.2352 61.6536H11.2352L11.9437 60.9479ZM0.700134 61.114L-0.00824228 60.4081L-0.00867424 60.4086L0.700134 61.114ZM0.815114 97.2594L1.4878 96.5195L1.48755 96.5192L0.815114 97.2594ZM14.0896 90.8827L14.4307 91.8227L14.431 91.8226L14.0896 90.8827ZM19.3974 86.3304L20.3509 86.6318L20.351 86.6315L19.3974 86.3304ZM47.5708 85.4703L48.5621 85.3392L48.4473 84.4703H47.5708V85.4703ZM47.8769 87.7861L48.8683 87.6552L48.8683 87.655L47.8769 87.7861ZM49.8873 91.8135L50.5959 91.1078H50.5959L49.8873 91.8135ZM53.761 93.5233L53.7603 92.5233H53.7601L53.761 93.5233ZM57.357 92.648L56.8349 91.7951L56.8349 91.7952L57.357 92.648ZM60.1643 64.9096L59.4535 64.2062L59.1643 64.4984V64.9096H60.1643ZM62.0583 62.9957L61.3477 62.2921L61.3475 62.2922L62.0583 62.9957ZM64.8 58.621L65.7455 58.9466V58.9466L64.8 58.621ZM74.8795 59.2954L74.532 60.233L74.532 60.233L74.8795 59.2954ZM86.0817 60.611L85.1409 60.272L85.1407 60.2724L86.0817 60.611ZM89.3332 59.0586L89.3296 58.0587H89.3295L89.3332 59.0586ZM100.174 52.1324L99.2862 51.6728L99.2862 51.6728L100.174 52.1324ZM101.337 46.7626L100.337 46.7607V46.7609L101.337 46.7626ZM100.797 42.6318L101.675 42.1524V42.1524L100.797 42.6318ZM106.939 38.2706L107.388 39.164L107.388 39.164L106.939 38.2706ZM113.915 33.7491L114.886 33.9918L114.886 33.9913L113.915 33.7491ZM113.59 32.0026L114.282 31.2802L114.281 31.2798L113.59 32.0026ZM25.8919 0.130036C25.7938 0.243761 25.7196 0.375506 25.6795 0.448506C25.6279 0.542371 25.5724 0.653112 25.5147 0.773855C25.3988 1.01654 25.2569 1.33599 25.0941 1.71723C24.7678 2.48176 24.3437 3.52812 23.8523 4.7775C22.8689 7.2781 21.6074 10.6146 20.3044 14.1849L22.1832 14.8706C23.4819 11.3119 24.7375 7.99133 25.7136 5.50948C26.2019 4.26764 26.6181 3.24143 26.9336 2.50238C27.0918 2.13183 27.2211 1.84174 27.3194 1.63593C27.3688 1.53242 27.4062 1.45918 27.4323 1.41166C27.4699 1.34328 27.4582 1.37626 27.4065 1.43617L25.8919 0.130036ZM20.3044 14.1848C18.1674 20.0396 16.9857 23.3384 16.4122 25.2792C16.1279 26.2413 15.9688 26.9464 15.9374 27.4965C15.9024 28.1093 16.0237 28.57 16.2949 28.9859L17.9702 27.8935C17.9609 27.8792 17.9203 27.8529 17.9341 27.6106C17.9516 27.3054 18.0521 26.7872 18.3302 25.846C18.8815 23.9804 20.036 20.7534 22.1832 14.8706L20.3044 14.1848ZM16.2952 28.9864C16.507 29.3106 16.8379 29.5747 17.1485 29.7849C17.4822 30.0106 17.8969 30.2423 18.3732 30.4776C19.3277 30.9492 20.603 31.4712 22.1369 32.0201L22.8107 30.137C21.3146 29.6016 20.1182 29.1089 19.2591 28.6845C18.8286 28.4719 18.501 28.2852 18.2693 28.1284C18.0146 27.9561 17.9571 27.8735 17.9699 27.893L16.2952 28.9864ZM22.1369 32.0201C23.4239 32.4805 24.6129 32.9364 25.4895 33.2984C25.9297 33.4802 26.2799 33.6338 26.5209 33.7497C26.6434 33.8085 26.7216 33.85 26.764 33.8749C26.7862 33.888 26.7824 33.8871 26.7644 33.8736C26.7551 33.8666 26.7317 33.8487 26.702 33.8203C26.6772 33.7965 26.6168 33.7362 26.5585 33.6414L28.2623 32.5941C28.1492 32.41 28.0004 32.3006 27.9634 32.2729C27.8986 32.2243 27.8324 32.1831 27.7775 32.1507C27.6655 32.0849 27.5305 32.0159 27.3874 31.9471C27.0973 31.8077 26.7077 31.6377 26.253 31.4499C25.3401 31.0728 24.1201 30.6055 22.8107 30.137L22.1369 32.0201ZM26.5585 33.6414C26.4648 33.4891 26.4431 33.355 26.4374 33.3168C26.4297 33.2651 26.4306 33.2323 26.4306 33.2304C26.4307 33.2265 26.4297 33.2561 26.4172 33.3324C26.3931 33.4799 26.3425 33.7036 26.2628 33.9961C26.1049 34.5752 25.8543 35.3455 25.5488 36.1605L27.4216 36.8625C27.7436 36.0034 28.0148 35.1733 28.1923 34.5222C28.2803 34.1997 28.3508 33.9009 28.3909 33.6555C28.4106 33.5354 28.4276 33.401 28.4302 33.2702C28.4315 33.2048 28.4298 33.1177 28.4155 33.0217C28.4032 32.9391 28.3708 32.7705 28.2623 32.5941L26.5585 33.6414ZM25.5488 36.1605C25.1478 37.2304 24.8697 38.1189 24.7302 38.84C24.5983 39.5219 24.5517 40.2335 24.8157 40.8269L26.643 40.0137C26.6481 40.0254 26.6263 39.9819 26.6243 39.8391C26.6224 39.6984 26.6402 39.4973 26.6938 39.2198C26.8018 38.6614 27.0347 37.8945 27.4216 36.8625L25.5488 36.1605ZM24.8155 40.8264C24.9418 41.1106 25.1532 41.3158 25.3114 41.4487C25.4859 41.5955 25.6963 41.7363 25.9266 41.8729C26.3882 42.1467 27.0235 42.4584 27.8341 42.8162C29.4609 43.5345 31.9035 44.4862 35.3284 45.7489L36.0202 43.8723C32.5992 42.6111 30.2071 41.6777 28.6418 40.9866C27.8563 40.6399 27.3062 40.3659 26.947 40.1528C26.7668 40.0459 26.6579 39.9679 26.5986 39.918C26.5228 39.8543 26.5858 39.885 26.6432 40.0142L24.8155 40.8264ZM35.3283 45.7489C40.5876 47.6882 45.1404 49.3671 45.4473 49.4808L46.1423 47.6054C45.8333 47.4909 41.2777 45.811 36.0203 43.8724L35.3283 45.7489ZM45.4475 49.4809C45.3114 49.4305 45.1573 49.3038 45.086 49.1203C45.0391 48.9993 45.0686 48.951 45.0513 49.0838C45.0168 49.3497 44.8698 49.8491 44.5254 50.7584L46.3957 51.4668C46.7323 50.5781 46.9657 49.8718 47.0346 49.3418C47.0691 49.0768 47.0812 48.7331 46.9505 48.3965C46.7955 47.9974 46.4915 47.7348 46.1421 47.6054L45.4475 49.4809ZM44.5253 50.7587C43.1967 54.2696 43.234 57.5731 44.8354 60.3164L46.5626 59.3081C45.3438 57.2203 45.2189 54.5766 46.3958 51.4665L44.5253 50.7587ZM44.8353 60.3162C45.1665 60.8839 45.5252 61.4117 45.8449 61.8096C46.0025 62.0056 46.1685 62.1927 46.3314 62.3406C46.4117 62.4135 46.5137 62.4976 46.6319 62.5692C46.725 62.6256 46.9535 62.7534 47.2588 62.7534V60.7534C47.5054 60.7534 47.6606 60.854 47.6679 60.8584C47.7003 60.878 47.7041 60.8856 47.6758 60.8599C47.6216 60.8106 47.5292 60.7126 47.404 60.5568C47.1582 60.251 46.8545 59.8083 46.5627 59.3082L44.8353 60.3162ZM47.2588 62.7534C46.8528 62.7534 46.6144 62.5131 46.5395 62.4241C46.4587 62.3281 46.4266 62.2467 46.4237 62.2395C46.4141 62.2162 46.4267 62.2421 46.4488 62.3567C46.4897 62.5698 46.5319 62.9181 46.5688 63.4013C46.6417 64.3568 46.6857 65.7276 46.6857 67.347H48.6857C48.6857 65.6998 48.6411 64.2738 48.563 63.2491C48.5243 62.7423 48.4754 62.3047 48.4128 61.9794C48.3831 61.8248 48.3409 61.6434 48.2739 61.4801C48.2422 61.4029 48.1808 61.2683 48.07 61.1366C47.965 61.0119 47.696 60.7534 47.2588 60.7534V62.7534ZM46.6857 67.347V72.9406H48.6857V67.347H46.6857ZM47.6857 71.9406H33.8863V73.9406H47.6857V71.9406ZM33.8863 71.9406H20.0868V73.9406H33.8863V71.9406ZM20.915 72.3801L19.8668 70.8314L18.2105 71.9524L19.2587 73.5011L20.915 72.3801ZM19.8668 70.8314C18.4856 68.7905 16.7431 67.3686 14.451 66.407L13.6773 68.2513C15.6155 69.0644 17.0496 70.237 18.2105 71.9524L19.8668 70.8314ZM14.4511 66.407C14.0412 66.235 13.8264 66.1394 13.6848 66.0519C13.6246 66.0147 13.6015 65.9928 13.5949 65.986C13.5914 65.9824 13.5901 65.9811 13.586 65.9728C13.57 65.9398 13.5287 65.8274 13.5046 65.4926C13.4808 65.1628 13.4785 64.722 13.4785 64.0745H11.4785C11.4785 64.6993 11.4797 65.2197 11.5098 65.6365C11.5395 66.0484 11.6025 66.468 11.7881 66.8489C11.9922 67.2677 12.2956 67.5445 12.6335 67.7533C12.9352 67.9397 13.3082 68.0964 13.6772 68.2512L14.4511 66.407ZM13.4785 64.0745C13.4785 63.3117 13.4145 62.5471 13.3071 61.9193C13.2536 61.6067 13.186 61.3076 13.1019 61.0503C13.0327 60.8382 12.9045 60.4956 12.6523 60.2423L11.2352 61.6536C11.13 61.548 11.1422 61.4919 11.2008 61.6713C11.2446 61.8053 11.2923 62.0023 11.3357 62.2565C11.4222 62.762 11.4785 63.413 11.4785 64.0745H13.4785ZM12.6523 60.2423C12.4546 60.0438 12.217 59.9322 12.0531 59.8673C11.8708 59.7951 11.6699 59.7391 11.4688 59.6939C11.0655 59.6031 10.5728 59.536 10.0398 59.4867C8.9686 59.3875 7.63594 59.3514 6.31703 59.3709C4.998 59.3904 3.66403 59.4658 2.59011 59.5966C2.05564 59.6616 1.56214 59.7431 1.15811 59.8454C0.956525 59.8963 0.75662 59.9576 0.575924 60.0336C0.411869 60.1026 0.182845 60.2164 -0.00824215 60.4081L1.40851 61.8198C1.32867 61.8999 1.27808 61.9079 1.35124 61.8772C1.40775 61.8534 1.50383 61.8209 1.6486 61.7843C1.93727 61.7113 2.33793 61.642 2.83179 61.5819C3.81453 61.4623 5.07388 61.3895 6.34655 61.3707C7.61932 61.3519 8.8767 61.3876 9.85554 61.4782C10.3476 61.5237 10.745 61.581 11.0295 61.645C11.1723 61.6772 11.2647 61.7062 11.3167 61.7268C11.3872 61.7547 11.3248 61.7436 11.2352 61.6536L12.6523 60.2423ZM-0.00867424 60.4086C-0.384172 60.7859 -0.548565 61.297 -0.652439 61.8868C-0.75936 62.494 -0.829352 63.3665 -0.878809 64.6417C-0.978225 67.2051 -1 71.5873 -1 79.1679H1C1 71.5719 1.02212 67.2348 1.11969 64.7192C1.16872 63.4549 1.23549 62.698 1.31725 62.2337C1.40206 61.7521 1.47827 61.7497 1.40894 61.8194L-0.00867424 60.4086ZM-1 79.1679C-1 87.2757 -0.987237 91.6545 -0.877544 94.0892C-0.823196 95.2954 -0.742965 96.0983 -0.605621 96.6611C-0.451327 97.2935 -0.211048 97.6782 0.14268 97.9996L1.48755 96.5192C1.45979 96.494 1.40744 96.4742 1.33737 96.187C1.25035 95.8304 1.17449 95.199 1.12043 93.9991C1.01331 91.6216 1 87.3013 1 79.1679H-1ZM0.142426 97.9993C0.683359 98.4911 1.35886 98.7191 2.2819 98.8426C3.18903 98.9638 4.47429 99 6.35379 99V97C4.46299 97 3.30403 96.9614 2.54695 96.8602C1.80578 96.7611 1.59709 96.6188 1.4878 96.5195L0.142426 97.9993ZM6.35379 99C7.78376 99 8.93141 98.9853 9.83002 98.8987C10.7104 98.8138 11.4978 98.6499 12.1141 98.2505C12.7952 97.8091 13.1374 97.1709 13.304 96.4449C13.4584 95.7716 13.4785 94.9481 13.4785 94.0303H11.4785C11.4785 94.9741 11.451 95.5776 11.3546 95.9976C11.2703 96.365 11.1584 96.4866 11.0263 96.5722C10.8294 96.6998 10.4446 96.8302 9.63815 96.9079C8.84985 96.9839 7.79589 97 6.35379 97V99ZM13.4785 94.0303C13.4785 93.3828 13.4801 92.9457 13.5033 92.6205C13.5271 92.2883 13.5681 92.1927 13.5759 92.1775C13.5764 92.1764 13.5752 92.179 13.572 92.1832C13.5688 92.1875 13.5664 92.1898 13.5665 92.1898C13.5671 92.1892 13.5858 92.1715 13.6459 92.1385C13.7895 92.0597 14.0075 91.9763 14.4307 91.8227L13.7484 89.9427C13.374 90.0786 12.9916 90.2162 12.6836 90.3852C12.3365 90.5758 12.0129 90.8415 11.7956 91.2662C11.6 91.6483 11.5374 92.0724 11.5084 92.4778C11.4789 92.8902 11.4785 93.4088 11.4785 94.0303H13.4785ZM14.431 91.8226C15.5261 91.4248 16.8611 90.5121 17.9418 89.5853C18.4931 89.1125 19.0086 88.6102 19.4206 88.1292C19.8103 87.6744 20.1878 87.1478 20.3509 86.6318L18.4439 86.029C18.4078 86.1433 18.2544 86.4165 17.9019 86.8279C17.5717 87.2133 17.1335 87.6438 16.6398 88.0671C15.6307 88.9326 14.511 89.6657 13.7482 89.9428L14.431 91.8226ZM20.351 86.6315C20.3693 86.5736 20.3588 86.6307 20.3001 86.7005C20.2354 86.7774 20.1798 86.7929 20.2176 86.7779C20.3515 86.7248 20.7173 86.646 21.6524 86.5894C23.4655 86.4798 26.9149 86.4703 33.6202 86.4703V84.4703C26.9539 84.4703 23.4221 84.4788 21.5317 84.5931C20.6151 84.6485 19.9486 84.7332 19.4807 84.9186C19.2176 85.0229 18.9686 85.1764 18.7696 85.413C18.5765 85.6426 18.4906 85.8811 18.4438 86.0293L20.351 86.6315ZM33.6202 86.4703H47.5708V84.4703H33.6202V86.4703ZM46.5794 85.6014L46.8856 87.9171L48.8683 87.655L48.5621 85.3392L46.5794 85.6014ZM46.8855 87.917C47.0149 88.8966 47.1913 89.6847 47.5633 90.4298C47.9338 91.1721 48.463 91.8004 49.1788 92.5191L50.5959 91.1078C49.9332 90.4424 49.5809 89.9936 49.3527 89.5365C49.1259 89.0823 48.9863 88.5488 48.8683 87.6552L46.8855 87.917ZM49.1788 92.5191C49.9249 93.2683 50.5329 93.8286 51.266 94.1523C52.0165 94.4836 52.798 94.5242 53.7619 94.5233L53.7601 92.5233C52.8032 92.5242 52.4026 92.4678 52.0738 92.3226C51.7276 92.1698 51.3592 91.8742 50.5959 91.1078L49.1788 92.5191ZM53.7617 94.5233C55.2574 94.5223 56.7847 94.171 57.8792 93.5009L56.8349 91.7952C56.1343 92.2241 54.9947 92.5225 53.7603 92.5233L53.7617 94.5233ZM57.8791 93.5009C58.5549 93.0872 59.2098 92.6591 59.7216 92.0037C60.2465 91.3313 60.5573 90.5079 60.7562 89.3996C61.1409 87.2552 61.1643 83.6386 61.1643 77.002H59.1643C59.1643 83.7441 59.1323 87.125 58.7876 89.0464C58.6218 89.9709 58.3993 90.4473 58.1451 90.7729C57.8777 91.1154 57.5075 91.3834 56.8349 91.7951L57.8791 93.5009ZM61.1643 77.002V64.9096H59.1643V77.002H61.1643ZM60.875 65.613L62.7691 63.6991L61.3475 62.2922L59.4535 64.2062L60.875 65.613ZM62.7689 63.6992C64.0769 62.3781 65.1552 60.6606 65.7455 58.9466L63.8545 58.2954C63.3654 59.7156 62.4516 61.1771 61.3477 62.2921L62.7689 63.6992ZM65.7455 58.9466C65.9774 58.2732 66.1968 57.6501 66.3631 57.1893C66.4465 56.9583 66.5153 56.7718 66.565 56.6414C66.5901 56.5754 66.6082 56.5298 66.6196 56.5021C66.6256 56.4876 66.6268 56.4853 66.6243 56.4906C66.6232 56.4931 66.618 56.5042 66.6097 56.5201C66.606 56.5272 66.5812 56.5755 66.5394 56.6333L64.9191 55.4608C64.8504 55.5557 64.8086 55.652 64.8086 55.652C64.7949 55.6819 64.782 55.7121 64.7714 55.7379C64.7495 55.7908 64.7239 55.8563 64.6962 55.9288C64.6403 56.0754 64.567 56.2747 64.482 56.5102C64.3115 56.9824 64.0888 57.6152 63.8545 58.2954L65.7455 58.9466ZM66.5394 56.6333C66.3748 56.8606 66.165 56.953 66.0652 56.9884C65.9569 57.0268 65.8661 57.0376 65.8206 57.0415C65.7285 57.0495 65.658 57.042 65.6381 57.0399C65.6089 57.0367 65.5877 57.0329 65.579 57.0313C65.5689 57.0294 65.5627 57.028 65.5617 57.0278C65.5601 57.0274 65.5662 57.0288 65.5827 57.0333C65.5983 57.0376 65.6192 57.0436 65.6459 57.0515C65.756 57.0842 65.9272 57.1391 66.1596 57.2168C66.6211 57.3711 67.2891 57.6033 68.1164 57.897C69.7694 58.4839 72.0412 59.3098 74.532 60.233L75.2271 58.3577C72.7304 57.4323 70.4496 56.603 68.7855 56.0123C67.9544 55.7172 67.2727 55.4801 66.7936 55.32C66.5557 55.2405 66.3588 55.1769 66.2156 55.1344C66.147 55.114 66.0734 55.0932 66.0076 55.0781C65.9795 55.0717 65.9209 55.0588 65.8524 55.0514C65.8233 55.0483 65.7454 55.0405 65.648 55.049C65.5998 55.0532 65.5069 55.0643 65.3968 55.1034C65.2954 55.1393 65.0843 55.2325 64.9191 55.4608L66.5394 56.6333ZM74.532 60.233C77.0375 61.1616 79.4093 61.9793 81.2151 62.5489C82.1162 62.8332 82.8879 63.0593 83.4695 63.2067C83.7582 63.2799 84.0173 63.3381 84.2298 63.3734C84.335 63.3908 84.4473 63.4058 84.5558 63.4117C84.6329 63.4158 84.8301 63.4249 85.0406 63.3578L84.4336 61.4521C84.5899 61.4024 84.7016 61.4166 84.6635 61.4146C84.657 61.4142 84.6246 61.4115 84.5572 61.4004C84.4246 61.3783 84.2269 61.3355 83.9609 61.268C83.4328 61.1342 82.7024 60.9209 81.8168 60.6416C80.0493 60.084 77.7094 59.2777 75.2271 58.3577L74.532 60.233ZM85.0406 63.3578C85.3347 63.2641 85.575 63.0894 85.7499 62.9347C85.9351 62.7709 86.106 62.5767 86.2579 62.3741C86.5606 61.9702 86.836 61.4683 87.0226 60.9495L85.1407 60.2724C85.0221 60.6021 84.8422 60.9281 84.6575 61.1745C84.5657 61.297 84.4848 61.3836 84.4249 61.4366C84.3547 61.4986 84.3566 61.4767 84.4336 61.4521L85.0406 63.3578ZM87.0225 60.95C87.1691 60.5431 87.2453 60.3457 87.3171 60.2189C87.3456 60.1684 87.3591 60.1565 87.3555 60.1601C87.3487 60.1669 87.341 60.1709 87.3448 60.1691C87.3745 60.1549 87.4909 60.1132 87.8472 60.0885C88.194 60.0644 88.6589 60.0611 89.3369 60.0586L89.3295 58.0587C88.6748 58.0611 88.1356 58.0637 87.7087 58.0933C87.2913 58.1223 86.8644 58.1822 86.4831 58.3642C86.0524 58.5698 85.7753 58.8824 85.5764 59.234C85.4034 59.5397 85.269 59.9164 85.1409 60.272L87.0225 60.95ZM89.3368 60.0586C94.4463 60.0402 98.5947 57.3609 101.063 52.592L99.2862 51.6728C97.1316 55.8367 93.6326 58.0431 89.3296 58.0587L89.3368 60.0586ZM101.063 52.592C101.548 51.6547 101.877 50.8496 102.077 49.9263C102.274 49.0151 102.335 48.0351 102.337 46.7642L100.337 46.7609C100.335 47.9834 100.275 48.7979 100.122 49.503C99.9725 50.196 99.7228 50.8292 99.2862 51.6728L101.063 52.592ZM102.337 46.7644C102.339 45.8597 102.276 44.9204 102.172 44.1273C102.12 43.731 102.057 43.3591 101.982 43.0394C101.913 42.7412 101.817 42.4131 101.675 42.1524L99.9194 43.1112C99.9176 43.1079 99.9323 43.1356 99.9571 43.2107C99.9806 43.2814 100.007 43.3754 100.034 43.4938C100.09 43.7309 100.143 44.0343 100.189 44.3867C100.281 45.0911 100.339 45.9426 100.337 46.7607L102.337 46.7644ZM101.675 42.1524C101.522 41.8734 101.651 42.0077 101.6 42.2264C101.556 42.4175 101.446 42.3937 101.827 42.1228C102.542 41.6156 104.113 40.811 107.388 39.164L106.489 37.3772C103.306 38.978 101.543 39.8718 100.669 40.4922C100.257 40.785 99.7895 41.1824 99.6521 41.7741C99.5082 42.3935 99.8084 42.908 99.9194 43.1112L101.675 42.1524ZM107.388 39.164C110.145 37.7776 111.88 36.8624 112.956 36.1647C114.015 35.4789 114.667 34.8643 114.886 33.9918L112.945 33.5065C112.924 33.5925 112.855 33.8469 111.869 34.4864C110.901 35.1139 109.267 35.9802 106.489 37.3772L107.388 39.164ZM114.886 33.9913C115.117 33.0648 115.03 31.9968 114.282 31.2802L112.899 32.725C112.931 32.7556 113.081 32.9621 112.945 33.507L114.886 33.9913ZM114.281 31.2798C114.174 31.1773 114.06 31.1165 114.05 31.111C114.01 31.0886 113.97 31.0684 113.936 31.0522C113.868 31.0189 113.783 30.9809 113.69 30.9403C113.5 30.858 113.237 30.7489 112.909 30.6163C112.251 30.3504 111.31 29.9801 110.128 29.5214C107.762 28.6035 104.419 27.3263 100.424 25.8117C92.4336 22.7823 81.8302 18.8002 71.2164 14.8374C60.6027 10.8746 49.977 6.93041 41.9423 3.97668C37.9253 2.49994 34.554 1.27008 32.155 0.409065C30.9562 -0.0212218 29.9966 -0.360671 29.3194 -0.593084C28.9818 -0.708974 28.7084 -0.800315 28.5084 -0.863481C28.4095 -0.894731 28.3198 -0.921839 28.2456 -0.942075C28.2091 -0.952013 28.1666 -0.962971 28.1234 -0.972196C28.1047 -0.976194 28 -1 27.8761 -1V1C27.8086 1 27.7583 0.992628 27.7438 0.990464C27.7232 0.987389 27.7093 0.984458 27.7054 0.983635C27.6979 0.982016 27.7009 0.982437 27.7199 0.987593C27.7564 0.997543 27.8169 1.01548 27.9061 1.04365C28.0824 1.09934 28.3374 1.18437 28.6702 1.29859C29.3338 1.52639 30.283 1.86208 31.4794 2.29149C33.871 3.14988 37.2366 4.37764 41.2522 5.85385C49.2827 8.80601 59.9049 12.7489 70.5169 16.7111C81.1288 20.6732 91.7288 24.654 99.7148 27.6818C103.708 29.1959 107.046 30.4709 109.404 31.3859C110.584 31.8437 111.515 32.21 112.159 32.4705C112.482 32.6011 112.727 32.7027 112.893 32.7748C112.977 32.8113 113.032 32.8364 113.064 32.8516C113.08 32.8597 113.08 32.8601 113.07 32.8546C113.065 32.8519 113.05 32.8431 113.029 32.8292C113.015 32.8202 112.961 32.7845 112.899 32.7254L114.281 31.2798ZM27.8761 -1C27.4245 -1 27.0059 -0.776339 26.7496 -0.61277C26.4485 -0.420534 26.143 -0.161465 25.8915 0.130485L27.4069 1.43573C27.5262 1.29719 27.6822 1.16471 27.8258 1.07301C27.8965 1.02786 27.9487 1.0026 27.977 0.99137C28.0165 0.975721 27.9755 1 27.8761 1V-1Z" fill="#D4AF37" mask="url(#path-1-inside-1_521_10034)"/>
</svg>
