<svg width="691" height="691" viewBox="0 0 691 691" fill="none" xmlns="http://www.w3.org/2000/svg">
<path d="M499.705 500.131H500.205V499.631V405.011V381.169V310.331H690.5V381.169V690.5H242.23C178.143 690.421 116.704 664.928 71.3883 619.612C26.0723 574.296 0.579032 512.857 0.5 448.77V0.5H619.998H690.5V237.992H620.498V71.0021V70.5021H619.998H71.0021H70.5021V71.0021V448.771C70.4972 471.324 74.9357 493.656 83.5641 514.494C92.1924 535.331 104.842 554.264 120.789 570.211C136.736 586.159 155.669 598.808 176.506 607.436C197.344 616.064 219.676 620.503 242.229 620.498H619.886H620.386V619.998V381.169V380.669H619.886H560.506H560.006V381.169V560.043H283.972C243.379 559.994 204.463 543.844 175.762 515.136C147.062 486.429 130.922 447.509 130.882 406.916V130.882H560.118V237.88H500.205V191.369V190.869H499.705H191.369H190.869V191.369V406.992C190.889 431.681 200.703 455.354 218.158 472.816C235.612 490.277 259.281 500.101 283.97 500.131H283.971H499.705Z" stroke="#D4AF37" stroke-opacity="0.3"/>
</svg>
