<svg xmlns="http://www.w3.org/2000/svg" viewBox="0 0 469.69 97.73"><defs><style>.cls-1,.cls-2{fill:#fff;}.cls-2{fill-rule:evenodd;}</style></defs><title>logo GGP_horizontally_white</title><g id="Слой_2" data-name="Слой 2"><g id="Слой_1-2" data-name="Слой 1"><path class="cls-1" d="M140.92,30.12H147v4.8a18.47,18.47,0,0,1-4.49.61c-2.81,0-5-.75-6.41-2.26s-2.18-3.75-2.18-6.71.72-5.23,2.16-6.8,3.62-2.35,6.55-2.35A15.72,15.72,0,0,1,147,18a15.18,15.18,0,0,1,4.11,1.89l2.4-6.18a13.85,13.85,0,0,0-4.75-2.29,21.67,21.67,0,0,0-6.14-.85,19.71,19.71,0,0,0-9.15,2,13.73,13.73,0,0,0-5.82,5.55,18.77,18.77,0,0,0-.11,16.72,13.39,13.39,0,0,0,5.6,5.48,18.76,18.76,0,0,0,8.95,2,30.85,30.85,0,0,0,6.06-.55,24.16,24.16,0,0,0,5.44-1.75V24.52H140.92Z"/><path class="cls-1" d="M166.32,31.09a4.42,4.42,0,0,1,.21-1.69,4.23,4.23,0,0,1,.84-1.47,5.23,5.23,0,0,1,3.35-1.28l4.23-.39-.44-6.54-2.13.17c-3.28.23-5.41,1.59-6.4,4.05V20.32h-7.54V41.77h7.88Z"/><path class="cls-1" d="M188.63,42.24a16.72,16.72,0,0,0,4.76-.7,13.11,13.11,0,0,0,4.05-1.87l-1.91-5.1a10.57,10.57,0,0,1-3.2,1.47,13.58,13.58,0,0,1-3.47.49,6.55,6.55,0,0,1-3.74-.91,4.45,4.45,0,0,1-1.19-1.33,4.34,4.34,0,0,1-.56-1.68h14.41v-1.7a12.7,12.7,0,0,0-1.29-5.86,9.06,9.06,0,0,0-3.66-3.85,11.18,11.18,0,0,0-5.6-1.35,11.93,11.93,0,0,0-5.82,1.41,10.33,10.33,0,0,0-4,3.95A12.35,12.35,0,0,0,177.47,37a10.09,10.09,0,0,0,4.38,3.9A15.51,15.51,0,0,0,188.63,42.24Zm-3.9-16.34a4.05,4.05,0,0,1,2.85-1h0a3.87,3.87,0,0,1,1.47.23,3.76,3.76,0,0,1,1.25.8,4.72,4.72,0,0,1,1.1,3.07h-8.1A5,5,0,0,1,184.73,25.9Z"/><path class="cls-1" d="M212.82,42.24a16.72,16.72,0,0,0,4.76-.7,13.21,13.21,0,0,0,4-1.87l-1.91-5.1A10.51,10.51,0,0,1,216.51,36a13.44,13.44,0,0,1-3.46.49,6.58,6.58,0,0,1-3.75-.91,4.42,4.42,0,0,1-1.18-1.33,4.34,4.34,0,0,1-.56-1.68H222v-1.7a12.82,12.82,0,0,0-1.29-5.86A9.12,9.12,0,0,0,217,21.2a11.18,11.18,0,0,0-5.6-1.35,11.9,11.9,0,0,0-5.82,1.41,10.33,10.33,0,0,0-4,3.95A12.35,12.35,0,0,0,201.66,37a10,10,0,0,0,4.38,3.9A15.51,15.51,0,0,0,212.82,42.24Zm-3.9-16.34a4,4,0,0,1,2.85-1,3.66,3.66,0,0,1,2.73,1A4.83,4.83,0,0,1,215.6,29h-8.1A5,5,0,0,1,208.92,25.9Z"/><path class="cls-1" d="M233.08,29.89a4.18,4.18,0,0,1,1-3,3.85,3.85,0,0,1,1.28-.86,3.69,3.69,0,0,1,1.51-.25A2.4,2.4,0,0,1,238,26a2.23,2.23,0,0,1,.89.63,4.43,4.43,0,0,1,.68,2.79V41.77h7.75V29.09c0-3.14-.61-5.47-1.85-7s-3.13-2.27-5.69-2.27a9.07,9.07,0,0,0-4,.87,7.36,7.36,0,0,0-2.92,2.53V20.32h-7.54V41.77l7.76,0Z"/><path class="cls-1" d="M291.88,24.52H279.22v5.6h6.14v4.8a18.47,18.47,0,0,1-4.49.61q-4.26,0-6.44-2.26c-1.46-1.52-2.18-3.75-2.18-6.71s.71-5.2,2.15-6.8S278,17.41,281,17.41a15.7,15.7,0,0,1,4.36.59,15,15,0,0,1,4.05,1.89l2.44-6.18a13.9,13.9,0,0,0-4.76-2.29,21.55,21.55,0,0,0-6.13-.85,19.68,19.68,0,0,0-9.15,2A13.73,13.73,0,0,0,266,18.08a18.68,18.68,0,0,0-.11,16.72,13.33,13.33,0,0,0,5.6,5.48,18.78,18.78,0,0,0,9,2,30.55,30.55,0,0,0,6-.55,24.24,24.24,0,0,0,5.45-1.75Z"/><path class="cls-1" d="M304.62,31.09a4.3,4.3,0,0,1,1.05-3.16A5.21,5.21,0,0,1,309,26.65l4.23-.39-.45-6.54-2.12.17q-4.94.36-6.41,4.05V20.32h-7.54V41.77h7.89Z"/><path class="cls-1" d="M336.47,37a12.9,12.9,0,0,0,0-12,9.75,9.75,0,0,0-4.11-3.86,15.15,15.15,0,0,0-12.46,0,9.94,9.94,0,0,0-4.14,3.86,12.82,12.82,0,0,0,0,12,9.93,9.93,0,0,0,4.14,3.88,15.36,15.36,0,0,0,12.46,0A9.74,9.74,0,0,0,336.47,37ZM329,35.23a3.72,3.72,0,0,1-1.28,1,3.51,3.51,0,0,1-1.59.32,3.6,3.6,0,0,1-1.61-.32,3.53,3.53,0,0,1-1.31-1A6.3,6.3,0,0,1,322,31a6.33,6.33,0,0,1,1.14-4.2,3.67,3.67,0,0,1,1.31-1,3.81,3.81,0,0,1,4.48,1A6.35,6.35,0,0,1,330.1,31,6.31,6.31,0,0,1,329,35.23Z"/><polygon class="cls-1" points="364.89 32.96 360.13 20.32 355.33 20.32 350.62 32.75 345.88 20.32 338.03 20.32 347.05 41.77 353.43 41.77 357.44 31.22 361.66 41.77 368.06 41.77 377 20.32 369.63 20.32 364.89 32.96"/><path class="cls-1" d="M140.4,58.85H125.64V89.57h8V79h6.76c3.49,0,6.18-.9,8.09-2.68a9.66,9.66,0,0,0,2.85-7.39,9.65,9.65,0,0,0-2.85-7.38Q145.64,58.85,140.4,58.85Zm-1.41,14h-5.35V65H139c3.11,0,4.71,1.31,4.71,3.92S142.13,72.83,139,72.83Z"/><path class="cls-1" d="M169,67.65a7.81,7.81,0,0,0-6.71,3.13V58.85h-7.76V89.57l7.76,0V77.69a4.14,4.14,0,0,1,1.05-3,3.81,3.81,0,0,1,1.27-.86,3.72,3.72,0,0,1,1.51-.25,2.38,2.38,0,0,1,1.09.17,2.45,2.45,0,0,1,.9.63,4.49,4.49,0,0,1,.67,2.79V89.57h7.76V76.89c0-3.14-.62-5.47-1.85-7S171.59,67.65,169,67.65Z"/><path class="cls-1" d="M190.8,67.65a20.78,20.78,0,0,0-3.53.32,21.64,21.64,0,0,0-3.62.94,11.23,11.23,0,0,0-2.79,1.4l2,5.08a16.74,16.74,0,0,1,3.92-1.6,14.57,14.57,0,0,1,3.66-.52,4.5,4.5,0,0,1,2.77.65,2.75,2.75,0,0,1,.8,2.22v.61h-1.66a35.48,35.48,0,0,0-7.2.59,7.07,7.07,0,0,0-3.92,2A5.3,5.3,0,0,0,180,83a6.4,6.4,0,0,0,1.07,3.63,7.24,7.24,0,0,0,3,2.51,9.88,9.88,0,0,0,4.35.91,6.6,6.6,0,0,0,3.65-.94,4.83,4.83,0,0,0,2.07-2.59v3.06h7.2V77.23c0-3.31-.87-5.74-2.59-7.27S194.37,67.65,190.8,67.65ZM194,81.17a3.63,3.63,0,0,1-1.11,2.75,3.84,3.84,0,0,1-2.7,1.07,3,3,0,0,1-2.08-.7,2,2,0,0,1-.54-.75,2,2,0,0,1-.18-.9,1.83,1.83,0,0,1,1.2-1.73,9.86,9.86,0,0,1,3.77-.54H194Z"/><path class="cls-1" d="M219.66,67.69q-4.93.36-6.4,4V68.12h-7.54V89.57l7.88,0V78.93a4.49,4.49,0,0,1,.2-1.71,4.34,4.34,0,0,1,.85-1.49A5.23,5.23,0,0,1,218,74.45l4.23-.39-.44-6.54Z"/><path class="cls-1" d="M252.06,67.65a8.44,8.44,0,0,0-4.14,1,7.6,7.6,0,0,0-3,2.9,5.84,5.84,0,0,0-2.4-3,7,7,0,0,0-3.77-1,8.06,8.06,0,0,0-3.85.91A7.41,7.41,0,0,0,232.25,71V68.12h-7.54V89.57h7.77V77.93a5.33,5.33,0,0,1,.85-3.2,2.86,2.86,0,0,1,2.4-1.13,2,2,0,0,1,1,.16,2.12,2.12,0,0,1,.84.64,4.9,4.9,0,0,1,.56,2.71V89.57h7.74V77.93a5.33,5.33,0,0,1,.85-3.2,2.9,2.9,0,0,1,2.47-1.13,2.11,2.11,0,0,1,1.87.8,5,5,0,0,1,.57,2.71V89.57h7.76V76.89c0-3.17-.61-5.5-1.81-7A6.74,6.74,0,0,0,252.06,67.65Z"/><path class="cls-1" d="M273.73,67.65a20.78,20.78,0,0,0-3.53.32,21.81,21.81,0,0,0-3.57.94,11.12,11.12,0,0,0-2.8,1.4l2,5.08a16.74,16.74,0,0,1,3.92-1.6,14.57,14.57,0,0,1,3.66-.52,4.5,4.5,0,0,1,2.77.65,2.62,2.62,0,0,1,.65,1,2.74,2.74,0,0,1,.15,1.2v.61h-1.66a35.48,35.48,0,0,0-7.2.59,7.07,7.07,0,0,0-3.92,2A5.3,5.3,0,0,0,263,83,6.4,6.4,0,0,0,264,86.62a7.24,7.24,0,0,0,3,2.51,10,10,0,0,0,4.38.91A6.68,6.68,0,0,0,275,89.1a4.88,4.88,0,0,0,2.05-2.59v3.06h7.2V77.23c0-3.31-.87-5.74-2.59-7.27S277.3,67.65,273.73,67.65ZM277,81.2a3.64,3.64,0,0,1-.26,1.49,3.56,3.56,0,0,1-.85,1.25,3.86,3.86,0,0,1-2.72,1,3,3,0,0,1-2.06-.67,2.21,2.21,0,0,1-.54-.75,2.06,2.06,0,0,1-.18-.91,1.83,1.83,0,0,1,1.2-1.72,9.87,9.87,0,0,1,3.77-.55H277Z"/><path class="cls-1" d="M298.5,73.76a4.59,4.59,0,0,1,1.94-.3,7.62,7.62,0,0,1,2.5.45,7.92,7.92,0,0,1,2.33,1.24l2.05-5.31a9.93,9.93,0,0,0-3.46-1.6,15.74,15.74,0,0,0-4.25-.59,14,14,0,0,0-6.3,1.33,9.7,9.7,0,0,0-4.16,3.84,12.88,12.88,0,0,0,0,12,9.88,9.88,0,0,0,4.16,3.89,14,14,0,0,0,6.3,1.34,15.85,15.85,0,0,0,4.22-.63,10.17,10.17,0,0,0,3.49-1.6l-2.05-5.32a7.92,7.92,0,0,1-2.33,1.24,7.63,7.63,0,0,1-2.5.46,4.65,4.65,0,0,1-1.95-.31,4.55,4.55,0,0,1-1.63-1.11,5.73,5.73,0,0,1-1.26-4,5.63,5.63,0,0,1,1.26-3.92A4.54,4.54,0,0,1,298.5,73.76Z"/><path class="cls-1" d="M325.2,69a11.18,11.18,0,0,0-5.6-1.35,11.93,11.93,0,0,0-5.82,1.41,10.33,10.33,0,0,0-4,4,12.35,12.35,0,0,0,.06,11.76,10.17,10.17,0,0,0,4.39,3.9A15.5,15.5,0,0,0,321,90a16.67,16.67,0,0,0,4.76-.7,13.27,13.27,0,0,0,4.06-1.87l-1.92-5.1a10.57,10.57,0,0,1-3.2,1.47,13.58,13.58,0,0,1-3.47.49,6.55,6.55,0,0,1-3.74-.91,4.42,4.42,0,0,1-1.18-1.33,4.53,4.53,0,0,1-.57-1.68h14.41v-1.7a12.69,12.69,0,0,0-1.28-5.86A9.09,9.09,0,0,0,325.2,69Zm-9.51,7.75a5.09,5.09,0,0,1,1.41-3,4.05,4.05,0,0,1,2.85-1,3.74,3.74,0,0,1,1.48.23,3.66,3.66,0,0,1,1.25.8,4.78,4.78,0,0,1,1.11,3.07Z"/><path class="cls-1" d="M347.41,80a4.4,4.4,0,0,1-1,3,3.32,3.32,0,0,1-2.57,1.13c-1.8,0-2.7-1.05-2.7-3.14V68.12h-7.76V80.76c0,3.14.65,5.48,2,7S338.73,90,341.52,90a6.87,6.87,0,0,0,3.45-.76,6.77,6.77,0,0,0,2.6-2.38v2.67h7.59V68.12h-7.75Z"/><path class="cls-1" d="M373.48,83.74a6.31,6.31,0,0,1-1.15.11c-2.13,0-3.2-1-3.2-3.14V73.83h6.1V68.12h-6.1V61.9h-7.75v6.22h-4v5.71h4v7.11c0,3,.81,5.32,2.35,6.83s3.95,2.27,7.2,2.27a12.62,12.62,0,0,0,2.67-.22A9.32,9.32,0,0,0,376,89l-1.05-5.6A13.86,13.86,0,0,1,373.48,83.74Z"/><rect class="cls-1" x="378.03" y="57.41" width="8.15" height="7.02"/><rect class="cls-1" x="378.25" y="68.12" width="7.75" height="21.44"/><path class="cls-1" d="M400.32,73.78a4.57,4.57,0,0,1,1.94-.3,7.73,7.73,0,0,1,2.51.46,8,8,0,0,1,2.32,1.24l2.05-5.32a10.11,10.11,0,0,0-3.46-1.6,15.73,15.73,0,0,0-4.25-.58A13.78,13.78,0,0,0,395.14,69,9.71,9.71,0,0,0,391,72.84a11.58,11.58,0,0,0-1.48,6,11.8,11.8,0,0,0,1.48,6,9.94,9.94,0,0,0,4.17,3.88A13.77,13.77,0,0,0,401.43,90a15.43,15.43,0,0,0,4.22-.61,10,10,0,0,0,3.49-1.6l-2.05-5.31a8.5,8.5,0,0,1-2.32,1.24,7.72,7.72,0,0,1-2.51.45,4.47,4.47,0,0,1-1.95-.31,4.61,4.61,0,0,1-1.63-1.1,5.86,5.86,0,0,1-1.26-4,5.64,5.64,0,0,1,1.26-3.92A4.67,4.67,0,0,1,400.32,73.78Z"/><path class="cls-1" d="M421.34,67.65a21,21,0,0,0-3.53.32,22.08,22.08,0,0,0-3.57.94,10.9,10.9,0,0,0-2.79,1.4l2,5.08a17,17,0,0,1,3.93-1.6,14.56,14.56,0,0,1,3.65-.52,4.5,4.5,0,0,1,2.77.65,2.76,2.76,0,0,1,.66,1,2.6,2.6,0,0,1,.14,1.2v.61h-1.65a35.57,35.57,0,0,0-7.21.59,7.1,7.1,0,0,0-3.92,2A5.29,5.29,0,0,0,410.58,83a6.33,6.33,0,0,0,1.07,3.63,7.21,7.21,0,0,0,3,2.51A10,10,0,0,0,419,90a6.65,6.65,0,0,0,3.64-.94,4.88,4.88,0,0,0,2.05-2.59v3.06h7.2V77.23c0-3.31-.86-5.74-2.59-7.27S424.91,67.65,421.34,67.65Zm3.23,13.55a3.49,3.49,0,0,1-.27,1.49,3.56,3.56,0,0,1-.85,1.25,3.86,3.86,0,0,1-2.72,1,2.94,2.94,0,0,1-2.07-.67,2.39,2.39,0,0,1-.55-.75,2.2,2.2,0,0,1-.17-.91,1.78,1.78,0,0,1,.32-1,1.88,1.88,0,0,1,.88-.67,9.87,9.87,0,0,1,3.77-.55h1.66Z"/><path class="cls-1" d="M446.83,83.81c-1.86,0-2.79-1-2.79-3V58.85h-7.76V81c0,3,.67,5.27,2,6.77S441.78,90,444.74,90a14.69,14.69,0,0,0,3.79-.47l.08-5.93-.89.13A6.7,6.7,0,0,1,446.83,83.81Z"/><path class="cls-1" d="M469.35,80.46a5.31,5.31,0,0,0-1.17-1.82,7.72,7.72,0,0,0-4.29-1.89l-4.8-.8c-1.07-.17-1.6-.63-1.6-1.43a1.43,1.43,0,0,1,.21-.7,1.49,1.49,0,0,1,.53-.5,4.6,4.6,0,0,1,2.52-.5,11.05,11.05,0,0,1,3.37.59,12,12,0,0,1,3.12,1.45l1.93-4.92a11.55,11.55,0,0,0-4-1.77,20.09,20.09,0,0,0-4.57-.53,14.35,14.35,0,0,0-5.19.88,8.15,8.15,0,0,0-3.53,2.53A6.25,6.25,0,0,0,450.6,75a5.51,5.51,0,0,0,.35,2.13,5.28,5.28,0,0,0,1.14,1.83,7.2,7.2,0,0,0,4.18,2l4.8.8a3.51,3.51,0,0,1,1.29.5,1.16,1.16,0,0,1,.46,1,1.4,1.4,0,0,1-.19.69,1.39,1.39,0,0,1-.51.51,4.29,4.29,0,0,1-2.31.45,15.8,15.8,0,0,1-4.22-.58,16.27,16.27,0,0,1-3.75-1.51l-1.79,5a14.23,14.23,0,0,0,4.25,1.7,22.89,22.89,0,0,0,5.47.61,11.82,11.82,0,0,0,7.21-2,6.2,6.2,0,0,0,2-2.38,6.35,6.35,0,0,0,.66-3.08A5.33,5.33,0,0,0,469.35,80.46Z"/><path class="cls-1" d="M0,0V63.47A34.31,34.31,0,0,0,34.26,97.73H97.73V43.82H70.67V70.66H40.16a13.11,13.11,0,0,1-13.1-13.1V27.06H70.67v6.65h8.62V18.44H18.44V57.55A21.77,21.77,0,0,0,40.16,79.28H79.27V53.91h8.4V87.68H34.26A24.19,24.19,0,0,1,10,63.47V10H87.68V33.73h10V0H0Z"/><path class="cls-2" d="M49.36,28.7a12.34,12.34,0,0,0,1,3.43,2.81,2.81,0,0,1,.35,1.23,2.86,2.86,0,0,1-.2,1.26h0a1.63,1.63,0,0,0,.53-.89,5.36,5.36,0,0,1,0,2.92,1.92,1.92,0,0,0,.66-.86,6.14,6.14,0,0,1-.06,3.32,2.22,2.22,0,0,0,.68-.81,5.2,5.2,0,0,1-.42,3,2.51,2.51,0,0,0,.71-.59A9.86,9.86,0,0,1,52.21,44a1.43,1.43,0,0,0,.67-.68,8.61,8.61,0,0,1-.87,3.4A4.26,4.26,0,0,0,53,46a7.26,7.26,0,0,1-1.19,3.13,2.22,2.22,0,0,0,1.09-.37,7.29,7.29,0,0,1-1.54,3.51,2.24,2.24,0,0,0,.91-.49l-.24.42a2.5,2.5,0,0,0,.42,1,6.77,6.77,0,0,1,1.3-3.36,2.11,2.11,0,0,0,.48,1A6.83,6.83,0,0,1,55.48,48a4,4,0,0,0,.15,1.13,8.08,8.08,0,0,1,1.67-2.84,1.39,1.39,0,0,0,0,.9,8.76,8.76,0,0,1,2-2.5,2.13,2.13,0,0,0,.07.87A5,5,0,0,1,61,43.24a2,2,0,0,0-.07.95,5.71,5.71,0,0,1,2.18-2.25A1.76,1.76,0,0,0,63,43,5,5,0,0,1,65,41a1.52,1.52,0,0,0-.24.95v0a3,3,0,0,1,.71-1,2.91,2.91,0,0,1,1-.62,8.87,8.87,0,0,0,3-1.58,11.42,11.42,0,0,0-1.59,3,2.65,2.65,0,0,1-.58,1.05,2.8,2.8,0,0,1-1,.7h0a1.49,1.49,0,0,0,.94-.24,5,5,0,0,1-1.93,2,1.83,1.83,0,0,0,1-.14,5.65,5.65,0,0,1-2.24,2.18,2,2,0,0,0,1-.07,4.79,4.79,0,0,1-2.31,1.7,2.32,2.32,0,0,0,.87.08,9.21,9.21,0,0,1-2.51,1.92,1.36,1.36,0,0,0,.89,0,8,8,0,0,1-2.83,1.67,3.34,3.34,0,0,0,1.13.14A6.85,6.85,0,0,1,57.41,54a2.1,2.1,0,0,0,1,.47A6.78,6.78,0,0,1,55,55.82a2,2,0,0,0,.93.28s-4.58,1.15-6.61,2.79h0c-2-1.64-6.61-2.8-6.61-2.8a1.91,1.91,0,0,0,.93-.28,6.83,6.83,0,0,1-3.36-1.31,2.1,2.1,0,0,0,1-.47,6.76,6.76,0,0,1-2.87-1.3,3.83,3.83,0,0,0,1.12-.14,8,8,0,0,1-2.84-1.68,1.27,1.27,0,0,0,.9,0A8.83,8.83,0,0,1,35.07,49a2,2,0,0,0,.87-.08,4.79,4.79,0,0,1-2.27-1.7,2,2,0,0,0,.95.07,5.65,5.65,0,0,1-2.24-2.18,1.8,1.8,0,0,0,1,.14,5.09,5.09,0,0,1-1.93-2,1.51,1.51,0,0,0,.95.24h0a2.84,2.84,0,0,1-1-.7,2.65,2.65,0,0,1-.58-1.05,11.42,11.42,0,0,0-1.59-3,9,9,0,0,0,3,1.58,3,3,0,0,1,1,.61A3.12,3.12,0,0,1,34,42v0a1.6,1.6,0,0,0-.25-.95A5,5,0,0,1,35.73,43a1.76,1.76,0,0,0-.13-1,5.71,5.71,0,0,1,2.18,2.25,2.18,2.18,0,0,0-.07-.95,4.86,4.86,0,0,1,1.7,2.27,2.14,2.14,0,0,0,.08-.87,9,9,0,0,1,1.88,2.49,1.39,1.39,0,0,0,0-.9A7.83,7.83,0,0,1,43,49.07a3.62,3.62,0,0,0,.15-1.13,6.87,6.87,0,0,1,1.3,2.9,2.13,2.13,0,0,0,.47-1,6.85,6.85,0,0,1,1.31,3.37,2.78,2.78,0,0,0,.38-.82c-.22-.38-.36-.6-.36-.6a2.67,2.67,0,0,0,1.11.47,7.29,7.29,0,0,1-1.54-3.51,2.21,2.21,0,0,0,1.06.37A7.13,7.13,0,0,1,45.73,46a4.26,4.26,0,0,0,1,.74,8.61,8.61,0,0,1-.87-3.4,1.43,1.43,0,0,0,.67.68A9.61,9.61,0,0,1,46,40.7a2.26,2.26,0,0,0,.71.59,5.12,5.12,0,0,1-.39-3,2.14,2.14,0,0,0,.66.77A6,6,0,0,1,47,35.74a1.82,1.82,0,0,0,.66.86,5.33,5.33,0,0,1,0-2.91,1.61,1.61,0,0,0,.53.89h0A3.17,3.17,0,0,1,48,33.32a3.1,3.1,0,0,1,.34-1.23A9.52,9.52,0,0,0,49.36,28.7Zm-2.52,24c.33,1.3,1.25,4.52,2.5,6.15l0,0A21.21,21.21,0,0,0,46.84,52.74ZM52,52.26c-.66,1.2-2.36,4.4-2.59,6.6C50.79,57,51.79,53,52,52.26Zm14.11,7.29a7.46,7.46,0,0,1,2.11-.64,5.78,5.78,0,0,1-2.11-.66,1.87,1.87,0,0,0-.77-.2,1.94,1.94,0,0,0-.79.11,1.15,1.15,0,0,1,.56-.33,3.28,3.28,0,0,0-1.81,0,1.14,1.14,0,0,1,.53-.41,3.87,3.87,0,0,0-2.08,0,1.46,1.46,0,0,1,.48-.41,3.14,3.14,0,0,0-1.86.27,1.36,1.36,0,0,1,.37-.45,6.12,6.12,0,0,0-2.08.28,1,1,0,0,1,.42-.42,5.34,5.34,0,0,0-2.11.53,2.4,2.4,0,0,1,.46-.59,4.51,4.51,0,0,0-2,.74,1.36,1.36,0,0,1,.24-.68,4.52,4.52,0,0,0-2.19,1,1.62,1.62,0,0,1,.29-.69,15.93,15.93,0,0,1-4.31,1.9l-.06,0,0,0h0A7.49,7.49,0,0,1,50.31,61a.67.67,0,0,1,.1-.31,2.27,2.27,0,0,0,.43,1.11.65.65,0,0,1,.16-.32,2.17,2.17,0,0,0,.42.94,1.64,1.64,0,0,1,0-.37A2.66,2.66,0,0,0,52,63a.48.48,0,0,1,0-.29,3.2,3.2,0,0,0,.63.83.71.71,0,0,1,0-.29,1.67,1.67,0,0,0,.56.75.81.81,0,0,1,0-.31,2,2,0,0,0,.72.74.57.57,0,0,1,0-.34,1.64,1.64,0,0,0,.64.64.5.5,0,0,1-.08-.31,1,1,0,0,0,.22.33A.92.92,0,0,0,55,65a3.8,3.8,0,0,1,1,.53,3.24,3.24,0,0,1-.46-1,.94.94,0,0,0-.2-.35,1,1,0,0,0-.33-.23.48.48,0,0,1,.31.08,1.55,1.55,0,0,0-.63-.64.53.53,0,0,1,.33,0,1.9,1.9,0,0,0-.74-.72.81.81,0,0,1,.31,0,1.59,1.59,0,0,0-.74-.56.66.66,0,0,1,.28,0,3,3,0,0,0-.82-.63.48.48,0,0,1,.29,0,2.62,2.62,0,0,0-.93-.53,1.5,1.5,0,0,1,.37,0,2.33,2.33,0,0,0-1-.42.74.74,0,0,1,.32-.16,2.2,2.2,0,0,0-1.1-.43.79.79,0,0,1,.34-.14,7.62,7.62,0,0,1-2.11-.81,16.31,16.31,0,0,1,4.28,1.77,1.23,1.23,0,0,1-.31-.57,4.53,4.53,0,0,0,2.19,1,1.43,1.43,0,0,1-.24-.68,4.64,4.64,0,0,0,2,.74,2.66,2.66,0,0,1-.46-.6,5.34,5.34,0,0,0,2.11.53.9.9,0,0,1-.42-.42,5.88,5.88,0,0,0,2.08.28,1.43,1.43,0,0,1-.37-.44,3.22,3.22,0,0,0,1.86.26,1.46,1.46,0,0,1-.48-.41,3.77,3.77,0,0,0,2.08,0,1.08,1.08,0,0,1-.53-.41,3.28,3.28,0,0,0,1.81,0,1.08,1.08,0,0,1-.56-.33,1.78,1.78,0,0,0,.79.13A1.9,1.9,0,0,0,66.06,59.55Zm-22.78,5a3.52,3.52,0,0,1-.53,1,3.08,3.08,0,0,1,1-.48.9.9,0,0,0,.34-.2,1,1,0,0,0,.24-.33.53.53,0,0,1-.08.32,1.71,1.71,0,0,0,.64-.64.54.54,0,0,1,0,.33,1.77,1.77,0,0,0,.72-.74.58.58,0,0,1,0,.32,1.63,1.63,0,0,0,.57-.75.93.93,0,0,1,0,.29,3,3,0,0,0,.63-.83.37.37,0,0,1,0,.29,2.53,2.53,0,0,0,.53-.93,1.18,1.18,0,0,1,0,.37,2.37,2.37,0,0,0,.43-.94.64.64,0,0,1,.15.31,2.2,2.2,0,0,0,.43-1.1.85.85,0,0,1,.14.34,8,8,0,0,1,.87-2.21h0A15.41,15.41,0,0,1,45,57.13a1.43,1.43,0,0,1,.3.57,4.52,4.52,0,0,0-2.19-1,1.39,1.39,0,0,1,.24.68,4.51,4.51,0,0,0-2-.74,2.4,2.4,0,0,1,.46.59,5.17,5.17,0,0,0-2.11-.52.84.84,0,0,1,.42.41,6.06,6.06,0,0,0-2.07-.28,1.78,1.78,0,0,1,.37.45,3.25,3.25,0,0,0-1.87-.27,1.3,1.3,0,0,1,.48.42,3.74,3.74,0,0,0-2.07,0,1.19,1.19,0,0,1,.52.42,3.1,3.1,0,0,0-1.81,0s.42.09.55.32a1.75,1.75,0,0,0-.78-.12,1.88,1.88,0,0,0-.77.21,7.25,7.25,0,0,1-2.14.64,6.13,6.13,0,0,1,2.14.66,2.05,2.05,0,0,0,.77.21,2.09,2.09,0,0,0,.78-.12c-.13.24-.55.33-.55.33a3.28,3.28,0,0,0,1.81,0,1.1,1.1,0,0,1-.52.41,3.65,3.65,0,0,0,2.07,0,1.27,1.27,0,0,1-.48.41,3.24,3.24,0,0,0,1.87-.26,1.58,1.58,0,0,1-.37.44,5.82,5.82,0,0,0,2.07-.28.82.82,0,0,1-.42.42,5.34,5.34,0,0,0,2.11-.53,2.46,2.46,0,0,1-.46.6,4.51,4.51,0,0,0,2-.74,1.43,1.43,0,0,1-.24.68,4.53,4.53,0,0,0,2.19-1,1.66,1.66,0,0,1-.29.7,15.44,15.44,0,0,1,4.37-1.91,7.48,7.48,0,0,1-2.14.9.65.65,0,0,1,.3.09,2.2,2.2,0,0,0-1.1.43.65.65,0,0,1,.32.16,2.33,2.33,0,0,0-.95.42,1.5,1.5,0,0,1,.37,0,2.62,2.62,0,0,0-.93.53.37.37,0,0,1,.29,0,2.81,2.81,0,0,0-.82.63.66.66,0,0,1,.28,0,1.59,1.59,0,0,0-.74.56.81.81,0,0,1,.31,0,1.9,1.9,0,0,0-.74.72.53.53,0,0,1,.33,0,1.55,1.55,0,0,0-.63.64.48.48,0,0,1,.31-.08.86.86,0,0,0-.33.23A.94.94,0,0,0,43.28,64.52Z"/></g></g></svg>