<svg width="162" height="149" viewBox="0 0 162 149" fill="none" xmlns="http://www.w3.org/2000/svg">
<path d="M81.0608 0.775391C81.7538 5.53657 83.1391 10.1709 85.1728 14.5313C85.9942 16.0516 86.4714 17.7339 86.5702 19.4591C86.6691 21.1843 86.3874 22.9102 85.745 24.5144H85.8722C86.9606 23.592 87.7071 22.3303 87.9918 20.9323C89.0895 24.7551 89.0895 28.8095 87.9918 32.6323C89.2043 31.7754 90.1282 30.5707 90.6412 29.1774C92.7608 35.0062 90.4292 42.5306 90.4292 42.5306C91.5795 41.673 92.5094 40.5542 93.1423 39.2665C93.787 43.345 93.1965 47.5231 91.4466 51.2631C92.5409 50.6672 93.5062 49.8604 94.2868 48.8892C94.4833 53.4119 93.8732 57.9335 92.4852 62.2424C93.6822 61.6844 94.6379 60.7137 95.177 59.5082C95.5162 65.3793 91.701 73.1369 91.701 73.1369C93.1109 72.3395 94.3963 71.3398 95.5162 70.1695C94.9247 74.6728 93.2918 78.9763 90.7472 82.7385C92.3071 82.6331 93.8123 82.1216 95.1135 81.2548C94.6048 88.5036 88.9244 95.3286 88.9244 95.3286C90.2839 94.9833 91.5366 94.306 92.57 93.3574C92.57 93.3574 82.2478 110.695 81.0608 121.738C79.5347 110.759 68.7674 93.4422 68.7674 93.4422C70.0904 94.3977 71.6118 95.0425 73.2185 95.3286C73.2185 95.3286 67.5381 88.5036 67.0294 81.2548C68.2911 82.1061 69.7513 82.6172 71.2685 82.7385C68.7239 78.9763 67.091 74.6728 66.4995 70.1695C67.6295 71.3374 68.9215 72.3367 70.3359 73.1369C70.3359 73.1369 66.4995 65.3793 66.8386 59.5082C67.3856 60.7084 68.339 61.6767 69.5305 62.2424C68.1411 57.9341 67.5381 53.411 67.75 48.8892C68.5307 49.8604 69.496 50.6672 70.5902 51.2631C68.8908 47.5077 68.352 43.3302 69.043 39.2665C69.6744 40.4893 70.5814 41.5487 71.6924 42.361C71.6924 42.361 69.3397 34.8366 71.5017 29.0078C72.0114 30.397 72.9271 31.6008 74.1299 32.4627C73.0322 28.64 73.0322 24.5855 74.1299 20.7628C74.4252 22.1566 75.1698 23.415 76.2494 24.3448H76.3766C75.7846 22.7292 75.5318 21.009 75.6339 19.2915C75.736 17.5739 76.1909 15.8958 76.9701 14.3617C79.1712 10.1286 80.5588 5.52012 81.0608 0.775391Z" fill="#004400"/>
<path d="M161.562 41.3857C158.871 45.0087 156.728 49.0081 155.203 53.2552C154.746 54.8144 153.95 56.2534 152.873 57.4698C151.796 58.6862 150.464 59.6499 148.971 60.2921H149.099C150.431 60.3802 151.756 60.0304 152.871 59.296C151.077 62.5767 148.396 65.2869 145.135 67.1171C146.509 67.3457 147.92 67.1536 149.183 66.566C146.767 71.8861 140.175 75.3198 140.175 75.3198C141.451 75.5198 142.756 75.4255 143.99 75.0442C141.667 78.1925 138.445 80.5642 134.749 81.848C135.867 82.191 137.043 82.2992 138.204 82.1659C135.339 85.316 131.928 87.9225 128.136 89.8599C129.298 90.2937 130.578 90.2937 131.739 89.8599C128.073 93.9718 120.379 96.5789 120.379 96.5789C121.845 97.0007 123.368 97.1937 124.893 97.1512C121.506 99.7602 117.559 101.545 113.363 102.365C114.472 103.318 115.808 103.968 117.242 104.252C112.07 108.745 103.761 109.508 103.761 109.508C104.899 110.188 106.189 110.574 107.513 110.632C107.513 110.632 89.1153 115.273 80.9762 121.844C87.3349 113.535 91.574 94.862 91.574 94.862C91.8214 96.3859 92.4081 97.8346 93.2908 99.1012C93.2908 99.1012 94.0326 90.7925 98.5261 85.6208C98.8127 87.0643 99.4701 88.4084 100.434 89.5208C101.239 85.3176 103.017 81.3615 105.627 77.9692C105.597 79.5009 105.79 81.0286 106.199 82.5051C106.199 82.5051 108.806 74.7899 112.918 71.1231C112.497 72.2873 112.497 73.5621 112.918 74.7263C114.897 70.9448 117.539 67.5491 120.718 64.7008C120.595 65.8691 120.703 67.0502 121.036 68.1769C122.361 64.526 124.745 61.353 127.882 59.0628C127.493 60.2953 127.392 61.6003 127.585 62.878C127.585 62.878 131.04 56.3074 136.339 53.8699C135.756 55.1344 135.571 56.5463 135.809 57.9183C137.634 54.6608 140.337 51.9806 143.609 50.1819C142.874 51.3045 142.532 52.6383 142.634 53.9759C142.634 53.9759 142.634 53.9759 142.634 54.1031C143.308 52.6171 144.28 51.2857 145.491 50.1918C146.702 49.0978 148.124 48.2648 149.671 47.7444C154.002 46.3991 158.038 44.2411 161.562 41.3857Z" fill="#004400"/>
<path d="M156.517 121.929C153.578 122.355 150.72 123.219 148.038 124.493C147.089 125.004 146.039 125.301 144.963 125.363C143.886 125.425 142.809 125.251 141.807 124.854C142.393 125.525 143.182 125.986 144.054 126.168C141.672 126.859 139.144 126.859 136.762 126.168C137.287 126.919 138.025 127.496 138.882 127.821C136.155 128.556 133.277 128.512 130.573 127.694C131.076 128.383 131.728 128.948 132.481 129.347C129.944 129.745 127.346 129.376 125.02 128.287C125.389 128.975 125.893 129.581 126.504 130.068C123.683 130.189 120.862 129.808 118.174 128.944C118.524 129.685 119.125 130.278 119.87 130.619C116.927 130.509 114.04 129.787 111.391 128.499C111.883 129.385 112.505 130.192 113.235 130.894C110.427 130.527 107.742 129.511 105.393 127.927C105.456 128.898 105.778 129.835 106.326 130.64C103.107 130.167 100.075 128.834 97.5507 126.782C97.765 127.635 98.1874 128.422 98.7801 129.072C98.7801 129.072 87.9703 122.713 81.0818 121.886C87.9279 120.932 98.7165 114.213 98.7165 114.213C98.1272 115.041 97.7291 115.99 97.5507 116.99C100.075 114.938 103.107 113.605 106.326 113.133C105.778 113.937 105.456 114.874 105.393 115.846C107.742 114.262 110.427 113.246 113.235 112.878C112.505 113.58 111.883 114.388 111.391 115.273C114.04 113.985 116.927 113.264 119.87 113.154C119.125 113.495 118.524 114.088 118.174 114.828C120.862 113.964 123.683 113.584 126.504 113.705C125.893 114.191 125.389 114.797 125.02 115.485C127.346 114.396 129.944 114.027 132.481 114.425C131.728 114.825 131.076 115.39 130.573 116.079C133.277 115.261 136.155 115.217 138.882 115.952C138.025 116.277 137.287 116.853 136.762 117.605C139.144 116.914 141.672 116.914 144.054 117.605C143.182 117.787 142.393 118.248 141.807 118.919C142.816 118.553 143.888 118.396 144.96 118.458C146.031 118.52 147.079 118.799 148.038 119.279C150.671 120.692 153.548 121.591 156.517 121.929Z" fill="#004400"/>
<path d="M107.556 148.318C106.364 147.429 105.05 146.715 103.656 146.198C103.137 146.04 102.66 145.768 102.26 145.401C101.86 145.034 101.548 144.582 101.346 144.079C101.326 144.521 101.444 144.958 101.685 145.329C100.601 144.742 99.7044 143.86 99.0991 142.786C99.028 143.238 99.0868 143.701 99.2686 144.121C98.0558 143.419 97.0644 142.391 96.4073 141.154C96.3058 141.564 96.3058 141.993 96.4073 142.404C95.3758 141.656 94.593 140.614 94.1605 139.416C94.0811 139.793 94.0811 140.183 94.1605 140.56C93.1239 139.614 92.2691 138.486 91.6383 137.232C91.4953 137.615 91.4953 138.037 91.6383 138.419C90.6848 137.333 89.9635 136.064 89.5187 134.689C89.3954 135.174 89.3384 135.673 89.3492 136.173C88.4857 135.061 87.8974 133.761 87.6323 132.379C87.3175 132.743 87.0989 133.18 86.9965 133.65C86.0417 132.352 85.4492 130.823 85.2796 129.221C85.0533 129.593 84.9223 130.015 84.8981 130.45C84.1474 127.359 82.9021 124.41 81.2101 121.717C83.9694 123.34 86.9661 124.52 90.091 125.215C89.5933 125.295 89.1214 125.491 88.7133 125.787C90.3187 125.945 91.8504 126.539 93.1431 127.504C92.6689 127.595 92.2289 127.815 91.8714 128.14C93.2505 128.403 94.5494 128.983 95.6654 129.835C95.1642 129.826 94.6643 129.89 94.1817 130.026C95.5618 130.474 96.8377 131.194 97.9333 132.145C97.5491 132.011 97.1307 132.011 96.7464 132.145C97.9908 132.79 99.1104 133.652 100.053 134.689C99.6755 134.609 99.2857 134.609 98.9083 134.689C100.107 135.121 101.148 135.904 101.897 136.936C101.486 136.84 101.058 136.84 100.646 136.936C101.883 137.604 102.91 138.602 103.614 139.818C103.199 139.618 102.73 139.559 102.278 139.649C103.356 140.24 104.24 141.131 104.822 142.213C104.448 141.98 104.011 141.869 103.571 141.895C104.067 142.11 104.513 142.426 104.878 142.824C105.243 143.222 105.52 143.693 105.691 144.206C106.057 145.679 106.689 147.072 107.556 148.318Z" fill="#004400"/>
<path d="M54.5667 148.317C55.4712 147.135 56.1862 145.819 56.6862 144.417C56.8467 143.897 57.1198 143.418 57.4861 143.015C57.8524 142.612 58.303 142.295 58.8058 142.086C58.366 142.059 57.9289 142.17 57.5552 142.404C58.1477 141.329 59.0286 140.441 60.0987 139.839C59.6538 139.754 59.1932 139.813 58.7846 140.009C59.4765 138.79 60.4975 137.791 61.7307 137.126C61.3192 137.032 60.8917 137.032 60.4802 137.126C61.2287 136.095 62.2699 135.312 63.4688 134.879C63.0985 134.8 62.7156 134.8 62.3454 134.879C63.2834 133.837 64.404 132.975 65.6519 132.336C65.2679 132.2 64.849 132.2 64.465 132.336C65.5571 131.38 66.8341 130.659 68.2166 130.216C67.7269 130.08 67.2199 130.016 66.7117 130.026C67.8366 129.175 69.142 128.595 70.5269 128.33C70.1599 128.007 69.7137 127.788 69.2339 127.694C70.5267 126.729 72.0584 126.136 73.6638 125.977C73.2927 125.749 72.8699 125.617 72.4345 125.596C75.5251 124.845 78.474 123.6 81.167 121.908C79.5539 124.672 78.3744 127.667 77.6698 130.789C77.5914 130.294 77.4031 129.823 77.1187 129.411C76.9479 131.017 76.3475 132.547 75.3807 133.841C75.2917 133.37 75.0796 132.931 74.766 132.569C74.4905 133.948 73.9033 135.246 73.0491 136.363C73.0597 135.862 72.9954 135.362 72.8584 134.879C72.4181 136.256 71.6963 137.527 70.7388 138.61C70.8818 138.227 70.8818 137.806 70.7388 137.423C70.0998 138.671 69.246 139.798 68.2166 140.751C68.2492 140.366 68.2133 139.978 68.1106 139.606C67.6724 140.808 66.882 141.849 65.8427 142.595C65.937 142.183 65.937 141.756 65.8427 141.344C65.1743 142.58 64.1766 143.607 62.9601 144.311C63.1602 143.897 63.2197 143.428 63.1297 142.976C62.5283 144.046 61.64 144.927 60.565 145.52C60.8114 145.152 60.9236 144.71 60.8829 144.269C60.6643 144.762 60.3463 145.205 59.9488 145.57C59.5513 145.934 59.0828 146.213 58.5726 146.389C57.1291 146.777 55.7706 147.431 54.5667 148.317Z" fill="#004400"/>
<path d="M5.60583 121.929C8.57957 121.509 11.4733 120.644 14.19 119.364C15.136 118.854 16.1822 118.557 17.2552 118.495C18.3281 118.433 19.4017 118.607 20.4003 119.004C19.8704 118.071 18.1748 117.69 18.1748 117.69C20.5564 117.001 23.0844 117.001 25.466 117.69C24.9371 116.943 24.2 116.368 23.3465 116.036C26.0807 115.302 28.9657 115.346 31.6763 116.164C31.1686 115.472 30.5087 114.906 29.7475 114.51C32.2915 114.115 34.8956 114.483 37.2295 115.57C36.8537 114.887 36.3499 114.283 35.7458 113.79C38.5669 113.671 41.3868 114.051 44.0757 114.913C43.7202 114.169 43.1117 113.576 42.3589 113.239C45.3015 113.349 48.1889 114.07 50.8371 115.358C50.3408 114.47 49.7118 113.662 48.9719 112.963C51.788 113.328 54.4804 114.344 56.8354 115.931C56.7618 114.961 56.4407 114.027 55.9028 113.217C59.1198 113.696 62.1498 115.029 64.6777 117.075C64.454 116.226 64.0328 115.442 63.4484 114.786C63.4484 114.786 74.2369 121.145 81.1255 121.971C74.2793 122.925 63.4908 129.644 63.4908 129.644C64.0914 128.82 64.4972 127.871 64.6777 126.867C62.1498 128.914 59.1198 130.246 55.9028 130.725C56.4407 129.915 56.7618 128.981 56.8354 128.012C54.4804 129.599 51.788 130.615 48.9719 130.979C49.7118 130.28 50.3408 129.473 50.8371 128.584C48.1889 129.872 45.3015 130.594 42.3589 130.704C43.1117 130.367 43.7202 129.773 44.0757 129.029C41.3868 129.891 38.5669 130.271 35.7458 130.153C36.3499 129.66 36.8537 129.055 37.2295 128.372C34.8956 129.459 32.2915 129.828 29.7475 129.432C30.5087 129.036 31.1686 128.47 31.6763 127.779C28.9657 128.596 26.0807 128.64 23.3465 127.906C24.2 127.575 24.9371 127 25.466 126.253C23.0844 126.942 20.5564 126.942 18.1748 126.253C18.1748 126.253 19.8704 125.871 20.4003 124.939C19.3953 125.305 18.3259 125.463 17.2579 125.401C16.1899 125.339 15.1458 125.059 14.19 124.578C11.5188 123.168 8.60738 122.269 5.60583 121.929Z" fill="#004400"/>
<path d="M0.561523 41.3857C3.25215 45.0087 5.39468 49.0081 6.92018 53.2552C7.3835 54.8145 8.18367 56.2529 9.26412 57.4689C10.3446 58.6849 11.6789 59.6486 13.1729 60.2921H13.0457C11.7066 60.3787 10.3755 60.0292 9.25167 59.296C11.0463 62.5767 13.7271 65.2869 16.9881 67.1171C15.6208 67.344 14.2169 67.1519 12.9609 66.566C15.3772 71.8861 21.969 75.3198 21.969 75.3198C20.6857 75.5171 19.3745 75.4229 18.1326 75.0442C20.4193 78.1799 23.5942 80.5573 27.2467 81.8692C26.1226 82.2151 24.9388 82.3234 23.7706 82.1871C26.6405 85.332 30.0503 87.9378 33.8385 89.8811C32.6762 90.313 31.3975 90.313 30.2353 89.8811C33.9021 93.993 41.6172 96.6001 41.6172 96.6001C40.1503 97.0199 38.6278 97.2129 37.1026 97.1724C40.4866 99.7861 44.4354 101.572 48.6329 102.386C47.5183 103.342 46.1744 103.992 44.733 104.273C49.9047 108.766 58.2133 109.529 58.2133 109.529C57.0827 110.208 55.8005 110.594 54.4829 110.653C54.4829 110.653 72.8806 115.295 80.9985 121.865C74.6399 113.556 70.4008 94.8832 70.4008 94.8832C70.1534 96.4071 69.5666 97.8558 68.6839 99.1223C68.6839 99.1223 67.9209 90.8137 63.4486 85.642C63.162 87.0855 62.5046 88.4296 61.541 89.542C60.7315 85.3105 58.9461 81.3262 56.3269 77.9056C56.3559 79.4387 56.1559 80.9675 55.7335 82.4415C55.7335 82.4415 53.1476 74.7263 49.0145 71.0595C49.4483 72.2214 49.4483 73.5008 49.0145 74.6627C47.1114 70.9256 44.5643 67.5533 41.4901 64.7008C41.6263 65.869 41.5181 67.0528 41.1721 68.1769C39.8603 64.5244 37.4828 61.3495 34.3472 59.0628C34.7248 60.2976 34.819 61.6017 34.6227 62.878C34.6227 62.878 31.189 56.3074 25.8902 53.8699C26.4731 55.1344 26.6579 56.5463 26.4201 57.9183C24.5898 54.6573 21.8796 51.9765 18.5989 50.1819C19.3321 51.3057 19.6816 52.6368 19.5951 53.9759C19.5951 53.9759 19.5951 53.9759 19.5951 54.1031C18.9278 52.6164 17.9601 51.2839 16.7526 50.1896C15.5452 49.0952 14.1243 48.2627 12.5794 47.7444C8.20501 46.4096 4.12594 44.2513 0.561523 41.3857Z" fill="#004400"/>
</svg>
